<svg width="458" height="315" viewBox="0 0 458 315" fill="none" xmlns="http://www.w3.org/2000/svg">
<g clip-path="url(#clip0_383_3183)">
<path fill-rule="evenodd" clip-rule="evenodd" d="M76.3915 211.849C76.3915 211.849 72.1963 209.861 70.0669 209.072C65.4882 207.378 59.5862 203.097 56.3306 201.113C54.5828 200.049 50.5559 198.987 47.1608 198.512C45.5566 198.287 44.5165 198.523 42.7133 198.473C40.0239 198.4 36.7088 198.118 35.9354 198.186C35.1702 198.254 25.2127 195.397 25.2127 195.397C25.2127 195.397 22.8946 194.462 20.6811 193.983C18.923 193.603 17.2901 193.616 16.529 193.881C15.3166 194.3 15.5566 195.814 15.5566 195.814L11.1727 195.785C11.1727 195.785 5.28927 194.955 2.99783 195.039C1.29105 195.101 0.17713 196.871 0.374067 197.149C0.692037 197.594 0.550489 198.046 2.7291 198.843C6.33344 200.162 11.6035 201.146 16.7239 202.567C21.9776 204.028 27.0446 205.917 27.7359 206.16C31.0695 207.337 37.4042 210.82 39.1562 211.256C40.9101 211.691 45.4315 213.665 45.4315 213.665C59.1513 217.506 70.4649 224.541 70.4649 224.541C70.4649 224.541 71.7963 223.97 73.5031 221.491C74.3277 220.293 75.4191 217.88 75.932 215.781C76.4571 213.657 76.3915 211.849 76.3915 211.849Z" fill="#FFEDDE"/>
<path fill-rule="evenodd" clip-rule="evenodd" d="M385.715 202.555C385.715 202.555 385.133 206.926 385.475 210.107C385.82 213.326 387.092 215.362 387.457 216.83C387.549 217.202 387.902 217.769 387.902 217.769C387.902 217.769 391.822 215.259 391.832 215.253C394.097 214.119 395.911 213.379 398.188 212.27C403.017 209.914 407.516 208.709 412.394 207.152C417.293 205.589 424.427 201.77 429.474 199.987C434.869 198.081 440.545 195.91 445.463 194.71C450.382 193.509 455.314 192.418 456.762 191.642C456.852 191.595 457.548 189.857 456.76 189.185C456.222 188.727 454.436 188.144 452.518 188.257C449.801 188.421 446.829 189.436 446.829 189.436L442.34 189.183C442.34 189.183 442.861 187.16 440.582 187.055C438.303 186.95 433.224 188.764 433.224 188.764C433.224 188.764 427.58 190.705 421.759 191.699C417.362 192.449 411.945 191.609 407.152 192.638C401.927 193.759 397.365 196.808 393.648 199.135C391.373 200.562 385.715 202.555 385.715 202.555Z" fill="#FFEDDE"/>
<path fill-rule="evenodd" clip-rule="evenodd" d="M222.199 165.716C222.199 165.716 219.807 167.595 216.535 158.585C214.149 152.016 204.136 129.245 204.136 129.245C204.136 129.245 204.834 126.838 204.701 123.299C204.491 117.765 203.917 113.061 203.917 113.061C203.917 113.061 201.09 108.275 199.597 103.931C198.829 101.705 197.988 98.5025 197.988 98.5025C197.988 98.5025 195.289 99.1947 194.111 96.1157C193.116 93.5133 191.736 91.525 192.129 88.1728C192.398 85.8805 195.853 85.6197 195.853 85.6197C195.853 85.6197 194.973 72.0118 195.461 70.7506C197.24 66.1722 198.983 65.7717 202.425 61.9389C210.408 53.0594 227.988 51.3956 238.227 57.8021C245.029 62.0601 245.967 72.7389 248.554 79.4022C249.013 80.5853 252.277 84.8001 252.277 84.8001C252.277 84.8001 254.082 86.1024 254.827 88.5261C255.74 91.4983 253.9 96.2923 251.143 98.6175C248.87 100.534 246.634 98.9564 245.538 100.752C244.24 102.882 243.92 106.786 243.52 111.153C243.052 116.257 242.623 121.727 242.623 121.727C242.623 121.727 231.299 145.192 226.411 157.707C225.303 160.53 222.199 165.716 222.199 165.716Z" fill="#FFEDDE"/>
<path fill-rule="evenodd" clip-rule="evenodd" d="M399.188 212.414L396.338 213.501C396.338 213.501 394.392 218.358 393.69 218.876C391.161 220.743 385.936 223.415 382.674 221.634C378.409 219.305 379.232 212.831 379.232 208.768C379.232 208.226 383.176 202.212 381.876 202.212C380.532 202.212 375.34 204.868 374.183 205.319C371.814 206.248 370.312 207.359 367.936 208.269C365.69 209.128 363.317 210.436 360.997 211.276C356.629 212.854 351.369 213.638 346.872 214.281C343.356 214.784 336.016 217.539 336.016 217.539C336.016 217.539 336.283 211.825 334.843 205.835C333.403 199.848 326.252 190.284 324.859 187.08C323.468 183.875 321.123 180.106 318.549 173.283C314.618 162.863 312.669 155.565 308.031 145.408C303.532 135.553 299.228 128.694 289.568 124.59C287.831 123.853 283.219 122.6 278 122.241C272.909 121.891 267.216 122.423 264.865 122.481C259.847 122.6 254.171 120.548 254.171 120.548C254.171 120.548 246.363 116.863 244.978 120.072C242.205 126.49 238.851 132.652 236.258 139.143C234.108 144.523 232.518 148.871 230.454 154.275C229.08 157.874 226.754 160.659 225.35 164.251C225.311 164.35 222.995 171.147 222.995 171.147C222.995 171.147 219.988 164.921 219.049 163.04C217.329 159.599 215.257 150.941 213.584 147.48C208.654 137.28 206.348 134.969 203.058 124.141C202.009 120.696 203.205 117.276 203.205 117.276C203.205 117.276 199.872 117.225 197.431 119.03C194.224 121.405 194.036 122.925 191.133 124.03C185.928 126.014 167.769 125.264 162.419 127.02C156.968 128.809 153.122 130.177 147.442 137.843C142.711 144.227 136.309 161.121 134.183 170.438C131.886 180.509 130.122 186.837 127.284 196.781C125.754 202.142 121.067 208.037 119.304 213.328C118.693 215.162 119.54 222.516 119.54 222.516C119.54 222.516 108.214 219.975 105.037 219.646C99.4548 219.069 91.4851 215.53 88.2356 213.593C84.9882 211.656 79.8412 210.736 79.8412 210.736C79.8412 210.736 80.8833 215.748 80.8464 216.571C80.6556 220.953 74.9117 232.377 74.9117 232.377C74.9117 232.377 68.1338 229.253 64.5992 228.072C63.6494 227.753 59.2039 221.452 59.2039 221.452C59.2039 221.452 58.8716 227.558 59.1506 231.266C59.4296 234.973 64.234 238.081 69.8057 240.174C72.2817 241.102 77.1846 243.216 79.6935 244.027C85.815 246.012 91.481 248.499 97.6188 250.487C103.539 252.406 104.813 252.977 110.707 254.918C114.635 256.214 124.242 259.624 126.076 259.451C127.91 259.276 132.87 259.213 134.085 258.952C136.932 258.342 141.794 255.828 143.585 253.971C148.554 248.824 156.117 231.116 156.117 231.116C156.117 231.116 156.131 248.37 156.023 253.192C155.631 270.428 152.937 308.374 152.937 308.374C152.937 308.374 152.849 311.323 152.718 315.004H291.829C291.767 308.542 291.656 300.585 291.589 292.297C291.47 278.038 291.974 262.943 291.972 250.6C291.968 237.596 291.468 227.704 291.794 227.378C291.794 227.378 301.029 243.249 302.806 245.089C309.709 252.25 317.166 259.739 328.114 258.712C339.395 257.652 347.035 253.579 357.263 249.006C367.169 244.578 376.95 239.4 381.381 237.038C385.813 234.675 392.059 232.492 394.244 230.693C396.433 228.885 398.174 223.228 398.931 220.573C400.017 216.75 399.188 212.414 399.188 212.414Z" fill="white"/>
<path fill-rule="evenodd" clip-rule="evenodd" d="M204.415 119.26C204.415 119.26 204.452 115.466 203.914 115.466C203.709 115.466 201.065 118.93 200.833 119.219C199.959 120.314 199.518 121.719 199.212 122.779C198.607 124.89 198.859 128.008 199.625 130.689C201.03 135.616 203.098 140.334 205.038 145.075C207.496 151.079 211.078 160.295 212.869 165.593C214.66 170.888 217.491 179.895 218.407 182.565C219.324 185.235 220.656 188.528 220.656 188.528C220.656 188.528 221.811 185.128 221.928 184.878C223.78 180.936 226.822 173.33 228.568 169.345C231.233 163.257 234.554 157.262 238.69 148.493C241.33 142.894 245.562 132.94 246.186 130.687C246.811 128.436 248.584 123.438 248.186 120.053C248.071 119.073 247.269 116.298 246.27 115.339C245.271 114.38 243.48 112.546 243.48 112.546C243.48 112.546 242.938 120.912 242.231 122.22C241.689 123.22 239.984 125.932 238.963 127.392C234.671 133.536 228.804 137.816 226.32 145.281C225.452 147.885 225.362 149.99 225.362 153.205C225.362 155.748 224.51 160.049 224.51 160.049L221.907 165.089C221.907 165.089 220.865 163.068 220.49 162.212C219.164 159.178 218.742 152.829 217.825 149.534C216.908 146.24 214.635 143.993 212.077 140.735C209.765 137.787 205.484 132.903 204.569 128.21C203.865 124.588 204.415 119.26 204.415 119.26Z" fill="#C6CCD3"/>
<path fill-rule="evenodd" clip-rule="evenodd" d="M72.5762 209.489C71.1074 209.943 76.3693 211.948 76.3693 211.948C76.3693 211.948 75.4646 217.502 74.4676 219.704C74.0553 220.612 73.0891 222.393 72.049 223.52C70.5679 225.124 70.2171 224.502 70.2171 224.502C70.2171 224.502 59.2297 218.178 58.6348 218.605C58.6348 218.605 59.5538 221.409 60.0564 222.838C60.2574 223.409 61.3119 225.496 62.5878 226.708C64.5059 228.526 67.0928 229.592 69.3801 230.389C69.8068 230.537 74.3322 232.295 74.3322 232.295C74.3322 232.295 76.677 228.799 77.4278 227.448C78.6525 225.241 80.4208 219.318 80.7368 215.612C80.9788 212.796 80.2116 211.761 80.2116 211.761C80.2116 211.761 73.9281 209.072 72.5762 209.489Z" fill="#C6CCD3"/>
<path fill-rule="evenodd" clip-rule="evenodd" d="M380.687 203.799C379.191 206.17 378.096 210.368 378.517 215.006C378.798 218.093 382.143 224.473 382.143 224.473C382.143 224.473 389.547 221.419 391.545 220.219C392.259 219.792 393.646 219.116 394.15 218.471C394.653 217.824 395.67 213.694 395.67 213.694L391.578 215.448L387.885 217.787C387.885 217.787 385.491 212.585 385.134 208.579C384.777 204.574 386.337 201.957 386.337 201.957C386.337 201.957 381.161 203.052 380.687 203.799Z" fill="#C6CCD3"/>
<path fill-rule="evenodd" clip-rule="evenodd" d="M193.341 86.4515C193.341 86.4515 190.885 70.7136 190.68 64.9254C190.491 59.6712 191.65 54.5177 194.149 49.7914C195.747 46.7658 199.6 43.2452 202.318 41.4665C205.132 39.624 207.789 36.6765 210.874 35.8754C215.834 34.5876 217.049 33.5297 222.042 33.3675C225.277 33.2627 229.922 34.413 232.112 35.7707C234.305 37.1284 235.503 39.1146 237.906 39.8458C240.306 40.5771 245.297 40.3491 246.516 41.0988C248.846 42.5346 251.761 43.6273 253.248 46.01C256.332 50.9499 256.262 53.3058 256.483 59.0715C256.625 62.7502 255.408 66.9876 255.074 70.6705C254.828 73.3756 255.195 77.6726 254.292 80.388C253.991 81.2918 252.934 85.2478 252.934 85.2478C252.934 85.2478 248.813 86.3447 246.569 83.9415C244.325 81.5383 240.829 77.5145 239.838 72.3938C239.34 69.816 235.821 63.1158 234.412 61.526C230.395 57.0031 226.561 60.5093 220.793 59.9074C216.546 59.4638 216.458 59.281 211.19 59.281C206.862 59.281 204.802 63.0747 202.537 66.2112C200.621 68.865 197.919 69.0417 196.684 72.3404C195.503 75.4913 196.371 85.977 196.371 85.977L193.341 86.4515Z" fill="#E9A479"/>
<path d="M221.663 124.155C203.53 124.155 198.199 103.017 196.982 96.4115C196.925 96.0952 197.132 95.7932 197.448 95.7337C197.768 95.6741 198.067 95.8857 198.125 96.1999C199.327 102.721 204.681 123.952 222.875 122.96C236.008 122.263 242.452 108.783 245.543 97.5967C245.628 97.2865 245.946 97.1058 246.257 97.192C246.565 97.2783 246.748 97.5987 246.661 97.9068C243.469 109.461 236.759 123.389 222.937 124.12C222.504 124.143 222.079 124.155 221.663 124.155Z" fill="#262626"/>
<path d="M248.073 100.388C247.85 100.388 247.638 100.368 247.435 100.329C247.119 100.267 246.914 99.9609 246.976 99.6466C247.037 99.3303 247.347 99.1228 247.657 99.1865C249.189 99.4843 251.618 98.1451 253.276 95.0004C254.646 92.3939 254.829 87.8339 253.089 86.2298C251.889 85.1226 250.084 85.8785 248.781 86.7083C248.51 86.8788 248.149 86.8008 247.979 86.5296C247.807 86.2585 247.887 85.8991 248.157 85.7286C251.142 83.8307 252.915 84.49 253.877 85.3753C256.066 87.3944 255.904 92.4986 254.303 95.5427C252.508 98.9565 249.952 100.388 248.073 100.388Z" fill="#262626"/>
<path d="M197.227 99.0489C197.213 99.0489 197.201 99.0489 197.186 99.0469C195.205 98.9092 193.297 96.6046 192.078 92.8828C191.174 90.116 191.282 87.8463 192.384 86.4907C192.956 85.7861 194.097 85.0015 196.263 85.2377C196.581 85.2726 196.811 85.5602 196.776 85.8806C196.741 86.201 196.448 86.4331 196.134 86.3941C194.805 86.2462 193.851 86.5256 193.284 87.2239C192.466 88.2325 192.427 90.2125 193.182 92.5212C194.232 95.7296 195.797 97.7857 197.266 97.8863C197.586 97.9089 197.828 98.1862 197.806 98.5067C197.785 98.8148 197.531 99.0489 197.227 99.0489Z" fill="#262626"/>
<path d="M234.38 81.7931C234.3 81.7931 234.222 81.7767 234.146 81.7438C233.641 81.5199 232.714 81.3823 231.735 81.2385C229.471 80.9037 226.652 80.4868 225.31 78.6402C225.122 78.3814 225.179 78.0178 225.438 77.8289C225.696 77.6399 226.061 77.6974 226.248 77.9562C227.302 79.4064 229.852 79.7843 231.902 80.0862C233.007 80.2506 233.963 80.3902 234.614 80.6799C234.907 80.8093 235.04 81.1523 234.909 81.446C234.813 81.6658 234.601 81.7931 234.38 81.7931Z" fill="#262626"/>
<path d="M204.556 81.793C204.355 81.793 204.158 81.6883 204.051 81.4993C203.891 81.2199 203.99 80.8666 204.267 80.7064C205.397 80.0594 206.815 79.891 208.185 79.7267C209.783 79.5356 211.291 79.3549 212.138 78.4737C212.36 78.2416 212.727 78.2354 212.959 78.4573C213.191 78.6791 213.197 79.0468 212.975 79.2789C211.843 80.462 210.052 80.6756 208.323 80.881C207.067 81.031 205.768 81.1871 204.841 81.717C204.753 81.7704 204.653 81.793 204.556 81.793Z" fill="#262626"/>
<path d="M248.553 94.9265C248.506 94.9265 248.459 94.9203 248.41 94.908C248.1 94.8279 247.911 94.5116 247.991 94.2014C248.709 91.3957 250.847 90.2146 250.939 90.1653C251.22 90.0112 251.573 90.1181 251.727 90.4015C251.878 90.6829 251.774 91.0341 251.493 91.1882C251.474 91.1985 249.704 92.1947 249.117 94.4911C249.05 94.7519 248.814 94.9265 248.553 94.9265Z" fill="#262626"/>
<path fill-rule="evenodd" clip-rule="evenodd" d="M232.212 87.5423C232.161 86.4413 231.414 85.5807 230.547 85.6218C229.679 85.6629 229.014 86.5872 229.067 87.6881C229.119 88.7891 229.863 89.6497 230.733 89.6086C231.601 89.5696 232.264 88.6432 232.212 87.5423Z" fill="#4A566E"/>
<path fill-rule="evenodd" clip-rule="evenodd" d="M210.161 87.8257C210.11 86.7248 209.363 85.8641 208.496 85.9052C207.628 85.9463 206.963 86.8727 207.017 87.9736C207.068 89.0746 207.815 89.9331 208.682 89.8921C209.55 89.851 210.211 88.9267 210.161 87.8257Z" fill="#4A566E"/>
<path d="M196.735 88.7192C196.46 88.7192 196.216 88.522 196.165 88.2427C195.457 84.3606 195.252 74.0392 195.714 72.2768C195.794 71.9667 196.114 71.7797 196.421 71.8619C196.731 71.942 196.918 72.2604 196.836 72.5705C196.444 74.0638 196.59 84.0977 197.306 88.0311C197.363 88.3474 197.154 88.6494 196.84 88.7069C196.805 88.7172 196.77 88.7192 196.735 88.7192Z" fill="#262626"/>
<path d="M255.55 67.4334C255.511 67.4334 255.472 67.4293 255.433 67.4211C255.119 67.3574 254.916 67.0493 254.98 66.7351C257.495 54.4459 254.512 48.1216 251.564 44.981C248.175 41.37 243.646 40.5484 240.524 40.99C240.21 41.0332 239.912 40.8134 239.869 40.495C239.824 40.1766 240.046 39.8829 240.363 39.8377C243.759 39.3571 248.717 40.2485 252.414 44.184C255.548 47.5259 258.736 54.1891 256.12 66.9692C256.061 67.2445 255.819 67.4334 255.55 67.4334Z" fill="#262626"/>
<path d="M191.002 50.225C190.701 50.225 190.446 49.9908 190.424 49.6868C190.399 49.3664 190.641 49.0871 190.959 49.0645C193.043 48.9125 195.394 46.7229 198.116 44.1903C200.828 41.668 203.899 38.8088 207.861 36.6685C216.413 32.0469 225.517 32.1969 230.742 34.3967C233.6 35.5983 235.446 37.3956 236.078 39.5934C236.166 39.9015 235.988 40.224 235.682 40.3123C235.366 40.3986 235.052 40.224 234.964 39.9138C234.433 38.0673 232.818 36.5309 230.295 35.4689C225.326 33.3779 216.63 33.2547 208.415 37.6914C204.585 39.7618 201.569 42.5676 198.91 45.0427C195.907 47.8362 193.538 50.0422 191.047 50.225C191.031 50.225 191.016 50.225 191.002 50.225Z" fill="#262626"/>
<path d="M192.729 82.7995C192.452 82.7995 192.208 82.6023 192.159 82.3209L192.032 81.6143C190.934 75.5509 187.594 57.0976 192.916 52.2665C193.152 52.0529 193.521 52.0694 193.736 52.3076C193.952 52.5459 193.933 52.9136 193.695 53.1292C190.481 56.0459 190.306 65.5601 193.174 81.4069L193.301 82.1176C193.359 82.4339 193.148 82.7358 192.832 82.7913C192.797 82.7954 192.762 82.7995 192.729 82.7995Z" fill="#262626"/>
<path d="M248.208 83.4939C248.19 83.4939 248.173 83.4939 248.155 83.4918C244.938 83.2022 243.422 81.3659 242.261 79.4248C242.095 79.1496 242.185 78.7922 242.46 78.6279C242.733 78.4636 243.09 78.5498 243.256 78.8292C244.448 80.8236 245.701 82.1053 248.257 82.3354C248.577 82.3641 248.811 82.6476 248.783 82.966C248.758 83.2659 248.506 83.4939 248.208 83.4939Z" fill="#262626"/>
<path d="M252.873 85.8025C252.799 85.8025 252.723 85.7881 252.652 85.7573C252.354 85.6341 252.215 85.2931 252.338 84.9973C253.913 81.2015 254.512 77.4201 254.41 71.9399C254.403 71.6195 254.66 71.3546 254.978 71.3484C254.982 71.3484 254.986 71.3484 254.99 71.3484C255.306 71.3484 255.565 71.601 255.571 71.9194C255.645 75.8529 255.446 80.536 253.411 85.4431C253.316 85.667 253.101 85.8025 252.873 85.8025Z" fill="#262626"/>
<path d="M246.74 76.0871C246.73 76.0871 246.72 76.0871 246.709 76.0871C239.813 75.7153 237.862 70.5782 236.294 66.4497C234.828 62.5881 233.771 60.2465 230.526 60.7683C230.21 60.8217 229.91 60.6039 229.861 60.2876C229.81 59.9713 230.025 59.6714 230.341 59.6221C234.661 58.9258 235.989 62.3786 237.38 66.0368C238.976 70.2434 240.629 74.5938 246.769 74.9245C247.089 74.943 247.335 75.2162 247.319 75.5366C247.304 75.8468 247.048 76.0871 246.74 76.0871Z" fill="#262626"/>
<path d="M224.077 60.1869C224.051 60.1869 224.024 60.1849 223.995 60.1828C223.677 60.1376 223.456 59.8459 223.501 59.5276C223.505 59.4927 223.962 55.9926 221.964 54.752C221.691 54.5836 221.607 54.2241 221.778 53.9509C221.946 53.6798 222.303 53.5935 222.578 53.764C225.22 55.4052 224.676 59.5153 224.652 59.6878C224.611 59.9774 224.362 60.1869 224.077 60.1869Z" fill="#262626"/>
<path d="M218.059 59.8891C217.812 59.8891 217.585 59.733 217.507 59.4865C216.834 57.3997 215.117 55.6353 213.026 54.8835C211.74 54.4193 209.771 54.1502 207.685 55.4894C207.414 55.662 207.057 55.5839 206.882 55.3128C206.71 55.0417 206.788 54.6822 207.059 54.5097C208.998 53.267 211.256 53.0123 213.42 53.7908C215.843 54.6617 217.833 56.7075 218.615 59.1312C218.713 59.4373 218.545 59.7638 218.239 59.8624C218.178 59.8809 218.118 59.8891 218.059 59.8891Z" fill="#262626"/>
<path d="M196.938 69.888C196.365 69.888 195.758 69.8141 195.116 69.6539C194.804 69.5758 194.615 69.2595 194.693 68.9494C194.771 68.6371 195.085 68.4461 195.397 68.5262C199.325 69.5101 201.555 66.7002 203.919 63.7301C206.317 60.7168 208.797 57.6071 213.121 58.6608C213.433 58.7368 213.624 59.051 213.548 59.3633C213.472 59.6755 213.154 59.8644 212.846 59.7905C209.236 58.9093 207.096 61.6021 204.827 64.4552C202.782 67.0227 200.503 69.888 196.938 69.888Z" fill="#262626"/>
<path d="M229.507 54.9944C229.429 54.9944 229.351 54.98 229.275 54.9471C228.982 54.8198 228.846 54.4768 228.974 54.183C229.343 53.3327 232.672 45.8232 236.279 43.7281C236.554 43.5679 236.911 43.6603 237.073 43.9397C237.235 44.2169 237.138 44.5723 236.861 44.7346C234.192 46.2833 231.316 51.6936 230.038 54.6452C229.944 54.865 229.731 54.9944 229.507 54.9944Z" fill="#262626"/>
<path d="M219.62 98.7265C219.538 98.7265 219.456 98.71 219.378 98.6731C219.29 98.632 217.197 97.6399 217.396 95.2244C217.46 94.4562 217.79 93.8359 218.11 93.2381C218.738 92.0632 219.386 90.8473 218.223 88.0826C218.098 87.7868 218.237 87.4458 218.533 87.3205C218.828 87.1973 219.169 87.3349 219.294 87.6307C220.672 90.9089 219.821 92.5049 219.136 93.7866C218.849 94.3268 218.598 94.793 218.555 95.3209C218.424 96.9148 219.809 97.5927 219.868 97.6194C220.155 97.757 220.28 98.1021 220.147 98.3917C220.047 98.6032 219.837 98.7265 219.62 98.7265Z" fill="#262626"/>
<path d="M226.029 110.303C225.988 110.303 225.945 110.299 225.902 110.289C222.402 109.51 217.341 109.679 214.471 110.291C214.155 110.352 213.85 110.157 213.782 109.843C213.716 109.529 213.915 109.22 214.229 109.153C217.179 108.522 222.361 108.311 226.154 109.155C226.468 109.225 226.665 109.535 226.595 109.849C226.536 110.118 226.296 110.303 226.029 110.303Z" fill="#262626"/>
<path d="M416.107 201.329C415.863 201.329 415.635 201.173 415.555 200.928C415.455 200.622 415.623 200.296 415.927 200.195C418.848 199.24 421.642 197.806 424.106 196.539C425.673 195.734 427.152 194.974 428.547 194.388C428.992 194.201 429.45 194.014 429.911 193.825C432.379 192.817 436.109 191.293 435.68 190.2C435.364 189.401 432.137 189.43 428.012 190.744C427.031 191.057 426.028 191.41 424.996 191.773C422.465 192.663 419.849 193.583 416.955 194.154C415.876 194.368 414.659 194.511 413.369 194.665C410.809 194.969 408.162 195.284 406.236 196.161C405.947 196.292 405.6 196.167 405.467 195.873C405.333 195.582 405.463 195.236 405.754 195.103C407.844 194.15 410.583 193.825 413.229 193.511C414.497 193.361 415.695 193.217 416.729 193.014C419.541 192.459 422.118 191.554 424.61 190.677C425.653 190.309 426.668 189.952 427.659 189.637C428.481 189.374 435.725 187.154 436.759 189.775C437.61 191.938 434.084 193.378 430.35 194.904C429.893 195.091 429.437 195.276 428.996 195.46C427.645 196.029 426.182 196.779 424.635 197.574C422.132 198.86 419.295 200.316 416.286 201.302C416.228 201.318 416.169 201.329 416.107 201.329Z" fill="#262626"/>
<path d="M388.144 218.108C387.953 218.108 387.764 218.013 387.653 217.839C387.481 217.568 387.561 217.208 387.832 217.036C396.083 211.773 402.967 209.551 409.044 207.591C411.606 206.764 414.026 205.983 416.271 205.051C419.725 203.615 422.731 202.187 425.912 200.675C428.423 199.482 431.018 198.248 433.94 196.966C436.128 196.005 438.334 195.216 440.281 194.52C443.663 193.31 446.857 192.166 446.941 191.063C446.976 190.619 446.829 190.416 446.716 190.301C446.119 189.695 444.531 189.793 443.852 189.834L443.678 189.845C441.776 189.947 440.207 190.334 438.945 190.644C438.118 190.847 437.402 191.024 436.766 191.081C436.451 191.104 436.163 190.874 436.135 190.555C436.106 190.235 436.342 189.954 436.66 189.923C437.21 189.873 437.884 189.707 438.666 189.514C439.975 189.194 441.604 188.793 443.612 188.684L443.778 188.674C444.681 188.614 446.57 188.501 447.541 189.483C447.955 189.904 448.148 190.481 448.098 191.149C447.957 193.004 445.058 194.041 440.67 195.61C438.742 196.298 436.557 197.081 434.403 198.026C431.502 199.299 428.914 200.53 426.409 201.721C423.213 203.239 420.197 204.673 416.714 206.119C414.426 207.07 411.985 207.856 409.398 208.69C403.39 210.629 396.579 212.827 388.455 218.009C388.359 218.079 388.252 218.108 388.144 218.108Z" fill="#262626"/>
<path d="M428.019 201.049C427.792 201.049 427.576 200.914 427.484 200.69C427.361 200.394 427.502 200.053 427.798 199.93C433.382 197.611 441.38 195.425 445.676 194.253L447.038 193.879C450.058 193.041 453.112 191.315 453.092 190.459C453.09 190.399 453.018 189.857 450.93 189.389C450.205 189.228 447.53 189.584 446.014 189.845C445.705 189.91 445.399 189.688 445.344 189.372C445.288 189.056 445.499 188.756 445.815 188.701C446.24 188.627 449.994 187.992 451.182 188.253C451.933 188.421 454.216 188.933 454.253 190.428C454.316 192.991 447.418 194.978 447.348 194.996L445.979 195.372C441.706 196.539 433.755 198.712 428.239 201.002C428.169 201.037 428.093 201.049 428.019 201.049Z" fill="#262626"/>
<path d="M445.968 195.312C445.732 195.312 445.508 195.167 445.422 194.93C445.311 194.628 445.469 194.294 445.769 194.185C447.947 193.394 450.12 192.919 452.036 192.503C454.254 192.02 456.547 191.519 456.769 190.783C456.931 190.243 456.781 189.962 456.654 189.795C456.168 189.167 454.705 188.797 452.912 188.869C450.514 188.957 447.831 189.705 447.804 189.713C447.494 189.801 447.174 189.619 447.088 189.311C447.002 189 447.18 188.68 447.49 188.594C447.605 188.563 450.335 187.801 452.871 187.706C453.938 187.667 456.524 187.723 457.575 189.085C457.878 189.477 458.176 190.147 457.882 191.118C457.464 192.509 455.292 192.983 452.286 193.638C450.405 194.049 448.274 194.513 446.169 195.277C446.099 195.3 446.033 195.312 445.968 195.312Z" fill="#262626"/>
<path d="M386.077 203.105C385.837 203.105 385.616 202.958 385.529 202.719C385.423 202.415 385.581 202.085 385.882 201.978C390.008 200.515 393.565 198.476 396.706 196.676C400.232 194.657 403.561 192.749 407.018 192.024C410.005 191.398 412.877 191.346 415.655 191.297C418.896 191.239 422.25 191.18 425.793 190.194C426.107 190.108 426.422 190.288 426.507 190.599C426.593 190.907 426.412 191.229 426.102 191.313C422.416 192.338 418.988 192.4 415.673 192.459C412.826 192.509 410.136 192.558 407.256 193.162C403.98 193.848 400.876 195.627 397.282 197.687C394.1 199.511 390.494 201.577 386.27 203.075C386.206 203.095 386.141 203.105 386.077 203.105Z" fill="#262626"/>
<path d="M442.218 189.943C442.15 189.943 442.085 189.931 442.019 189.908C441.717 189.797 441.564 189.463 441.672 189.163C441.951 188.401 441.701 188.179 441.607 188.097C440.482 187.111 435.526 188.152 432.644 189.652C432.361 189.804 432.01 189.691 431.862 189.403C431.715 189.117 431.825 188.766 432.109 188.62C434.708 187.269 440.521 185.591 442.374 187.224C442.803 187.602 443.219 188.314 442.762 189.563C442.677 189.797 442.454 189.943 442.218 189.943Z" fill="#262626"/>
<path d="M149.628 181.692C151.324 186.48 153.078 191.432 153.878 198.011C157.333 226.384 154.783 269.972 152.736 304.997C152.537 308.405 152.342 311.742 152.155 314.998H153.318C153.503 311.763 153.698 308.45 153.895 305.065C155.946 269.992 158.498 226.347 155.031 197.87C154.215 191.163 152.44 186.149 150.721 181.302C149.499 177.849 148.344 174.589 147.542 170.812C147.474 170.496 147.166 170.301 146.852 170.364C146.538 170.432 146.339 170.74 146.405 171.052C147.224 174.908 148.391 178.202 149.628 181.692Z" fill="#262626"/>
<path d="M291.308 264.173C290.822 280.774 290.9 295.824 290.984 311.757C290.99 312.833 290.994 313.915 291 314.998H292.161C292.155 313.913 292.151 312.829 292.145 311.751C292.061 295.828 291.983 280.788 292.469 264.208C292.719 255.698 292.477 244.141 292.245 232.963C291.983 220.347 291.734 208.431 292.165 201.224C292.608 193.85 294.178 188.304 295.841 182.432C297.218 177.574 298.642 172.55 299.362 166.408C299.401 166.09 299.173 165.8 298.853 165.763C298.543 165.716 298.246 165.954 298.209 166.273C297.497 172.322 296.088 177.301 294.723 182.115C293.117 187.786 291.453 193.653 291.006 201.154C290.571 208.409 290.82 220.347 291.084 232.987C291.318 244.151 291.558 255.694 291.308 264.173Z" fill="#262626"/>
<path d="M119.165 219.073C118.874 219.073 118.624 218.856 118.589 218.56C117.902 212.683 120.548 208.117 123.104 203.703C124.532 201.236 125.882 198.907 126.653 196.397C127.974 192.106 129.291 187.066 130.688 181.729C135.622 162.867 141.762 139.392 153.008 131.223C161.33 125.176 169.284 125.042 176.972 124.911C182.312 124.821 187.357 124.734 192.323 122.707C192.618 122.584 192.959 122.728 193.08 123.025C193.201 123.323 193.059 123.662 192.762 123.783C187.594 125.893 182.445 125.979 176.993 126.074C169.483 126.201 161.716 126.332 153.689 132.164C142.779 140.088 136.697 163.34 131.81 182.023C130.411 187.372 129.09 192.422 127.763 196.738C126.952 199.373 125.506 201.871 124.107 204.282C121.643 208.532 119.098 212.93 119.74 218.424C119.777 218.743 119.549 219.032 119.231 219.069C119.212 219.071 119.188 219.073 119.165 219.073Z" fill="#262626"/>
<path d="M131.917 235.795C131.663 235.795 131.431 235.627 131.359 235.37C129.484 228.655 124.239 224.128 116.971 222.951C110.886 221.967 101.448 219.901 93.2113 217.06C91.9702 216.631 90.368 215.777 88.5094 214.785C84.8558 212.833 80.3099 210.405 77.5795 210.952C77.2615 211.018 76.9579 210.81 76.8963 210.496C76.8327 210.182 77.0379 209.876 77.3517 209.812C80.4843 209.189 85.0364 211.615 89.0551 213.758C90.7926 214.686 92.4338 215.561 93.5887 215.96C101.755 218.776 111.118 220.825 117.155 221.803C124.889 223.056 130.475 227.885 132.477 235.054C132.564 235.362 132.383 235.684 132.075 235.771C132.022 235.789 131.971 235.795 131.917 235.795Z" fill="#262626"/>
<path d="M66.4242 238.393C65.2877 238.393 64.1697 238.11 63.105 237.539C59.8187 235.779 57.837 231.673 58.1714 227.318C58.196 226.998 58.4668 226.739 58.795 226.784C59.115 226.809 59.353 227.088 59.3284 227.407C59.033 231.248 60.8115 234.992 63.6528 236.512C65.9565 237.746 68.5885 237.354 71.0645 235.409C76.7593 230.935 81.3134 216.722 80.0292 212.675C79.7379 211.755 79.2682 211.732 79.0917 211.722C78.7717 211.706 78.5255 211.434 78.5399 211.112C78.5563 210.792 78.8271 210.516 79.1492 210.562C79.8118 210.594 80.6919 210.925 81.135 212.322C82.6674 217.149 77.5121 231.821 71.7805 236.323C70.0347 237.697 68.2049 238.393 66.4242 238.393Z" fill="#262626"/>
<path d="M128.292 259.946C124.634 259.946 120.989 259.248 117.713 258.124C114.872 257.153 112.383 256.288 109.993 255.458C105.823 254.008 101.884 252.64 96.8788 250.981C90.0824 248.729 66.1834 239.821 62.5462 237.223C62.2857 237.036 62.2241 236.672 62.4108 236.411C62.5975 236.151 62.9606 236.093 63.2211 236.276C66.5362 238.646 89.588 247.341 97.2439 249.878C102.258 251.539 106.2 252.909 110.375 254.359C112.765 255.191 115.249 256.054 118.088 257.026C127.162 260.133 139.189 259.887 145.739 249.88C150.277 242.943 153.055 236.335 155.287 231.026L155.476 230.576C155.601 230.28 155.943 230.143 156.237 230.266C156.532 230.391 156.671 230.732 156.546 231.028L156.358 231.476C154.107 236.828 151.309 243.49 146.712 250.516C142.184 257.432 135.222 259.946 128.292 259.946Z" fill="#262626"/>
<path d="M65.1858 227.887C65.0546 227.887 64.9212 227.881 64.7899 227.873C62.5436 227.704 59.567 225.983 58.1515 218.724C58.09 218.41 58.2951 218.104 58.611 218.042C58.9208 217.983 59.2306 218.186 59.2921 218.502C60.3014 223.679 62.2318 226.517 64.8781 226.714C68.6158 226.955 73.1843 221.974 74.4336 218.457C75.125 216.508 76.4112 212.879 75.2932 211.326C74.8603 210.722 74.0746 210.432 72.8766 210.463C72.532 210.471 72.292 210.212 72.2858 209.894C72.2797 209.574 72.534 209.307 72.8561 209.3C74.4295 209.266 75.5742 209.724 76.2368 210.646C77.5969 212.536 76.5835 215.871 75.5291 218.845C74.1834 222.633 69.5554 227.887 65.1858 227.887Z" fill="#262626"/>
<path d="M80.009 212.804C79.9331 212.804 79.8572 212.79 79.7833 212.759C79.3341 212.57 78.7391 212.233 78.0499 211.841C76.1318 210.752 73.2352 209.109 71.7459 209.806C71.4566 209.941 71.1099 209.816 70.9745 209.524C70.8391 209.235 70.9643 208.887 71.2535 208.752C73.2885 207.803 76.3698 209.553 78.6222 210.828C79.2807 211.202 79.8469 211.525 80.2326 211.687C80.528 211.812 80.6675 212.153 80.5423 212.449C80.45 212.671 80.2346 212.804 80.009 212.804Z" fill="#262626"/>
<path d="M74.221 232.864C74.145 232.864 74.0691 232.85 73.9953 232.819C73.583 232.644 73.0516 232.435 72.4403 232.19C67.2277 230.116 61.578 227.684 60.5257 225.094C60.4046 224.796 60.5462 224.457 60.8436 224.336C61.137 224.215 61.4796 224.356 61.6006 224.654C62.5566 227.002 69.5211 229.775 72.8691 231.108C73.4886 231.354 74.0261 231.568 74.4446 231.745C74.74 231.87 74.8795 232.211 74.7543 232.505C74.662 232.731 74.4466 232.864 74.221 232.864Z" fill="#262626"/>
<path d="M390.996 220.858C390.789 220.858 390.583 220.84 390.376 220.801C388.288 220.409 386.897 217.457 386.099 215.048C384.526 210.303 383.974 203.709 385.699 201.832C386.156 201.335 386.772 201.15 387.43 201.308C387.74 201.384 387.933 201.699 387.857 202.011C387.781 202.323 387.471 202.51 387.156 202.438C386.901 202.374 386.727 202.43 386.552 202.619C385.307 203.972 385.629 209.945 387.199 214.68C388.161 217.58 389.428 219.441 390.588 219.659C391.338 219.796 392.081 219.55 392.789 218.919C394.108 217.745 395.045 215.403 394.922 213.587C394.902 213.267 395.142 212.989 395.462 212.967C395.767 212.94 396.059 213.187 396.081 213.507C396.229 215.676 395.146 218.375 393.56 219.788C392.768 220.497 391.89 220.858 390.996 220.858Z" fill="#262626"/>
<path d="M380.428 204.819C380.206 204.819 379.995 204.691 379.899 204.475C379.767 204.182 379.899 203.839 380.192 203.707C380.627 203.514 381.146 203.243 381.714 202.949C383.932 201.803 386.689 200.376 388.482 201.06C388.781 201.173 388.931 201.509 388.818 201.809C388.705 202.111 388.369 202.261 388.069 202.146C386.763 201.649 384.151 202.999 382.247 203.983C381.659 204.289 381.117 204.568 380.668 204.767C380.588 204.804 380.506 204.819 380.428 204.819Z" fill="#262626"/>
<path d="M382.432 224.679C382.205 224.679 381.987 224.543 381.895 224.317C381.774 224.021 381.915 223.681 382.213 223.559L383.675 222.962C385.671 222.148 387.114 221.561 392.248 219.293C392.54 219.16 392.884 219.297 393.013 219.589C393.145 219.883 393.009 220.226 392.718 220.355C387.569 222.631 386.119 223.222 384.114 224.036L382.654 224.634C382.582 224.666 382.506 224.679 382.432 224.679Z" fill="#262626"/>
<path d="M390.922 232.215C390.14 232.215 389.317 232.038 388.466 231.679C382.107 229.003 375.959 216.732 378.385 207.85C379.157 205.026 380.215 201.263 384.179 201.405C384.499 201.419 384.747 201.69 384.735 202.011C384.72 202.331 384.433 202.551 384.129 202.567C381.294 202.432 380.4 204.89 379.522 208.103C377.216 216.539 382.958 228.099 388.917 230.607C391.381 231.642 393.385 230.872 394.877 228.317C396.723 225.155 398.493 219.521 398.284 214.066C398.272 213.745 398.522 213.476 398.842 213.462C399.156 213.462 399.431 213.702 399.443 214.023C399.659 219.712 397.806 225.595 395.876 228.904C394.602 231.089 392.891 232.215 390.922 232.215Z" fill="#262626"/>
<path d="M320.947 231.05C320.86 231.05 320.774 231.032 320.692 230.991C320.405 230.849 320.286 230.502 320.426 230.212C326.518 217.712 339.643 215.232 350.188 213.24C353.944 212.531 357.493 211.86 360.149 210.814C363.594 209.459 367.13 207.743 370.552 206.086C377.408 202.762 382.826 200.135 385.289 201.382C385.577 201.526 385.691 201.875 385.546 202.163C385.402 202.45 385.049 202.565 384.766 202.419C382.807 201.436 377.098 204.202 371.055 207.133C367.614 208.801 364.057 210.527 360.572 211.897C357.815 212.981 354.214 213.661 350.401 214.382C340.113 216.327 327.306 218.747 321.468 230.724C321.367 230.929 321.16 231.05 320.947 231.05Z" fill="#262626"/>
<path d="M325.505 259.217C322.867 259.217 320.218 258.788 317.564 257.718C310.482 254.865 304.56 248.191 301.661 244.465C299.618 241.84 295.771 236.009 294.194 232.948C294.046 232.663 294.159 232.311 294.444 232.166C294.729 232.02 295.08 232.131 295.226 232.416C296.777 235.427 300.564 241.166 302.578 243.752C305.405 247.386 311.167 253.891 317.997 256.641C325.794 259.784 333.733 257.056 341.411 254.419C342.593 254.014 343.768 253.61 344.938 253.227C354.147 250.227 366.841 243.682 378.04 237.907C383.271 235.208 388.215 232.661 392.33 230.717C392.617 230.582 392.966 230.703 393.101 230.995C393.238 231.284 393.113 231.632 392.824 231.767C388.727 233.702 383.794 236.247 378.571 238.94C367.331 244.736 354.594 251.303 345.295 254.333C344.132 254.713 342.96 255.113 341.785 255.518C336.461 257.344 331.011 259.217 325.505 259.217Z" fill="#262626"/>
<path d="M335.647 214.064C335.337 214.064 335.081 213.819 335.066 213.507C334.738 205.679 330.912 199.086 326.859 192.104C324.961 188.836 323.002 185.457 321.26 181.756C319.041 177.034 317.076 171.328 314.995 165.287C310.601 152.523 305.618 138.057 296.875 129.867C289.106 122.59 278.355 122.756 268.886 122.906C262.846 122.999 257.625 123.083 254.163 121.181C253.882 121.027 253.779 120.674 253.933 120.392C254.089 120.109 254.444 120.008 254.721 120.162C257.915 121.916 262.984 121.838 268.867 121.744C278.084 121.6 289.558 121.419 297.669 129.019C306.622 137.406 311.654 152.016 316.093 164.907C318.163 170.919 320.118 176.594 322.311 181.261C324.03 184.917 325.979 188.275 327.862 191.521C331.987 198.63 335.887 205.342 336.226 213.46C336.238 213.78 335.99 214.051 335.67 214.066C335.663 214.064 335.655 214.064 335.647 214.064Z" fill="#262626"/>
<path d="M214.355 315H215.517C215.666 310.066 215.851 304.927 216.04 299.661C216.594 284.194 217.168 268.199 216.879 255.45C216.811 252.472 216.719 249.463 216.624 246.437C216.087 229.142 215.531 211.26 219.693 194.594C222.754 182.339 228.592 170.43 234.238 158.913C236.62 154.058 239.081 149.033 241.262 144.12L241.713 143.11C243.709 138.646 247.865 129.358 248.709 123.034C249.289 118.661 247.695 116.572 245.679 113.924C245.242 113.351 244.776 112.741 244.298 112.063C244.111 111.8 243.748 111.741 243.488 111.926C243.225 112.11 243.164 112.474 243.35 112.737C243.838 113.427 244.312 114.047 244.755 114.631C246.754 117.254 248.075 118.985 247.558 122.882C246.737 129.04 242.628 138.223 240.653 142.637L240.199 143.652C238.029 148.547 235.571 153.558 233.194 158.404C227.519 169.976 221.654 181.941 218.565 194.314C214.364 211.137 214.922 229.101 215.461 246.474C215.556 249.495 215.648 252.5 215.716 255.479C216.005 268.193 215.432 284.169 214.879 299.62C214.69 304.898 214.505 310.052 214.355 315Z" fill="#262626"/>
<path d="M220.519 189.263C220.275 189.263 220.049 189.109 219.969 188.867C218.908 185.685 217.864 182.469 216.814 179.24C213.636 169.463 210.35 159.353 206.522 149.771C206.13 148.789 205.593 147.555 204.981 146.15C202.585 140.639 198.966 132.314 198.404 126.1C198.021 121.857 199.963 119.439 201.843 117.1C202.382 116.426 202.893 115.791 203.352 115.111C203.531 114.846 203.892 114.777 204.159 114.955C204.425 115.136 204.495 115.497 204.314 115.762C203.828 116.483 203.279 117.167 202.747 117.829C200.932 120.086 199.219 122.218 199.561 125.996C200.107 132.022 203.681 140.244 206.048 145.685C206.665 147.105 207.205 148.347 207.603 149.339C211.445 158.956 214.736 169.085 217.92 178.88C218.968 182.107 220.012 185.32 221.07 188.499C221.171 188.803 221.007 189.132 220.703 189.235C220.64 189.255 220.578 189.263 220.519 189.263Z" fill="#262626"/>
<path d="M199.559 148.532C199.379 148.532 199.203 148.448 199.09 148.292C197.779 146.482 192.8 146.564 188.8 146.632C185.027 146.698 182.857 146.686 182.139 145.751C180.664 143.833 184.061 140.934 185.887 139.377C186.182 139.125 186.406 138.938 186.498 138.837C188.41 136.763 189.704 134.134 191.075 131.35C193.071 127.296 195.135 123.101 199.28 120.789C199.562 120.633 199.914 120.733 200.07 121.013C200.226 121.294 200.126 121.647 199.847 121.803C196.017 123.942 194.035 127.969 192.117 131.864C190.771 134.598 189.38 137.426 187.354 139.624C187.245 139.741 186.986 139.965 186.642 140.261C183.735 142.742 182.529 144.35 183.062 145.042C183.458 145.558 186.537 145.509 188.783 145.47C193.274 145.396 198.368 145.312 200.031 147.61C200.22 147.871 200.163 148.232 199.902 148.421C199.797 148.497 199.676 148.532 199.559 148.532Z" fill="#262626"/>
<path d="M244.148 147.442C244.002 147.442 243.859 147.386 243.744 147.277C243.514 147.053 243.506 146.686 243.729 146.456C246.404 143.685 252.087 144.375 257.103 144.987C259.89 145.326 262.522 145.646 263.753 145.195C264.49 144.925 264.584 144.562 264.615 144.443C264.964 143.083 262.527 140.294 260.567 138.053C260.13 137.552 259.7 137.059 259.304 136.588C258.204 135.282 257.189 133.23 256.015 130.851C253.993 126.756 251.473 121.658 247.547 118.804C247.286 118.616 247.231 118.252 247.42 117.993C247.609 117.732 247.972 117.677 248.23 117.864C252.388 120.885 254.977 126.125 257.057 130.336C258.198 132.647 259.183 134.641 260.192 135.838C260.584 136.305 261.01 136.789 261.443 137.287C263.802 139.986 266.242 142.779 265.741 144.73C265.559 145.445 265.025 145.969 264.155 146.287C262.656 146.834 260.02 146.511 256.965 146.139C252.454 145.591 246.843 144.905 244.564 147.263C244.454 147.382 244.3 147.442 244.148 147.442Z" fill="#262626"/>
<path d="M219.966 190.506C219.779 190.506 219.595 190.416 219.482 190.247C217.336 187.022 208.234 174.374 202.787 168.577C200.404 166.041 197.568 163.923 195.291 162.222C192.026 159.786 189.87 158.176 190.159 156.481C190.442 154.83 191.732 154.097 193.367 153.168C194.551 152.497 195.892 151.734 197.3 150.424C199.844 148.054 201.46 144.646 203.027 141.066C203.157 140.772 203.497 140.635 203.792 140.766C204.086 140.895 204.219 141.238 204.092 141.532C202.475 145.227 200.799 148.754 198.092 151.274C196.584 152.677 195.119 153.509 193.942 154.179C192.333 155.093 191.486 155.619 191.303 156.676C191.133 157.669 193.49 159.427 195.985 161.288C198.299 163.015 201.181 165.166 203.632 167.776C209.124 173.624 218.288 186.353 220.448 189.598C220.626 189.865 220.555 190.227 220.286 190.403C220.189 190.475 220.077 190.506 219.966 190.506Z" fill="#262626"/>
<path d="M219.209 194.787C219.087 194.787 218.964 194.75 218.862 194.672C218.605 194.479 218.552 194.115 218.745 193.858C225.435 184.929 235.148 172.287 242.254 165.615C248.811 159.462 252.228 155.432 252.413 153.636C252.478 153.012 251.379 152.669 249.697 152.215C248.435 151.876 247.007 151.492 246.039 150.736C243.559 148.805 241.998 145.698 241.399 141.505C241.354 141.187 241.575 140.893 241.891 140.848C242.201 140.803 242.5 141.025 242.548 141.341C243.101 145.227 244.515 148.078 246.749 149.82C247.535 150.43 248.786 150.767 249.994 151.094C251.834 151.589 253.736 152.1 253.564 153.758C253.426 155.103 252.183 157.886 243.044 166.466C236.004 173.074 226.331 185.661 219.668 194.555C219.559 194.707 219.385 194.787 219.209 194.787Z" fill="#262626"/>
<path d="M221.691 165.377C221.505 165.377 221.32 165.287 221.207 165.119C219.236 162.159 218.694 158.478 218.171 154.916C217.785 152.289 217.42 149.81 216.522 147.707C215.543 145.423 213.754 143.385 212.025 141.417C211.204 140.483 210.355 139.515 209.61 138.542C207.984 136.412 200.043 125.445 203.454 118.696C203.6 118.41 203.948 118.295 204.234 118.439C204.521 118.585 204.634 118.934 204.49 119.219C201.39 125.349 208.981 135.802 210.531 137.833C211.252 138.776 212.05 139.686 212.897 140.647C214.688 142.685 216.538 144.792 217.588 147.249C218.548 149.489 218.94 152.162 219.32 154.746C219.824 158.18 220.348 161.729 222.173 164.474C222.352 164.741 222.28 165.102 222.013 165.279C221.913 165.346 221.802 165.377 221.691 165.377Z" fill="#262626"/>
<path d="M219.346 185.535C219.048 185.535 218.794 185.307 218.767 185.003C217.723 172.877 220.273 167.711 222.322 163.559C223.272 161.639 224.091 159.979 224.405 157.931C224.659 156.272 224.712 154.542 224.764 152.868C224.874 149.261 224.987 145.531 227.092 142.157C228.776 139.458 231.137 136.473 233.638 133.312C238.594 127.045 244.213 119.942 242.863 116.327C242.75 116.027 242.904 115.693 243.204 115.58C243.501 115.469 243.84 115.619 243.951 115.921C245.528 120.152 239.946 127.21 234.547 134.035C232.069 137.169 229.726 140.129 228.077 142.773C226.138 145.881 226.033 149.29 225.923 152.903C225.871 154.612 225.816 156.379 225.551 158.108C225.209 160.333 224.312 162.15 223.363 164.075C221.377 168.097 218.907 173.1 219.922 184.903C219.951 185.223 219.713 185.505 219.393 185.531C219.381 185.533 219.362 185.535 219.346 185.535Z" fill="#262626"/>
<path d="M209.763 155.851C209.532 155.851 209.314 155.711 209.224 155.483C209.107 155.185 209.253 154.846 209.55 154.729C210.654 154.292 211.054 152.363 211.442 150.498C211.858 148.495 212.289 146.425 213.704 145.657C214.447 145.252 215.374 145.262 216.457 145.685C216.757 145.802 216.902 146.139 216.788 146.437C216.671 146.737 216.334 146.885 216.037 146.768C215.276 146.472 214.695 146.443 214.26 146.677C213.317 147.189 212.943 148.99 212.58 150.734C212.131 152.901 211.665 155.142 209.981 155.81C209.907 155.838 209.835 155.851 209.763 155.851Z" fill="#262626"/>
<path d="M234.101 157.233C233.935 157.233 233.768 157.161 233.653 157.022C232.529 155.656 232.123 153.382 231.733 151.182C231.298 148.734 230.847 146.199 229.454 145.396C228.757 144.991 227.815 145.012 226.578 145.464C226.277 145.57 225.944 145.418 225.833 145.114C225.725 144.813 225.881 144.48 226.182 144.369C227.76 143.796 229.017 143.802 230.035 144.387C231.895 145.462 232.394 148.265 232.876 150.977C233.241 153.029 233.619 155.148 234.55 156.282C234.753 156.529 234.718 156.894 234.47 157.1C234.361 157.19 234.232 157.233 234.101 157.233Z" fill="#262626"/>
<path d="M242.906 121.064C242.892 121.064 242.878 121.064 242.863 121.062C242.543 121.039 242.303 120.76 242.326 120.44C242.461 118.591 242.557 116.677 242.652 114.789C242.851 110.804 243.04 107.039 243.565 104.141C243.622 103.825 243.928 103.615 244.24 103.673C244.556 103.73 244.765 104.032 244.707 104.348C244.197 107.173 244.01 110.901 243.811 114.846C243.717 116.744 243.62 118.667 243.485 120.524C243.462 120.83 243.208 121.064 242.906 121.064Z" fill="#262626"/>
<path d="M204.387 128.582C204.378 128.582 204.37 128.582 204.362 128.582C204.042 128.567 203.794 128.298 203.806 127.976C204.001 123.348 203.777 116.527 203.328 113.378C203.283 113.059 203.503 112.766 203.82 112.72C204.134 112.671 204.432 112.895 204.477 113.213C204.943 116.477 205.166 123.26 204.965 128.025C204.953 128.337 204.694 128.582 204.387 128.582Z" fill="#262626"/>
<path d="M207.994 97.0176C203.678 97.0176 200.168 93.5545 200.168 89.2965C200.168 88.5386 200.279 87.7868 200.5 87.0659C200.595 86.7598 200.921 86.5832 201.224 86.6797C201.532 86.7742 201.704 87.0987 201.61 87.4048C201.423 88.0169 201.329 88.6516 201.329 89.2965C201.329 92.9116 204.32 95.855 207.994 95.855C211.67 95.855 214.661 92.9137 214.661 89.2965C214.661 88.362 214.466 87.4623 214.083 86.6202C213.949 86.3285 214.077 85.9834 214.37 85.8499C214.661 85.7143 215.006 85.8458 215.139 86.1375C215.593 87.1316 215.824 88.1956 215.824 89.2965C215.82 93.5545 212.308 97.0176 207.994 97.0176Z" fill="#262626"/>
<path d="M231.35 96.7751C226.868 96.7751 223.223 93.312 223.223 89.0561C223.223 88.1585 223.385 87.2773 223.703 86.4393C223.818 86.1394 224.15 85.9874 224.451 86.1024C224.751 86.2175 224.901 86.5523 224.788 86.8521C224.521 87.5587 224.384 88.3002 224.384 89.0561C224.384 92.6712 227.508 95.6125 231.35 95.6125C235.193 95.6125 238.317 92.6712 238.317 89.0561C238.317 88.025 238.071 87.0391 237.583 86.123C237.431 85.8395 237.537 85.4883 237.823 85.3363C238.106 85.1843 238.456 85.2911 238.608 85.5745C239.187 86.6591 239.478 87.8299 239.478 89.0541C239.48 93.3141 235.833 96.7751 231.35 96.7751Z" fill="#262626"/>
<path d="M239.033 88.7809C238.804 88.7809 238.586 88.6433 238.494 88.4173C238.373 88.1195 238.518 87.7806 238.816 87.6614L244.849 85.2295C245.142 85.1124 245.485 85.2541 245.604 85.552C245.725 85.8498 245.579 86.1887 245.282 86.3078L239.249 88.7398C239.179 88.7685 239.105 88.7809 239.033 88.7809Z" fill="#262626"/>
<path d="M223.691 91.1676C223.574 91.1676 223.457 91.1327 223.354 91.0608C220.201 88.8158 216.326 90.2392 215.733 90.7137C215.483 90.915 215.118 90.8719 214.917 90.6233C214.716 90.3727 214.757 90.0071 215.007 89.8058C216.158 88.8836 220.529 87.6224 224.027 90.1139C224.288 90.2988 224.349 90.6624 224.162 90.9253C224.052 91.0834 223.873 91.1676 223.691 91.1676Z" fill="#262626"/>
<path d="M223.385 80.2587C223.237 80.2587 223.088 80.2012 222.975 80.0882C222.548 79.661 222.107 79.2194 221.752 78.4245C221.621 78.1307 221.752 77.7877 222.043 77.6563C222.337 77.5248 222.679 77.6563 222.811 77.9479C223.079 78.5477 223.412 78.8804 223.795 79.2645C224.023 79.4925 224.023 79.8602 223.795 80.0862C223.683 80.2012 223.535 80.2587 223.385 80.2587Z" fill="#262626"/>
<path d="M41.8918 207.982C41.8323 207.982 41.7708 207.973 41.7113 207.953C38.7019 206.969 35.8648 205.511 33.36 204.225C31.8132 203.432 30.3547 202.68 29.0028 202.113C28.5617 201.929 28.1042 201.742 27.6447 201.555C23.9132 200.031 20.3868 198.591 21.2402 196.428C22.27 193.805 29.5156 196.027 30.3403 196.29C31.3311 196.607 32.3445 196.962 33.3867 197.33C35.8791 198.207 38.4557 199.112 41.2682 199.667C42.3042 199.87 43.5002 200.014 44.77 200.164C47.4163 200.478 50.1529 200.803 52.2454 201.754C52.5367 201.887 52.6659 202.233 52.5326 202.524C52.4013 202.816 52.0587 202.947 51.7633 202.812C49.837 201.935 47.1907 201.62 44.6325 201.318C43.3422 201.164 42.1236 201.021 41.0446 200.807C38.15 200.236 35.5345 199.316 33.003 198.426C31.9712 198.065 30.968 197.712 29.9874 197.399C25.86 196.087 22.6352 196.058 22.3192 196.855C21.8884 197.948 25.6159 199.47 28.0837 200.478C28.5474 200.667 29.0069 200.856 29.452 201.043C30.8449 201.629 32.324 202.389 33.8892 203.192C36.3551 204.457 39.1511 205.893 42.0724 206.848C42.378 206.949 42.5442 207.275 42.4437 207.581C42.3637 207.826 42.136 207.982 41.8918 207.982Z" fill="#262626"/>
<path d="M70.594 225.161C70.4873 225.161 70.3786 225.133 70.2822 225.071C62.0765 219.837 54.9047 217.467 48.5761 215.378C45.9749 214.52 43.5173 213.706 41.2833 212.78C37.8061 211.334 34.7947 209.902 31.6047 208.386C29.0958 207.195 26.5028 205.96 23.596 204.687C21.442 203.742 19.2572 202.96 17.3289 202.269C12.9409 200.698 10.0402 199.661 9.90068 197.808C9.8494 197.138 10.0422 196.561 10.4587 196.14C11.4249 195.16 13.3142 195.275 14.2189 195.331L14.3851 195.341C16.3955 195.448 18.0243 195.851 19.3331 196.171C20.1147 196.362 20.7896 196.528 21.3373 196.578C21.6574 196.606 21.8912 196.89 21.8625 197.21C21.8338 197.529 21.5569 197.753 21.2307 197.736C20.5947 197.679 19.8808 197.502 19.0541 197.299C17.7925 196.989 16.2232 196.604 14.3215 196.5L14.1471 196.489C13.4681 196.444 11.8803 196.348 11.2854 196.954C11.1726 197.069 11.0249 197.272 11.0577 197.716C11.1397 198.817 14.3359 199.961 17.7186 201.17C19.6654 201.867 21.8707 202.658 24.0616 203.619C26.9849 204.903 29.5861 206.139 32.1032 207.335C35.2788 208.844 38.28 210.27 41.7285 211.704C43.9235 212.615 46.3606 213.421 48.9412 214.273C55.3335 216.385 62.5791 218.778 70.9058 224.089C71.1766 224.262 71.2566 224.621 71.0843 224.892C70.9735 225.067 70.7848 225.161 70.594 225.161Z" fill="#262626"/>
<path d="M30.6734 207.85C30.5996 207.85 30.5237 207.836 30.4519 207.805C25.069 205.568 16.7976 203.323 12.3543 202.115L10.6516 201.649C8.84428 201.148 3.69317 199.234 3.7465 197.081C3.78343 195.586 6.06666 195.074 6.81748 194.908C8.00115 194.641 11.7573 195.28 12.1819 195.354C12.4979 195.409 12.7092 195.709 12.6538 196.025C12.5984 196.342 12.2989 196.563 11.983 196.498C10.469 196.237 7.79396 195.875 7.06981 196.044C4.98146 196.51 4.90761 197.052 4.90556 197.112C4.88299 197.968 7.93961 199.694 10.9593 200.53L12.6558 200.994C17.1238 202.208 25.4423 204.465 30.895 206.731C31.1925 206.854 31.3319 207.193 31.2089 207.491C31.1165 207.715 30.9011 207.85 30.6734 207.85Z" fill="#262626"/>
<path d="M12.0307 201.963C11.965 201.963 11.8973 201.951 11.8338 201.928C9.729 201.166 7.59962 200.702 5.71847 200.291C2.71109 199.636 0.536585 199.162 0.118096 197.771C-0.175257 196.8 0.12425 196.13 0.425809 195.738C1.47614 194.376 4.06092 194.32 5.12971 194.357C7.66527 194.452 10.3957 195.214 10.5106 195.245C10.8204 195.333 10.9988 195.651 10.9127 195.962C10.8265 196.27 10.5085 196.452 10.1967 196.364C10.1701 196.356 7.48269 195.606 5.08663 195.52C3.29985 195.448 1.83103 195.818 1.34484 196.448C1.21766 196.615 1.0679 196.896 1.22997 197.434C1.45152 198.172 3.74706 198.671 5.96464 199.153C7.88067 199.57 10.0511 200.045 12.2276 200.836C12.5292 200.945 12.6851 201.279 12.5764 201.579C12.4902 201.818 12.2687 201.963 12.0307 201.963Z" fill="#262626"/>
<path d="M75.7782 212.137C75.7126 212.137 75.649 212.127 75.5834 212.104C71.339 210.599 66.9612 208.048 62.7251 205.579C58.2386 202.966 54.0024 200.495 50.7427 199.813C47.8646 199.211 45.1772 199.162 42.3299 199.113C39.0148 199.053 35.5848 198.993 31.8963 197.966C31.5866 197.882 31.406 197.56 31.4922 197.252C31.5784 196.941 31.8984 196.759 32.2061 196.847C35.753 197.833 39.1071 197.892 42.3504 197.95C45.1259 197.999 47.9938 198.051 50.9807 198.675C54.425 199.398 58.7412 201.912 63.3097 204.574C67.4987 207.014 71.8293 209.539 75.9711 211.007C76.2726 211.116 76.4306 211.447 76.3239 211.749C76.2398 211.987 76.0162 212.137 75.7782 212.137Z" fill="#262626"/>
<path d="M15.78 196.596C15.5441 196.596 15.3205 196.45 15.2343 196.214C14.7769 194.967 15.1933 194.253 15.622 193.875C17.4437 192.27 23.3579 193.955 25.8853 195.271C26.1704 195.419 26.2812 195.77 26.1335 196.054C25.9858 196.339 25.635 196.45 25.3499 196.3C22.4676 194.801 17.5114 193.755 16.3872 194.746C16.2929 194.828 16.0426 195.05 16.3216 195.812C16.4324 196.111 16.2764 196.446 15.9769 196.557C15.9133 196.584 15.8456 196.596 15.78 196.596Z" fill="#262626"/>
<path d="M173.985 45.8644C173.685 45.8644 173.433 45.6364 173.406 45.3324C173.096 41.6906 174.522 39.3819 175.777 37.3463C176.75 35.7709 177.589 34.4112 177.427 32.7145C177.263 30.9809 176.165 29.613 174.629 29.2268C172.918 28.7955 171.133 29.6951 169.849 31.63C169.672 31.897 169.311 31.971 169.045 31.7923C168.778 31.6136 168.704 31.2541 168.883 30.9871C170.45 28.625 172.709 27.5446 174.912 28.0992C176.93 28.6065 178.373 30.375 178.582 32.6036C178.781 34.6884 177.8 36.2762 176.764 37.9564C175.546 39.9303 174.284 41.974 174.561 45.2317C174.588 45.5521 174.352 45.8335 174.032 45.8602C174.017 45.8644 174.001 45.8644 173.985 45.8644Z" fill="#262626"/>
<path fill-rule="evenodd" clip-rule="evenodd" d="M174.198 54.37C174.178 53.7681 174.561 53.2669 175.056 53.2485C175.55 53.232 175.966 53.7045 175.987 54.3083C176.007 54.9102 175.624 55.4113 175.129 55.4278C174.637 55.4442 174.219 54.9697 174.198 54.37Z" fill="#4A566E"/>
<path d="M171.917 86.2667C171.628 86.2667 171.376 86.049 171.341 85.7532C171.006 82.9084 172.059 81.0701 172.986 79.4494C173.683 78.2293 174.289 77.1777 174.124 75.9165C173.96 74.6389 173.119 73.6551 171.981 73.4086C170.713 73.1313 169.402 73.8481 168.493 75.325C168.325 75.5982 167.966 75.6844 167.695 75.5139C167.422 75.3455 167.338 74.9881 167.507 74.7149C168.686 72.8006 170.456 71.8906 172.229 72.2727C173.856 72.6239 175.052 73.9981 175.279 75.7707C175.491 77.4201 174.764 78.6874 173.995 80.0307C173.115 81.5671 172.206 83.1569 172.496 85.6197C172.533 85.9381 172.305 86.2277 171.987 86.2647C171.962 86.2667 171.94 86.2667 171.917 86.2667Z" fill="#262626"/>
<path fill-rule="evenodd" clip-rule="evenodd" d="M171.995 91.3691C171.958 90.8145 172.297 90.34 172.752 90.3092C173.207 90.2784 173.607 90.7036 173.644 91.2581C173.681 91.8127 173.343 92.2872 172.887 92.318C172.432 92.3488 172.032 91.9236 171.995 91.3691Z" fill="#4A566E"/>
<path d="M248.91 22.247C248.904 22.247 248.896 22.247 248.888 22.247C248.568 22.2347 248.318 21.9656 248.33 21.6452C248.459 18.1636 250.225 16.1466 251.782 14.3678C252.976 13.004 254.008 11.825 254.047 10.2372C254.086 8.68436 253.22 7.35335 251.782 6.76385C249.981 6.02235 247.92 6.64472 246.262 8.41734C246.043 8.65149 245.675 8.66382 245.441 8.44404C245.208 8.22426 245.195 7.85659 245.415 7.62243C247.774 5.10215 250.478 4.97069 252.226 5.68755C254.09 6.4537 255.262 8.25096 255.21 10.266C255.159 12.2727 253.945 13.6612 252.656 15.1319C251.157 16.845 249.604 18.6176 249.491 21.6863C249.479 22.0006 249.22 22.247 248.91 22.247Z" fill="#262626"/>
<path fill-rule="evenodd" clip-rule="evenodd" d="M248.016 28.0971C248.068 27.5302 248.529 27.1009 249.042 27.1399C249.557 27.1789 249.93 27.6719 249.879 28.2388C249.828 28.8057 249.366 29.235 248.853 29.196C248.338 29.157 247.965 28.666 248.016 28.0971Z" fill="#4A566E"/>
<path d="M207.142 17.6913C206.836 17.6913 206.58 17.453 206.564 17.1429C206.354 13.5114 208.055 11.2745 209.554 9.30063C210.705 7.78682 211.7 6.47841 211.585 4.82493C211.475 3.20636 210.404 1.88152 208.791 1.36801C207.212 0.86478 204.842 1.17083 202.922 3.52679C202.719 3.77532 202.354 3.81435 202.106 3.60895C201.858 3.4056 201.821 3.03999 202.024 2.79145C204.313 -0.0184472 207.202 -0.355306 209.144 0.258845C211.22 0.920239 212.601 2.6374 212.746 4.74277C212.89 6.83376 211.721 8.37427 210.482 10.0031C209.035 11.9051 207.54 13.8708 207.725 17.073C207.743 17.3935 207.499 17.6687 207.179 17.6872C207.165 17.6913 207.154 17.6913 207.142 17.6913Z" fill="#262626"/>
<path fill-rule="evenodd" clip-rule="evenodd" d="M206.789 26.0861C206.789 25.3487 207.349 24.751 208.042 24.751C208.736 24.751 209.296 25.3487 209.296 26.0861C209.296 26.8235 208.736 27.4233 208.042 27.4233C207.349 27.4212 206.789 26.8235 206.789 26.0861Z" fill="#4A566E"/>
<path d="M274.837 48.477C274.53 48.477 274.273 48.2367 274.259 47.9245C274.084 44.486 275.5 42.3601 276.747 40.4869C277.705 39.047 278.534 37.8023 278.438 36.2166C278.339 34.6 277.363 33.2916 275.949 32.8849C274.374 32.431 272.685 33.2115 271.428 34.9718C271.241 35.2327 270.88 35.2922 270.618 35.1074C270.357 34.9205 270.298 34.5569 270.482 34.296C272.037 32.1167 274.197 31.1719 276.269 31.7676C278.161 32.3119 279.467 34.0311 279.597 36.1447C279.718 38.1186 278.743 39.581 277.713 41.1298C276.509 42.9394 275.266 44.8106 275.418 47.8649C275.434 48.1853 275.188 48.4585 274.868 48.4749C274.856 48.477 274.846 48.477 274.837 48.477Z" fill="#262626"/>
<path fill-rule="evenodd" clip-rule="evenodd" d="M274.596 56.4281C274.596 55.7626 275.039 55.2224 275.587 55.2224C276.134 55.2224 276.575 55.7626 276.575 56.4281C276.575 57.0936 276.132 57.6338 275.587 57.6338C275.039 57.6338 274.596 57.0916 274.596 56.4281Z" fill="#4A566E"/>
<path d="M274.852 88.6022C274.544 88.6022 274.287 88.3619 274.273 88.0497C274.154 85.6814 275.161 84.1676 275.974 82.9495C276.622 81.9739 277.137 81.2036 277.075 80.2054C277.016 79.203 276.415 78.3958 275.545 78.1452C274.573 77.8658 273.518 78.3609 272.724 79.4721C272.538 79.735 272.174 79.7925 271.914 79.6077C271.651 79.4207 271.592 79.0572 271.779 78.7963C272.87 77.2661 274.398 76.6047 275.865 77.0278C277.213 77.414 278.142 78.634 278.232 80.1335C278.316 81.522 277.617 82.5737 276.938 83.5924C276.148 84.7797 275.332 86.0059 275.43 87.9901C275.447 88.3105 275.2 88.5837 274.88 88.6001C274.872 88.6022 274.862 88.6022 274.852 88.6022Z" fill="#262626"/>
<path fill-rule="evenodd" clip-rule="evenodd" d="M274.336 92.3836C274.336 91.9132 274.648 91.5332 275.033 91.5332C275.417 91.5332 275.731 91.9132 275.731 92.3836C275.731 92.8519 275.419 93.2319 275.033 93.2319C274.648 93.2319 274.336 92.8519 274.336 92.3836Z" fill="#4A566E"/>
</g>
<defs>
<clipPath id="clip0_383_3183">
<rect width="458" height="315" fill="white"/>
</clipPath>
</defs>
</svg>
