<svg width="21" height="21" viewBox="0 0 21 21" fill="none" xmlns="http://www.w3.org/2000/svg">
<circle cx="10.5" cy="10.5" r="10.5" fill="#F15A05"/>
<path d="M9.944 15L7.124 7.488H7.076C7.092 7.648 7.104 7.852 7.112 8.1C7.128 8.348 7.14 8.62 7.148 8.916C7.156 9.204 7.16 9.5 7.16 9.804V15H6.164V6.432H7.76L10.4 13.452H10.448L13.136 6.432H14.72V15H13.652V9.732C13.652 9.452 13.656 9.176 13.664 8.904C13.672 8.624 13.684 8.364 13.7 8.124C13.716 7.876 13.728 7.668 13.736 7.5H13.688L10.832 15H9.944Z" fill="white"/>
</svg>
