<svg width="236" height="337" viewBox="0 0 236 337" fill="none" xmlns="http://www.w3.org/2000/svg">
<g clip-path="url(#clip0_383_2907)">
<path fill-rule="evenodd" clip-rule="evenodd" d="M113.517 137.079C111.811 136.733 111.593 134.285 110.578 132.871C109.758 131.728 108.447 130.381 107.454 129.394C102.776 124.733 97.1457 121.304 93.4986 115.853C91.4594 112.806 90.5825 108.385 90.5825 108.385C90.5825 108.385 90.6429 102.233 90.2763 97.0989C90.0409 93.78 89.616 90.0607 89.214 88.0694C88.735 85.6819 83.3215 85.3106 81.6365 83.9208C77.9873 80.8943 77.1083 79.963 76.221 75.499C75.8835 73.8085 76.0668 71.6989 76.4292 69.9233C76.8312 67.9236 80.0097 66.0567 80.0097 66.0567C80.0097 66.0567 83.4736 63.8248 84.3317 62.9702C86.4938 60.8149 87.9581 57.0895 89.4744 54.37C94.0568 46.1433 97.8205 37.5577 104.357 30.5838C108.704 25.9456 113.401 22.1019 120.157 23.4482C121.72 23.7572 123.059 25.0329 124.386 25.8253C127.654 27.7793 131.601 30.0777 133.571 33.5107C135.258 36.4479 136.452 40.4057 138.899 42.8451C142.876 46.805 148.912 49.0681 150.474 55.291C151.049 57.5728 151.318 60.2507 150.843 62.6092C150.559 64.0156 149.578 67.0151 149.578 67.0151C149.578 67.0151 152.065 67.4839 152.73 68.2783C154.963 70.9459 154.157 75.1796 153.005 78.3409C152.051 80.9483 146.521 84.5742 146.521 84.5742C146.521 84.5742 145.702 88.2416 145.248 89.4862C144.542 91.4215 142.676 95.8522 141.972 97.1757C141.268 98.4991 137.093 103.409 137.093 103.409L137.283 111.098C137.283 111.098 139.147 111.437 138.533 113.478C137.7 116.266 135.79 118.823 134.123 121.163C131.416 124.969 127.918 130.475 123.469 132.69C122.22 133.312 120.822 133.648 119.61 134.337C117.227 135.675 116.356 137.654 113.517 137.079Z" fill="#FFE3CC"/>
<path fill-rule="evenodd" clip-rule="evenodd" d="M9.02353 288.378C13.006 291.861 18.4299 293.564 23.1726 294.869C27.9154 296.173 37.2405 298.051 37.2405 298.051C37.2405 298.051 34.8056 311.83 33.5204 323.057C32.8955 328.56 32.5394 333.447 32.3415 337H205.709C205.515 332.391 205.084 325.33 204.182 317.545C202.776 305.578 200.706 294.738 200.706 294.738C200.706 294.738 204.799 295.36 210.018 293.589C214.051 292.226 219.612 288.859 224.145 283.472C230.856 275.499 236.473 257.859 235.196 241.816C234.988 239.215 234.055 233.402 232.634 226.207C231.193 218.899 229.252 210.143 227.331 199.353C225.505 189.087 224.255 177.703 222.27 168.014C220.302 158.393 217.6 150.44 215.105 147.868C213.439 146.157 210.468 143.226 208.185 141.645C198.015 134.623 183.743 131.041 171.593 126.135C163.053 122.684 154.591 117.855 154.591 117.855L137.8 103.419L137.148 103.774C137.148 103.774 138.227 117.357 135.105 129C129.829 148.671 120.133 205.082 120.133 205.082L90.9728 108.674L90.3021 104.11L75.7219 117.956C72.3657 119.528 68.9203 120.902 65.4032 122.074C62.3726 123.098 58.0048 124.235 55.095 124.938L54.3598 125.117C44.0182 127.591 33.233 129.645 24.5057 135.916C20.2524 138.975 15.7367 143.591 13.3997 148.712C10.8044 154.404 8.30493 162.384 6.91356 171.339C4.54114 186.651 2.83942 207.301 1.92503 224.877C0.925243 244.042 0.575317 260.815 1.24393 269.06C2.03542 278.807 4.73277 284.626 9.02353 288.378Z" fill="white"/>
<path fill-rule="evenodd" clip-rule="evenodd" d="M178.548 204.21C178.548 204.21 178.377 198.087 178.377 197.643C178.377 194.324 177.806 187.359 177.148 184.079C176.49 180.8 172.593 174.884 171.466 172.077C170.658 170.063 168.966 165.659 168.427 163.498C167.642 160.374 165.763 156.723 166.721 153.388C167.415 150.971 170.735 148.598 171.97 146.447C172.897 144.829 175.246 140.933 177.004 139.884C178.462 139.008 179.504 139.512 179.504 139.512C179.504 139.512 180.272 133.188 180.499 129.784C180.726 126.38 181.974 120.364 182.72 117.019C183.668 112.772 184.407 107.966 186.459 104.172C187.821 101.652 189.939 96.4703 192.949 99.4013C194.594 101.005 193.134 106.288 192.532 109.126C191.558 113.658 190.908 121.918 190.614 124.971C190.32 128.025 190.358 135.057 190.358 135.057C190.358 135.057 192.699 135.658 193.638 136.328C195.28 137.496 195.929 138.324 195.929 138.324C195.929 138.324 198.198 138.56 198.658 138.672C200.285 139.087 202.805 139.929 204.028 140.821C205.582 141.954 206.515 144.555 206.515 144.555C206.515 144.555 208.914 145.966 209.889 146.513C211.366 147.343 213.057 148.843 213.467 151.284C214.236 155.879 212.93 167.704 211.095 172.27C208.596 178.483 206.74 179.323 205.842 183.471C204.671 188.881 205.634 195.162 206.025 200.502C206.154 202.304 207.029 206.422 207.029 206.422C207.029 206.422 205.155 208.432 202.595 209.249C198.939 210.419 194.074 210.494 192.913 210.27C189.389 209.566 184.186 209.811 181.339 206.975C180.299 205.963 178.548 204.21 178.548 204.21Z" fill="#FFE3CC"/>
<path fill-rule="evenodd" clip-rule="evenodd" d="M142.637 284.182C142.637 284.182 143.299 281.182 143.37 280.241C143.566 277.706 143.439 275.092 143.545 272.551C143.622 270.715 143.057 260.559 143.057 260.559C143.057 260.559 148.598 259.914 149.65 259.163C154.197 255.932 157.286 251.179 160.216 246.51C162.764 242.451 165.424 236.288 167.161 233.79C167.881 232.759 171.631 230.872 171.631 230.872C171.631 230.872 172.716 242.028 173.713 250.802C174.13 254.372 174.784 258.28 174.905 259.904C175.205 263.932 177.142 272.23 177.142 272.23C177.142 272.23 174.168 276.231 173.095 277.106C166.53 282.456 158.363 282.072 152.141 282.686C149.702 282.937 142.637 284.182 142.637 284.182Z" fill="#FFE3CC"/>
<path fill-rule="evenodd" clip-rule="evenodd" d="M130.566 88.6441C130.566 88.6441 124.846 89.5609 122.168 89.2664C120.847 89.1191 118.081 89.2353 116.775 89.0589C115.184 88.8225 110.164 88.1587 110.164 88.1587C110.164 88.1587 112.17 93.5395 113.849 94.8774C114.707 95.5599 115.83 96.7609 116.804 97.1758C118.471 97.8872 121.462 98.5199 124.415 97.1446C128.419 95.2798 130.566 88.6441 130.566 88.6441Z" fill="white"/>
<path fill-rule="evenodd" clip-rule="evenodd" d="M80.0007 65.6087C80.0007 65.6087 77.8116 56.1498 77.0159 51.6631C75.8058 44.8303 75.5017 41.0695 76.1474 34.4649C76.7452 28.3166 77.7304 19.6377 82.3356 14.6324C84.4803 12.3618 87.0738 10.558 89.9528 9.33455C94.0498 7.63154 96.7513 9.16031 100.396 7.77881C104.562 6.19818 106.749 4.02844 110.134 2.51212C112.777 1.32768 118.974 0.450245 122.49 0.950156C126.27 1.4874 129.613 2.33995 133.454 4.379C136.233 5.85177 139.846 9.35737 142.027 10.9256C146.037 13.8296 148.168 16.3188 150.871 20.5483C151.879 22.1248 153.198 25.9415 153.856 27.6321C156.126 33.5149 155.762 41.7893 155.124 48.1139C154.5 54.2871 154.252 56.7472 152.912 62.7462C152.602 64.1318 151.679 67.6913 151.679 67.6913L149.486 67.3512C149.486 67.3512 149.521 65.6917 149.521 64.6214C149.521 61.9393 149.521 57.5334 147.774 55.2081C146.918 54.0714 145.17 53.5694 143.321 52.5115C140.969 51.1673 140.196 50.7296 138.257 48.8026C135.674 46.2305 133.831 44.3221 132.152 41.1276C129.765 36.5952 125.972 30.4636 120.346 29.8392C118.965 29.6878 114.098 31.4053 112.683 31.5629C109.422 31.9218 106.951 32.0795 105.393 34.7367C104.191 36.7902 103.002 43.1688 100.715 47.6327C98.5364 51.8933 96.2014 53.6275 96.2014 53.6275C96.2014 53.6275 95.9703 52.8226 94.0061 58.1142C92.0419 63.4058 90.8443 66.5152 86.6097 67.208C85.8162 67.3491 80.0007 65.6087 80.0007 65.6087Z" fill="#E9A479"/>
<path fill-rule="evenodd" clip-rule="evenodd" d="M134.246 259.477C134.246 259.477 135.217 264.859 135.148 267.483C135.117 268.641 135.044 272.877 134.94 274.764C134.836 276.652 133.415 286.291 133.065 288.191C132.715 290.091 131.299 294.472 131.299 294.472C131.299 294.472 133.83 294.161 135.215 294.194C136.6 294.228 139.543 294.443 140.518 292.608C142.111 289.606 143.032 283.302 143.532 278.457C143.775 276.111 143.74 271.819 143.844 268.933C143.923 266.683 144.161 261.852 142.665 260.028C142.184 259.437 134.246 259.477 134.246 259.477Z" fill="#B5B3C2"/>
<path fill-rule="evenodd" clip-rule="evenodd" d="M177.55 218.37C177.55 218.37 177.809 214.252 177.636 211.614C177.463 208.975 177.428 204.011 177.865 203.317C178.196 202.798 179.294 205.183 181.741 206.667C184.189 208.15 188.615 209.504 192.316 209.932C196.017 210.359 201.466 209.336 203.376 208.542C205.286 207.747 207.665 205.845 207.711 205.872C209.146 206.619 209.415 209.961 209.704 211.408C210.089 213.315 211.387 218.449 211.387 218.449C211.387 218.449 207.284 223.697 204.722 225.601C201.806 227.758 197.519 227.991 196.255 228.042C193.041 228.173 186.753 225.284 184.397 223.529C181.877 221.664 177.55 218.37 177.55 218.37Z" fill="#B5B3C2"/>
<path fill-rule="evenodd" clip-rule="evenodd" d="M90.9805 111.544C92.2406 117.402 93.8465 123.071 95.3129 128.913L90.9805 111.544Z" fill="#E4E2F1"/>
<path fill-rule="evenodd" clip-rule="evenodd" d="M114.158 124.833C113.431 124.129 105.372 121.053 99.082 116.618C94.4039 113.318 90.4755 108.439 90.2839 109.18C89.7778 111.109 92.2002 121.655 95.3349 132.145C99.0091 144.452 103.596 156.929 104.56 158.988C105.031 159.99 109.805 173.631 113.893 185.801C115.422 190.365 116.926 194.677 118.011 198.145C119.188 201.908 119.901 204.632 120.45 204.495C121 204.358 122.95 198.064 125.033 190.582C128.969 176.402 133.868 156.454 134.068 155.491C141.667 119.004 138.078 111.184 138.078 111.184C138.078 111.184 135.443 114.48 132.762 116.013C128.18 118.63 123.662 121.346 120.727 124.011C116.405 127.936 116.243 131.821 116.243 131.821C116.243 131.821 116.33 126.936 114.158 124.833Z" fill="#B5B3C2"/>
<path d="M180.169 129.968C180.094 129.968 180.019 129.956 179.948 129.931C172.975 127.421 162.74 123.501 154.4 118.497C154.327 118.454 154.263 118.396 154.213 118.328C154.162 118.26 154.126 118.182 154.105 118.1C154.085 118.018 154.08 117.932 154.093 117.849C154.106 117.765 154.135 117.684 154.179 117.612C154.223 117.539 154.281 117.476 154.349 117.425C154.417 117.375 154.495 117.339 154.578 117.318C154.66 117.298 154.746 117.294 154.83 117.307C154.914 117.319 154.995 117.348 155.068 117.392C163.298 122.341 173.46 126.224 180.377 128.716C180.516 128.77 180.632 128.871 180.704 129.001C180.777 129.13 180.803 129.281 180.777 129.427C180.751 129.574 180.675 129.707 180.562 129.804C180.449 129.901 180.306 129.956 180.157 129.96L180.169 129.968Z" fill="#262626"/>
<path d="M204.075 295.511C193.096 295.511 180.801 286.177 177.318 274.7C173.167 261.009 170.124 227.636 170.372 209.126C170.374 208.957 170.443 208.795 170.564 208.676C170.685 208.556 170.849 208.49 171.019 208.49C171.105 208.491 171.189 208.508 171.267 208.542C171.345 208.576 171.416 208.624 171.476 208.685C171.535 208.746 171.582 208.818 171.613 208.897C171.645 208.976 171.66 209.06 171.659 209.145C171.421 227.563 174.442 260.742 178.561 274.326C182.132 286.102 195.358 295.52 206.301 294.076C212.342 293.281 229.022 285.532 233.587 259.561C236.087 245.381 234.029 235.723 230.923 221.106C229.751 215.584 228.424 209.328 227.147 201.891C226.274 196.792 225.518 191.795 224.791 186.956C222.538 172.021 220.59 159.106 216.314 151.095C212.092 143.188 202.965 138.442 190.559 133.771C190.475 133.744 190.397 133.7 190.33 133.643C190.264 133.585 190.209 133.515 190.171 133.436C190.133 133.357 190.111 133.271 190.107 133.183C190.103 133.095 190.117 133.007 190.148 132.925C190.179 132.843 190.227 132.768 190.288 132.705C190.349 132.641 190.423 132.591 190.504 132.557C190.585 132.523 190.673 132.506 190.761 132.507C190.849 132.507 190.936 132.526 191.017 132.561C203.706 137.353 213.046 142.232 217.453 150.494C221.827 158.702 223.798 171.71 226.068 186.771C226.795 191.596 227.549 196.587 228.42 201.673C229.69 209.083 231.017 215.329 232.188 220.838C235.312 235.603 237.395 245.356 234.86 259.785C230.659 283.698 215.577 294.159 206.466 295.358C205.673 295.461 204.874 295.512 204.075 295.511Z" fill="#262626"/>
<path d="M177.738 218.534H177.707C177.622 218.53 177.538 218.509 177.461 218.473C177.384 218.436 177.315 218.385 177.258 218.322C177.201 218.259 177.157 218.185 177.128 218.105C177.1 218.025 177.088 217.94 177.093 217.855C177.249 214.744 177.076 212.035 176.92 209.633C176.682 205.924 176.503 203.242 177.726 201.493C177.826 201.356 177.975 201.263 178.143 201.235C178.31 201.206 178.482 201.244 178.622 201.341C178.762 201.437 178.858 201.584 178.89 201.75C178.922 201.916 178.888 202.088 178.794 202.229C177.834 203.609 178.003 206.231 178.215 209.552C178.372 211.987 178.549 214.738 178.386 217.922C178.378 218.087 178.306 218.243 178.185 218.357C178.064 218.47 177.905 218.534 177.738 218.534Z" fill="#262626"/>
<path d="M178.464 204.47C178.379 204.469 178.295 204.452 178.216 204.42C178.137 204.387 178.066 204.339 178.006 204.279C177.945 204.218 177.898 204.147 177.865 204.068C177.833 203.99 177.816 203.905 177.817 203.82C177.833 200.207 177.798 197.521 177.71 195.365C177.186 182.633 174.924 179.153 173.105 176.354C172.449 175.409 171.885 174.403 171.422 173.351C169.102 167.789 165.867 157.586 165.763 155.883C165.555 152.431 167.302 150.589 169.333 148.455C170.213 147.563 171.038 146.619 171.805 145.63C172.43 144.787 173.014 143.97 173.541 143.213C175.478 140.438 177.006 138.249 179.127 138.894C179.545 139.033 179.93 139.257 180.256 139.552C180.582 139.848 180.842 140.208 181.02 140.61C181.891 142.381 181.783 145.173 180.739 147.884C180.268 149.058 179.701 150.192 179.046 151.274C178.144 152.836 177.492 153.97 177.85 155.346C178.021 156.012 178.919 156.903 180.058 158.042C182.653 160.621 186.575 164.518 188.167 171.706C188.204 171.873 188.172 172.048 188.08 172.192C187.987 172.337 187.841 172.439 187.673 172.475C187.505 172.512 187.329 172.481 187.184 172.389C187.039 172.297 186.937 172.151 186.9 171.984C185.378 165.157 181.628 161.421 179.129 158.949C177.8 157.629 176.838 156.667 176.579 155.667C176.092 153.777 176.934 152.319 177.906 150.631C178.528 149.606 179.066 148.533 179.514 147.422C180.418 145.067 180.556 142.616 179.841 141.178C179.741 140.936 179.591 140.718 179.4 140.537C179.21 140.357 178.983 140.218 178.735 140.131C177.577 139.78 176.461 141.273 174.592 143.949C174.057 144.717 173.476 145.549 172.832 146.403C172.037 147.435 171.182 148.419 170.27 149.351C168.298 151.425 166.875 152.915 167.048 155.802C167.136 157.208 170.285 167.277 172.612 172.857C173.048 173.836 173.576 174.772 174.188 175.653C176.092 178.582 178.462 182.229 179.002 195.314C179.089 197.485 179.125 200.192 179.108 203.818C179.109 203.903 179.093 203.987 179.061 204.066C179.029 204.145 178.982 204.217 178.922 204.277C178.862 204.338 178.791 204.386 178.713 204.419C178.634 204.452 178.55 204.469 178.464 204.47Z" fill="#262626"/>
<path d="M226.605 264.453H226.528C226.358 264.432 226.202 264.345 226.096 264.21C225.989 264.076 225.94 263.905 225.96 263.735C226.916 255.608 224.352 249.032 221.102 240.71C218.122 233.066 214.412 223.549 212.29 209.803C212.262 209.634 212.303 209.46 212.404 209.321C212.504 209.182 212.656 209.089 212.826 209.061C212.996 209.034 213.17 209.074 213.309 209.175C213.449 209.275 213.543 209.426 213.571 209.595C215.672 223.211 219.355 232.651 222.319 240.239C225.631 248.734 228.249 255.442 227.255 263.886C227.235 264.044 227.158 264.188 227.038 264.293C226.919 264.397 226.765 264.454 226.605 264.453Z" fill="#262626"/>
<path d="M211.244 218.519C211.106 218.521 210.971 218.479 210.859 218.399C210.747 218.319 210.663 218.206 210.619 218.075C209.873 215.737 209.266 213.357 208.801 210.948C208.209 208.12 207.741 205.886 206.749 205.389C206.673 205.35 206.605 205.298 206.55 205.234C206.494 205.169 206.452 205.095 206.425 205.014C206.399 204.934 206.388 204.849 206.394 204.764C206.401 204.68 206.424 204.597 206.462 204.522C206.5 204.446 206.553 204.378 206.618 204.323C206.682 204.268 206.757 204.225 206.838 204.199C206.918 204.172 207.004 204.162 207.089 204.168C207.174 204.174 207.256 204.197 207.332 204.235C208.884 205.013 209.382 207.39 210.072 210.684C210.526 213.046 211.12 215.379 211.85 217.671C211.883 217.768 211.891 217.871 211.876 217.972C211.86 218.073 211.821 218.168 211.761 218.251C211.701 218.334 211.622 218.402 211.531 218.448C211.439 218.495 211.338 218.519 211.236 218.519H211.244Z" fill="#262626"/>
<path d="M207.069 206.778C206.923 206.777 206.782 206.726 206.669 206.635C206.555 206.544 206.476 206.418 206.444 206.276C204.553 198.074 204.425 191.963 204.813 185.305C204.986 182.401 206.51 179.717 207.987 177.128C208.82 175.676 209.672 174.176 210.289 172.641C212.176 167.937 215.186 151.579 211.23 148.338C208.85 146.389 205.232 144.258 202.92 144.669C197.875 145.555 195.7 149.766 194.23 153.767C193.444 155.908 194.157 160.963 195.64 163.786C196.202 164.852 196.84 165.526 197.435 165.682C197.635 165.75 197.848 165.769 198.056 165.739C198.265 165.708 198.463 165.629 198.635 165.508C199.641 164.786 200.278 162.506 200.526 158.731C200.735 155.48 202.453 154.277 204.109 153.111C204.513 152.829 204.923 152.541 205.315 152.215C205.447 152.105 205.619 152.052 205.79 152.068C205.962 152.083 206.121 152.166 206.231 152.298C206.342 152.43 206.395 152.601 206.38 152.772C206.364 152.943 206.281 153.101 206.148 153.211C205.731 153.557 205.292 153.864 204.863 154.167C203.326 155.248 201.999 156.181 201.826 158.816C201.543 163.112 200.772 165.572 199.399 166.557C199.072 166.791 198.695 166.946 198.298 167.011C197.901 167.076 197.494 167.049 197.108 166.933C196.127 166.678 195.246 165.819 194.49 164.385C192.845 161.255 192.109 155.777 193.009 153.325C194.515 149.23 196.967 144.406 202.688 143.397C206.244 142.775 211.109 146.571 212.047 147.339C216.96 151.363 213.001 169.351 211.486 173.12C210.837 174.738 209.958 176.277 209.108 177.767C207.65 180.339 206.256 182.768 206.102 185.38C205.719 191.926 205.846 197.933 207.702 205.986C207.741 206.153 207.711 206.329 207.619 206.474C207.528 206.62 207.382 206.723 207.214 206.762C207.167 206.772 207.118 206.778 207.069 206.778Z" fill="#262626"/>
<path d="M192.551 164.717C192.089 164.712 191.635 164.599 191.224 164.388C187.758 162.676 184.497 154.277 186.267 149.282C188.585 142.746 189.573 140.388 193.23 138.463C195.282 137.382 199.127 137.697 202.37 139.21C205.005 140.438 206.684 142.192 207.096 144.148C207.113 144.231 207.114 144.317 207.099 144.4C207.083 144.484 207.051 144.563 207.004 144.634C206.958 144.705 206.898 144.766 206.828 144.814C206.757 144.862 206.678 144.895 206.595 144.913C206.512 144.93 206.426 144.931 206.342 144.916C206.258 144.9 206.179 144.868 206.107 144.822C206.036 144.775 205.975 144.716 205.927 144.646C205.879 144.576 205.845 144.497 205.827 144.414C205.503 142.887 204.044 141.417 201.82 140.379C198.962 139.046 195.532 138.72 193.836 139.606C190.595 141.311 189.731 143.391 187.492 149.714C185.825 154.425 189.091 161.892 191.801 163.228C192.332 163.492 193.132 163.695 193.942 162.465C194.037 162.321 194.184 162.221 194.353 162.186C194.521 162.151 194.696 162.184 194.84 162.278C194.984 162.372 195.085 162.519 195.12 162.686C195.155 162.854 195.122 163.029 195.028 163.172C194.357 164.191 193.501 164.717 192.551 164.717Z" fill="#262626"/>
<path d="M181.024 142.895C180.904 142.894 180.786 142.86 180.685 142.796C180.583 142.732 180.501 142.641 180.448 142.533C180.396 142.426 180.374 142.305 180.386 142.186C180.398 142.067 180.443 141.953 180.516 141.858C181.263 140.959 182.065 140.106 182.918 139.305C183.632 138.602 184.376 137.876 185.059 137.079C186.467 135.453 188.287 134.654 190.304 134.762C193.084 134.914 195.58 136.724 196.392 137.901C196.482 138.042 196.513 138.213 196.479 138.377C196.445 138.54 196.349 138.685 196.21 138.78C196.072 138.874 195.902 138.912 195.736 138.885C195.57 138.857 195.422 138.767 195.321 138.633C194.765 137.824 192.634 136.183 190.233 136.052C188.587 135.953 187.192 136.592 186.042 137.919C185.321 138.749 184.563 139.5 183.828 140.22C183.016 140.986 182.251 141.8 181.537 142.657C181.475 142.733 181.397 142.794 181.308 142.835C181.22 142.877 181.122 142.897 181.024 142.895Z" fill="#262626"/>
<path d="M186.809 162.655C186.575 162.655 186.342 162.632 186.113 162.587C184.522 162.276 181.506 160.654 179.211 153.29C178.907 152.328 178.671 151.347 178.505 150.353C178.491 150.269 178.494 150.184 178.513 150.101C178.533 150.019 178.568 149.941 178.618 149.872C178.668 149.803 178.731 149.745 178.803 149.7C178.875 149.656 178.956 149.626 179.04 149.612C179.124 149.599 179.21 149.602 179.292 149.621C179.375 149.64 179.453 149.676 179.522 149.725C179.592 149.775 179.65 149.837 179.695 149.909C179.74 149.981 179.77 150.062 179.783 150.145C179.942 151.079 180.166 152.001 180.454 152.904C182.689 160.073 185.545 161.156 186.367 161.318C186.705 161.4 187.06 161.387 187.391 161.281C187.722 161.174 188.017 160.978 188.242 160.714C188.353 160.582 188.511 160.498 188.683 160.483C188.855 160.467 189.027 160.52 189.16 160.63C189.292 160.74 189.376 160.898 189.392 161.069C189.408 161.241 189.354 161.411 189.244 161.544C188.947 161.898 188.574 162.182 188.153 162.374C187.732 162.567 187.272 162.663 186.809 162.655Z" fill="#262626"/>
<path d="M179.643 140.178H179.631C179.461 140.172 179.299 140.1 179.182 139.976C179.065 139.853 179.002 139.688 179.006 139.518C179.16 132.466 181.049 121.403 182.855 113.589C185.342 102.803 188.154 97.9035 191.847 98.2395C192.194 98.2563 192.532 98.3483 192.839 98.5092C193.146 98.6701 193.414 98.896 193.624 99.1709C194.819 100.756 194.178 104.035 193.363 108.184C192.876 110.673 192.322 113.488 192.13 116.222C191.922 119.035 191.662 121.221 191.424 123.152C190.962 126.886 190.591 129.85 191.062 135.019C191.069 135.104 191.06 135.189 191.035 135.27C191.01 135.351 190.968 135.426 190.914 135.491C190.859 135.556 190.793 135.61 190.717 135.649C190.642 135.689 190.559 135.713 190.474 135.72C190.39 135.728 190.304 135.719 190.223 135.694C190.142 135.668 190.066 135.627 190.001 135.573C189.935 135.519 189.881 135.452 189.842 135.377C189.802 135.302 189.778 135.22 189.77 135.135C189.291 129.829 189.664 126.813 190.135 122.994C190.372 121.08 190.639 118.91 190.837 116.131C191.045 113.318 191.595 110.459 192.087 107.937C192.778 104.411 193.432 101.073 192.582 99.9467C192.481 99.8174 192.351 99.7129 192.202 99.641C192.054 99.5691 191.891 99.5318 191.726 99.5318C189.818 99.3534 186.921 101.708 184.115 113.886C182.326 121.646 180.452 132.594 180.3 139.562C180.291 139.729 180.219 139.887 180.096 140.002C179.974 140.117 179.812 140.18 179.643 140.178Z" fill="#262626"/>
<path d="M143.187 261.063C143.02 261.062 142.859 260.996 142.739 260.88C142.619 260.764 142.549 260.606 142.543 260.439C142.537 260.272 142.596 260.11 142.708 259.986C142.819 259.861 142.974 259.784 143.141 259.771C145.861 259.58 147.873 259.194 148.961 258.659C154.008 256.187 160.833 244.705 163.941 238.051C167.211 231.062 171.425 230.231 171.602 230.2C171.771 230.172 171.944 230.21 172.085 230.307C172.226 230.405 172.323 230.553 172.356 230.72C172.371 230.804 172.37 230.889 172.352 230.972C172.334 231.055 172.299 231.134 172.251 231.204C172.202 231.273 172.14 231.333 172.069 231.379C171.997 231.425 171.917 231.456 171.833 231.471C171.8 231.471 168.084 232.272 165.118 238.596C161.802 245.682 154.912 257.18 149.536 259.819C148.286 260.441 146.159 260.856 143.233 261.063H143.187Z" fill="#262626"/>
<path d="M143.313 284.414C143.147 284.417 142.985 284.357 142.862 284.244C142.739 284.132 142.665 283.977 142.654 283.812C142.643 283.646 142.696 283.482 142.803 283.355C142.91 283.228 143.062 283.146 143.228 283.128C146.492 282.699 150.531 282.261 156.321 281.711C166.421 280.755 171.478 279.17 176.635 271.827C176.684 271.757 176.746 271.698 176.818 271.652C176.89 271.607 176.97 271.575 177.054 271.56C177.137 271.545 177.223 271.547 177.307 271.565C177.39 271.583 177.469 271.618 177.538 271.666C177.608 271.715 177.668 271.776 177.714 271.848C177.76 271.919 177.791 271.999 177.806 272.083C177.821 272.166 177.819 272.252 177.801 272.335C177.783 272.417 177.749 272.496 177.7 272.565C172.245 280.334 166.965 282.002 156.454 282.999C150.681 283.547 146.665 283.982 143.409 284.41C143.377 284.414 143.345 284.415 143.313 284.414Z" fill="#262626"/>
<path d="M107.319 304.78C101.424 304.78 94.3735 304.514 85.742 303.991C57.5667 302.284 20.8745 297.665 10.2059 290.286C-1.78111 282.001 -0.508464 259.113 0.832918 234.881C1.04121 231.004 1.26616 227.076 1.43696 223.145C2.52631 197.909 5.99849 168.59 9.1749 157.783C16.3005 133.586 32.9095 129.68 50.5036 125.556C58.8123 123.606 67.4021 121.592 75.2463 117.317C75.321 117.276 75.403 117.25 75.4877 117.241C75.5724 117.232 75.6581 117.239 75.7399 117.263C75.8217 117.287 75.898 117.326 75.9645 117.379C76.031 117.432 76.0863 117.498 76.1274 117.572C76.1684 117.647 76.1943 117.728 76.2037 117.813C76.213 117.897 76.2055 117.982 76.1818 118.064C76.158 118.145 76.1183 118.221 76.065 118.288C76.0117 118.354 75.9459 118.409 75.8712 118.45C67.8729 122.806 59.1955 124.845 50.8036 126.813C33.5926 130.85 17.3357 134.665 10.4309 158.136C7.2753 168.868 3.82603 198.05 2.73876 223.197C2.57005 227.138 2.35135 231.067 2.13473 234.95C0.807924 258.804 -0.445978 281.348 10.937 289.22C20.7266 295.991 55.5984 300.867 85.8212 302.703C105.638 303.902 117.052 303.74 125.219 302.139C130.249 301.149 134.269 284.109 134.5 269.531C134.638 260.908 133.338 258.329 132.626 258.161C127.075 256.888 116.831 256.187 107.794 255.568C100.995 255.104 95.1234 254.701 92.1594 254.135C81.8449 252.16 73.2322 249.03 65.6338 246.271C54.3966 242.191 44.6965 238.663 33.3906 240.144C33.2242 240.157 33.0589 240.107 32.9289 240.002C32.799 239.898 32.7144 239.748 32.6927 239.583C32.671 239.418 32.7139 239.251 32.8124 239.117C32.9109 238.983 33.0576 238.891 33.2219 238.862C44.834 237.348 54.6757 240.917 66.0774 245.056C73.63 247.8 82.1907 250.909 92.4031 252.866C95.2921 253.417 101.407 253.836 107.883 254.28C116.969 254.903 127.254 255.606 132.917 256.902C135.452 257.483 135.881 264.102 135.794 269.556C135.586 282.429 132.165 302.093 125.465 303.408C120.772 304.325 115.038 304.78 107.319 304.78Z" fill="#262626"/>
<path d="M52.4403 237.748C52.2681 237.745 52.104 237.675 51.9838 237.552C51.8636 237.429 51.7971 237.264 51.7987 237.092C52.1507 209.828 44.0275 171.6 34.417 155.283C34.3326 155.135 34.31 154.96 34.3541 154.796C34.3982 154.632 34.5055 154.491 34.6528 154.405C34.8 154.319 34.9754 154.294 35.141 154.336C35.3066 154.377 35.4491 154.482 35.5376 154.628C46.4374 173.137 53.4171 212.219 53.0964 237.109C53.0956 237.194 53.0779 237.278 53.0445 237.356C53.011 237.434 52.9625 237.505 52.9015 237.564C52.8405 237.623 52.7684 237.67 52.6893 237.702C52.6101 237.733 52.5255 237.749 52.4403 237.748Z" fill="#262626"/>
<path d="M131.589 295.25C131.425 295.252 131.267 295.193 131.145 295.084C131.024 294.974 130.948 294.823 130.934 294.661C130.92 294.499 130.968 294.337 131.068 294.208C131.169 294.08 131.315 293.994 131.476 293.968C132.753 293.761 134.04 293.622 135.332 293.553C137.61 293.396 139.581 293.261 140.122 292.186C140.493 291.446 142.276 284.401 142.87 277.419C143.603 268.798 142.911 261.13 142.107 260.364C141.408 259.949 140.32 260.009 138.946 260.086C137.667 260.159 136.075 260.248 134.267 259.949C134.183 259.936 134.103 259.906 134.031 259.861C133.958 259.817 133.895 259.758 133.846 259.689C133.796 259.621 133.76 259.543 133.741 259.46C133.721 259.378 133.718 259.292 133.732 259.209C133.746 259.125 133.776 259.045 133.821 258.973C133.865 258.901 133.924 258.838 133.993 258.789C134.062 258.739 134.14 258.704 134.223 258.684C134.306 258.665 134.392 258.662 134.476 258.676C136.142 258.952 137.6 258.871 138.868 258.798C140.401 258.711 141.728 258.636 142.795 259.273C144.605 260.356 144.751 270.57 144.159 277.527C143.567 284.484 141.77 291.786 141.278 292.763C140.408 294.501 138.096 294.659 135.419 294.837C134.174 294.901 132.933 295.032 131.701 295.229C131.664 295.239 131.627 295.246 131.589 295.25Z" fill="#262626"/>
<path d="M197.249 228.664C194.806 228.664 192.071 228.003 189.065 226.683C180.332 222.846 171.886 214.37 170.674 210.746C169.518 207.293 171.884 202.802 177.71 197.398C177.836 197.281 178.003 197.219 178.176 197.225C178.348 197.232 178.511 197.306 178.628 197.431C178.745 197.557 178.808 197.724 178.802 197.896C178.795 198.067 178.721 198.229 178.595 198.346C174.868 201.802 170.68 206.687 171.905 210.338C173.05 213.76 181.43 221.915 189.59 225.501C194.221 227.536 198.268 227.903 201.29 226.565C207.476 223.827 211.948 218.268 212.421 212.702C212.806 208.139 210.517 204.084 205.797 200.958C205.722 200.913 205.656 200.853 205.604 200.782C205.552 200.711 205.515 200.631 205.496 200.545C205.476 200.46 205.474 200.371 205.49 200.285C205.506 200.198 205.539 200.116 205.588 200.043C205.637 199.97 205.7 199.908 205.774 199.86C205.848 199.812 205.93 199.779 206.017 199.764C206.104 199.749 206.193 199.751 206.279 199.771C206.364 199.792 206.445 199.829 206.516 199.881C213.008 204.181 214.014 209.286 213.712 212.812C213.202 218.828 208.422 224.823 201.817 227.747C200.376 228.371 198.82 228.683 197.249 228.664Z" fill="#262626"/>
<path d="M194.895 210.751C193.034 210.746 191.178 210.563 189.352 210.205C183.52 209.075 178.938 206.399 177.398 203.221C177.337 203.069 177.336 202.899 177.396 202.746C177.455 202.593 177.571 202.468 177.72 202.397C177.868 202.326 178.038 202.313 178.195 202.362C178.353 202.411 178.485 202.518 178.567 202.661C179.916 205.434 184.247 207.9 189.606 208.938C196.63 210.298 203.212 208.967 207.215 205.364C207.277 205.301 207.352 205.252 207.434 205.22C207.516 205.187 207.603 205.171 207.692 205.174C207.78 205.176 207.867 205.196 207.947 205.233C208.027 205.27 208.099 205.322 208.158 205.387C208.217 205.453 208.262 205.529 208.29 205.613C208.319 205.696 208.33 205.784 208.323 205.872C208.316 205.959 208.291 206.045 208.25 206.122C208.209 206.2 208.152 206.269 208.083 206.324C204.87 209.211 200.166 210.751 194.895 210.751Z" fill="#262626"/>
<path d="M33.0146 337C34.1602 318.823 36.8679 302.454 37.7719 298.432C37.8005 298.268 37.7648 298.1 37.6722 297.962C37.5797 297.824 37.4373 297.726 37.2745 297.69C37.1118 297.653 36.9412 297.68 36.798 297.766C36.6549 297.851 36.5501 297.988 36.5055 298.148C35.5869 302.201 32.8584 318.7 31.7148 337H33.0146Z" fill="#262626"/>
<path d="M205.147 337H206.446C205.821 322.48 203.738 305.331 201.21 294.912C201.193 294.826 201.159 294.744 201.11 294.672C201.061 294.599 200.997 294.538 200.924 294.49C200.85 294.443 200.767 294.411 200.68 294.396C200.594 294.382 200.505 294.385 200.42 294.405C200.334 294.426 200.254 294.463 200.183 294.516C200.113 294.568 200.054 294.634 200.01 294.709C199.966 294.785 199.937 294.869 199.927 294.956C199.916 295.043 199.923 295.131 199.948 295.215C202.458 305.547 204.54 322.581 205.147 337Z" fill="#262626"/>
<path d="M120.506 111.584C120.158 111.584 119.812 111.569 119.464 111.54C111.399 110.843 99.777 106.147 93.572 95.1758C93.5302 95.1019 93.5033 95.0206 93.493 94.9365C93.4827 94.8523 93.4892 94.767 93.512 94.6853C93.5348 94.6036 93.5736 94.5273 93.6261 94.4605C93.6785 94.3937 93.7437 94.3379 93.8178 94.2963C93.8919 94.2546 93.9736 94.2279 94.0581 94.2176C94.1426 94.2073 94.2283 94.2138 94.3103 94.2365C94.3923 94.2592 94.469 94.2978 94.536 94.3501C94.6031 94.4023 94.6591 94.4672 94.701 94.541C102.547 108.4 117.859 110.098 119.579 110.252C125.165 110.729 132.87 106.387 137.284 102.05C143.376 96.0574 145.226 88.1418 146.23 81.1866C146.238 81.0996 146.265 81.0153 146.307 80.9387C146.349 80.8621 146.407 80.7948 146.476 80.7409C146.545 80.687 146.624 80.6476 146.709 80.6251C146.794 80.6026 146.882 80.5974 146.969 80.6099C147.056 80.6224 147.139 80.6523 147.214 80.6977C147.289 80.7432 147.354 80.8033 147.405 80.8744C147.456 80.9456 147.492 81.0263 147.511 81.1116C147.53 81.197 147.531 81.2853 147.515 81.3712C146.473 88.5379 144.561 96.7066 138.198 102.969C134.555 106.545 127.036 111.584 120.506 111.584Z" fill="#262626"/>
<path d="M86.0435 86.055C84.2252 86.055 81.8778 85.0074 79.8594 83.2733C76.9892 80.7966 75.325 77.403 75.2937 73.9617C75.2562 70.035 76.606 67.0542 78.9055 65.9859C80.7676 65.1189 83.0025 65.6167 85.0437 67.3508C85.1127 67.4047 85.1699 67.4719 85.2121 67.5484C85.2543 67.6249 85.2805 67.709 85.2892 67.7959C85.2979 67.8827 85.2888 67.9704 85.2626 68.0536C85.2364 68.1369 85.1935 68.214 85.1366 68.2804C85.0797 68.3467 85.0099 68.4009 84.9314 68.4397C84.8529 68.4785 84.7674 68.501 84.6799 68.5061C84.5924 68.5111 84.5048 68.4984 84.4224 68.4689C84.3399 68.4393 84.2644 68.3935 84.2002 68.3341C82.5339 66.9235 80.8551 66.5045 79.4553 67.1558C77.6287 68.0042 76.558 70.5432 76.5914 73.9492C76.6185 77.0192 78.1202 80.0623 80.7092 82.2963C82.6338 83.9557 84.9354 84.9369 86.4289 84.7378C86.5147 84.7234 86.6027 84.7263 86.6874 84.7464C86.7721 84.7664 86.8519 84.8033 86.922 84.8547C86.9922 84.9061 87.0512 84.971 87.0957 85.0456C87.1401 85.1201 87.1691 85.2029 87.1808 85.2888C87.1926 85.3747 87.1868 85.4621 87.164 85.5458C87.1411 85.6295 87.1016 85.7078 87.0478 85.7759C86.9939 85.8441 86.9269 85.9008 86.8507 85.9427C86.7744 85.9846 86.6905 86.0108 86.6038 86.0197C86.418 86.0432 86.2309 86.055 86.0435 86.055Z" fill="#262626"/>
<path d="M146.784 84.8395C146.625 84.8388 146.472 84.7804 146.354 84.6752C146.236 84.5701 146.16 84.4254 146.141 84.2686C146.123 84.1118 146.162 83.9535 146.252 83.8237C146.343 83.6939 146.478 83.6015 146.632 83.5638C146.813 83.5202 151.039 82.4146 152.847 76.3203C153.745 73.2959 153.609 70.6449 152.485 69.224C151.86 68.4441 150.96 68.079 149.829 68.1412C149.743 68.1475 149.656 68.1366 149.574 68.1092C149.492 68.0817 149.417 68.0382 149.352 67.9813C149.287 67.9244 149.234 67.8552 149.196 67.7777C149.159 67.7002 149.137 67.616 149.132 67.53C149.128 67.444 149.141 67.358 149.17 67.277C149.199 67.196 149.244 67.1216 149.303 67.0582C149.361 66.9948 149.432 66.9436 149.51 66.9076C149.589 66.8717 149.674 66.8518 149.76 66.8489C151.349 66.7784 152.622 67.3136 153.509 68.4233C154.917 70.199 155.132 73.2088 154.101 76.6854C152.068 83.5306 147.15 84.7752 146.942 84.8208C146.89 84.8338 146.837 84.84 146.784 84.8395Z" fill="#262626"/>
<path d="M121.146 80.0064C121.012 80.0069 120.88 79.9655 120.77 79.8881C120.66 79.8106 120.577 79.7009 120.532 79.5742C120.488 79.4475 120.484 79.3101 120.522 79.1812C120.559 79.0524 120.636 78.9384 120.742 78.8552C123.604 76.5921 123.085 75.5363 122.144 73.6009C121.255 71.7797 120.036 69.2863 121.63 65.0962C121.695 64.9425 121.818 64.8201 121.973 64.7547C122.127 64.6892 122.301 64.6857 122.458 64.7449C122.615 64.8041 122.742 64.9215 122.814 65.0724C122.886 65.2233 122.897 65.3961 122.844 65.5546C121.448 69.2262 122.438 71.2528 123.31 73.0408C124.296 75.0592 125.227 76.9634 121.548 79.8716C121.433 79.9603 121.292 80.0078 121.146 80.0064Z" fill="#262626"/>
<path d="M99.8938 58.1824C99.7499 58.1819 99.6102 58.1339 99.4967 58.0459C99.3832 57.9578 99.3022 57.8348 99.2665 57.696C99.2307 57.5571 99.2423 57.4105 99.2992 57.2789C99.3562 57.1473 99.4555 57.0383 99.5814 56.9689C102.116 55.5895 107.94 54.7307 111.289 56.525C111.432 56.6108 111.536 56.7479 111.581 56.9081C111.625 57.0683 111.605 57.2393 111.526 57.3856C111.447 57.5319 111.315 57.6424 111.156 57.6942C110.998 57.746 110.825 57.7351 110.675 57.6638C107.848 56.1496 102.458 56.8756 100.204 58.1036C100.109 58.1553 100.002 58.1824 99.8938 58.1824Z" fill="#262626"/>
<path d="M139.761 58.1762C139.614 58.1767 139.472 58.1269 139.357 58.0352C137.514 56.5686 133.221 56.718 130.759 57.8277C130.681 57.8671 130.595 57.8902 130.508 57.8958C130.42 57.9014 130.333 57.8893 130.25 57.8603C130.167 57.8312 130.091 57.7858 130.027 57.7268C129.962 57.6677 129.91 57.5963 129.874 57.5168C129.838 57.4372 129.818 57.3512 129.817 57.2639C129.815 57.1766 129.831 57.0899 129.863 57.0089C129.896 56.9278 129.945 56.8542 130.007 56.7925C130.069 56.7307 130.142 56.6821 130.224 56.6495C133.084 55.3593 137.87 55.1975 140.168 57.0229C140.273 57.1065 140.349 57.2205 140.386 57.3492C140.423 57.4779 140.419 57.6149 140.374 57.7412C140.33 57.8674 140.247 57.9768 140.137 58.054C140.027 58.1312 139.896 58.1725 139.761 58.1721V58.1762Z" fill="#262626"/>
<path d="M84.321 77.6915C84.2307 77.6922 84.1413 77.6741 84.0584 77.6384C83.9755 77.6027 83.9011 77.5501 83.8398 77.484L81.2321 74.6111C81.1692 74.5492 81.1197 74.4752 81.0865 74.3936C81.0534 74.312 81.0373 74.2246 81.0392 74.1366C81.0412 74.0485 81.0611 73.9619 81.0979 73.8818C81.1346 73.8017 81.1874 73.73 81.2529 73.6709C81.3185 73.6119 81.3954 73.5668 81.4791 73.5383C81.5627 73.5099 81.6513 73.4988 81.7395 73.5056C81.8276 73.5125 81.9134 73.5371 81.9916 73.5781C82.0698 73.6191 82.1388 73.6756 82.1944 73.7441L84.8001 76.6128C84.8844 76.7054 84.94 76.8205 84.9599 76.9439C84.9799 77.0674 84.9633 77.194 84.9124 77.3083C84.8614 77.4226 84.7781 77.5196 84.6728 77.5876C84.5674 77.6557 84.4445 77.6918 84.3189 77.6915H84.321Z" fill="#262626"/>
<path d="M149.06 71.149H148.983C148.899 71.1392 148.817 71.1129 148.743 71.0716C148.668 71.0304 148.603 70.9749 148.55 70.9085C148.497 70.842 148.458 70.7659 148.435 70.6843C148.412 70.6028 148.405 70.5175 148.415 70.4333C148.698 68.0333 149.368 61.4743 149.073 59.9705C149.056 59.8872 149.057 59.8016 149.073 59.7185C149.09 59.6353 149.123 59.5563 149.171 59.4859C149.218 59.4155 149.279 59.3551 149.35 59.3082C149.421 59.2612 149.501 59.2286 149.584 59.2123C149.668 59.196 149.754 59.1962 149.837 59.2129C149.921 59.2297 150 59.2626 150.071 59.3099C150.141 59.3572 150.202 59.4179 150.249 59.4885C150.296 59.5591 150.329 59.6383 150.345 59.7215C150.735 61.6984 149.812 69.6783 149.706 70.5827C149.686 70.7391 149.609 70.8828 149.49 70.987C149.371 71.0912 149.219 71.1487 149.06 71.149Z" fill="#262626"/>
<path fill-rule="evenodd" clip-rule="evenodd" d="M102.271 67.6911C102.408 66.1064 103.587 64.9344 104.904 65.0775C106.22 65.2206 107.178 66.6187 107.041 68.2056C106.903 69.7924 105.724 70.9603 104.408 70.8213C103.091 70.6823 102.123 69.2821 102.271 67.6911Z" fill="#262626"/>
<path d="M72.3265 38.5283C72.1735 38.5276 72.0257 38.473 71.9093 38.3742C71.7928 38.2754 71.7153 38.1387 71.6903 37.9884C71.6654 37.8381 71.6946 37.6838 71.773 37.5529C71.8513 37.4221 71.9736 37.323 72.1182 37.2733C75.6779 36.0287 76.0528 32.6808 76.5298 28.4347C76.9109 25.0473 77.3421 21.2057 79.475 17.5507C84.1219 9.58325 92.5514 6.10255 99.5166 9.27418C99.6654 9.3502 99.779 9.48042 99.8339 9.63776C99.8887 9.79509 99.8805 9.96743 99.811 10.1189C99.7416 10.2704 99.6161 10.3894 99.4608 10.4511C99.3055 10.5128 99.1322 10.5126 98.9771 10.4503C92.6326 7.56287 84.903 10.8195 80.5956 18.2C78.6002 21.6205 78.1857 25.317 77.8191 28.5716C77.3129 33.0832 76.8755 36.9809 72.5452 38.4868C72.4754 38.5136 72.4013 38.5276 72.3265 38.5283Z" fill="#262626"/>
<path d="M79.9529 66.6582C79.7959 66.6585 79.6442 66.6018 79.5261 66.4987C79.408 66.3956 79.3317 66.2532 79.3114 66.0981C79.1594 64.9551 78.7844 63.2542 78.3533 61.2857C77.2577 56.3073 75.7559 49.4787 76.2579 44.5107C76.2778 44.3411 76.3634 44.1859 76.4965 44.0782C76.6295 43.9705 76.7995 43.9188 76.9702 43.934C77.055 43.9423 77.1373 43.9672 77.2124 44.0073C77.2874 44.0474 77.3538 44.1019 77.4076 44.1676C77.4614 44.2334 77.5017 44.3091 77.526 44.3904C77.5503 44.4717 77.5582 44.557 77.5493 44.6413C77.0681 49.4123 78.5428 56.1123 79.6197 61.0098C80.0592 63.0074 80.4383 64.7311 80.5966 65.928C80.619 66.098 80.5729 66.2699 80.4682 66.406C80.3636 66.5421 80.209 66.6313 80.0383 66.654C80.01 66.6574 79.9815 66.6588 79.9529 66.6582Z" fill="#262626"/>
<path d="M152.296 17.1254C147.657 17.1254 144.97 14.6092 141.637 11.4977C140.817 10.7302 139.944 9.91297 138.978 9.06872C125.843 -2.39189 111.161 0.669806 104.933 6.50279C104.806 6.61058 104.642 6.66559 104.475 6.65644C104.309 6.64729 104.152 6.57468 104.038 6.45364C103.923 6.33259 103.86 6.1724 103.861 6.00624C103.862 5.84008 103.928 5.68067 104.043 5.56105C111.84 -1.73848 127.361 -2.78601 139.838 8.08964C140.817 8.94219 141.702 9.76984 142.533 10.5477C146.22 14.0077 148.663 16.2873 153.641 15.7646C153.726 15.7556 153.811 15.7633 153.893 15.7873C153.975 15.8113 154.051 15.851 154.117 15.9043C154.183 15.9575 154.238 16.0232 154.279 16.0977C154.32 16.1721 154.346 16.2539 154.355 16.3382C154.364 16.4225 154.356 16.5077 154.332 16.5891C154.308 16.6704 154.268 16.7462 154.214 16.8122C154.161 16.8782 154.095 16.933 154.02 16.9736C153.945 17.0141 153.863 17.0396 153.779 17.0486C153.286 17.1009 152.791 17.1265 152.296 17.1254Z" fill="#262626"/>
<path d="M90.9105 55.1084C90.6668 55.1084 90.4169 55.1084 90.1607 55.0918C90.0751 55.0889 89.9909 55.069 89.913 55.0335C89.8351 54.9979 89.7651 54.9473 89.7069 54.8846C89.6488 54.8219 89.6038 54.7484 89.5744 54.6682C89.545 54.588 89.5319 54.5029 89.5358 54.4176C89.547 54.2476 89.6232 54.0883 89.7488 53.9726C89.8743 53.8568 90.0396 53.7934 90.2107 53.7953C98.4548 54.1355 100.223 48.1719 102.083 41.8369C103.458 37.1406 104.88 32.295 109.373 30.982C109.539 30.9338 109.717 30.9532 109.869 31.0359C110.02 31.1186 110.132 31.2577 110.18 31.4228C110.229 31.5878 110.209 31.7652 110.126 31.916C110.043 32.0667 109.904 32.1784 109.738 32.2266C105.928 33.3343 104.666 37.6426 103.331 42.202C101.556 48.2631 99.5504 55.1084 90.9105 55.1084Z" fill="#262626"/>
<path d="M147.91 54.1395C140.06 54.1395 134.122 45.8837 130.295 39.5736C126.223 32.8528 123.059 28.6254 116.594 31.1726C116.515 31.2038 116.43 31.2192 116.345 31.2178C116.26 31.2164 116.176 31.1984 116.098 31.1647C116.02 31.131 115.949 31.0823 115.89 31.0213C115.83 30.9604 115.784 30.8885 115.752 30.8096C115.721 30.7308 115.706 30.6465 115.707 30.5617C115.708 30.4769 115.727 30.3932 115.76 30.3154C115.794 30.2376 115.843 30.1672 115.904 30.1082C115.966 30.0492 116.038 30.0028 116.117 29.9716C123.511 27.0676 127.119 31.8385 131.405 38.914C135.182 45.1369 141.053 53.3492 148.608 52.8306C148.778 52.8244 148.945 52.8829 149.074 52.9941C149.202 53.1054 149.284 53.2612 149.302 53.4301C149.308 53.5147 149.297 53.5996 149.27 53.68C149.243 53.7604 149.2 53.8347 149.144 53.8987C149.088 53.9627 149.02 54.015 148.944 54.0528C148.868 54.0905 148.785 54.1129 148.7 54.1187C148.435 54.1395 148.171 54.1395 147.91 54.1395Z" fill="#262626"/>
<path d="M152.896 63.0592C152.844 63.0602 152.791 63.0539 152.74 63.0406C152.656 63.0211 152.576 62.9851 152.506 62.9346C152.436 62.8841 152.377 62.8201 152.332 62.7465C152.287 62.6728 152.258 62.591 152.245 62.5057C152.233 62.4205 152.237 62.3336 152.259 62.2502C153.544 57.0396 157.454 34.0395 151.52 25.0204C151.468 24.9495 151.431 24.8689 151.411 24.7834C151.391 24.698 151.389 24.6094 151.405 24.5231C151.421 24.4368 151.454 24.3546 151.502 24.2814C151.551 24.2083 151.614 24.1457 151.688 24.0976C151.761 24.0495 151.844 24.0167 151.931 24.0014C152.018 23.9861 152.106 23.9885 152.192 24.0084C152.278 24.0284 152.359 24.0655 152.43 24.1175C152.501 24.1695 152.56 24.2353 152.605 24.311C158.853 33.8134 154.917 56.8964 153.519 62.5572C153.487 62.6983 153.408 62.8246 153.295 62.9156C153.182 63.0067 153.042 63.0572 152.896 63.0592Z" fill="#262626"/>
<path d="M121.056 98.7913H120.848C112.041 98.5631 109.557 88.2849 109.532 88.1812C109.508 88.0768 109.511 87.9682 109.539 87.865C109.568 87.7619 109.622 87.6674 109.696 87.59C109.77 87.5126 109.863 87.4547 109.965 87.4214C110.067 87.3881 110.176 87.3804 110.281 87.3991C110.338 87.4095 116.153 88.4487 121.417 88.4819C124.501 88.5186 127.583 88.2686 130.621 87.7352C130.729 87.7136 130.842 87.7201 130.947 87.7539C131.053 87.7877 131.147 87.8478 131.223 87.9284C131.299 88.009 131.352 88.1075 131.379 88.2146C131.405 88.3216 131.404 88.4336 131.375 88.54C131.25 88.9611 128.446 98.7913 121.056 98.7913ZM111.075 88.8346C111.891 91.2304 114.581 97.3268 120.865 97.4907C126.072 97.6546 128.875 91.6059 129.773 89.181C126.999 89.599 124.197 89.7946 121.392 89.7659C117.361 89.7473 113.014 89.1436 111.075 88.8408V88.8346Z" fill="#262626"/>
<path d="M87.1509 64.1731C86.9905 64.1743 86.8354 64.1163 86.7156 64.0102C86.5957 63.9042 86.5196 63.7576 86.502 63.5989C86.4844 63.4401 86.5265 63.2805 86.6202 63.151C86.7139 63.0214 86.8525 62.931 87.0093 62.8973C89.3004 62.3788 91.0626 61.8457 92.8414 59.6676C92.8961 59.602 92.9632 59.5477 93.039 59.5079C93.1147 59.4681 93.1977 59.4435 93.2829 59.4357C93.3682 59.4278 93.4543 59.4367 93.5361 59.4619C93.6179 59.4871 93.694 59.5281 93.7599 59.5826C93.8258 59.6371 93.8803 59.7039 93.9203 59.7794C93.9603 59.8549 93.9849 59.9374 93.9928 60.0224C94.0008 60.1073 93.9918 60.193 93.9665 60.2745C93.9412 60.356 93.9 60.4317 93.8453 60.4974C91.7978 62.9865 89.7503 63.6088 87.2842 64.1668C87.2402 64.1741 87.1954 64.1762 87.1509 64.1731Z" fill="#262626"/>
<path d="M137.316 111.885C137.155 111.884 137 111.824 136.881 111.717C136.762 111.609 136.688 111.461 136.672 111.302C136.424 108.708 136.355 106.101 136.464 103.498C136.468 103.413 136.489 103.33 136.525 103.253C136.561 103.177 136.612 103.108 136.675 103.051C136.738 102.994 136.812 102.949 136.892 102.921C136.972 102.892 137.057 102.879 137.142 102.883C137.227 102.887 137.311 102.908 137.388 102.944C137.465 102.98 137.534 103.031 137.591 103.093C137.649 103.156 137.693 103.229 137.722 103.309C137.751 103.389 137.764 103.473 137.76 103.558C137.656 106.099 137.725 108.644 137.968 111.175C137.977 111.259 137.969 111.345 137.944 111.426C137.92 111.507 137.879 111.583 137.826 111.648C137.772 111.714 137.706 111.768 137.631 111.809C137.556 111.849 137.474 111.874 137.389 111.882L137.316 111.885Z" fill="#262626"/>
<path d="M90.7089 109.985H90.6881C90.5164 109.978 90.3544 109.904 90.2373 109.779C90.1202 109.654 90.0576 109.488 90.0632 109.317C90.2903 102.069 89.5925 92.6515 89.001 88.6377C88.9761 88.4683 89.0198 88.2959 89.1226 88.1586C89.2253 88.0213 89.3786 87.9302 89.5488 87.9055C89.7189 87.8807 89.892 87.9243 90.0298 88.0266C90.1677 88.1289 90.2592 88.2816 90.284 88.451C90.8589 92.357 91.6004 101.702 91.3588 109.358C91.3539 109.526 91.2832 109.686 91.1618 109.803C91.0404 109.92 90.8779 109.985 90.7089 109.985Z" fill="#262626"/>
<path d="M109.561 25.1239C109.419 25.123 109.282 25.0765 109.169 24.9912C109.056 24.9059 108.974 24.7865 108.936 24.651C107.975 21.1972 105.111 16.9428 105.082 16.8993C104.986 16.7565 104.952 16.5817 104.985 16.4132C105.019 16.2448 105.118 16.0965 105.261 16.0011C105.405 15.9056 105.58 15.8708 105.75 15.9043C105.919 15.9377 106.068 16.0367 106.163 16.1795C106.286 16.3599 109.177 20.6538 110.194 24.3066C110.217 24.3884 110.223 24.4738 110.213 24.5581C110.203 24.6424 110.176 24.7238 110.134 24.7976C110.092 24.8715 110.036 24.9363 109.968 24.9884C109.901 25.0405 109.824 25.0788 109.742 25.1011C109.683 25.1175 109.622 25.1252 109.561 25.1239Z" fill="#262626"/>
<path fill-rule="evenodd" clip-rule="evenodd" d="M131.999 67.8093C132.137 66.2245 133.316 65.0546 134.634 65.1956C135.953 65.3367 136.907 66.7368 136.769 68.3237C136.632 69.9105 135.453 71.0805 134.139 70.9415C132.824 70.8025 131.862 69.3961 131.999 67.8093Z" fill="#262626"/>
<path d="M127.124 256.709C126.959 256.71 126.801 256.648 126.68 256.536C126.56 256.424 126.487 256.271 126.476 256.108C124.939 233.238 122.191 215.101 118.073 200.655C114.618 188.529 109.533 174.346 104.603 160.635C96.0968 136.947 88.063 114.571 89.5523 105.79C89.5879 105.629 89.6843 105.487 89.8218 105.393C89.9593 105.3 90.1273 105.263 90.2914 105.29C90.4555 105.316 90.6031 105.405 90.7039 105.536C90.8047 105.668 90.851 105.833 90.8333 105.998C89.3982 114.453 97.3777 136.673 105.83 160.2C110.762 173.934 115.861 188.132 119.327 200.3C123.47 214.837 126.234 233.062 127.778 256.021C127.789 256.192 127.732 256.36 127.619 256.489C127.505 256.619 127.345 256.698 127.174 256.709H127.124Z" fill="#262626"/>
<path d="M127.889 337H129.188C129.338 325.041 129.372 311.811 129.276 300.141C129.276 300.057 129.259 299.973 129.226 299.895C129.193 299.817 129.145 299.747 129.085 299.687C129.025 299.628 128.954 299.58 128.875 299.548C128.797 299.516 128.713 299.5 128.628 299.5C128.456 299.502 128.292 299.571 128.171 299.693C128.05 299.816 127.983 299.98 127.984 300.152C128.064 311.818 128.028 325.045 127.889 337Z" fill="#262626"/>
<path d="M120.223 206.467C120.118 206.467 120.015 206.442 119.923 206.394C119.83 206.346 119.75 206.276 119.691 206.191C119.631 206.105 119.593 206.007 119.579 205.904C119.566 205.8 119.578 205.696 119.615 205.598C127.446 184.365 142.853 121.381 137.15 110.248C137.072 110.095 137.058 109.918 137.111 109.755C137.164 109.592 137.28 109.456 137.434 109.379C137.587 109.301 137.765 109.287 137.929 109.34C138.092 109.393 138.228 109.508 138.306 109.661C144.266 121.3 128.946 184.046 120.833 206.044C120.787 206.168 120.704 206.275 120.595 206.351C120.486 206.427 120.356 206.467 120.223 206.467Z" fill="#262626"/>
<path d="M118.88 201.325H118.868C118.782 201.324 118.698 201.306 118.62 201.272C118.542 201.238 118.471 201.189 118.412 201.128C118.353 201.067 118.306 200.995 118.275 200.916C118.244 200.837 118.229 200.752 118.23 200.667C118.47 186.618 118.453 171.532 116.73 156.408C115.76 147.903 115.627 141.182 115.529 136.287C115.427 131.259 115.362 127.938 114.506 126.299C113.948 125.229 111.346 123.949 108.334 122.468C102.394 119.547 94.2582 115.546 89.7966 108.099C89.7085 107.952 89.6827 107.776 89.7249 107.61C89.7671 107.444 89.8738 107.301 90.0216 107.213C90.1693 107.125 90.3461 107.1 90.5128 107.142C90.6796 107.184 90.8228 107.29 90.911 107.437C95.183 114.556 103.121 118.458 108.918 121.31C112.396 123.02 114.91 124.256 115.666 125.704C116.662 127.608 116.73 131.051 116.835 136.26C116.93 141.139 117.064 147.82 118.026 156.269C119.759 171.465 119.776 186.602 119.536 200.697C119.531 200.866 119.46 201.027 119.337 201.144C119.214 201.262 119.05 201.327 118.88 201.325Z" fill="#262626"/>
<path d="M99.0318 142.945C98.9066 142.945 98.7842 142.909 98.6792 142.841C98.5742 142.773 98.4911 142.677 98.4398 142.563C98.3886 142.449 98.3714 142.323 98.3903 142.2C98.4092 142.077 98.4634 141.962 98.5464 141.869C100.109 140.12 101.744 137.832 103.325 135.619C107.307 130.045 111.06 124.791 114.96 125.413C115.047 125.422 115.132 125.45 115.209 125.493C115.286 125.536 115.354 125.594 115.407 125.664C115.461 125.734 115.499 125.814 115.521 125.9C115.542 125.985 115.546 126.074 115.532 126.16C115.518 126.247 115.486 126.33 115.438 126.404C115.391 126.479 115.329 126.542 115.256 126.592C115.183 126.641 115.1 126.675 115.014 126.692C114.927 126.709 114.838 126.708 114.751 126.689C111.658 126.17 107.961 131.362 104.383 136.37C102.783 138.61 101.127 140.933 99.5192 142.727C99.458 142.796 99.3829 142.851 99.2989 142.888C99.2149 142.926 99.1238 142.945 99.0318 142.945Z" fill="#262626"/>
<path d="M116.166 133.065C116.131 133.068 116.095 133.068 116.06 133.065C115.976 133.052 115.895 133.022 115.823 132.977C115.75 132.932 115.688 132.874 115.638 132.805C115.588 132.736 115.553 132.657 115.534 132.575C115.515 132.492 115.512 132.406 115.527 132.323C116.812 124.59 122.908 121.121 128.287 118.08C132.111 115.913 135.722 113.865 137.22 110.588C137.292 110.432 137.423 110.312 137.584 110.252C137.745 110.192 137.924 110.198 138.08 110.269C138.158 110.303 138.228 110.353 138.286 110.415C138.344 110.477 138.389 110.55 138.419 110.629C138.449 110.709 138.463 110.793 138.46 110.878C138.457 110.963 138.437 111.046 138.401 111.123C136.735 114.782 132.94 116.931 128.93 119.213C123.552 122.262 117.991 125.415 116.806 132.54C116.777 132.689 116.698 132.822 116.581 132.918C116.464 133.014 116.318 133.066 116.166 133.065Z" fill="#262626"/>
<path d="M133.992 143.723C131.557 143.723 129.458 140.033 127.029 135.764C124.6 131.495 121.822 126.616 119.035 126.616C118.869 126.607 118.713 126.535 118.599 126.415C118.485 126.294 118.422 126.135 118.422 125.97C118.422 125.805 118.485 125.646 118.599 125.526C118.713 125.405 118.869 125.333 119.035 125.324C122.576 125.324 125.417 130.302 128.158 135.127C130.201 138.718 132.324 142.431 133.99 142.431C134.63 142.431 135.294 141.809 135.971 140.608C136.009 140.529 136.064 140.459 136.13 140.402C136.197 140.345 136.274 140.302 136.358 140.276C136.441 140.249 136.53 140.24 136.617 140.249C136.704 140.257 136.789 140.284 136.866 140.326C136.943 140.368 137.01 140.425 137.064 140.494C137.118 140.563 137.157 140.642 137.18 140.727C137.202 140.812 137.207 140.9 137.194 140.986C137.181 141.073 137.15 141.155 137.104 141.23C136.171 142.889 135.154 143.719 133.996 143.719L133.992 143.723Z" fill="#262626"/>
<path d="M86.3479 137.556C86.2184 137.557 86.0919 137.518 85.9846 137.446C85.8773 137.374 85.7942 137.271 85.7459 137.152C84.4691 134.003 80.4554 132.572 77.2311 131.423C74.6191 130.491 72.555 129.763 72.38 128.243C72.1717 126.459 73.561 124.851 75.6626 122.416C77.2061 120.628 79.1265 118.404 81.0469 115.378C85.6897 108.066 87.9746 104.78 90.12 103.347C90.1908 103.295 90.2715 103.257 90.3573 103.237C90.443 103.217 90.532 103.214 90.6188 103.229C90.7055 103.245 90.7883 103.277 90.8621 103.325C90.9358 103.373 90.999 103.436 91.0478 103.509C91.0965 103.582 91.1299 103.664 91.1458 103.75C91.1617 103.836 91.1598 103.925 91.1402 104.011C91.1206 104.096 91.0838 104.177 91.032 104.248C90.9801 104.319 90.9143 104.378 90.8386 104.423C88.9057 105.705 86.5937 109.049 82.1446 116.058C80.1721 119.17 78.2183 121.429 76.6478 123.248C74.7732 125.426 73.5235 126.863 73.6693 128.085C73.7526 128.801 75.8334 129.537 77.6685 130.197C81.1386 131.441 85.4543 132.972 86.9498 136.658C86.9898 136.756 87.005 136.863 86.9939 136.968C86.9829 137.073 86.946 137.174 86.8865 137.262C86.827 137.35 86.7468 137.421 86.6528 137.471C86.5589 137.521 86.4542 137.546 86.3479 137.546V137.556Z" fill="#262626"/>
<path d="M79.6766 153.499C79.557 153.5 79.4396 153.467 79.3374 153.406C79.2352 153.344 79.1522 153.255 79.0976 153.149C72.9364 141.174 72.0699 138.129 72.6698 137.096C73.1905 136.198 74.5444 136.411 76.7877 136.766C79.5517 137.204 83.3404 137.803 86.6981 136.523C89.5641 135.436 91.4221 132.341 93.5008 127.699C93.5324 127.617 93.5805 127.542 93.6421 127.479C93.7037 127.416 93.7776 127.367 93.8591 127.333C93.9407 127.299 94.0282 127.283 94.1165 127.284C94.2047 127.285 94.2918 127.304 94.3723 127.34C94.4529 127.376 94.5253 127.428 94.5852 127.492C94.645 127.557 94.691 127.633 94.7203 127.716C94.7497 127.799 94.7618 127.887 94.7558 127.974C94.7499 128.062 94.7262 128.148 94.686 128.226C92.4802 133.171 90.441 136.49 87.1625 137.735C83.48 139.141 79.3309 138.486 76.5835 138.048C75.4484 137.869 74.0362 137.648 73.7362 137.811C73.605 138.388 74.5694 141.504 80.2536 152.566C80.3316 152.718 80.3459 152.896 80.2932 153.058C80.2405 153.221 80.1251 153.357 79.9724 153.435C79.8802 153.479 79.7789 153.501 79.6766 153.499Z" fill="#262626"/>
<path d="M121.566 213.153C121.443 213.153 121.321 213.118 121.217 213.052C121.113 212.986 121.03 212.891 120.979 212.779C115.771 201.684 107.44 192.088 99.3958 182.809C96.3714 179.323 93.5158 176.031 90.9288 172.77C90.8222 172.636 90.7735 172.465 90.7934 172.295C90.8134 172.125 90.9003 171.969 91.0351 171.863C91.1699 171.757 91.3415 171.709 91.5122 171.728C91.6829 171.748 91.8387 171.835 91.9453 171.969C94.5156 175.207 97.3608 178.489 100.377 181.963C108.109 190.883 116.871 200.974 122.153 212.232C122.2 212.33 122.221 212.439 122.214 212.547C122.208 212.656 122.173 212.761 122.115 212.853C122.056 212.945 121.975 213.021 121.879 213.073C121.783 213.126 121.675 213.153 121.566 213.153Z" fill="#262626"/>
<path d="M146.977 138.483C146.914 138.483 146.852 138.474 146.791 138.456C146.626 138.408 146.487 138.295 146.405 138.144C146.323 137.993 146.305 137.816 146.354 137.652C147.495 133.841 151.651 131.908 154.988 130.354C156.754 129.524 158.756 128.599 158.77 127.88C158.797 126.652 157.427 125.334 155.35 123.341C154.365 122.393 153.246 121.321 152.042 120.022C151.001 118.91 150.08 117.819 149.203 116.691C144.048 110.038 139.403 105.037 137.368 103.946C137.293 103.905 137.227 103.85 137.173 103.784C137.12 103.717 137.08 103.641 137.056 103.559C137.032 103.478 137.024 103.392 137.033 103.307C137.042 103.222 137.068 103.14 137.109 103.066C137.15 102.991 137.206 102.925 137.272 102.871C137.339 102.818 137.415 102.778 137.497 102.754C137.58 102.73 137.666 102.722 137.751 102.732C137.836 102.741 137.918 102.766 137.993 102.807C140.641 104.228 146.056 110.503 150.239 115.9C151.093 117 151.994 118.06 153.001 119.143C154.182 120.41 155.292 121.47 156.26 122.405C158.581 124.635 160.116 126.108 160.076 127.902C160.045 129.427 158.06 130.35 155.546 131.52C152.442 132.972 148.581 134.762 147.606 138.017C147.566 138.152 147.484 138.271 147.37 138.355C147.256 138.44 147.118 138.485 146.977 138.483Z" fill="#262626"/>
<path d="M122.173 215.034C122.102 215.033 122.032 215.02 121.965 214.997C121.884 214.968 121.81 214.924 121.746 214.867C121.682 214.81 121.631 214.741 121.595 214.664C121.558 214.586 121.537 214.503 121.534 214.417C121.53 214.332 121.544 214.247 121.573 214.167C125.783 202.447 132.613 192.16 138.653 183.083C143.687 175.506 148.443 168.356 151.113 161.334C151.5 160.322 152.129 158.774 152.875 156.936C155.06 151.568 160.165 138.992 159.555 137.471C159.315 137.417 157.934 137.772 156.82 138.056C154.127 138.745 150.057 139.784 146.258 138.728C142.875 137.788 140.544 134.675 137.878 129.96C137.81 129.812 137.8 129.644 137.851 129.489C137.902 129.334 138.01 129.204 138.153 129.125C138.296 129.046 138.464 129.024 138.623 129.064C138.782 129.103 138.92 129.201 139.009 129.338C141.509 133.764 143.656 136.672 146.608 137.494C150.076 138.461 153.787 137.508 156.499 136.816C158.699 136.253 160.026 135.913 160.63 136.76C161.631 138.16 159.209 144.82 154.079 157.432C153.335 159.258 152.71 160.797 152.327 161.803C149.601 168.953 144.81 176.167 139.736 183.807C133.456 193.262 126.96 203.04 122.802 214.611C122.755 214.738 122.669 214.848 122.556 214.924C122.444 215 122.309 215.038 122.173 215.034Z" fill="#262626"/>
<path d="M203.007 102.953C202.836 102.953 202.672 102.886 202.551 102.766C201.619 101.855 201.184 100.945 201.255 100.069C201.347 98.9367 202.236 98.163 202.921 97.6548L202.782 97.6299C202.007 97.4805 201.045 97.2959 200.232 96.3853C199.235 95.2755 200.322 93.139 201.495 90.8697C199.06 92.5291 196.704 93.7882 195.148 93.3464C194.866 93.2691 194.606 93.1271 194.389 92.9319C194.172 92.7367 194.004 92.4936 193.898 92.2221C193.405 91.0439 193.754 88.5672 194.3 85.435C192.678 88.7124 191.257 91.4069 190.249 92.1599C190.064 92.3065 189.849 92.4121 189.62 92.4697C189.39 92.5273 189.151 92.5355 188.918 92.4939C187.687 92.2864 186.689 90.7535 185.887 89.5276L185.781 89.3658C185.781 89.6023 185.781 89.8491 185.769 90.069C185.75 91.7969 185.727 93.7571 184.74 94.5184C183.921 95.1407 182.717 95.066 181.753 94.8399C181.912 95.341 181.953 95.8719 181.873 96.3914C181.793 96.9108 181.593 97.4049 181.29 97.8352C181.244 97.9088 181.183 97.9723 181.111 98.0218C181.039 98.0714 180.958 98.1059 180.872 98.1235C180.786 98.141 180.698 98.1411 180.612 98.1239C180.527 98.1066 180.445 98.0723 180.373 98.023C180.301 97.9737 180.24 97.9105 180.193 97.837C180.146 97.7635 180.114 97.6814 180.1 97.5955C180.086 97.5096 180.089 97.4217 180.11 97.3371C180.13 97.2525 180.168 97.1728 180.22 97.103C180.818 96.2339 180.745 95.2527 179.999 94.1844C179.923 94.0764 179.875 93.9516 179.858 93.8208C179.841 93.6899 179.857 93.557 179.903 93.4335C179.98 93.2865 180.111 93.1744 180.268 93.1204C180.425 93.0663 180.597 93.0745 180.749 93.1431C181.501 93.4854 183.267 94.0206 183.946 93.4958C184.438 93.1162 184.461 91.1248 184.471 90.0545C184.488 88.7393 184.511 88.0341 184.817 87.6275C184.894 87.5316 184.991 87.4539 185.102 87.4001C185.213 87.3463 185.335 87.3177 185.458 87.3164C186.002 87.335 186.327 87.8329 186.975 88.8223C187.533 89.6749 188.468 91.1041 189.145 91.2223C189.203 91.2324 189.263 91.2291 189.32 91.2126C189.376 91.196 189.429 91.1667 189.472 91.1269C190.393 90.4382 192.413 86.3311 193.5 84.1261C194.8 81.4834 194.825 81.4294 195.323 81.4294C195.425 81.4334 195.526 81.4576 195.619 81.5007C195.712 81.5438 195.795 81.6049 195.864 81.6804C196.181 82.058 196.123 82.5579 195.656 85.2068C195.292 87.2811 194.681 90.739 195.094 91.7222C195.126 91.8151 195.181 91.8984 195.254 91.9647C195.326 92.031 195.415 92.0781 195.51 92.1018C196.979 92.5312 200.718 89.8595 201.94 88.9903C202.853 88.339 203.103 88.1606 203.509 88.4801C203.619 88.5681 203.698 88.6884 203.736 88.824C203.773 88.9596 203.766 89.1034 203.717 89.2351C203.408 89.9727 203.061 90.6935 202.676 91.3945C202.107 92.4939 200.778 95.066 201.19 95.5244C201.711 96.1032 202.346 96.2256 203.019 96.3542C203.516 96.4174 203.997 96.5736 204.436 96.8147C204.537 96.8849 204.621 96.9758 204.684 97.0814C204.747 97.1869 204.787 97.3046 204.8 97.4266C204.813 97.8912 204.461 98.1402 203.967 98.4845C203.417 98.8724 202.586 99.4573 202.528 100.169C202.488 100.652 202.796 101.216 203.44 101.847C203.531 101.937 203.594 102.052 203.62 102.178C203.646 102.303 203.634 102.433 203.585 102.552C203.536 102.671 203.453 102.772 203.347 102.844C203.24 102.916 203.115 102.954 202.986 102.955L203.007 102.953Z" fill="#262626"/>
</g>
<defs>
<clipPath id="clip0_383_2907">
<rect width="236" height="337" fill="white"/>
</clipPath>
</defs>
</svg>
