<svg width="570" height="413" viewBox="0 0 570 413" fill="none" xmlns="http://www.w3.org/2000/svg">
<g clip-path="url(#clip0_142_2968)">
<path opacity="0.15" d="M0 214.14C0 337.219 37.0801 411.526 278.455 412.983C511.542 414.389 570 326.294 570 203.213C570 80.1316 557.351 0 282.819 0C14.9779 0 0 91.0584 0 214.14Z" fill="#96B4DA"/>
<g clip-path="url(#clip1_142_2968)">
<path fill-rule="evenodd" clip-rule="evenodd" d="M280.29 173.401C278.497 173.036 278.267 170.458 277.201 168.967C276.339 167.763 274.962 166.345 273.918 165.305C269.002 160.395 263.086 156.783 259.253 151.041C257.11 147.831 256.189 143.174 256.189 143.174C256.189 143.174 256.252 136.693 255.867 131.285C255.62 127.789 255.173 123.871 254.751 121.773C254.247 119.258 248.559 118.867 246.788 117.403C242.953 114.215 242.03 113.234 241.097 108.532C240.742 106.751 240.935 104.528 241.316 102.658C241.738 100.552 245.079 98.5849 245.079 98.5849C245.079 98.5849 248.718 96.2337 249.62 95.3335C251.892 93.0631 253.431 89.1387 255.024 86.274C259.84 77.6078 263.795 68.5636 270.663 61.2173C275.231 56.3314 280.167 52.2824 287.268 53.7005C288.909 54.0261 290.317 55.3699 291.711 56.2046C295.145 58.263 299.293 60.6841 301.364 64.3005C303.136 67.3946 304.391 71.5638 306.962 74.1335C311.141 78.3049 317.484 80.6888 319.126 87.2442C319.73 89.6478 320.012 92.4688 319.513 94.9533C319.215 96.4348 318.184 99.5944 318.184 99.5944C318.184 99.5944 320.798 100.088 321.496 100.925C323.843 103.735 322.995 108.195 321.785 111.525C320.783 114.272 314.971 118.091 314.971 118.091C314.971 118.091 314.111 121.955 313.634 123.266C312.892 125.304 310.931 129.972 310.191 131.366C309.451 132.76 305.065 137.932 305.065 137.932L305.264 146.032C305.264 146.032 307.223 146.389 306.577 148.539C305.702 151.476 303.695 154.17 301.944 156.635C299.098 160.644 295.423 166.444 290.748 168.777C289.435 169.433 287.966 169.787 286.692 170.512C284.188 171.922 283.273 174.006 280.29 173.401Z" fill="#FFE3CC"/>
<path fill-rule="evenodd" clip-rule="evenodd" d="M170.482 332.781C174.667 336.45 180.367 338.244 185.35 339.618C190.334 340.993 200.134 342.97 200.134 342.97C200.134 342.97 197.575 357.486 196.224 369.312C195.568 375.109 195.193 380.257 194.986 384H377.168C376.965 379.145 376.512 371.707 375.564 363.506C374.086 350.9 371.911 339.48 371.911 339.48C371.911 339.48 376.212 340.136 381.697 338.27C385.934 336.834 391.779 333.288 396.541 327.613C403.594 319.214 409.497 300.631 408.155 283.732C407.936 280.992 406.956 274.869 405.463 267.289C403.948 259.591 401.908 250.367 399.89 239C397.971 228.186 396.657 216.194 394.571 205.988C392.503 195.853 389.664 187.475 387.042 184.766C385.291 182.963 382.17 179.875 379.771 178.21C369.083 170.814 354.085 167.04 341.318 161.872C332.344 158.236 323.451 153.149 323.451 153.149L305.807 137.943L305.122 138.317C305.122 138.317 306.255 152.625 302.974 164.89C297.43 185.611 287.241 245.035 287.241 245.035L256.598 143.478L255.893 138.671L240.572 153.256C237.045 154.912 233.424 156.36 229.728 157.594C226.544 158.673 221.954 159.871 218.896 160.611L218.123 160.799C207.256 163.406 195.922 165.569 186.751 172.175C182.282 175.398 177.536 180.26 175.081 185.655C172.353 191.651 169.727 200.057 168.265 209.49C165.772 225.621 163.983 247.374 163.022 265.888C161.972 286.076 161.604 303.745 162.307 312.431C163.138 322.699 165.973 328.828 170.482 332.781Z" fill="white"/>
<path fill-rule="evenodd" clip-rule="evenodd" d="M348.626 244.118C348.626 244.118 348.447 237.667 348.447 237.2C348.447 233.704 347.847 226.366 347.155 222.911C346.464 219.457 342.368 213.225 341.184 210.268C340.335 208.147 338.558 203.508 337.991 201.231C337.166 197.94 335.191 194.094 336.198 190.58C336.927 188.035 340.416 185.535 341.714 183.269C342.688 181.565 345.157 177.461 347.004 176.355C348.537 175.433 349.631 175.964 349.631 175.964C349.631 175.964 350.439 169.302 350.677 165.716C350.916 162.13 352.227 155.793 353.01 152.269C354.006 147.796 354.783 142.733 356.939 138.736C358.371 136.082 360.597 130.623 363.76 133.711C365.489 135.4 363.954 140.965 363.322 143.954C362.298 148.729 361.615 157.43 361.306 160.647C360.997 163.863 361.037 171.271 361.037 171.271C361.037 171.271 363.497 171.904 364.484 172.61C366.209 173.84 366.892 174.712 366.892 174.712C366.892 174.712 369.275 174.961 369.759 175.079C371.469 175.516 374.117 176.403 375.402 177.343C377.035 178.536 378.015 181.276 378.015 181.276C378.015 181.276 380.537 182.762 381.561 183.339C383.113 184.213 384.89 185.793 385.322 188.365C386.129 193.205 384.757 205.662 382.828 210.471C380.202 217.016 378.252 217.901 377.308 222.271C376.078 227.97 377.089 234.586 377.501 240.211C377.637 242.11 378.556 246.447 378.556 246.447C378.556 246.447 376.586 248.565 373.896 249.425C370.055 250.658 364.942 250.737 363.722 250.501C360.019 249.76 354.551 250.018 351.559 247.031C350.467 245.964 348.626 244.118 348.626 244.118Z" fill="#FFE3CC"/>
<path fill-rule="evenodd" clip-rule="evenodd" d="M310.889 328.361C310.889 328.361 311.585 325.201 311.66 324.209C311.865 321.539 311.732 318.785 311.843 316.109C311.924 314.175 311.331 303.476 311.331 303.476C311.331 303.476 317.154 302.797 318.259 302.006C323.037 298.601 326.283 293.595 329.363 288.677C332.04 284.4 334.835 277.908 336.66 275.278C337.417 274.192 341.357 272.203 341.357 272.203C341.357 272.203 342.498 283.955 343.546 293.198C343.984 296.958 344.671 301.075 344.798 302.786C345.113 307.029 347.149 315.77 347.149 315.77C347.149 315.77 344.023 319.985 342.896 320.907C335.997 326.543 327.415 326.138 320.877 326.785C318.314 327.049 310.889 328.361 310.889 328.361Z" fill="#FFE3CC"/>
<path fill-rule="evenodd" clip-rule="evenodd" d="M298.205 122.379C298.205 122.379 292.195 123.344 289.38 123.034C287.992 122.879 285.085 123.001 283.713 122.816C282.041 122.567 276.766 121.867 276.766 121.867C276.766 121.867 278.874 127.535 280.638 128.945C281.54 129.664 282.719 130.929 283.744 131.366C285.495 132.115 288.638 132.782 291.742 131.333C295.948 129.369 298.205 122.379 298.205 122.379Z" fill="white"/>
<path fill-rule="evenodd" clip-rule="evenodd" d="M245.068 98.1129C245.068 98.1129 242.767 88.1488 241.931 83.4224C240.659 76.2247 240.34 72.263 241.018 65.3056C241.646 58.829 242.682 49.6865 247.521 44.4138C249.775 42.0219 252.5 40.1218 255.526 38.833C259.831 37.039 262.67 38.6495 266.5 37.1942C270.878 35.5291 273.176 33.2435 276.733 31.6462C279.511 30.3985 286.022 29.4742 289.717 30.0008C293.69 30.5667 297.203 31.4648 301.239 33.6128C304.159 35.1642 307.956 38.857 310.248 40.509C314.461 43.5681 316.7 46.1903 319.542 50.6457C320.601 52.3064 321.986 56.327 322.678 58.1079C325.064 64.3049 324.681 73.0213 324.011 79.6837C323.354 86.1866 323.094 88.7781 321.687 95.0975C321.36 96.5571 320.391 100.307 320.391 100.307L318.086 99.9484C318.086 99.9484 318.123 98.2003 318.123 97.0728C318.123 94.2475 318.123 89.6063 316.287 87.1568C315.387 85.9593 313.551 85.4305 311.607 84.3161C309.136 82.9002 308.324 82.4391 306.286 80.4091C303.572 77.6996 301.635 75.6893 299.871 72.3242C297.362 67.5498 293.377 61.0906 287.465 60.4328C286.013 60.2733 280.898 62.0826 279.412 62.2487C275.984 62.6267 273.388 62.7928 271.751 65.5919C270.488 67.7552 269.238 74.4744 266.835 79.1767C264.546 83.665 262.092 85.4917 262.092 85.4917C262.092 85.4917 261.849 84.6439 259.785 90.2181C257.721 95.7923 256.462 99.0678 252.013 99.7977C251.179 99.9462 245.068 98.1129 245.068 98.1129Z" fill="#E9A479"/>
<path fill-rule="evenodd" clip-rule="evenodd" d="M302.073 302.336C302.073 302.336 303.093 308.006 303.02 310.77C302.988 311.99 302.911 316.452 302.802 318.44C302.692 320.429 301.199 330.583 300.832 332.584C300.464 334.586 298.976 339.201 298.976 339.201C298.976 339.201 301.635 338.873 303.09 338.908C304.546 338.943 307.639 339.17 308.663 337.236C310.338 334.075 311.305 327.434 311.83 322.33C312.086 319.858 312.049 315.337 312.159 312.298C312.242 309.927 312.491 304.838 310.92 302.917C310.414 302.294 302.073 302.336 302.073 302.336Z" fill="#B5B3C2"/>
<path fill-rule="evenodd" clip-rule="evenodd" d="M347.578 259.033C347.578 259.033 347.849 254.696 347.668 251.916C347.486 249.137 347.449 243.908 347.908 243.176C348.256 242.63 349.41 245.143 351.982 246.705C354.554 248.267 359.205 249.694 363.094 250.144C366.984 250.594 372.71 249.517 374.717 248.68C376.724 247.843 379.224 245.84 379.272 245.868C380.78 246.655 381.062 250.175 381.366 251.7C381.771 253.708 383.135 259.116 383.135 259.116C383.135 259.116 378.823 264.645 376.131 266.651C373.066 268.923 368.562 269.168 367.233 269.223C363.856 269.36 357.248 266.316 354.772 264.468C352.124 262.503 347.578 259.033 347.578 259.033Z" fill="#B5B3C2"/>
<path fill-rule="evenodd" clip-rule="evenodd" d="M256.607 146.502C257.931 152.673 259.619 158.645 261.16 164.798L256.607 146.502Z" fill="#E4E2F1"/>
<path fill-rule="evenodd" clip-rule="evenodd" d="M280.962 160.5C280.198 159.759 271.729 156.519 265.119 151.847C260.203 148.37 256.075 143.231 255.874 144.011C255.342 146.043 257.887 157.152 261.181 168.203C265.043 181.167 269.862 194.31 270.876 196.48C271.37 197.536 276.387 211.905 280.684 224.725C282.29 229.532 283.871 234.075 285.011 237.728C286.248 241.692 286.996 244.561 287.574 244.417C288.152 244.273 290.201 237.643 292.389 229.762C296.526 214.824 301.674 193.81 301.884 192.796C309.869 154.36 306.098 146.122 306.098 146.122C306.098 146.122 303.329 149.594 300.512 151.209C295.697 153.967 290.949 156.827 287.865 159.635C283.323 163.769 283.153 167.862 283.153 167.862C283.153 167.862 283.245 162.716 280.962 160.5Z" fill="#B5B3C2"/>
<path d="M350.331 165.91C350.252 165.91 350.174 165.897 350.099 165.871C342.771 163.227 332.015 159.097 323.252 153.827C323.175 153.781 323.108 153.72 323.055 153.648C323.002 153.576 322.963 153.495 322.942 153.408C322.92 153.322 322.916 153.232 322.929 153.143C322.943 153.055 322.973 152.97 323.019 152.894C323.066 152.817 323.126 152.751 323.198 152.698C323.27 152.645 323.352 152.606 323.439 152.585C323.526 152.563 323.616 152.559 323.704 152.572C323.793 152.586 323.878 152.616 323.954 152.662C332.602 157.876 343.281 161.966 350.55 164.591C350.696 164.648 350.817 164.754 350.894 164.891C350.97 165.028 350.997 165.187 350.97 165.341C350.942 165.495 350.863 165.635 350.744 165.737C350.625 165.839 350.475 165.897 350.318 165.902L350.331 165.91Z" fill="#262626"/>
<path d="M375.452 340.296C363.915 340.296 350.995 330.463 347.335 318.372C342.973 303.951 339.775 268.794 340.035 249.297C340.038 249.118 340.11 248.947 340.238 248.822C340.365 248.696 340.537 248.626 340.716 248.626C340.806 248.627 340.894 248.646 340.976 248.681C341.059 248.716 341.133 248.768 341.196 248.832C341.258 248.896 341.307 248.972 341.34 249.055C341.373 249.138 341.389 249.227 341.388 249.316C341.138 268.718 344.312 303.669 348.642 317.979C352.393 330.384 366.292 340.304 377.792 338.783C384.14 337.947 401.667 329.783 406.465 302.425C409.092 287.488 406.929 277.314 403.666 261.916C402.434 256.099 401.039 249.509 399.698 241.675C398.78 236.304 397.986 231.04 397.222 225.942C394.854 210.209 392.807 196.605 388.314 188.166C383.877 179.836 374.286 174.837 361.249 169.916C361.161 169.888 361.079 169.842 361.009 169.781C360.939 169.721 360.882 169.647 360.841 169.563C360.801 169.48 360.778 169.389 360.774 169.297C360.77 169.204 360.784 169.112 360.817 169.025C360.85 168.939 360.9 168.86 360.964 168.793C361.029 168.726 361.106 168.674 361.191 168.638C361.277 168.602 361.369 168.584 361.461 168.584C361.554 168.585 361.646 168.605 361.731 168.642C375.065 173.689 384.879 178.829 389.511 187.532C394.107 196.179 396.178 209.882 398.564 225.748C399.328 230.83 400.12 236.088 401.035 241.445C402.37 249.251 403.764 255.83 404.994 261.634C408.278 277.187 410.466 287.462 407.803 302.661C403.388 327.851 387.539 338.871 377.965 340.134C377.132 340.243 376.292 340.297 375.452 340.296Z" fill="#262626"/>
<path d="M347.777 259.206H347.744C347.655 259.202 347.567 259.18 347.486 259.142C347.405 259.103 347.332 259.05 347.272 258.983C347.212 258.917 347.166 258.839 347.136 258.755C347.106 258.67 347.093 258.581 347.098 258.491C347.263 255.214 347.081 252.36 346.917 249.83C346.667 245.923 346.479 243.097 347.764 241.255C347.869 241.111 348.026 241.013 348.202 240.983C348.378 240.953 348.559 240.993 348.705 241.095C348.852 241.196 348.953 241.351 348.987 241.526C349.021 241.701 348.985 241.882 348.887 242.031C347.878 243.484 348.055 246.246 348.278 249.744C348.442 252.31 348.628 255.207 348.458 258.561C348.449 258.735 348.373 258.899 348.246 259.019C348.12 259.139 347.952 259.206 347.777 259.206Z" fill="#262626"/>
<path d="M348.539 244.391C348.449 244.391 348.36 244.373 348.278 244.338C348.195 244.304 348.12 244.253 348.056 244.19C347.993 244.126 347.943 244.051 347.909 243.968C347.875 243.885 347.858 243.797 347.858 243.707C347.876 239.901 347.838 237.071 347.746 234.801C347.195 221.388 344.818 217.722 342.907 214.774C342.217 213.778 341.625 212.719 341.138 211.61C338.7 205.752 335.301 195.003 335.191 193.209C334.973 189.573 336.809 187.633 338.943 185.384C339.867 184.445 340.735 183.451 341.541 182.408C342.198 181.521 342.811 180.66 343.364 179.862C345.4 176.939 347.007 174.633 349.235 175.313C349.674 175.459 350.079 175.695 350.421 176.006C350.764 176.317 351.038 176.697 351.224 177.12C352.139 178.986 352.025 181.927 350.929 184.783C350.434 186.02 349.839 187.214 349.149 188.354C348.202 189.999 347.517 191.194 347.893 192.643C348.072 193.345 349.016 194.284 350.213 195.484C352.94 198.2 357.062 202.306 358.734 209.877C358.773 210.053 358.74 210.238 358.643 210.39C358.546 210.542 358.392 210.649 358.215 210.688C358.039 210.727 357.854 210.694 357.702 210.597C357.55 210.5 357.442 210.346 357.403 210.17C355.803 202.979 351.864 199.043 349.237 196.439C347.84 195.049 346.829 194.035 346.558 192.982C346.046 190.991 346.93 189.455 347.952 187.676C348.605 186.597 349.17 185.466 349.642 184.296C350.592 181.816 350.736 179.233 349.986 177.719C349.88 177.464 349.722 177.234 349.522 177.044C349.322 176.854 349.084 176.708 348.823 176.615C347.606 176.246 346.433 177.819 344.47 180.638C343.907 181.447 343.297 182.323 342.62 183.223C341.784 184.31 340.885 185.347 339.928 186.328C337.855 188.513 336.36 190.082 336.542 193.124C336.634 194.605 339.943 205.212 342.388 211.09C342.847 212.121 343.402 213.107 344.045 214.035C346.046 217.121 348.537 220.962 349.103 234.746C349.195 237.034 349.233 239.885 349.215 243.705C349.216 243.794 349.199 243.883 349.166 243.966C349.132 244.049 349.082 244.124 349.02 244.188C348.957 244.252 348.882 244.303 348.799 244.337C348.717 244.372 348.628 244.39 348.539 244.391Z" fill="#262626"/>
<path d="M399.128 307.578H399.047C398.868 307.556 398.705 307.464 398.593 307.323C398.481 307.181 398.43 307.001 398.45 306.822C399.455 298.261 396.76 291.334 393.346 282.567C390.213 274.515 386.315 264.49 384.085 250.009C384.056 249.831 384.099 249.648 384.205 249.502C384.31 249.355 384.47 249.257 384.648 249.228C384.827 249.199 385.01 249.242 385.156 249.347C385.303 249.453 385.402 249.612 385.431 249.79C387.639 264.133 391.509 274.078 394.624 282.071C398.104 291.019 400.855 298.086 399.811 306.981C399.79 307.147 399.709 307.299 399.584 307.409C399.458 307.519 399.296 307.579 399.128 307.578Z" fill="#262626"/>
<path d="M382.986 259.191C382.841 259.193 382.699 259.148 382.581 259.064C382.463 258.98 382.375 258.861 382.329 258.723C381.545 256.26 380.907 253.753 380.419 251.215C379.797 248.237 379.304 245.883 378.263 245.359C378.183 245.319 378.112 245.263 378.053 245.196C377.995 245.128 377.95 245.05 377.922 244.965C377.894 244.88 377.883 244.79 377.89 244.701C377.896 244.612 377.92 244.525 377.961 244.446C378.001 244.366 378.056 244.295 378.124 244.236C378.192 244.178 378.27 244.134 378.355 244.106C378.44 244.078 378.53 244.067 378.619 244.073C378.709 244.08 378.796 244.104 378.875 244.144C380.506 244.964 381.029 247.468 381.754 250.938C382.231 253.425 382.855 255.883 383.623 258.297C383.657 258.399 383.666 258.508 383.65 258.614C383.633 258.721 383.592 258.821 383.529 258.909C383.466 258.996 383.383 259.067 383.287 259.116C383.191 259.165 383.085 259.191 382.977 259.191H382.986Z" fill="#262626"/>
<path d="M378.597 246.823C378.444 246.821 378.296 246.768 378.177 246.672C378.058 246.576 377.975 246.443 377.941 246.294C375.953 237.654 375.82 231.217 376.227 224.203C376.409 221.144 378.011 218.316 379.563 215.589C380.438 214.059 381.333 212.48 381.981 210.863C383.964 205.907 387.127 188.675 382.971 185.262C380.469 183.208 376.667 180.964 374.237 181.396C368.936 182.329 366.651 186.765 365.106 190.98C364.281 193.235 365.029 198.56 366.588 201.534C367.179 202.658 367.848 203.368 368.474 203.532C368.684 203.603 368.908 203.623 369.127 203.591C369.346 203.56 369.554 203.476 369.735 203.348C370.792 202.588 371.462 200.186 371.722 196.209C371.941 192.785 373.747 191.518 375.487 190.29C375.912 189.993 376.343 189.689 376.755 189.346C376.894 189.23 377.074 189.174 377.254 189.19C377.435 189.207 377.601 189.294 377.718 189.433C377.834 189.572 377.89 189.752 377.873 189.932C377.857 190.112 377.769 190.279 377.63 190.395C377.192 190.76 376.73 191.083 376.28 191.402C374.664 192.54 373.27 193.524 373.088 196.299C372.791 200.824 371.981 203.416 370.538 204.454C370.194 204.7 369.798 204.863 369.381 204.932C368.963 205.001 368.535 204.972 368.131 204.849C367.1 204.58 366.174 203.676 365.379 202.166C363.65 198.869 362.878 193.098 363.823 190.515C365.406 186.201 367.982 181.119 373.994 180.057C377.731 179.401 382.844 183.4 383.829 184.209C388.992 188.448 384.831 207.397 383.24 211.367C382.557 213.072 381.633 214.693 380.74 216.262C379.208 218.972 377.744 221.53 377.582 224.281C377.179 231.178 377.313 237.506 379.263 245.988C379.303 246.164 379.272 246.35 379.176 246.503C379.08 246.656 378.927 246.765 378.751 246.806C378.7 246.817 378.649 246.823 378.597 246.823Z" fill="#262626"/>
<path d="M363.342 202.515C362.856 202.51 362.379 202.391 361.947 202.168C358.305 200.365 354.877 191.518 356.738 186.256C359.174 179.371 360.212 176.886 364.055 174.859C366.211 173.72 370.252 174.052 373.66 175.645C376.428 176.939 378.193 178.787 378.626 180.848C378.644 180.935 378.645 181.025 378.629 181.113C378.612 181.201 378.579 181.285 378.53 181.359C378.481 181.434 378.418 181.499 378.344 181.549C378.27 181.599 378.187 181.635 378.1 181.653C378.012 181.671 377.922 181.672 377.834 181.656C377.746 181.64 377.662 181.606 377.587 181.557C377.512 181.508 377.448 181.445 377.397 181.372C377.347 181.298 377.311 181.215 377.293 181.128C376.952 179.519 375.419 177.97 373.082 176.878C370.079 175.473 366.474 175.129 364.692 176.063C361.286 177.859 360.378 180.05 358.025 186.711C356.274 191.673 359.706 199.539 362.554 200.947C363.112 201.224 363.952 201.438 364.804 200.142C364.903 199.991 365.058 199.886 365.235 199.849C365.412 199.812 365.596 199.847 365.747 199.946C365.898 200.045 366.004 200.199 366.041 200.376C366.078 200.553 366.043 200.737 365.944 200.888C365.239 201.96 364.34 202.515 363.342 202.515Z" fill="#262626"/>
<path d="M351.229 179.528C351.102 179.527 350.979 179.491 350.872 179.423C350.765 179.356 350.679 179.26 350.624 179.147C350.568 179.033 350.545 178.907 350.558 178.781C350.571 178.655 350.618 178.536 350.695 178.436C351.48 177.488 352.322 176.589 353.218 175.746C353.969 175.005 354.751 174.24 355.468 173.401C356.948 171.688 358.861 170.847 360.98 170.96C363.902 171.12 366.524 173.027 367.378 174.266C367.472 174.415 367.505 174.595 367.469 174.768C367.434 174.94 367.333 175.093 367.187 175.192C367.041 175.292 366.863 175.332 366.689 175.303C366.514 175.274 366.358 175.179 366.253 175.038C365.668 174.185 363.429 172.457 360.905 172.319C359.176 172.214 357.71 172.888 356.502 174.286C355.744 175.16 354.948 175.951 354.175 176.709C353.322 177.516 352.518 178.374 351.767 179.277C351.703 179.357 351.621 179.421 351.527 179.465C351.434 179.508 351.332 179.53 351.229 179.528Z" fill="#262626"/>
<path d="M357.307 200.343C357.062 200.343 356.817 200.319 356.576 200.271C354.904 199.944 351.734 198.235 349.322 190.478C349.003 189.465 348.755 188.431 348.58 187.384C348.566 187.295 348.569 187.205 348.59 187.118C348.61 187.032 348.647 186.95 348.7 186.877C348.752 186.805 348.818 186.743 348.894 186.696C348.97 186.649 349.055 186.618 349.143 186.603C349.231 186.589 349.321 186.592 349.408 186.613C349.495 186.633 349.577 186.671 349.65 186.723C349.723 186.775 349.784 186.841 349.831 186.917C349.878 186.993 349.91 187.077 349.924 187.165C350.091 188.149 350.327 189.12 350.629 190.071C352.978 197.623 355.978 198.764 356.843 198.934C357.198 199.021 357.57 199.008 357.918 198.895C358.266 198.783 358.576 198.576 358.813 198.298C358.929 198.159 359.096 198.071 359.277 198.055C359.457 198.038 359.637 198.094 359.777 198.21C359.917 198.326 360.004 198.492 360.021 198.673C360.038 198.853 359.982 199.033 359.866 199.172C359.554 199.546 359.162 199.845 358.719 200.047C358.277 200.25 357.794 200.351 357.307 200.343Z" fill="#262626"/>
<path d="M349.778 176.666H349.764C349.585 176.659 349.416 176.583 349.293 176.453C349.17 176.323 349.104 176.15 349.108 175.971C349.27 168.541 351.255 156.888 353.153 148.657C355.766 137.294 358.721 132.133 362.602 132.487C362.966 132.505 363.322 132.602 363.644 132.771C363.967 132.941 364.248 133.178 364.469 133.468C365.725 135.138 365.051 138.592 364.195 142.962C363.683 145.585 363.101 148.55 362.899 151.43C362.681 154.393 362.407 156.696 362.157 158.73C361.672 162.663 361.282 165.786 361.777 171.231C361.785 171.32 361.775 171.41 361.748 171.495C361.722 171.58 361.678 171.66 361.621 171.728C361.564 171.797 361.494 171.853 361.414 171.895C361.335 171.936 361.248 171.962 361.159 171.97C361.07 171.978 360.98 171.968 360.895 171.942C360.81 171.915 360.73 171.872 360.662 171.815C360.593 171.757 360.536 171.687 360.495 171.608C360.453 171.529 360.428 171.443 360.42 171.354C359.916 165.764 360.308 162.587 360.803 158.564C361.052 156.547 361.332 154.262 361.54 151.334C361.759 148.371 362.337 145.359 362.853 142.702C363.58 138.988 364.267 135.472 363.374 134.285C363.267 134.149 363.131 134.039 362.975 133.963C362.819 133.888 362.648 133.848 362.475 133.848C360.47 133.66 357.425 136.141 354.477 148.969C352.597 157.144 350.627 168.677 350.467 176.017C350.459 176.193 350.382 176.359 350.253 176.48C350.125 176.601 349.954 176.668 349.778 176.666Z" fill="#262626"/>
<path d="M311.467 304.007C311.291 304.006 311.123 303.937 310.997 303.814C310.871 303.692 310.797 303.525 310.791 303.35C310.784 303.174 310.846 303.003 310.963 302.872C311.08 302.741 311.243 302.66 311.419 302.646C314.277 302.445 316.392 302.039 317.534 301.475C322.838 298.87 330.01 286.776 333.276 279.766C336.713 272.404 341.141 271.528 341.327 271.495C341.504 271.466 341.686 271.506 341.834 271.609C341.982 271.711 342.084 271.867 342.119 272.044C342.135 272.132 342.134 272.222 342.115 272.309C342.096 272.397 342.06 272.479 342.009 272.553C341.958 272.626 341.893 272.689 341.817 272.737C341.742 272.786 341.658 272.819 341.57 272.835C341.534 272.835 337.63 273.678 334.513 280.34C331.028 287.805 323.788 299.917 318.138 302.696C316.825 303.352 314.59 303.789 311.515 304.007H311.467Z" fill="#262626"/>
<path d="M311.6 328.605C311.425 328.609 311.256 328.545 311.126 328.427C310.997 328.308 310.919 328.145 310.907 327.971C310.896 327.796 310.952 327.624 311.064 327.49C311.177 327.356 311.337 327.27 311.511 327.25C314.941 326.798 319.185 326.337 325.27 325.758C335.883 324.751 341.197 323.081 346.617 315.346C346.668 315.273 346.733 315.21 346.809 315.162C346.884 315.114 346.968 315.081 347.056 315.065C347.144 315.049 347.235 315.051 347.322 315.07C347.41 315.089 347.492 315.126 347.566 315.177C347.639 315.228 347.702 315.293 347.75 315.368C347.798 315.443 347.831 315.527 347.847 315.615C347.863 315.703 347.861 315.793 347.842 315.881C347.823 315.968 347.787 316.051 347.735 316.124C342.003 324.307 336.454 326.064 325.41 327.115C319.342 327.692 315.122 328.151 311.701 328.601C311.668 328.605 311.634 328.606 311.6 328.605Z" fill="#262626"/>
<path d="M273.776 350.059C267.581 350.059 260.172 349.779 251.102 349.228C221.494 347.43 182.936 342.564 171.725 334.791C159.129 326.064 160.466 301.953 161.875 276.427C162.094 272.343 162.331 268.204 162.51 264.063C163.655 237.479 167.304 206.595 170.642 195.211C178.13 169.721 195.583 165.607 214.072 161.263C222.803 159.209 231.83 157.087 240.073 152.583C240.151 152.54 240.237 152.513 240.326 152.503C240.415 152.494 240.505 152.501 240.591 152.526C240.677 152.551 240.757 152.593 240.827 152.649C240.897 152.705 240.955 152.774 240.998 152.852C241.042 152.93 241.069 153.017 241.079 153.105C241.088 153.194 241.081 153.284 241.056 153.37C241.031 153.456 240.989 153.536 240.933 153.606C240.877 153.675 240.808 153.733 240.729 153.776C232.324 158.365 223.206 160.513 214.387 162.587C196.301 166.839 179.217 170.857 171.961 195.582C168.645 206.888 165.021 237.628 163.878 264.118C163.701 268.27 163.471 272.408 163.243 276.499C161.849 301.628 160.532 325.376 172.493 333.668C182.781 340.8 219.426 345.937 251.185 347.871C272.009 349.134 284.004 348.964 292.586 347.277C297.872 346.235 302.097 328.284 302.34 312.927C302.484 303.843 301.118 301.127 300.37 300.95C294.537 299.609 283.772 298.87 274.275 298.219C267.131 297.73 260.96 297.306 257.846 296.709C247.007 294.629 237.956 291.331 229.971 288.425C218.163 284.127 207.969 280.41 196.089 281.97C195.914 281.985 195.74 281.932 195.604 281.822C195.467 281.712 195.378 281.553 195.355 281.38C195.332 281.206 195.378 281.03 195.481 280.889C195.585 280.747 195.739 280.651 195.911 280.62C208.114 279.025 218.456 282.786 230.438 287.145C238.374 290.036 247.37 293.311 258.102 295.372C261.138 295.953 267.564 296.394 274.369 296.862C283.917 297.518 294.725 298.258 300.676 299.624C303.34 300.236 303.791 307.209 303.699 312.953C303.48 326.514 299.886 347.229 292.845 348.614C287.913 349.58 281.887 350.059 273.776 350.059Z" fill="#262626"/>
<path d="M216.107 279.447C215.926 279.444 215.754 279.37 215.628 279.24C215.501 279.111 215.432 278.937 215.433 278.756C215.803 250.035 207.267 209.766 197.168 192.578C197.079 192.422 197.055 192.237 197.102 192.064C197.148 191.891 197.261 191.743 197.415 191.653C197.57 191.562 197.755 191.536 197.929 191.579C198.103 191.623 198.252 191.734 198.345 191.887C209.799 211.385 217.134 252.554 216.797 278.774C216.796 278.863 216.778 278.951 216.742 279.034C216.707 279.116 216.656 279.191 216.592 279.253C216.528 279.316 216.452 279.365 216.369 279.398C216.286 279.431 216.197 279.448 216.107 279.447Z" fill="#262626"/>
<path d="M299.28 340.02C299.108 340.023 298.941 339.96 298.814 339.845C298.686 339.73 298.607 339.571 298.592 339.4C298.577 339.229 298.627 339.059 298.733 338.923C298.839 338.788 298.992 338.697 299.161 338.67C300.503 338.451 301.856 338.306 303.213 338.233C305.608 338.067 307.678 337.925 308.247 336.793C308.637 336.013 310.51 328.592 311.134 321.237C311.905 312.156 311.178 304.077 310.333 303.271C309.598 302.834 308.455 302.897 307.011 302.978C305.667 303.055 303.994 303.149 302.094 302.834C302.006 302.82 301.922 302.788 301.846 302.741C301.77 302.694 301.704 302.633 301.651 302.56C301.599 302.488 301.562 302.406 301.541 302.319C301.521 302.232 301.518 302.142 301.532 302.054C301.546 301.966 301.578 301.881 301.625 301.806C301.672 301.73 301.734 301.664 301.806 301.612C301.879 301.559 301.961 301.522 302.048 301.502C302.135 301.481 302.225 301.478 302.313 301.492C304.064 301.783 305.597 301.698 306.93 301.621C308.541 301.529 309.935 301.451 311.055 302.122C312.958 303.262 313.111 314.022 312.489 321.351C311.867 328.68 309.979 336.371 309.462 337.4C308.547 339.231 306.118 339.398 303.305 339.585C301.996 339.653 300.692 339.79 299.398 339.998C299.359 340.009 299.32 340.016 299.28 340.02Z" fill="#262626"/>
<path d="M368.28 269.878C365.712 269.878 362.838 269.181 359.68 267.791C350.502 263.749 341.626 254.821 340.353 251.003C339.138 247.365 341.624 242.634 347.746 236.942C347.879 236.819 348.055 236.753 348.236 236.76C348.417 236.766 348.588 236.844 348.712 236.977C348.835 237.109 348.901 237.285 348.894 237.466C348.887 237.647 348.809 237.817 348.677 237.941C344.761 241.581 340.359 246.727 341.646 250.573C342.85 254.178 351.656 262.768 360.231 266.546C365.097 268.689 369.35 269.076 372.526 267.667C379.027 264.782 383.726 258.926 384.223 253.064C384.628 248.256 382.222 243.985 377.262 240.692C377.183 240.644 377.114 240.581 377.059 240.507C377.005 240.432 376.966 240.347 376.945 240.257C376.925 240.167 376.923 240.073 376.94 239.983C376.956 239.892 376.991 239.805 377.043 239.728C377.094 239.651 377.16 239.585 377.238 239.535C377.315 239.484 377.402 239.45 377.493 239.434C377.585 239.418 377.678 239.421 377.768 239.442C377.858 239.463 377.943 239.503 378.018 239.558C384.84 244.087 385.897 249.465 385.58 253.18C385.044 259.516 380.02 265.831 373.08 268.912C371.566 269.569 369.93 269.898 368.28 269.878Z" fill="#262626"/>
<path d="M365.804 251.007C363.849 251.002 361.898 250.81 359.98 250.433C353.851 249.242 349.036 246.423 347.418 243.076C347.354 242.915 347.353 242.736 347.415 242.575C347.478 242.414 347.6 242.282 347.756 242.207C347.912 242.132 348.091 242.119 348.256 242.171C348.421 242.223 348.561 242.335 348.646 242.486C350.064 245.407 354.615 248.005 360.247 249.098C367.627 250.531 374.544 249.128 378.751 245.333C378.816 245.267 378.894 245.216 378.981 245.181C379.067 245.147 379.159 245.13 379.252 245.133C379.344 245.135 379.436 245.156 379.52 245.195C379.604 245.234 379.68 245.289 379.742 245.358C379.804 245.427 379.851 245.507 379.881 245.595C379.911 245.683 379.922 245.776 379.915 245.868C379.908 245.96 379.882 246.05 379.838 246.132C379.795 246.214 379.736 246.286 379.664 246.344C376.286 249.386 371.344 251.007 365.804 251.007Z" fill="#262626"/>
<path d="M195.692 384C196.896 364.852 199.742 347.609 200.692 343.372C200.722 343.2 200.684 343.022 200.587 342.877C200.49 342.731 200.34 342.629 200.169 342.59C199.998 342.552 199.819 342.58 199.668 342.67C199.518 342.76 199.408 342.904 199.361 343.073C198.396 347.343 195.528 364.723 194.327 384H195.692Z" fill="#262626"/>
<path d="M376.577 384H377.943C377.286 368.704 375.098 350.64 372.44 339.664C372.423 339.574 372.387 339.488 372.336 339.411C372.284 339.335 372.217 339.27 372.139 339.22C372.062 339.17 371.975 339.136 371.884 339.121C371.793 339.106 371.7 339.109 371.61 339.13C371.52 339.152 371.436 339.191 371.362 339.247C371.288 339.302 371.226 339.371 371.179 339.451C371.133 339.531 371.103 339.619 371.092 339.71C371.081 339.802 371.088 339.895 371.114 339.983C373.751 350.867 375.94 368.811 376.577 384Z" fill="#262626"/>
<path d="M287.633 146.544C287.268 146.544 286.904 146.528 286.539 146.498C278.064 145.764 265.85 140.817 259.33 129.26C259.286 129.182 259.258 129.096 259.247 129.007C259.236 128.919 259.243 128.829 259.267 128.743C259.291 128.657 259.331 128.576 259.386 128.506C259.442 128.436 259.51 128.377 259.588 128.333C259.666 128.289 259.752 128.261 259.84 128.25C259.929 128.239 260.019 128.246 260.106 128.27C260.192 128.294 260.272 128.335 260.343 128.39C260.413 128.445 260.472 128.513 260.516 128.591C268.761 143.19 284.851 144.979 286.659 145.141C292.529 145.644 300.626 141.07 305.264 136.501C311.666 130.188 313.61 121.85 314.665 114.523C314.674 114.432 314.702 114.343 314.746 114.262C314.79 114.181 314.851 114.11 314.923 114.054C314.996 113.997 315.079 113.955 315.168 113.932C315.258 113.908 315.351 113.903 315.442 113.916C315.533 113.929 315.621 113.96 315.7 114.008C315.778 114.056 315.847 114.119 315.9 114.194C315.954 114.269 315.992 114.354 316.011 114.444C316.031 114.534 316.032 114.627 316.015 114.718C314.921 122.267 312.912 130.872 306.225 137.469C302.397 141.236 294.495 146.544 287.633 146.544Z" fill="#262626"/>
<path d="M251.419 119.652C249.509 119.652 247.042 118.548 244.921 116.721C241.905 114.112 240.156 110.538 240.123 106.912C240.084 102.776 241.502 99.636 243.918 98.5107C245.875 97.5973 248.224 98.1217 250.369 99.9485C250.441 100.005 250.501 100.076 250.546 100.157C250.59 100.237 250.618 100.326 250.627 100.417C250.636 100.509 250.626 100.601 250.599 100.689C250.571 100.777 250.526 100.858 250.466 100.928C250.407 100.998 250.333 101.055 250.251 101.095C250.168 101.136 250.078 101.16 249.986 101.165C249.894 101.171 249.802 101.157 249.716 101.126C249.629 101.095 249.55 101.047 249.482 100.984C247.731 99.4983 245.967 99.0569 244.496 99.7431C242.577 100.637 241.452 103.311 241.487 106.899C241.515 110.133 243.093 113.339 245.814 115.692C247.836 117.44 250.255 118.474 251.824 118.264C251.915 118.249 252.007 118.252 252.096 118.273C252.185 118.294 252.269 118.333 252.343 118.387C252.416 118.441 252.478 118.51 252.525 118.588C252.572 118.667 252.602 118.754 252.615 118.845C252.627 118.935 252.621 119.027 252.597 119.115C252.573 119.203 252.531 119.286 252.475 119.358C252.418 119.43 252.348 119.489 252.268 119.533C252.187 119.577 252.099 119.605 252.008 119.614C251.813 119.639 251.616 119.652 251.419 119.652Z" fill="#262626"/>
<path d="M315.247 118.371C315.08 118.37 314.92 118.309 314.795 118.198C314.671 118.087 314.592 117.935 314.572 117.77C314.552 117.605 314.594 117.438 314.689 117.301C314.784 117.164 314.925 117.067 315.087 117.027C315.278 116.981 319.719 115.817 321.619 109.397C322.562 106.211 322.42 103.418 321.238 101.922C320.581 101.1 319.636 100.715 318.447 100.781C318.356 100.788 318.265 100.776 318.179 100.747C318.093 100.718 318.014 100.673 317.946 100.613C317.878 100.553 317.822 100.48 317.782 100.398C317.743 100.316 317.72 100.228 317.715 100.137C317.71 100.047 317.724 99.956 317.754 99.8706C317.785 99.7853 317.833 99.7069 317.894 99.6401C317.955 99.5733 318.03 99.5194 318.112 99.4815C318.195 99.4437 318.284 99.4227 318.375 99.4197C320.045 99.3454 321.382 99.9092 322.315 101.078C323.794 102.949 324.02 106.119 322.936 109.782C320.8 116.992 315.632 118.303 315.413 118.352C315.359 118.365 315.303 118.372 315.247 118.371Z" fill="#262626"/>
<path d="M288.307 113.28C288.166 113.28 288.027 113.237 287.912 113.155C287.796 113.074 287.709 112.958 287.662 112.825C287.615 112.691 287.611 112.546 287.651 112.411C287.691 112.275 287.772 112.155 287.883 112.067C290.89 109.683 290.345 108.571 289.356 106.532C288.421 104.614 287.141 101.987 288.815 97.5733C288.884 97.4114 289.013 97.2824 289.176 97.2135C289.338 97.1445 289.52 97.1408 289.685 97.2032C289.85 97.2656 289.984 97.3892 290.06 97.5482C290.136 97.7072 290.147 97.8892 290.091 98.0562C288.625 101.924 289.664 104.059 290.581 105.942C291.617 108.068 292.595 110.074 288.73 113.138C288.609 113.231 288.46 113.281 288.307 113.28Z" fill="#262626"/>
<path d="M265.973 90.2903C265.822 90.2898 265.675 90.2392 265.555 90.1465C265.436 90.0537 265.351 89.9241 265.314 89.7779C265.276 89.6316 265.288 89.4771 265.348 89.3385C265.408 89.1999 265.512 89.0851 265.644 89.012C268.308 87.5589 274.428 86.6543 277.948 88.5444C278.098 88.6347 278.207 88.7792 278.254 88.948C278.3 89.1167 278.28 89.2968 278.197 89.4509C278.114 89.6051 277.975 89.7215 277.808 89.776C277.641 89.8306 277.46 89.8191 277.302 89.744C274.332 88.1489 268.667 88.9137 266.299 90.2072C266.199 90.2617 266.087 90.2903 265.973 90.2903Z" fill="#262626"/>
<path d="M307.869 90.2837C307.714 90.2841 307.564 90.2317 307.444 90.1351C305.507 88.5902 300.996 88.7475 298.409 89.9166C298.326 89.958 298.237 89.9824 298.145 89.9883C298.053 89.9942 297.96 89.9814 297.874 89.9508C297.787 89.9202 297.707 89.8724 297.639 89.8102C297.571 89.748 297.517 89.6728 297.479 89.589C297.441 89.5052 297.42 89.4146 297.418 89.3226C297.416 89.2307 297.433 89.1393 297.467 89.0539C297.501 88.9686 297.553 88.8911 297.618 88.826C297.683 88.761 297.761 88.7097 297.846 88.6754C300.851 87.3163 305.881 87.1458 308.295 89.0687C308.406 89.1568 308.486 89.2769 308.525 89.4125C308.564 89.548 308.56 89.6923 308.513 89.8254C308.466 89.9584 308.379 90.0736 308.263 90.1549C308.148 90.2362 308.01 90.2797 307.869 90.2793V90.2837Z" fill="#262626"/>
<path d="M249.609 110.841C249.514 110.842 249.42 110.823 249.333 110.785C249.246 110.748 249.168 110.692 249.104 110.623L246.363 107.596C246.297 107.531 246.245 107.453 246.21 107.367C246.175 107.281 246.159 107.189 246.161 107.096C246.163 107.004 246.184 106.912 246.222 106.828C246.261 106.744 246.316 106.668 246.385 106.606C246.454 106.544 246.535 106.496 246.623 106.466C246.711 106.436 246.804 106.425 246.896 106.432C246.989 106.439 247.079 106.465 247.161 106.508C247.244 106.551 247.316 106.611 247.374 106.683L250.113 109.705C250.201 109.802 250.26 109.924 250.281 110.054C250.302 110.184 250.284 110.317 250.231 110.438C250.177 110.558 250.09 110.66 249.979 110.732C249.868 110.803 249.739 110.841 249.607 110.841H249.609Z" fill="#262626"/>
<path d="M317.639 103.949H317.558C317.47 103.939 317.384 103.911 317.306 103.868C317.227 103.824 317.159 103.766 317.103 103.696C317.048 103.626 317.007 103.546 316.982 103.46C316.958 103.374 316.951 103.284 316.961 103.196C317.259 100.667 317.963 93.758 317.653 92.1738C317.635 92.0862 317.636 91.996 317.653 91.9084C317.671 91.8208 317.706 91.7376 317.756 91.6634C317.805 91.5892 317.869 91.5256 317.944 91.4762C318.019 91.4267 318.102 91.3924 318.19 91.3752C318.278 91.358 318.368 91.3582 318.456 91.3758C318.544 91.3935 318.627 91.4282 318.701 91.478C318.775 91.5278 318.839 91.5917 318.889 91.6661C318.938 91.7405 318.973 91.824 318.99 91.9116C319.399 93.994 318.43 102.4 318.318 103.353C318.297 103.518 318.216 103.669 318.091 103.779C317.966 103.889 317.806 103.949 317.639 103.949Z" fill="#262626"/>
<path fill-rule="evenodd" clip-rule="evenodd" d="M268.47 100.307C268.615 98.6374 269.853 97.4028 271.237 97.5536C272.62 97.7044 273.627 99.1771 273.483 100.849C273.338 102.52 272.099 103.751 270.716 103.604C269.333 103.458 268.315 101.983 268.47 100.307Z" fill="#262626"/>
<path d="M237.004 69.5863C236.843 69.5856 236.688 69.5281 236.565 69.424C236.443 69.3199 236.362 69.1759 236.335 69.0176C236.309 68.8592 236.34 68.6967 236.422 68.5588C236.505 68.421 236.633 68.3166 236.785 68.2643C240.526 66.9532 240.92 63.4265 241.421 58.9535C241.821 55.3853 242.275 51.3384 244.516 47.4883C249.399 39.0952 258.257 35.4286 265.577 38.7696C265.733 38.8497 265.852 38.9869 265.91 39.1526C265.968 39.3184 265.959 39.4999 265.886 39.6595C265.813 39.8191 265.681 39.9444 265.518 40.0094C265.355 40.0745 265.173 40.0742 265.01 40.0086C258.343 36.9669 250.22 40.3976 245.693 48.1722C243.597 51.7754 243.161 55.6693 242.776 59.0978C242.244 63.8504 241.784 67.9562 237.234 69.5426C237.16 69.5708 237.083 69.5856 237.004 69.5863Z" fill="#262626"/>
<path d="M245.019 99.2186C244.854 99.2189 244.695 99.1592 244.571 99.0506C244.447 98.942 244.366 98.792 244.345 98.6286C244.185 97.4246 243.791 95.6328 243.338 93.5592C242.187 88.3149 240.609 81.1215 241.136 75.8882C241.157 75.7095 241.247 75.5461 241.387 75.4326C241.527 75.3192 241.705 75.2647 241.885 75.2807C241.974 75.2894 242.06 75.3157 242.139 75.3579C242.218 75.4002 242.288 75.4576 242.345 75.5268C242.401 75.5961 242.443 75.6758 242.469 75.7615C242.494 75.8471 242.503 75.937 242.493 76.0258C241.988 81.0516 243.537 88.1095 244.669 93.2685C245.131 95.3728 245.529 97.1886 245.696 98.4494C245.719 98.6285 245.671 98.8096 245.561 98.953C245.451 99.0964 245.288 99.1903 245.109 99.2142C245.079 99.2178 245.049 99.2193 245.019 99.2186Z" fill="#262626"/>
<path d="M321.039 47.0403C316.164 47.0403 313.341 44.3898 309.838 41.1121C308.976 40.3036 308.059 39.4427 307.043 38.5533C293.241 26.4806 277.812 29.7058 271.267 35.8503C271.134 35.9639 270.962 36.0218 270.787 36.0122C270.612 36.0026 270.447 35.9261 270.327 35.7986C270.207 35.671 270.14 35.5023 270.142 35.3273C270.143 35.1522 270.211 34.9843 270.333 34.8583C278.525 27.1689 294.836 26.0654 307.947 37.5219C308.976 38.42 309.906 39.2919 310.78 40.1113C314.654 43.7561 317.221 46.1575 322.453 45.6069C322.542 45.5974 322.631 45.6055 322.717 45.6307C322.803 45.656 322.883 45.6978 322.953 45.754C323.022 45.8101 323.08 45.8793 323.123 45.9577C323.166 46.0362 323.193 46.1222 323.202 46.211C323.212 46.2999 323.204 46.3897 323.178 46.4753C323.153 46.561 323.111 46.6409 323.055 46.7104C322.999 46.7799 322.929 46.8376 322.851 46.8804C322.772 46.9231 322.686 46.95 322.597 46.9594C322.079 47.0145 321.559 47.0415 321.039 47.0403Z" fill="#262626"/>
<path d="M256.532 87.0519C256.276 87.0519 256.014 87.0519 255.744 87.0344C255.654 87.0313 255.566 87.0104 255.484 86.973C255.402 86.9355 255.329 86.8822 255.268 86.8161C255.207 86.7501 255.159 86.6726 255.128 86.5882C255.097 86.5037 255.084 86.414 255.088 86.3242C255.1 86.1451 255.18 85.9773 255.312 85.8554C255.443 85.7334 255.617 85.6666 255.797 85.6687C264.46 86.027 266.319 79.7448 268.273 73.0715C269.718 68.1244 271.213 63.02 275.934 61.6368C276.108 61.5861 276.295 61.6065 276.454 61.6936C276.613 61.7807 276.731 61.9273 276.782 62.1011C276.833 62.275 276.812 62.4619 276.725 62.6207C276.638 62.7795 276.491 62.8972 276.317 62.9479C272.314 64.1147 270.987 68.6532 269.584 73.4561C267.719 79.841 265.612 87.0519 256.532 87.0519Z" fill="#262626"/>
<path d="M316.431 86.0315C308.182 86.0315 301.941 77.3347 297.92 70.6876C293.641 63.6078 290.317 59.1546 283.523 61.8379C283.439 61.8707 283.35 61.8869 283.261 61.8855C283.172 61.8841 283.083 61.865 283.001 61.8295C282.919 61.794 282.845 61.7427 282.782 61.6785C282.72 61.6144 282.671 61.5386 282.638 61.4555C282.605 61.3724 282.589 61.2837 282.591 61.1944C282.592 61.105 282.611 61.0169 282.647 60.9349C282.682 60.8529 282.734 60.7788 282.798 60.7166C282.862 60.6545 282.938 60.6056 283.021 60.5727C290.792 57.5136 294.583 62.5393 299.087 69.9927C303.055 76.5481 309.226 85.1989 317.164 84.6527C317.343 84.6461 317.518 84.7077 317.654 84.8249C317.789 84.9422 317.875 85.1063 317.893 85.2842C317.9 85.3733 317.888 85.4627 317.86 85.5474C317.831 85.6322 317.786 85.7104 317.728 85.7778C317.669 85.8452 317.597 85.9004 317.517 85.9401C317.437 85.9799 317.35 86.0035 317.261 86.0096C316.983 86.0315 316.705 86.0315 316.431 86.0315Z" fill="#262626"/>
<path d="M321.671 95.4274C321.616 95.4284 321.561 95.4218 321.507 95.4078C321.418 95.3873 321.335 95.3494 321.261 95.2962C321.188 95.243 321.125 95.1756 321.078 95.098C321.031 95.0204 321 94.9341 320.987 94.8444C320.974 94.7546 320.979 94.6631 321.001 94.5752C322.352 89.0862 326.46 64.8577 320.224 55.3568C320.17 55.2822 320.131 55.1973 320.11 55.1072C320.089 55.0172 320.087 54.9239 320.104 54.833C320.12 54.7421 320.155 54.6554 320.206 54.5784C320.257 54.5013 320.324 54.4355 320.401 54.3848C320.478 54.3341 320.565 54.2996 320.656 54.2834C320.748 54.2673 320.841 54.2698 320.931 54.2908C321.021 54.3118 321.106 54.3509 321.181 54.4057C321.255 54.4605 321.318 54.5298 321.365 54.6095C327.931 64.6195 323.794 88.9354 322.326 94.8986C322.292 95.0473 322.209 95.1802 322.09 95.2761C321.971 95.3721 321.824 95.4253 321.671 95.4274Z" fill="#262626"/>
<path d="M288.211 133.068H287.992C278.738 132.828 276.127 122.001 276.1 121.891C276.075 121.781 276.078 121.667 276.108 121.558C276.139 121.45 276.195 121.35 276.273 121.269C276.351 121.187 276.448 121.126 276.555 121.091C276.663 121.056 276.777 121.048 276.888 121.068C276.947 121.078 283.059 122.173 288.59 122.208C291.831 122.247 295.069 121.983 298.262 121.422C298.376 121.399 298.494 121.406 298.605 121.441C298.716 121.477 298.815 121.54 298.895 121.625C298.974 121.71 299.03 121.814 299.058 121.926C299.086 122.039 299.085 122.157 299.054 122.269C298.923 122.713 295.977 133.068 288.211 133.068ZM277.722 122.58C278.58 125.103 281.406 131.525 288.01 131.698C293.482 131.871 296.428 125.499 297.371 122.945C294.456 123.385 291.511 123.591 288.563 123.561C284.328 123.541 279.76 122.905 277.722 122.586V122.58Z" fill="#262626"/>
<path d="M252.582 96.6008C252.413 96.6021 252.25 96.541 252.124 96.4293C251.998 96.3175 251.918 96.1631 251.9 95.9959C251.881 95.8287 251.925 95.6606 252.024 95.5241C252.122 95.3876 252.268 95.2924 252.433 95.257C254.84 94.7107 256.692 94.1491 258.561 91.8547C258.619 91.7856 258.689 91.7284 258.769 91.6865C258.849 91.6445 258.936 91.6187 259.025 91.6104C259.115 91.602 259.205 91.6114 259.291 91.638C259.377 91.6645 259.457 91.7078 259.527 91.7651C259.596 91.8225 259.653 91.893 259.695 91.9725C259.737 92.052 259.763 92.1389 259.771 92.2284C259.78 92.3179 259.77 92.4081 259.744 92.494C259.717 92.5798 259.674 92.6596 259.616 92.7288C257.465 95.3509 255.313 96.0064 252.722 96.5942C252.675 96.6019 252.628 96.6041 252.582 96.6008Z" fill="#262626"/>
<path d="M305.299 146.861C305.13 146.86 304.967 146.797 304.842 146.684C304.717 146.57 304.639 146.414 304.623 146.247C304.362 143.515 304.289 140.768 304.404 138.026C304.408 137.937 304.43 137.849 304.468 137.769C304.506 137.688 304.559 137.615 304.626 137.555C304.692 137.495 304.769 137.448 304.853 137.418C304.937 137.388 305.027 137.374 305.116 137.378C305.206 137.382 305.293 137.404 305.374 137.442C305.455 137.48 305.528 137.534 305.588 137.6C305.648 137.666 305.695 137.743 305.725 137.827C305.756 137.911 305.769 138 305.765 138.09C305.656 140.766 305.729 143.447 305.984 146.113C305.993 146.202 305.985 146.292 305.959 146.377C305.933 146.463 305.891 146.543 305.834 146.612C305.778 146.681 305.708 146.738 305.63 146.781C305.551 146.823 305.465 146.849 305.376 146.858L305.299 146.861Z" fill="#262626"/>
<path d="M256.322 144.859H256.3C256.12 144.852 255.95 144.774 255.827 144.643C255.704 144.511 255.638 144.336 255.644 144.156C255.882 136.521 255.149 126.6 254.527 122.372C254.501 122.194 254.547 122.012 254.655 121.867C254.763 121.723 254.924 121.627 255.103 121.601C255.282 121.575 255.464 121.621 255.609 121.728C255.754 121.836 255.85 121.997 255.876 122.175C256.48 126.29 257.259 136.134 257.005 144.199C257 144.376 256.926 144.545 256.798 144.668C256.671 144.791 256.5 144.86 256.322 144.859Z" fill="#262626"/>
<path d="M276.131 55.4662C275.982 55.4652 275.838 55.4161 275.719 55.3263C275.601 55.2365 275.515 55.1107 275.474 54.968C274.465 51.3297 271.456 46.8481 271.425 46.8022C271.324 46.6518 271.288 46.4676 271.323 46.2902C271.358 46.1128 271.463 45.9566 271.613 45.856C271.764 45.7555 271.948 45.7188 272.126 45.754C272.304 45.7893 272.46 45.8936 272.561 46.044C272.69 46.2341 275.728 50.7572 276.796 54.6052C276.821 54.6913 276.828 54.7813 276.817 54.8701C276.806 54.9589 276.778 55.0446 276.733 55.1224C276.689 55.2003 276.63 55.2686 276.559 55.3234C276.489 55.3783 276.408 55.4186 276.321 55.4421C276.259 55.4594 276.195 55.4675 276.131 55.4662Z" fill="#262626"/>
<path fill-rule="evenodd" clip-rule="evenodd" d="M299.711 100.431C299.855 98.762 301.094 97.5296 302.48 97.6782C303.865 97.8267 304.868 99.3017 304.723 100.973C304.579 102.645 303.34 103.877 301.959 103.731C300.578 103.585 299.566 102.103 299.711 100.431Z" fill="#262626"/>
<path d="M294.587 299.421C294.414 299.421 294.248 299.356 294.121 299.238C293.995 299.121 293.918 298.959 293.906 298.787C292.291 274.696 289.404 255.59 285.077 240.373C281.445 227.598 276.102 212.659 270.922 198.215C261.983 173.261 253.54 149.69 255.105 140.441C255.143 140.27 255.244 140.121 255.388 140.023C255.533 139.925 255.71 139.886 255.882 139.914C256.054 139.942 256.21 140.035 256.315 140.173C256.421 140.312 256.47 140.486 256.451 140.659C254.943 149.566 263.329 172.973 272.211 197.756C277.394 212.224 282.752 227.181 286.394 239.999C290.748 255.312 293.652 274.511 295.274 298.695C295.286 298.876 295.226 299.053 295.107 299.189C294.988 299.325 294.82 299.409 294.639 299.421H294.587Z" fill="#262626"/>
<path d="M295.392 384H296.758C296.916 371.403 296.951 357.466 296.85 345.173C296.85 345.084 296.832 344.996 296.798 344.914C296.763 344.832 296.713 344.757 296.65 344.694C296.587 344.632 296.512 344.582 296.429 344.548C296.347 344.515 296.259 344.497 296.169 344.498C295.989 344.499 295.816 344.572 295.689 344.701C295.562 344.83 295.492 345.003 295.493 345.184C295.576 357.473 295.539 371.407 295.392 384Z" fill="#262626"/>
<path d="M287.335 246.495C287.226 246.495 287.117 246.469 287.02 246.418C286.923 246.368 286.839 246.294 286.776 246.204C286.713 246.114 286.673 246.01 286.659 245.902C286.646 245.793 286.658 245.682 286.696 245.58C294.926 223.213 311.117 156.864 305.124 145.137C305.042 144.976 305.027 144.789 305.083 144.617C305.139 144.446 305.26 144.303 305.421 144.221C305.583 144.139 305.77 144.124 305.942 144.18C306.114 144.236 306.256 144.357 306.339 144.518C312.601 156.779 296.502 222.876 287.977 246.049C287.928 246.18 287.841 246.293 287.726 246.373C287.612 246.453 287.475 246.495 287.335 246.495Z" fill="#262626"/>
<path d="M285.926 241.078H285.913C285.823 241.077 285.735 241.058 285.652 241.022C285.57 240.987 285.496 240.935 285.434 240.871C285.372 240.806 285.323 240.731 285.29 240.647C285.257 240.564 285.241 240.475 285.243 240.386C285.495 225.586 285.477 209.694 283.667 193.762C282.647 184.803 282.507 177.723 282.404 172.566C282.297 167.27 282.229 163.771 281.329 162.045C280.743 160.917 278.009 159.569 274.844 158.009C268.601 154.932 260.052 150.717 255.364 142.873C255.271 142.718 255.244 142.532 255.288 142.357C255.333 142.182 255.445 142.032 255.6 141.94C255.755 141.847 255.941 141.82 256.116 141.865C256.292 141.909 256.442 142.021 256.535 142.176C261.024 149.675 269.365 153.785 275.457 156.79C279.112 158.59 281.754 159.893 282.548 161.418C283.595 163.424 283.667 167.051 283.776 172.538C283.877 177.677 284.017 184.716 285.028 193.616C286.849 209.624 286.867 225.568 286.615 240.416C286.61 240.595 286.535 240.764 286.406 240.888C286.277 241.012 286.105 241.08 285.926 241.078Z" fill="#262626"/>
<path d="M265.067 179.581C264.935 179.58 264.806 179.542 264.696 179.471C264.586 179.399 264.498 179.298 264.445 179.178C264.391 179.058 264.373 178.925 264.392 178.796C264.412 178.666 264.469 178.545 264.557 178.446C266.198 176.604 267.916 174.194 269.578 171.863C273.763 165.991 277.707 160.456 281.804 161.112C281.897 161.122 281.986 161.15 282.067 161.196C282.148 161.241 282.218 161.303 282.275 161.376C282.331 161.45 282.372 161.534 282.394 161.624C282.417 161.714 282.421 161.808 282.406 161.899C282.391 161.991 282.357 162.078 282.307 162.156C282.258 162.234 282.192 162.302 282.115 162.354C282.039 162.406 281.952 162.442 281.861 162.459C281.77 162.477 281.676 162.476 281.585 162.456C278.335 161.909 274.45 167.379 270.69 172.654C269.009 175.014 267.269 177.461 265.579 179.351C265.514 179.423 265.436 179.481 265.347 179.521C265.259 179.56 265.163 179.581 265.067 179.581Z" fill="#262626"/>
<path d="M283.074 169.173C283.037 169.176 282.999 169.176 282.962 169.173C282.874 169.158 282.789 169.127 282.713 169.08C282.637 169.033 282.571 168.971 282.519 168.898C282.467 168.825 282.43 168.743 282.41 168.656C282.389 168.569 282.387 168.479 282.402 168.391C283.752 160.244 290.159 156.591 295.81 153.388C299.829 151.104 303.625 148.947 305.198 145.495C305.274 145.331 305.412 145.204 305.581 145.141C305.75 145.078 305.938 145.084 306.102 145.158C306.184 145.195 306.257 145.248 306.318 145.313C306.379 145.378 306.427 145.455 306.458 145.539C306.49 145.622 306.504 145.711 306.501 145.801C306.498 145.89 306.477 145.978 306.439 146.059C304.688 149.913 300.7 152.177 296.487 154.581C290.835 157.793 284.991 161.114 283.746 168.62C283.716 168.776 283.633 168.917 283.51 169.018C283.387 169.119 283.233 169.174 283.074 169.173Z" fill="#262626"/>
<path d="M301.806 180.4C299.247 180.4 297.041 176.513 294.488 172.016C291.936 167.519 289.016 162.379 286.088 162.379C285.914 162.369 285.75 162.293 285.63 162.167C285.51 162.04 285.444 161.873 285.444 161.699C285.444 161.524 285.51 161.357 285.63 161.23C285.75 161.104 285.914 161.028 286.088 161.018C289.809 161.018 292.794 166.262 295.675 171.345C297.822 175.127 300.052 179.039 301.803 179.039C302.475 179.039 303.174 178.383 303.885 177.118C303.925 177.035 303.982 176.961 304.052 176.901C304.122 176.841 304.203 176.796 304.291 176.768C304.379 176.74 304.472 176.731 304.564 176.74C304.656 176.749 304.745 176.777 304.825 176.821C304.906 176.866 304.977 176.926 305.034 176.999C305.09 177.071 305.132 177.155 305.155 177.244C305.178 177.333 305.183 177.426 305.17 177.517C305.156 177.608 305.124 177.695 305.076 177.773C304.095 179.521 303.027 180.396 301.81 180.396L301.806 180.4Z" fill="#262626"/>
<path d="M251.739 173.904C251.603 173.904 251.47 173.863 251.357 173.787C251.244 173.711 251.157 173.603 251.106 173.477C249.765 170.16 245.547 168.653 242.159 167.442C239.414 166.461 237.245 165.694 237.061 164.092C236.842 162.213 238.302 160.52 240.51 157.954C242.132 156.071 244.15 153.728 246.168 150.54C251.047 142.838 253.448 139.377 255.703 137.867C255.777 137.812 255.862 137.772 255.952 137.751C256.042 137.73 256.136 137.727 256.227 137.743C256.318 137.759 256.405 137.793 256.483 137.844C256.56 137.895 256.627 137.96 256.678 138.037C256.729 138.114 256.764 138.201 256.781 138.292C256.798 138.383 256.796 138.476 256.775 138.566C256.754 138.656 256.716 138.741 256.661 138.816C256.607 138.891 256.538 138.954 256.458 139.001C254.427 140.351 251.997 143.874 247.322 151.257C245.249 154.535 243.196 156.914 241.546 158.831C239.576 161.125 238.263 162.639 238.416 163.926C238.503 164.68 240.69 165.456 242.618 166.151C246.265 167.462 250.8 169.074 252.372 172.957C252.414 173.061 252.429 173.173 252.418 173.284C252.406 173.395 252.367 173.501 252.305 173.593C252.242 173.686 252.158 173.761 252.059 173.814C251.961 173.866 251.851 173.893 251.739 173.893V173.904Z" fill="#262626"/>
<path d="M244.728 190.698C244.602 190.699 244.479 190.665 244.372 190.6C244.264 190.534 244.177 190.441 244.12 190.329C237.645 177.714 236.735 174.507 237.365 173.419C237.912 172.472 239.335 172.697 241.692 173.071C244.597 173.532 248.578 174.164 252.107 172.815C255.118 171.67 257.071 168.41 259.255 163.52C259.289 163.434 259.339 163.355 259.404 163.288C259.469 163.222 259.546 163.17 259.632 163.134C259.717 163.099 259.81 163.081 259.902 163.083C259.995 163.084 260.086 163.104 260.171 163.142C260.256 163.18 260.332 163.234 260.395 163.302C260.458 163.37 260.506 163.45 260.537 163.538C260.568 163.625 260.58 163.718 260.574 163.81C260.568 163.902 260.543 163.993 260.501 164.075C258.183 169.284 256.04 172.78 252.595 174.092C248.725 175.573 244.365 174.883 241.478 174.421C240.285 174.234 238.801 174 238.486 174.172C238.348 174.78 239.361 178.062 245.334 189.715C245.416 189.876 245.431 190.062 245.376 190.234C245.321 190.405 245.199 190.548 245.039 190.631C244.942 190.677 244.836 190.7 244.728 190.698Z" fill="#262626"/>
<path d="M288.747 253.538C288.617 253.538 288.49 253.501 288.381 253.432C288.271 253.362 288.184 253.262 288.13 253.144C282.658 241.456 273.903 231.348 265.45 221.574C262.271 217.901 259.271 214.433 256.552 210.998C256.44 210.857 256.389 210.677 256.41 210.497C256.431 210.318 256.522 210.155 256.664 210.043C256.805 209.931 256.986 209.88 257.165 209.901C257.344 209.922 257.508 210.013 257.62 210.155C260.321 213.566 263.311 217.022 266.48 220.682C274.605 230.078 283.814 240.709 289.364 252.568C289.414 252.671 289.436 252.786 289.428 252.9C289.421 253.015 289.385 253.126 289.324 253.223C289.262 253.319 289.177 253.399 289.076 253.454C288.975 253.509 288.862 253.538 288.747 253.538Z" fill="#262626"/>
<path d="M315.451 174.88C315.385 174.88 315.319 174.87 315.256 174.852C315.082 174.8 314.936 174.682 314.85 174.523C314.764 174.364 314.745 174.177 314.796 174.004C315.996 169.99 320.362 167.954 323.869 166.317C325.725 165.443 327.828 164.468 327.844 163.71C327.872 162.416 326.432 161.029 324.25 158.929C323.214 157.93 322.039 156.801 320.774 155.433C319.679 154.262 318.712 153.112 317.79 151.924C312.373 144.916 307.492 139.648 305.354 138.498C305.275 138.455 305.205 138.397 305.149 138.327C305.092 138.257 305.05 138.177 305.025 138.091C305 138.005 304.992 137.914 305.001 137.825C305.011 137.736 305.038 137.649 305.081 137.571C305.124 137.492 305.183 137.422 305.253 137.366C305.323 137.31 305.403 137.268 305.489 137.242C305.576 137.217 305.666 137.209 305.755 137.219C305.845 137.228 305.931 137.256 306.01 137.299C308.792 138.795 314.483 145.405 318.878 151.091C319.776 152.249 320.723 153.366 321.781 154.506C323.022 155.841 324.188 156.958 325.206 157.943C327.644 160.292 329.258 161.844 329.216 163.734C329.183 165.34 327.097 166.312 324.455 167.545C321.194 169.074 317.136 170.96 316.112 174.389C316.07 174.531 315.983 174.657 315.864 174.745C315.744 174.834 315.599 174.881 315.451 174.88Z" fill="#262626"/>
<path d="M289.386 255.52C289.312 255.518 289.238 255.505 289.167 255.48C289.083 255.451 289.004 255.404 288.938 255.344C288.871 255.284 288.817 255.211 288.778 255.129C288.74 255.048 288.718 254.96 288.714 254.87C288.711 254.78 288.725 254.691 288.756 254.606C293.18 242.26 300.357 231.424 306.704 221.862C311.994 213.88 316.992 206.348 319.798 198.952C320.205 197.885 320.866 196.255 321.649 194.319C323.945 188.664 329.31 175.416 328.669 173.814C328.417 173.757 326.966 174.131 325.795 174.43C322.965 175.156 318.688 176.25 314.695 175.138C311.141 174.148 308.692 170.868 305.89 165.902C305.818 165.746 305.808 165.568 305.861 165.405C305.915 165.242 306.028 165.105 306.179 165.022C306.329 164.939 306.506 164.916 306.673 164.958C306.84 164.999 306.985 165.102 307.078 165.246C309.705 169.909 311.962 172.973 315.063 173.838C318.708 174.856 322.608 173.853 325.458 173.123C327.769 172.531 329.163 172.173 329.798 173.064C330.851 174.539 328.305 181.556 322.914 194.841C322.133 196.764 321.476 198.386 321.074 199.445C318.209 206.977 313.174 214.577 307.842 222.625C301.243 232.585 294.416 242.885 290.047 255.074C289.998 255.208 289.908 255.324 289.789 255.404C289.67 255.484 289.53 255.524 289.386 255.52Z" fill="#262626"/>
<path d="M374.329 137.452C374.15 137.452 373.978 137.381 373.85 137.255C372.872 136.296 372.414 135.336 372.489 134.414C372.585 133.221 373.519 132.406 374.24 131.871L374.093 131.845C373.279 131.687 372.267 131.493 371.414 130.533C370.365 129.364 371.508 127.114 372.74 124.723C370.182 126.471 367.706 127.798 366.071 127.332C365.775 127.251 365.502 127.101 365.274 126.896C365.046 126.69 364.869 126.434 364.758 126.148C364.239 124.907 364.607 122.298 365.18 118.998C363.475 122.451 361.982 125.289 360.923 126.082C360.728 126.237 360.503 126.348 360.262 126.409C360.02 126.469 359.769 126.478 359.524 126.434C358.231 126.216 357.182 124.601 356.34 123.309L356.228 123.139C356.228 123.388 356.228 123.648 356.215 123.88C356.195 125.7 356.171 127.765 355.134 128.567C354.273 129.222 353.008 129.144 351.995 128.906C352.162 129.433 352.205 129.993 352.121 130.54C352.037 131.087 351.827 131.608 351.509 132.061C351.46 132.138 351.396 132.205 351.32 132.257C351.244 132.31 351.159 132.346 351.069 132.365C350.979 132.383 350.886 132.383 350.796 132.365C350.706 132.347 350.621 132.311 350.545 132.259C350.469 132.207 350.405 132.14 350.355 132.063C350.306 131.985 350.273 131.899 350.258 131.808C350.243 131.718 350.246 131.625 350.268 131.536C350.29 131.447 350.329 131.363 350.384 131.29C351.012 130.374 350.935 129.34 350.152 128.215C350.072 128.101 350.021 127.97 350.004 127.832C349.986 127.694 350.002 127.554 350.051 127.424C350.132 127.269 350.269 127.151 350.434 127.094C350.6 127.037 350.781 127.046 350.94 127.118C351.73 127.479 353.586 128.042 354.3 127.49C354.816 127.09 354.84 124.992 354.851 123.865C354.869 122.479 354.893 121.736 355.215 121.308C355.296 121.207 355.398 121.125 355.515 121.068C355.631 121.012 355.759 120.982 355.889 120.98C356.46 121 356.801 121.524 357.482 122.567C358.069 123.465 359.052 124.97 359.763 125.095C359.824 125.105 359.887 125.102 359.946 125.084C360.006 125.067 360.061 125.036 360.106 124.994C361.074 124.269 363.197 119.942 364.34 117.619C365.705 114.836 365.732 114.779 366.255 114.779C366.363 114.783 366.468 114.809 366.566 114.854C366.664 114.899 366.751 114.964 366.824 115.043C367.157 115.441 367.095 115.968 366.605 118.758C366.222 120.943 365.581 124.586 366.014 125.621C366.048 125.719 366.106 125.807 366.182 125.877C366.259 125.947 366.351 125.996 366.452 126.021C367.995 126.474 371.924 123.659 373.209 122.744C374.167 122.057 374.43 121.869 374.857 122.206C374.973 122.299 375.056 122.426 375.095 122.568C375.135 122.711 375.128 122.863 375.076 123.001C374.751 123.778 374.386 124.538 373.981 125.276C373.384 126.434 371.987 129.144 372.421 129.627C372.968 130.236 373.635 130.365 374.342 130.501C374.865 130.567 375.37 130.732 375.831 130.986C375.937 131.06 376.026 131.156 376.092 131.267C376.158 131.378 376.2 131.502 376.214 131.63C376.227 132.12 375.857 132.382 375.338 132.745C374.761 133.153 373.887 133.77 373.826 134.519C373.784 135.028 374.108 135.623 374.785 136.287C374.881 136.382 374.947 136.503 374.974 136.635C375.001 136.767 374.988 136.905 374.937 137.03C374.886 137.155 374.799 137.262 374.687 137.337C374.575 137.413 374.443 137.453 374.307 137.454L374.329 137.452Z" fill="#262626"/>
</g>
</g>
<defs>
<clipPath id="clip0_142_2968">
<rect width="570" height="413" fill="white" transform="matrix(-1 0 0 1 570 0)"/>
</clipPath>
<clipPath id="clip1_142_2968">
<rect width="248" height="355" fill="white" transform="translate(161 29)"/>
</clipPath>
</defs>
</svg>
