<svg width="296" height="379" viewBox="0 0 296 379" fill="none" xmlns="http://www.w3.org/2000/svg">
<g clip-path="url(#clip0_363_6079)">
<path fill-rule="evenodd" clip-rule="evenodd" d="M120.311 299.863C120.311 299.863 121.845 298.97 123.644 296.16C125.764 292.852 128.257 287.365 129.124 284.563C129.567 283.141 125.756 278.842 125.756 278.842C125.756 278.842 125.831 277.569 125.985 276.269C126.234 274.039 119.359 269.672 120.241 269.548C121.469 269.376 136.432 249.564 138.011 250.031C139.16 250.37 140.054 252.134 141.001 254.921C141.83 257.392 143.863 262.791 145.307 265.985C145.938 267.379 146.934 268.956 146.76 270.658C146.727 271 146.289 272.312 147.781 272.674C148.087 272.749 149.338 273.729 150.406 275.628C152.003 278.473 153.433 286.065 156.992 295.861C161.334 307.81 165.773 322.559 170.538 335.353C175.99 349.992 181.64 361.916 182.233 362.899C183.478 364.955 175.846 370.709 166.657 374.337C157.067 378.124 145.85 379.721 144.961 378.329C144.463 377.538 137.79 358.573 131.844 339.346C125.764 319.694 120.311 299.863 120.311 299.863Z" fill="#056BF1"/>
<path fill-rule="evenodd" clip-rule="evenodd" d="M119.384 214.032C92.1637 203.101 97.2676 130.244 121.661 87.1063C123.843 83.2464 147.547 87.6178 172.685 98.5838C197.823 109.55 215.748 124.418 213.74 128.373C189.212 176.685 158.985 210.461 134.925 215.397C130.706 216.262 126.959 217.073 119.384 214.032Z" fill="#FFD789"/>
<path fill-rule="evenodd" clip-rule="evenodd" d="M108.686 116.436C107.749 117.933 104.755 115.688 105.007 114.295C106.115 108.185 114.848 101.199 107.7 95.3526C106.754 94.5695 105.711 93.9135 104.596 93.4015C91.0353 87.7326 77.8061 100.722 72.6474 112.334C67.2546 124.47 66.5073 147.306 77.694 156.782C83.2512 161.493 92.3132 160.684 97.1455 166.069C99.5044 168.696 101.001 172.88 100.359 176.411C100.028 178.237 98.117 180.595 95.9848 180.076C91.1076 178.888 94.7817 175.213 94.4753 172.538C94.286 170.877 93.0007 169.794 91.81 168.781C84.1579 162.294 77.2183 166.373 68.8214 151.036C65.7999 145.514 64.3377 139.558 64.0662 133.48C63.4659 120.124 67.6781 105.535 78.1424 96.3706C85.1692 90.2102 91.3741 86.3902 101.011 86.1208C107.764 85.9361 115.05 94.2124 114.398 100.954L108.686 116.436Z" fill="#FFD789"/>
<path fill-rule="evenodd" clip-rule="evenodd" d="M205.662 144.037L199.136 153.913L199.52 156.458C199.006 158.147 202.663 158.953 203.547 157.84C207.426 152.997 206.975 141.811 216.067 143.388C217.277 143.594 218.456 143.957 219.574 144.466C232.736 151.013 231.605 169.534 226.227 181.047C220.608 193.071 203.871 208.59 189.401 206.344C182.205 205.224 176.89 197.831 169.649 197.701C166.121 197.642 161.984 199.251 159.742 202.05C158.581 203.498 158.063 206.494 159.844 207.762C163.937 210.673 164.301 205.486 166.517 203.964C167.897 203.018 169.556 203.28 171.098 203.52C181.002 205.059 182.477 212.981 199.544 209.286C205.69 207.956 211.127 205.164 215.9 201.379C226.362 193.083 234.602 180.341 234.661 166.415C234.704 157.059 233.52 149.86 227.405 142.395C223.121 137.155 212.106 137.071 207.448 141.983L205.662 144.037Z" fill="#FFD789"/>
<path fill-rule="evenodd" clip-rule="evenodd" d="M106.267 219.603L111.227 207.767L130.026 215.871C130.026 215.871 114.831 255.293 114.358 263.165C114.231 265.301 123.594 271.858 125.888 274.643C126.541 275.436 125.557 279.296 125.557 279.296C125.557 279.296 129.121 281.636 128.745 284.194C128.354 286.844 121.489 299.392 121.489 299.392C121.489 299.392 118.709 300.871 113.561 300.355C106.556 299.649 95.6859 296.485 86.2478 292.37C78.6804 289.069 69.2374 284.461 63.857 280.194C57.5924 275.227 56.3843 270.828 56.3843 270.828C56.3843 270.828 62.228 258.103 63.6378 256.176C65.1797 254.076 70.5675 254.43 70.5675 254.43C70.5675 254.43 72.2713 251.186 73.2876 251.027C75.9031 250.612 77.4275 254.48 88.3078 251.139C94.8738 249.135 106.267 219.603 106.267 219.603Z" fill="#FFD789"/>
<path fill-rule="evenodd" clip-rule="evenodd" d="M111.154 208.59L106.382 219.711C106.382 219.711 106.775 222.166 107.012 223.586C107.249 225.005 107.62 225.776 107.124 226.852C106.628 227.927 105.966 228.636 104.578 227.668C103.191 226.699 102.601 226.19 103.602 228.571C104.603 230.951 105.963 232.68 106.207 234.142C106.452 235.604 107.303 236.77 105.919 237.176C104.534 237.583 102.847 236.897 103.246 238.017C103.644 239.137 104.85 240.986 104.72 242.124C104.591 243.262 104.222 243.422 103.41 243.584C102.598 243.746 102.768 244.377 102.339 245.58C101.911 246.782 101.677 247.177 99.6888 246.992C97.701 246.807 95.8154 246.693 93.743 245.413C91.6705 244.133 90.0714 242.523 89.5483 240.989C89.0252 239.454 89.5009 238.509 89.7201 237.134C89.9393 235.759 90.2358 235.033 89.8198 233.825C89.4038 232.618 89.6155 230.976 90.5122 230.133C91.409 229.289 92.8388 228.429 92.4502 227.351C92.0616 226.273 91.1175 224.414 90.9756 222.8C90.8336 221.185 91.1549 219.431 92.221 218.595C93.2871 217.76 95.2948 217.765 95.4094 216.544C95.524 215.324 95.6884 213.688 96.2289 212.605C96.7694 211.522 98.3586 209.838 99.6365 208.909C100.914 207.981 102.626 207.662 104.573 207.624C106.521 207.587 111.154 208.59 111.154 208.59Z" fill="#FFE9E1"/>
<path fill-rule="evenodd" clip-rule="evenodd" d="M120.209 269.932C120.209 269.932 116.956 267.32 116.062 266.032C115.167 264.745 114.193 263.215 114.465 261.341C114.736 259.468 118.154 249.759 118.154 249.759C118.154 249.759 117.985 246.865 117.875 244.964C117.765 243.062 117.449 240.31 118.702 238.042C119.955 235.774 121.549 234.125 122.775 232.236C124 230.347 125.143 229.052 124.152 228.531C123.161 228.009 121.95 228.853 120.431 229.574C118.911 230.295 117.21 231.211 115.312 231.612C113.414 232.014 111.752 232.046 110.793 231.186C109.834 230.325 108.918 229.165 109.71 228.007C110.502 226.849 112.913 225.412 114.841 224.339C116.769 223.266 118.567 222.161 120.117 220.816C121.666 219.471 122.466 218.64 125.761 219.244C129.057 219.848 131.171 220.082 132.915 221.205C134.659 222.328 135.535 222.617 135.406 225.474C135.276 228.331 135.015 231.662 134.853 234.564C134.691 237.466 134.865 240.402 134.853 242.364C134.841 244.325 135.458 246.53 135.782 248.776C136.106 251.022 136.011 251.498 137.07 252.768C138.129 254.038 138.146 255.031 138.146 255.031C138.146 255.031 136.275 257.055 135.194 258.507C134.113 259.959 131.039 263.158 128.606 264.762C126.755 265.977 120.209 269.932 120.209 269.932Z" fill="#FFE9E1"/>
<path fill-rule="evenodd" clip-rule="evenodd" d="M57.3458 191.9C57.3458 191.9 57.418 194.672 58.4916 196.411C59.5652 198.151 61.6451 198.857 61.6451 198.857C61.0731 198.939 60.5279 199.153 60.0525 199.482C59.5771 199.811 59.1843 200.246 58.9051 200.753C57.9361 202.5 57.7767 205.863 57.7767 205.863C57.7767 205.863 57.5276 202.679 56.4615 200.94C56.1239 200.418 55.6855 199.97 55.1722 199.621C54.6588 199.271 54.0809 199.029 53.4724 198.907C54.0191 198.74 54.5278 198.467 54.9693 198.104C55.4108 197.74 55.7765 197.293 56.0455 196.788C57.017 195.037 57.3458 191.9 57.3458 191.9Z" fill="#262626"/>
<path fill-rule="evenodd" clip-rule="evenodd" d="M33.0245 168.197C33.0245 168.197 33.0843 170.607 34.0209 172.119C34.9575 173.631 36.7609 174.248 36.7609 174.248C36.2618 174.319 35.7862 174.505 35.372 174.793C34.9577 175.081 34.6162 175.461 34.3746 175.904C33.5326 177.426 33.3957 180.348 33.3957 180.348C33.3957 180.348 33.1839 177.578 32.2498 176.066C31.956 175.611 31.5737 175.219 31.1257 174.914C30.6777 174.609 30.1731 174.398 29.6418 174.292C30.1182 174.148 30.5615 173.911 30.9462 173.594C31.3309 173.278 31.6494 172.888 31.8837 172.449C32.738 170.914 33.0245 168.197 33.0245 168.197Z" fill="#262626"/>
<path fill-rule="evenodd" clip-rule="evenodd" d="M193.883 71.5195C193.883 71.5195 193.945 73.9297 194.879 75.4418C195.813 76.9538 197.619 77.5676 197.619 77.5676C197.119 77.6367 196.643 77.8219 196.227 78.1082C195.811 78.3945 195.468 78.7742 195.225 79.2168C194.381 80.7413 194.246 83.6631 194.246 83.6631C194.246 83.6631 194.035 80.8935 193.098 79.3815C192.806 78.9286 192.426 78.5388 191.981 78.235C191.536 77.9312 191.035 77.7196 190.507 77.6125C190.984 77.4686 191.427 77.2319 191.812 76.9159C192.196 76.5999 192.515 76.2108 192.749 75.7711C193.596 74.2466 193.883 71.5195 193.883 71.5195Z" fill="#262626"/>
<path fill-rule="evenodd" clip-rule="evenodd" d="M210.499 215.733C210.499 215.733 210.569 218.506 211.643 220.245C212.716 221.984 214.796 222.69 214.796 222.69C214.222 222.77 213.674 222.984 213.197 223.313C212.719 223.642 212.324 224.078 212.044 224.586C211.075 226.333 210.918 229.699 210.918 229.699C210.918 229.699 210.669 226.515 209.6 224.776C209.263 224.254 208.824 223.805 208.311 223.455C207.798 223.106 207.22 222.862 206.611 222.74C207.159 222.574 207.668 222.302 208.111 221.939C208.553 221.576 208.92 221.129 209.189 220.624C210.168 218.872 210.499 215.733 210.499 215.733Z" fill="#262626"/>
<path fill-rule="evenodd" clip-rule="evenodd" d="M190.727 289.249C190.727 289.249 190.796 292.021 191.87 293.76C192.944 295.499 195.023 296.205 195.023 296.205C194.449 296.286 193.902 296.499 193.424 296.828C192.946 297.157 192.551 297.593 192.271 298.102C191.302 299.848 191.145 303.212 191.145 303.212C191.145 303.212 190.896 300.03 189.827 298.291C189.49 297.77 189.052 297.321 188.538 296.972C188.025 296.622 187.447 296.38 186.838 296.258C187.386 296.092 187.896 295.82 188.338 295.456C188.781 295.093 189.147 294.645 189.416 294.139C190.395 292.385 190.727 289.249 190.727 289.249Z" fill="#262626"/>
<path fill-rule="evenodd" clip-rule="evenodd" d="M104.598 41.8478C104.598 41.8478 104.671 44.6198 105.744 46.3589C106.818 48.098 108.898 48.8041 108.898 48.8041C108.323 48.8846 107.776 49.0978 107.298 49.427C106.82 49.7561 106.426 50.192 106.145 50.7004C105.176 52.4469 105.017 55.8103 105.017 55.8103C105.017 55.8103 104.768 52.6266 103.702 50.89C103.364 50.3683 102.926 49.9194 102.412 49.5697C101.899 49.2201 101.321 48.9767 100.713 48.854C101.261 48.6883 101.771 48.4159 102.214 48.0524C102.656 47.6889 103.023 47.2414 103.293 46.7357C104.27 44.9841 104.598 41.8478 104.598 41.8478Z" fill="#262626"/>
<path fill-rule="evenodd" clip-rule="evenodd" d="M53.0988 120.291C53.0988 120.291 53.1311 121.638 53.6542 122.487C54.0315 123.031 54.5674 123.446 55.1886 123.674C54.909 123.713 54.6423 123.817 54.4096 123.977C54.177 124.138 53.9849 124.35 53.8485 124.598C53.3777 125.451 53.3005 127.093 53.3005 127.093C53.3005 127.093 53.1835 125.543 52.6604 124.697C52.4973 124.443 52.2851 124.223 52.0361 124.052C51.7871 123.88 51.5065 123.761 51.2106 123.699C51.7457 123.535 52.1937 123.164 52.4561 122.669C52.9368 121.816 53.0988 120.291 53.0988 120.291Z" fill="#262626"/>
<path fill-rule="evenodd" clip-rule="evenodd" d="M168.714 224.688C168.714 224.688 168.749 226.038 169.272 226.884C169.65 227.429 170.186 227.844 170.807 228.074C170.527 228.113 170.26 228.217 170.028 228.377C169.795 228.537 169.603 228.75 169.467 228.997C168.996 229.848 168.919 231.492 168.919 231.492C168.919 231.492 168.799 229.943 168.278 229.097C168.116 228.842 167.903 228.622 167.654 228.45C167.404 228.279 167.123 228.16 166.826 228.099C167.361 227.933 167.808 227.563 168.072 227.069C168.555 226.215 168.714 224.688 168.714 224.688Z" fill="#262626"/>
<path fill-rule="evenodd" clip-rule="evenodd" d="M256.519 88.0769C256.519 88.0769 256.551 89.4267 257.075 90.2726C257.453 90.8175 257.99 91.2329 258.611 91.4628C258.332 91.5013 258.065 91.6049 257.832 91.7652C257.599 91.9255 257.407 92.138 257.271 92.3859C256.798 93.2368 256.723 94.881 256.723 94.881C256.723 94.881 256.604 93.3341 256.081 92.4857C255.918 92.2306 255.706 92.0108 255.457 91.8394C255.208 91.668 254.927 91.5484 254.631 91.4877C255.165 91.3219 255.613 90.9516 255.876 90.4572C256.357 89.5914 256.519 88.0769 256.519 88.0769Z" fill="#262626"/>
<path fill-rule="evenodd" clip-rule="evenodd" d="M266.236 194.478C266.236 194.478 266.271 195.828 266.794 196.671C267.171 197.217 267.707 197.632 268.328 197.861C268.049 197.901 267.783 198.005 267.55 198.165C267.317 198.325 267.125 198.537 266.988 198.784C266.518 199.638 266.44 201.279 266.44 201.279C266.44 201.279 266.321 199.73 265.8 198.884C265.637 198.629 265.425 198.409 265.175 198.238C264.926 198.066 264.644 197.947 264.348 197.886C264.883 197.721 265.331 197.349 265.593 196.853C266.077 196.005 266.236 194.478 266.236 194.478Z" fill="#262626"/>
<path fill-rule="evenodd" clip-rule="evenodd" d="M58.5563 67.6171C58.5563 67.6171 58.5962 69.1766 59.2015 70.1546C59.6374 70.7848 60.2567 71.2649 60.975 71.5294C60.6522 71.5743 60.3443 71.6939 60.0758 71.8789C59.8073 72.0638 59.5855 72.309 59.4282 72.5948C58.8802 73.5804 58.793 75.4717 58.793 75.4717C58.793 75.4717 58.656 73.6802 58.0457 72.7021C57.8565 72.4093 57.6107 72.1573 57.3228 71.9611C57.0349 71.7648 56.7107 71.6282 56.3693 71.5594C56.6774 71.4659 56.9641 71.3125 57.2129 71.1078C57.4616 70.9031 57.6676 70.6513 57.819 70.3667C58.372 69.3861 58.5563 67.6171 58.5563 67.6171Z" fill="#262626"/>
<path fill-rule="evenodd" clip-rule="evenodd" d="M262.983 155.237C262.983 155.237 263.023 156.794 263.628 157.772C264.063 158.404 264.683 158.885 265.402 159.15C265.078 159.194 264.77 159.313 264.501 159.498C264.232 159.683 264.01 159.929 263.852 160.215C263.307 161.213 263.22 163.089 263.22 163.089C263.22 163.089 263.083 161.3 262.472 160.322C262.282 160.032 262.036 159.781 261.749 159.587C261.462 159.392 261.139 159.256 260.798 159.187C261.107 159.094 261.394 158.941 261.643 158.737C261.892 158.533 262.099 158.281 262.251 157.997C262.791 157.001 262.983 155.237 262.983 155.237Z" fill="#262626"/>
<path fill-rule="evenodd" clip-rule="evenodd" d="M214.39 106.897C214.39 106.897 214.43 108.457 215.035 109.435C215.471 110.065 216.089 110.545 216.806 110.81C216.483 110.854 216.175 110.974 215.906 111.16C215.638 111.345 215.416 111.591 215.26 111.878C214.714 112.863 214.627 114.752 214.627 114.752C214.627 114.752 214.49 112.96 213.88 111.982C213.69 111.69 213.445 111.438 213.157 111.241C212.869 111.045 212.545 110.908 212.203 110.84C212.826 110.65 213.348 110.222 213.655 109.647C214.203 108.661 214.39 106.897 214.39 106.897Z" fill="#262626"/>
<path fill-rule="evenodd" clip-rule="evenodd" d="M153.398 18.2766C153.398 18.2766 153.438 19.836 154.043 20.8141C154.478 21.444 155.097 21.9241 155.814 22.1889C155.491 22.2334 155.183 22.3529 154.914 22.5379C154.646 22.7229 154.424 22.9682 154.267 23.2543C153.722 24.2524 153.632 26.1287 153.632 26.1287C153.632 26.1287 153.497 24.3397 152.885 23.3616C152.697 23.0676 152.453 22.814 152.166 22.6157C151.88 22.4173 151.557 22.2782 151.216 22.2064C151.524 22.1139 151.811 21.9611 152.061 21.7568C152.31 21.5525 152.516 21.3008 152.668 21.0162C153.211 20.0406 153.398 18.2766 153.398 18.2766Z" fill="#262626"/>
<path fill-rule="evenodd" clip-rule="evenodd" d="M190.057 134.835C190.057 134.835 190.126 137.605 191.2 139.344C192.273 141.083 194.353 141.789 194.353 141.789C193.781 141.871 193.236 142.085 192.761 142.414C192.285 142.743 191.893 143.178 191.613 143.685C190.644 145.432 190.487 148.795 190.487 148.795C190.487 148.795 190.238 145.614 189.17 143.875C188.832 143.353 188.394 142.905 187.88 142.555C187.367 142.206 186.789 141.963 186.181 141.841C186.729 141.675 187.239 141.403 187.682 141.039C188.125 140.675 188.492 140.227 188.761 139.72C189.725 137.979 190.057 134.835 190.057 134.835Z" fill="#262626"/>
<path d="M105.527 228.785C104.15 228.785 102.787 227.323 101.614 225.923L101.365 225.616C101.034 225.245 100.638 224.823 100.202 224.369C97.6686 221.692 93.8401 217.632 94.8415 213.847C95.6934 210.616 99.228 206.941 102.939 206.838C103.53 206.838 104.813 206.893 106.297 206.976C108.041 207.073 110.208 207.195 110.925 207.135C111.194 207.113 111.461 207.2 111.666 207.375C111.872 207.55 111.999 207.799 112.021 208.068C112.043 208.338 111.957 208.605 111.782 208.811C111.608 209.017 111.359 209.144 111.09 209.166C110.233 209.231 108.175 209.121 106.183 209.012C104.865 208.937 103.507 208.854 102.997 208.877C100.307 208.949 97.4619 211.888 96.8093 214.366C96.0969 217.066 99.4571 220.619 101.679 222.969C102.13 223.446 102.546 223.885 102.887 224.272C102.967 224.361 103.064 224.479 103.179 224.613C104.73 226.455 105.323 226.744 105.54 226.752C106.272 226.56 106.235 225.035 106.205 224.574C106.028 221.772 104.987 219.296 103.886 216.677L103.515 215.791C103.44 215.609 103.353 215.374 103.266 215.117C103.094 214.641 102.69 213.525 102.416 213.318C102.202 213.158 102.057 212.922 102.01 212.658C101.964 212.394 102.02 212.122 102.167 211.898C102.313 211.683 102.537 211.532 102.791 211.48C103.046 211.427 103.311 211.476 103.53 211.616C104.292 212.116 104.705 213.139 105.171 214.423C105.251 214.646 105.323 214.848 105.39 215.01L105.759 215.886C106.878 218.548 108.033 221.297 108.233 224.444C108.382 226.769 107.57 228.331 106.006 228.73C105.849 228.769 105.689 228.787 105.527 228.785Z" fill="#2E2020"/>
<path d="M104.426 238.424C104.21 238.423 103.994 238.408 103.779 238.379C101.759 238.104 100.042 236.343 98.6451 234.926C98.259 234.529 97.8978 234.155 97.5491 233.845C94.9909 231.54 87.2018 224.521 91.1076 218.548C91.8972 217.343 92.9733 216.841 93.9248 216.4C94.2561 216.247 94.5949 216.09 94.9212 215.901C95.154 215.765 95.4313 215.727 95.692 215.796C95.9526 215.864 96.1753 216.034 96.3111 216.267C96.4469 216.501 96.4845 216.778 96.4159 217.039C96.3472 217.301 96.1778 217.524 95.9449 217.66C95.5588 217.887 95.1653 218.071 94.7767 218.251C93.9373 218.64 93.2821 218.95 92.8064 219.666C90.8137 222.702 92.8064 226.847 98.9066 232.333C99.2753 232.668 99.6738 233.082 100.092 233.501C101.263 234.696 102.718 236.181 104.043 236.36C104.419 236.41 104.902 236.418 105.074 236.161C105.627 235.332 104.75 232.535 103.891 231.053C103.48 230.35 103.086 229.639 102.69 228.927C102.294 228.216 101.921 227.54 101.522 226.852C101.386 226.618 101.349 226.34 101.418 226.079C101.487 225.817 101.656 225.594 101.889 225.458C102.123 225.322 102.4 225.284 102.661 225.353C102.922 225.422 103.145 225.592 103.281 225.826C103.687 226.527 104.078 227.233 104.469 227.937C104.86 228.641 105.246 229.337 105.65 230.028C105.677 230.078 108.377 234.873 106.765 237.294C106.409 237.83 105.719 238.424 104.426 238.424Z" fill="#2E2020"/>
<path d="M102.795 244.474C102.444 244.472 102.093 244.442 101.746 244.385C101.088 244.294 100.443 244.121 99.8283 243.868C96.884 242.571 89.1472 238.129 88.7014 233.234C88.5121 231.143 89.7127 229.666 90.7738 228.361C91.1076 227.961 91.421 227.545 91.7129 227.113C91.8609 226.888 92.0924 226.73 92.3566 226.675C92.6207 226.62 92.8959 226.672 93.1215 226.82C93.3471 226.969 93.5047 227.2 93.5596 227.465C93.6145 227.73 93.5622 228.005 93.4142 228.231C93.0835 228.717 92.7285 229.186 92.3506 229.636C91.419 230.784 90.6069 231.774 90.729 233.037C91.0279 236.328 96.7072 240.255 100.648 241.992C101.104 242.172 101.581 242.296 102.068 242.359C103.044 242.516 103.438 242.359 103.507 242.256C103.53 242.224 104.006 241.455 102.073 238.132C101.937 237.899 101.899 237.621 101.968 237.36C102.036 237.099 102.206 236.876 102.439 236.74C102.672 236.604 102.949 236.566 103.21 236.635C103.47 236.703 103.693 236.873 103.829 237.106C105.607 240.16 106.038 242.161 105.186 243.409C104.705 244.12 103.903 244.474 102.795 244.474Z" fill="#2E2020"/>
<path d="M120.854 270.436C120.621 270.436 120.395 270.356 120.213 270.21C120.032 270.063 119.907 269.858 119.858 269.63C119.81 269.401 119.841 269.163 119.947 268.955C120.053 268.747 120.227 268.582 120.441 268.487C129.483 264.453 137.379 254.911 137.593 253.287C137.59 252.886 137.513 252.49 137.366 252.117C137.156 252.207 136.921 252.224 136.7 252.167C136.478 252.11 136.282 251.981 136.141 251.8C136.06 251.696 136 251.577 135.965 251.45C135.93 251.323 135.921 251.19 135.937 251.059C135.954 250.928 135.996 250.802 136.062 250.687C136.128 250.573 136.216 250.473 136.32 250.393C137.227 249.719 137.992 250.014 138.278 250.168C139.523 250.854 139.655 252.955 139.621 253.437C139.446 255.957 130.566 266.199 121.268 270.346C121.138 270.406 120.997 270.437 120.854 270.436Z" fill="#2E2020"/>
<path d="M128.813 286.459C128.573 286.459 128.342 286.374 128.159 286.219C127.977 286.065 127.854 285.851 127.813 285.615C127.773 285.379 127.816 285.136 127.937 284.929C128.057 284.722 128.246 284.564 128.471 284.483C136.848 281.474 145.736 272.103 145.796 270.423C145.748 269.51 145.225 268.447 144.719 267.429C144.47 266.93 144.206 266.386 144.007 265.875C143.616 264.877 143.215 263.879 142.814 262.881C141.743 260.206 140.637 257.441 139.718 254.647C138.858 252.02 138.099 251.541 137.884 251.456C137.82 251.426 137.703 251.381 137.456 251.516C137.22 251.633 136.947 251.654 136.695 251.574C136.444 251.494 136.233 251.32 136.107 251.087C135.982 250.854 135.951 250.582 136.022 250.327C136.093 250.073 136.259 249.856 136.487 249.722C136.811 249.535 137.172 249.424 137.544 249.397C137.916 249.369 138.289 249.426 138.637 249.562C139.857 250.048 140.816 251.463 141.651 254.013C142.55 256.758 143.643 259.487 144.702 262.13C145.103 263.128 145.509 264.146 145.903 265.156C146.07 265.588 146.301 266.055 146.545 266.551C147.113 267.706 147.758 269.016 147.826 270.359C147.993 273.692 137.227 283.533 129.144 286.429C129.036 286.458 128.924 286.469 128.813 286.459Z" fill="#2E2020"/>
<path d="M145.056 379.005C144.888 379.005 144.723 378.964 144.575 378.885C144.427 378.805 144.302 378.691 144.209 378.551C140.722 373.311 127.537 328.24 121.905 308.99C120.617 304.586 119.599 301.106 119.472 300.756C119.377 300.507 119.382 300.23 119.487 299.985C119.592 299.739 119.789 299.544 120.035 299.441C120.155 299.389 120.284 299.362 120.415 299.36C120.546 299.358 120.676 299.382 120.798 299.43C120.919 299.478 121.03 299.55 121.124 299.642C121.218 299.733 121.293 299.842 121.345 299.963C121.459 300.212 121.923 301.797 123.858 308.406C128.982 325.919 142.592 372.44 145.9 377.411C146.003 377.564 146.062 377.742 146.071 377.926C146.08 378.11 146.039 378.294 145.952 378.456C145.866 378.619 145.736 378.755 145.578 378.85C145.421 378.945 145.24 378.995 145.056 378.995V379.005Z" fill="#2E2020"/>
<path d="M182.168 363.505C182.015 363.506 181.865 363.472 181.727 363.406C181.589 363.339 181.468 363.243 181.373 363.124C176.979 357.634 165.252 323.452 154.606 291.864C151.906 283.845 149.953 278.053 149.44 276.851C148.692 275.127 147.851 273.48 146.882 273.794C146.627 273.874 146.352 273.851 146.115 273.729C145.878 273.608 145.698 273.398 145.613 273.145C145.529 272.892 145.548 272.616 145.665 272.376C145.782 272.136 145.988 271.952 146.239 271.863C149.113 270.9 150.633 274.465 151.281 275.985C151.853 277.325 153.717 282.849 156.534 291.205C164.183 313.91 178.424 356.165 182.962 361.846C183.082 361.996 183.157 362.177 183.179 362.367C183.201 362.558 183.168 362.751 183.085 362.924C183.002 363.097 182.872 363.243 182.709 363.345C182.547 363.447 182.359 363.501 182.168 363.5V363.505Z" fill="#2E2020"/>
<path d="M128.945 217.206C126.317 217.206 123.215 216.669 119.006 214.977C112.44 212.333 107.458 206.284 104.2 196.973C94.702 169.831 102.292 119.288 120.777 86.6047C122.501 83.5557 131.515 84.7484 138.774 86.2878C149.004 88.4561 161.511 92.5929 173.091 97.638C195.258 107.289 212.475 120.284 214.654 126.349C215.001 127.31 214.998 128.146 214.654 128.844C189.745 177.89 159.284 211.432 135.137 216.405L135.025 216.427C133.074 216.824 131.181 217.206 128.945 217.206ZM126.718 86.7469C123.876 86.7469 122.747 87.246 122.545 87.6077C104.309 119.857 96.7869 169.629 106.105 196.299C109.162 205.032 113.752 210.678 119.751 213.086C126.974 215.988 130.509 215.262 134.596 214.421L134.706 214.399C158.263 209.558 188.193 176.418 212.821 127.911C212.903 127.751 212.868 127.427 212.729 127.038C211.008 122.242 195.609 109.679 172.264 99.5069C160.806 94.5167 148.441 90.4222 138.34 88.2789C132.873 87.1187 129.161 86.7469 126.718 86.7469Z" fill="#2E2020"/>
<path d="M96.5976 181.169C96.313 181.17 96.0294 181.135 95.7531 181.067C94.2735 180.707 93.3095 180.091 92.8064 179.19C92.0591 177.86 92.5573 176.336 92.9957 174.991C93.2672 174.155 93.5462 173.292 93.474 172.656C93.3295 171.408 92.2808 170.51 91.1699 169.569C88.5943 167.383 86.1332 166.468 83.5302 165.497C78.6231 163.671 73.5516 161.779 67.9371 151.525C64.9954 146.153 63.3538 140.095 63.0574 133.525C62.3724 118.305 67.7652 104.12 77.4798 95.5996C84.6462 89.3194 91.0777 85.3697 100.992 85.0977C104.377 85.0029 108.021 86.7844 110.995 89.9781C114.111 93.3265 115.765 97.4634 115.416 101.046C115.406 101.181 115.369 101.313 115.307 101.433C115.245 101.554 115.16 101.661 115.057 101.748C114.953 101.835 114.833 101.9 114.704 101.941C114.575 101.981 114.439 101.995 114.305 101.981C114.17 101.968 114.04 101.928 113.921 101.864C113.802 101.8 113.697 101.712 113.612 101.607C113.527 101.502 113.464 101.38 113.427 101.25C113.389 101.12 113.378 100.984 113.394 100.849C113.68 97.8851 112.191 94.2497 109.508 91.3679C106.97 88.6432 103.814 87.0663 101.039 87.1262C91.6954 87.3757 85.8119 90.9886 78.8124 97.1241C69.5587 105.236 64.4249 118.804 65.0825 133.42C65.364 139.678 66.9233 145.434 69.7131 150.534C74.964 160.123 79.4651 161.799 84.2302 163.576C86.8855 164.574 89.6305 165.587 92.4651 167.992C93.7106 169.048 95.2525 170.353 95.4866 172.411C95.6087 173.489 95.2599 174.564 94.9237 175.607C94.5998 176.605 94.2686 177.633 94.5749 178.182C94.824 178.651 95.6161 178.931 96.2264 179.075C96.4733 179.126 96.728 179.125 96.9743 179.071C97.2206 179.018 97.4529 178.913 97.6562 178.764C98.5214 178.157 99.1291 177.248 99.36 176.216C99.908 173.195 98.6874 169.297 96.3908 166.735C94.007 164.077 90.4649 163.035 86.7161 161.929C83.3135 160.931 79.7964 159.888 77.0289 157.545C65.511 147.797 66.1785 124.398 71.7183 111.92C76.9094 100.235 90.6617 86.47 104.987 92.4582C106.198 93.0076 107.33 93.7157 108.355 94.5641C113.884 99.0852 110.915 104.44 108.532 108.744C107.406 110.775 106.344 112.696 106.021 114.482C106.021 114.605 106.27 115.104 106.89 115.545C107.388 115.905 107.764 115.94 107.837 115.91C107.979 115.681 108.206 115.518 108.468 115.456C108.73 115.395 109.005 115.441 109.234 115.583C109.463 115.725 109.625 115.952 109.687 116.215C109.748 116.477 109.702 116.754 109.56 116.983C108.98 117.911 107.871 118.198 106.676 117.731C105.181 117.15 103.756 115.56 104.018 114.118C104.402 112.005 105.597 109.847 106.758 107.761C109.575 102.678 110.993 99.3597 107.074 96.146C106.203 95.4277 105.245 94.8224 104.222 94.3445C91.1599 88.8878 78.4488 101.83 73.584 112.753C65.7476 130.401 71.0931 149.84 78.3591 156.008C80.7977 158.074 83.9587 159.002 87.304 160C91.1624 161.138 95.1503 162.313 97.9177 165.4C100.658 168.446 102.04 172.95 101.375 176.605C101.044 178.189 100.114 179.583 98.7796 180.495C98.1334 180.928 97.3749 181.162 96.5976 181.169Z" fill="#2E2020"/>
<path d="M191.476 211.282C185.653 211.282 182.29 209.441 179.007 207.642C176.568 206.307 174.274 205.044 170.944 204.53C169.494 204.306 168.134 204.094 167.09 204.807C166.562 205.172 166.094 205.948 165.643 206.699C164.913 207.911 164.089 209.284 162.602 209.593C161.588 209.805 160.494 209.478 159.254 208.595C158.826 208.282 158.469 207.884 158.204 207.424C157.939 206.965 157.773 206.455 157.717 205.928C157.53 204.32 157.971 202.703 158.948 201.414C161.272 198.515 165.591 196.648 169.658 196.673C173.798 196.746 177.298 198.994 180.683 201.165C183.628 203.068 186.402 204.847 189.558 205.346C198.979 206.818 217.133 198.111 225.305 180.615C230.367 169.779 231.797 151.672 219.121 145.379C218.087 144.916 216.999 144.586 215.882 144.399C210.9 143.535 209.319 146.786 207.331 152.248C206.516 154.494 205.672 156.809 204.342 158.486C203.425 159.629 201.293 159.596 199.876 158.845C198.74 158.244 198.232 157.218 198.548 156.17C198.634 155.921 198.814 155.715 199.048 155.595C199.283 155.475 199.555 155.451 199.807 155.528C200.06 155.605 200.272 155.777 200.401 156.007C200.529 156.238 200.563 156.509 200.496 156.764C200.495 156.772 200.495 156.779 200.496 156.787C200.521 156.847 200.785 157.101 201.39 157.251C202.137 157.433 202.668 157.291 202.768 157.203C203.891 155.799 204.643 153.735 205.438 151.555C207.119 146.931 209.212 141.177 216.248 142.395C217.556 142.613 218.828 143.004 220.032 143.558C233.936 150.472 232.566 169.899 227.154 181.483C221.741 193.068 206.394 207.592 192.246 207.592C191.245 207.593 190.246 207.518 189.257 207.365C185.665 206.796 182.584 204.812 179.595 202.896C176.304 200.783 173.196 198.787 169.631 198.724C166.184 198.674 162.455 200.294 160.537 202.689C159.909 203.54 159.623 204.596 159.732 205.648C159.753 205.9 159.825 206.145 159.946 206.366C160.066 206.588 160.232 206.782 160.432 206.936C160.93 207.3 161.66 207.717 162.176 207.599C162.794 207.47 163.351 206.544 163.89 205.648C164.455 204.71 165.04 203.74 165.932 203.126C167.641 201.956 169.631 202.265 171.23 202.514C174.917 203.086 177.485 204.493 179.971 205.853C184.432 208.296 188.647 210.594 199.32 208.293C204.992 207.063 210.355 204.471 215.262 200.583C226.72 191.506 233.585 178.731 233.638 166.413C233.677 157.094 232.542 150.282 226.611 143.044C224.867 140.906 221.596 139.551 217.892 139.413C213.964 139.266 210.24 140.526 208.193 142.687C208.004 142.868 207.753 142.969 207.491 142.97C207.23 142.97 206.978 142.87 206.788 142.69C206.598 142.51 206.485 142.263 206.471 142.002C206.458 141.74 206.545 141.484 206.716 141.285C209.192 138.672 213.419 137.213 217.965 137.377C222.321 137.537 226.053 139.124 228.197 141.751C234.487 149.429 235.725 156.884 235.67 166.42C235.615 179.352 228.459 192.721 216.525 202.18C211.381 206.262 205.749 208.989 199.771 210.284C197.049 210.911 194.269 211.245 191.476 211.282Z" fill="#2E2020"/>
<path d="M122.261 288.588C114.47 288.588 101.963 284.897 90.7813 279.99C75.3376 273.205 63.7698 264.994 62.0187 259.555C61.6276 258.337 61.7049 257.254 62.2479 256.334C63.2442 254.639 65.7127 253.839 69.5213 253.839C69.7825 253.851 70.0287 253.964 70.209 254.154C70.3892 254.344 70.4898 254.596 70.4898 254.858C70.4898 255.12 70.3892 255.372 70.209 255.561C70.0287 255.751 69.7825 255.864 69.5213 255.877H69.3445C66.5148 255.877 64.5744 256.423 64.0065 257.374C63.7574 257.776 63.7574 258.285 63.9616 258.931C65.2768 263.015 75.1956 270.907 91.6107 278.126C110.395 286.36 125.681 288.391 127.657 285.045C128.227 284.082 127.462 282.328 125.564 280.229C125.475 280.13 125.405 280.014 125.36 279.888C125.315 279.762 125.295 279.629 125.302 279.495C125.308 279.361 125.341 279.23 125.398 279.109C125.455 278.988 125.535 278.879 125.634 278.789C125.733 278.7 125.849 278.63 125.975 278.585C126.1 278.54 126.234 278.52 126.367 278.526C126.501 278.533 126.632 278.565 126.752 278.623C126.873 278.68 126.982 278.76 127.071 278.859C129.722 281.791 130.509 284.219 129.408 286.095C128.362 287.829 125.791 288.588 122.261 288.588Z" fill="#2E2020"/>
<path d="M116.044 301.407C108.25 301.407 95.7432 297.72 84.564 292.812C69.1203 286.028 57.5525 277.814 55.8014 272.375C55.4079 271.159 55.4851 270.074 56.0281 269.156C56.464 268.407 58.4991 264.323 61.4757 258.202C61.5936 257.96 61.803 257.774 62.0579 257.685C62.3127 257.597 62.5921 257.614 62.8345 257.732C63.077 257.85 63.2626 258.06 63.3507 258.315C63.4387 258.57 63.422 258.85 63.304 259.093C61.5156 262.773 58.4219 269.106 57.7792 270.191C57.5301 270.593 57.5301 271.105 57.7369 271.751C59.0521 275.835 68.9684 283.727 85.386 290.943C104.17 299.189 119.457 301.205 121.432 297.864C123.923 293.623 127.933 284.97 127.973 284.89C128.029 284.769 128.108 284.659 128.206 284.569C128.304 284.478 128.419 284.407 128.545 284.361C128.67 284.315 128.803 284.294 128.936 284.299C129.07 284.305 129.201 284.336 129.322 284.392C129.443 284.448 129.552 284.528 129.643 284.626C129.733 284.724 129.804 284.839 129.85 284.965C129.896 285.09 129.917 285.223 129.912 285.357C129.906 285.491 129.875 285.622 129.819 285.743C129.654 286.103 125.739 294.581 123.183 298.907C122.144 300.659 119.579 301.407 116.044 301.407Z" fill="#2E2020"/>
<path d="M119.292 283.041C112.729 283.041 102.277 279.917 92.9384 275.75C80.0305 269.989 70.3483 262.993 68.8463 258.34C68.4129 256.99 68.7143 256.029 69.0431 255.463C71.7831 250.722 71.95 250.665 72.3411 250.493C72.5647 250.394 72.8165 250.379 73.0502 250.451C73.284 250.523 73.484 250.677 73.6135 250.884C73.7431 251.092 73.7935 251.34 73.7556 251.582C73.7177 251.824 73.594 252.044 73.4072 252.202C73.2303 252.426 72.6599 253.297 70.8017 256.488C70.7344 256.601 70.5352 256.945 70.7842 257.711C71.8927 261.149 80.1426 267.809 93.7654 273.889C110.161 281.207 122.214 282.28 123.636 279.83C125.736 276.212 125.395 275.456 125.38 275.426C125.277 275.34 125.193 275.235 125.132 275.116C125.071 274.997 125.034 274.867 125.024 274.734C125.014 274.601 125.031 274.467 125.074 274.34C125.117 274.213 125.184 274.096 125.273 273.996C125.45 273.792 125.701 273.666 125.971 273.647C126.241 273.627 126.508 273.715 126.713 273.892C128.319 275.261 126.947 278.181 125.395 280.853C124.508 282.38 122.304 283.041 119.292 283.041Z" fill="#2E2020"/>
<path d="M106.711 219.945C106.542 219.945 106.376 219.902 106.227 219.822C106.079 219.741 105.953 219.625 105.861 219.483C105.769 219.342 105.713 219.179 105.699 219.011C105.685 218.842 105.714 218.673 105.782 218.518C107.986 213.468 109.667 209.438 110.288 207.941C110.339 207.818 110.413 207.705 110.508 207.611C110.602 207.516 110.714 207.441 110.837 207.39C110.961 207.339 111.093 207.312 111.226 207.312C111.36 207.312 111.492 207.339 111.615 207.39C111.739 207.441 111.851 207.516 111.945 207.61C112.039 207.705 112.114 207.817 112.165 207.941C112.217 208.064 112.243 208.196 112.243 208.33C112.243 208.464 112.217 208.596 112.166 208.72C111.543 210.217 109.857 214.269 107.645 219.334C107.566 219.516 107.435 219.671 107.269 219.779C107.103 219.888 106.909 219.946 106.711 219.945Z" fill="#2E2020"/>
<path d="M121.843 277.597C115.616 277.597 104.474 273.966 94.3732 269.338C83.6623 264.428 72.4532 257.509 71.5539 253.12C71.4574 252.731 71.4583 252.324 71.5565 251.935C71.6547 251.546 71.8472 251.188 72.1169 250.892C72.9912 249.924 74.4857 250.253 76.5507 250.71C79.8362 251.436 84.7956 252.529 89.6454 249.237C89.9892 248.918 92.1613 246.855 93.0978 244.709C93.213 244.472 93.415 244.29 93.6616 244.199C93.9082 244.108 94.1803 244.116 94.4211 244.221C94.6619 244.326 94.8528 244.521 94.9538 244.764C95.0549 245.007 95.0584 245.279 94.9635 245.525C93.7704 248.269 91.0727 250.695 90.9581 250.797C90.9261 250.827 90.891 250.854 90.8535 250.877C85.2564 254.719 79.5323 253.457 76.1123 252.701C75.1483 252.489 73.9602 252.222 73.5791 252.314C73.5468 252.374 73.5272 252.441 73.5217 252.509C73.5161 252.577 73.5246 252.646 73.5467 252.711C74.0747 255.298 81.8514 261.354 95.2176 267.482C110.724 274.59 122.52 276.651 124.533 275.089C124.204 274.49 122.618 273.223 121.434 272.275C118.762 270.136 115.434 267.477 113.713 264.111C113.147 263.015 113.085 260.428 116.894 249.537C116.983 249.282 117.169 249.073 117.413 248.955C117.656 248.838 117.935 248.823 118.19 248.912C118.445 249.001 118.654 249.188 118.771 249.432C118.888 249.675 118.903 249.955 118.814 250.211C115.015 261.074 115.404 262.921 115.521 263.185C117.055 266.162 120.194 268.674 122.715 270.69C125.006 272.522 126.521 273.734 126.626 275.044C126.646 275.282 126.616 275.522 126.538 275.747C126.46 275.973 126.335 276.18 126.172 276.354C125.38 277.205 123.873 277.597 121.843 277.597Z" fill="#2E2020"/>
<path d="M139.939 65.621C139.694 65.618 139.457 65.5259 139.274 65.3616C139.091 65.1974 138.973 64.9722 138.943 64.7278L138.196 58.6223L131.328 3.54553C131.295 3.27753 131.37 3.00736 131.536 2.79445C131.702 2.58155 131.945 2.44335 132.213 2.41026C132.48 2.37718 132.75 2.45191 132.962 2.61802C133.175 2.78413 133.313 3.02802 133.346 3.29602L140.951 64.4808C140.984 64.7487 140.91 65.0188 140.744 65.2321C140.579 65.4453 140.336 65.5843 140.069 65.6185C140.026 65.6218 139.983 65.6227 139.939 65.621Z" fill="#262626"/>
<path d="M78.7975 86.208C78.6515 86.208 78.5073 86.1766 78.3745 86.1159C78.2417 86.0552 78.1234 85.9666 78.0278 85.8562L33.3782 33.9981C33.2128 33.7919 33.1337 33.5295 33.1577 33.2661C33.1817 33.0026 33.3068 32.7588 33.5068 32.5861C33.7067 32.4133 33.9659 32.325 34.2295 32.3399C34.4932 32.3547 34.7408 32.4716 34.9201 32.6657L79.5672 84.5238C79.6947 84.6714 79.7772 84.8526 79.8048 85.0459C79.8324 85.2391 79.8039 85.4362 79.7228 85.6137C79.6417 85.7912 79.5113 85.9416 79.3473 86.047C79.1832 86.1523 78.9924 86.2082 78.7975 86.208Z" fill="#262626"/>
<path d="M46.9612 162.84H46.879L9.83163 159.846C9.69849 159.835 9.56876 159.798 9.44982 159.737C9.33089 159.677 9.2251 159.593 9.13847 159.491C9.05185 159.389 8.9861 159.271 8.94497 159.144C8.90385 159.017 8.88815 158.883 8.89878 158.749C8.90941 158.616 8.94616 158.486 9.00693 158.367C9.0677 158.248 9.1513 158.142 9.25296 158.055C9.35462 157.968 9.47234 157.902 9.59941 157.861C9.72648 157.82 9.8604 157.804 9.99354 157.815L47.0434 160.809C47.3023 160.834 47.5417 160.958 47.7125 161.154C47.8833 161.351 47.9726 161.605 47.9621 161.866C47.9516 162.126 47.8421 162.373 47.656 162.555C47.4698 162.737 47.2213 162.841 46.9612 162.845V162.84Z" fill="#262626"/>
<path d="M271.706 220.289C271.55 220.289 271.395 220.252 271.255 220.182L226.775 198.111C226.546 197.983 226.376 197.772 226.298 197.522C226.22 197.271 226.242 197.001 226.358 196.766C226.474 196.531 226.677 196.35 226.923 196.26C227.169 196.17 227.439 196.179 227.679 196.284L272.157 218.348C272.362 218.451 272.527 218.62 272.624 218.827C272.722 219.035 272.747 219.27 272.694 219.494C272.642 219.717 272.516 219.917 272.337 220.06C272.158 220.203 271.935 220.281 271.706 220.282V220.289Z" fill="#262626"/>
<path d="M228.364 117.269C228.126 117.267 227.897 117.182 227.715 117.028C227.533 116.874 227.411 116.661 227.37 116.427C227.328 116.192 227.37 115.95 227.488 115.743C227.606 115.536 227.793 115.377 228.016 115.293L284.447 94.5641C284.573 94.5158 284.707 94.493 284.842 94.4971C284.976 94.5012 285.109 94.532 285.231 94.5879C285.354 94.6437 285.464 94.7234 285.556 94.8223C285.648 94.9212 285.719 95.0374 285.765 95.164C285.811 95.2907 285.832 95.4254 285.826 95.5601C285.82 95.6949 285.788 95.8272 285.73 95.9492C285.673 96.0712 285.591 96.1806 285.491 96.2709C285.391 96.3612 285.274 96.4307 285.147 96.4753L228.716 117.205C228.603 117.245 228.484 117.267 228.364 117.269Z" fill="#262626"/>
<path d="M196.595 61.2745C196.412 61.2748 196.233 61.2256 196.075 61.1321C195.918 61.0386 195.788 60.9042 195.701 60.7433C195.613 60.5823 195.571 60.4006 195.578 60.2174C195.585 60.0342 195.641 59.8564 195.741 59.7026L221.093 20.3499C221.166 20.2375 221.26 20.1406 221.37 20.0646C221.48 19.9886 221.604 19.935 221.735 19.907C221.865 19.879 222 19.877 222.132 19.9012C222.263 19.9254 222.388 19.9753 222.501 20.048C222.613 20.1208 222.71 20.2149 222.786 20.3251C222.861 20.4353 222.915 20.5594 222.943 20.6904C222.971 20.8213 222.973 20.9564 222.949 21.0881C222.925 21.2197 222.875 21.3454 222.802 21.4577L197.45 60.8079C197.358 60.951 197.231 61.0688 197.082 61.1503C196.933 61.2318 196.765 61.2745 196.595 61.2745Z" fill="#262626"/>
<path d="M125.542 63.8744C125.374 63.8741 125.212 63.8184 125.079 63.716C124.946 63.6136 124.85 63.4702 124.807 63.308L108.106 1.20759C108.079 1.11077 108.073 1.00973 108.085 0.910244C108.098 0.810759 108.13 0.714777 108.18 0.627777C108.23 0.540777 108.297 0.464463 108.376 0.403193C108.455 0.341922 108.546 0.296895 108.642 0.270683C108.739 0.24447 108.84 0.237584 108.939 0.25042C109.039 0.263255 109.134 0.29556 109.221 0.345489C109.308 0.395418 109.384 0.461995 109.445 0.541417C109.507 0.620839 109.552 0.711552 109.578 0.808376L126.289 62.9013C126.316 62.9981 126.323 63.0992 126.31 63.1988C126.297 63.2983 126.265 63.3943 126.215 63.4813C126.165 63.5683 126.098 63.6445 126.018 63.7055C125.939 63.7665 125.848 63.8112 125.751 63.837C125.684 63.8591 125.613 63.8717 125.542 63.8744Z" fill="#262626"/>
<path d="M107.037 80.8411C106.89 80.8414 106.745 80.7989 106.621 80.7188C106.498 80.6386 106.4 80.5242 106.34 80.3895L76.4461 13.5883C76.4052 13.4967 76.3827 13.3979 76.3799 13.2977C76.3771 13.1974 76.3941 13.0975 76.4298 13.0038C76.4656 12.9101 76.5194 12.8243 76.5882 12.7515C76.657 12.6786 76.7395 12.62 76.8309 12.579C76.9224 12.5381 77.0209 12.5155 77.1211 12.5127C77.2212 12.51 77.3209 12.5269 77.4144 12.5627C77.508 12.5985 77.5936 12.6524 77.6663 12.7214C77.7391 12.7903 77.7976 12.8729 77.8385 12.9645L107.729 79.7732C107.809 79.9567 107.813 80.1641 107.741 80.3507C107.669 80.5373 107.528 80.6883 107.346 80.7712C107.249 80.8168 107.144 80.8406 107.037 80.8411Z" fill="#262626"/>
<path d="M91.8598 64.0964C91.7198 64.0964 91.5825 64.0577 91.463 63.9847C91.3435 63.9116 91.2464 63.807 91.1823 63.6823L68.7093 20.0705C68.6165 19.8905 68.5989 19.6809 68.6603 19.4879C68.7217 19.2949 68.8572 19.1342 69.0369 19.0412C69.2166 18.9483 69.4258 18.9306 69.6185 18.9921C69.8112 19.0537 69.9716 19.1894 70.0644 19.3694L92.5374 62.9811C92.5977 63.0976 92.6271 63.2277 92.6227 63.3588C92.6182 63.4899 92.5801 63.6177 92.512 63.7298C92.4439 63.8419 92.3482 63.9345 92.2339 63.9988C92.1197 64.063 91.9908 64.0966 91.8598 64.0964Z" fill="#262626"/>
<path d="M165.678 51.6484C165.606 51.6487 165.535 51.6377 165.466 51.616C165.37 51.5882 165.28 51.5416 165.202 51.479C165.124 51.4164 165.059 51.339 165.01 51.2512C164.962 51.1634 164.931 51.0669 164.92 50.9672C164.909 50.8676 164.918 50.7667 164.946 50.6704L179.46 0.551374C179.484 0.45061 179.529 0.355798 179.59 0.272679C179.652 0.189559 179.73 0.11986 179.82 0.0677987C179.909 0.0157377 180.008 -0.0176024 180.111 -0.0302038C180.214 -0.0428052 180.318 -0.0344058 180.417 -0.00551406C180.516 0.0233777 180.609 0.0721611 180.689 0.137884C180.769 0.203606 180.835 0.284902 180.882 0.376849C180.93 0.468797 180.959 0.569485 180.966 0.67282C180.974 0.776156 180.961 0.879989 180.927 0.978036L166.413 51.0895C166.368 51.2501 166.272 51.3916 166.139 51.4925C166.006 51.5934 165.845 51.6481 165.678 51.6484Z" fill="#262626"/>
<path d="M208.116 72.7145C207.97 72.7147 207.826 72.6728 207.703 72.5939C207.58 72.5149 207.483 72.4023 207.422 72.2692C207.361 72.1362 207.339 71.9884 207.36 71.8436C207.381 71.6987 207.442 71.5628 207.538 71.452L240.238 33.3644C240.371 33.2108 240.558 33.1162 240.76 33.1012C240.962 33.0862 241.161 33.1522 241.315 33.2845C241.468 33.4169 241.562 33.6048 241.577 33.8069C241.592 34.0091 241.526 34.2089 241.394 34.3624L208.694 72.45C208.622 72.533 208.533 72.5996 208.433 72.6452C208.334 72.6909 208.225 72.7145 208.116 72.7145Z" fill="#262626"/>
<path d="M207.819 85.9684C207.666 85.9675 207.517 85.9205 207.39 85.8334C207.264 85.7464 207.167 85.6233 207.111 85.4802C207.056 85.3371 207.044 85.1806 207.079 85.031C207.113 84.8814 207.191 84.7455 207.304 84.6411L251.657 43.9336C251.73 43.8612 251.816 43.8044 251.912 43.7665C252.007 43.7285 252.109 43.7102 252.212 43.7128C252.314 43.7153 252.415 43.7385 252.509 43.781C252.602 43.8236 252.686 43.8846 252.755 43.9604C252.825 44.0362 252.878 44.1252 252.912 44.2222C252.946 44.3191 252.96 44.4219 252.954 44.5245C252.947 44.6271 252.92 44.7273 252.874 44.8191C252.828 44.9109 252.764 44.9925 252.686 45.0589L208.347 85.7663C208.205 85.9004 208.015 85.9729 207.819 85.9684Z" fill="#262626"/>
<path d="M230.88 92.1338C230.756 92.1354 230.633 92.1059 230.523 92.0479C230.413 91.99 230.319 91.9054 230.25 91.802C230.137 91.6343 230.094 91.4285 230.131 91.2295C230.169 91.0304 230.283 90.8542 230.449 90.7391L268.52 64.7352C268.687 64.621 268.893 64.5781 269.092 64.6157C269.291 64.6534 269.466 64.7686 269.58 64.936C269.694 65.1035 269.737 65.3094 269.699 65.5085C269.662 65.7076 269.547 65.8836 269.38 65.9977L231.311 92.0016C231.184 92.0882 231.034 92.1343 230.88 92.1338Z" fill="#262626"/>
<path d="M243.29 122.467C243.107 122.468 242.929 122.404 242.789 122.285C242.649 122.166 242.557 122.001 242.528 121.819C242.5 121.638 242.538 121.452 242.634 121.296C242.731 121.14 242.881 121.024 243.056 120.97L295.004 104.295C295.099 104.264 295.199 104.253 295.299 104.261C295.399 104.269 295.496 104.297 295.585 104.343C295.674 104.389 295.754 104.452 295.818 104.528C295.883 104.605 295.932 104.693 295.963 104.789C295.993 104.884 296.005 104.985 295.997 105.085C295.988 105.185 295.96 105.282 295.915 105.372C295.869 105.461 295.806 105.54 295.73 105.605C295.653 105.67 295.565 105.719 295.469 105.75L243.524 122.429C243.448 122.454 243.369 122.466 243.29 122.467Z" fill="#262626"/>
<path d="M240.049 148.907C239.851 148.912 239.658 148.839 239.512 148.704C239.367 148.568 239.28 148.381 239.269 148.183C239.259 147.984 239.327 147.789 239.458 147.64C239.59 147.49 239.774 147.398 239.972 147.383L292.931 141.854C293.128 141.842 293.321 141.907 293.471 142.034C293.621 142.162 293.716 142.342 293.736 142.538C293.757 142.734 293.701 142.931 293.581 143.087C293.461 143.243 293.285 143.346 293.091 143.376L240.124 148.905L240.049 148.907Z" fill="#262626"/>
<path d="M288.423 180.074C288.371 180.073 288.319 180.068 288.268 180.059L238.699 169.759C238.601 169.738 238.508 169.699 238.425 169.643C238.342 169.586 238.271 169.514 238.216 169.43C238.161 169.346 238.123 169.252 238.104 169.154C238.085 169.055 238.086 168.954 238.106 168.856C238.127 168.757 238.166 168.664 238.222 168.581C238.279 168.498 238.351 168.427 238.434 168.372C238.518 168.316 238.612 168.278 238.71 168.26C238.809 168.241 238.91 168.241 239.008 168.262L288.577 178.559C288.763 178.596 288.928 178.702 289.04 178.854C289.153 179.007 289.204 179.196 289.185 179.385C289.166 179.574 289.077 179.749 288.936 179.876C288.795 180.002 288.612 180.072 288.423 180.071V180.074Z" fill="#262626"/>
<path d="M291.907 190.041C291.828 190.042 291.749 190.03 291.673 190.004L246.802 175.38C246.619 175.31 246.47 175.172 246.386 174.995C246.302 174.817 246.288 174.614 246.349 174.428C246.41 174.241 246.54 174.085 246.712 173.992C246.885 173.898 247.086 173.874 247.275 173.926L292.144 188.552C292.323 188.603 292.477 188.718 292.577 188.875C292.677 189.033 292.716 189.221 292.687 189.405C292.658 189.589 292.563 189.757 292.419 189.875C292.275 189.994 292.093 190.055 291.907 190.049V190.041Z" fill="#262626"/>
<path d="M275.211 215.509C275.096 215.509 274.983 215.482 274.88 215.431L238.241 197.669C238.059 197.581 237.919 197.423 237.853 197.232C237.787 197.041 237.799 196.831 237.887 196.648C237.975 196.466 238.132 196.326 238.323 196.26C238.514 196.193 238.724 196.206 238.906 196.294L275.545 214.057C275.701 214.132 275.827 214.258 275.902 214.414C275.977 214.57 275.997 214.748 275.958 214.917C275.919 215.086 275.824 215.237 275.688 215.344C275.553 215.452 275.384 215.51 275.211 215.509Z" fill="#262626"/>
<path d="M249.995 246.69C249.806 246.691 249.623 246.62 249.482 246.493L226.566 225.739C226.485 225.673 226.419 225.592 226.371 225.5C226.322 225.408 226.293 225.307 226.285 225.203C226.277 225.099 226.291 224.995 226.324 224.897C226.358 224.798 226.411 224.708 226.48 224.631C226.55 224.553 226.634 224.491 226.729 224.448C226.823 224.404 226.925 224.381 227.029 224.378C227.133 224.376 227.236 224.394 227.333 224.433C227.429 224.472 227.516 224.53 227.59 224.603L250.506 245.358C250.619 245.461 250.699 245.595 250.735 245.744C250.771 245.893 250.761 246.049 250.707 246.193C250.654 246.336 250.559 246.46 250.434 246.549C250.309 246.638 250.161 246.687 250.008 246.69H249.995Z" fill="#262626"/>
<path d="M248.867 254.15C248.665 254.15 248.472 254.07 248.329 253.928L227.966 233.591C227.895 233.52 227.838 233.436 227.8 233.343C227.761 233.251 227.741 233.151 227.741 233.051C227.741 232.951 227.76 232.851 227.798 232.759C227.837 232.666 227.893 232.582 227.963 232.51C228.034 232.439 228.118 232.383 228.21 232.344C228.303 232.306 228.402 232.286 228.502 232.285C228.602 232.285 228.701 232.305 228.794 232.343C228.887 232.381 228.971 232.437 229.042 232.508L249.405 252.845C249.512 252.952 249.585 253.088 249.615 253.236C249.645 253.385 249.63 253.539 249.572 253.678C249.514 253.818 249.417 253.938 249.291 254.022C249.166 254.106 249.018 254.15 248.867 254.15Z" fill="#262626"/>
<path d="M229.124 270.945C229.003 270.946 228.883 270.918 228.774 270.862C228.666 270.806 228.573 270.725 228.504 270.625L215.215 251.975C215.097 251.809 215.05 251.604 215.084 251.403C215.117 251.203 215.229 251.025 215.394 250.907C215.559 250.789 215.764 250.742 215.964 250.775C216.164 250.809 216.343 250.921 216.46 251.086L229.749 269.737C229.807 269.819 229.849 269.911 229.872 270.009C229.894 270.106 229.898 270.208 229.881 270.307C229.865 270.406 229.829 270.5 229.776 270.585C229.723 270.67 229.654 270.744 229.572 270.803C229.442 270.897 229.285 270.947 229.124 270.945Z" fill="#262626"/>
<path d="M218.587 266.022C218.461 266.023 218.337 265.992 218.226 265.933C218.115 265.873 218.02 265.788 217.95 265.683L207.906 250.587C207.851 250.504 207.812 250.41 207.793 250.312C207.773 250.213 207.773 250.112 207.793 250.013C207.813 249.915 207.852 249.821 207.907 249.738C207.963 249.654 208.035 249.583 208.118 249.527C208.202 249.471 208.295 249.433 208.393 249.413C208.492 249.394 208.593 249.394 208.691 249.413C208.79 249.433 208.883 249.472 208.966 249.528C209.05 249.584 209.121 249.656 209.177 249.739L219.22 264.834C219.296 264.949 219.339 265.083 219.346 265.221C219.352 265.358 219.321 265.495 219.256 265.617C219.192 265.738 219.095 265.84 218.978 265.911C218.86 265.983 218.725 266.021 218.587 266.022Z" fill="#262626"/>
<path d="M19.4042 199.291C19.2187 199.296 19.0376 199.233 18.895 199.114C18.7524 198.995 18.6581 198.828 18.6296 198.644C18.6012 198.461 18.6407 198.273 18.7406 198.116C18.8406 197.96 18.9942 197.845 19.1725 197.794L44.3133 189.809C44.5062 189.748 44.7155 189.766 44.8951 189.86C45.0747 189.953 45.21 190.114 45.2711 190.307C45.3322 190.5 45.3142 190.71 45.221 190.89C45.1278 191.07 44.967 191.205 44.7741 191.267L19.6334 199.251C19.5592 199.275 19.4821 199.288 19.4042 199.291Z" fill="#262626"/>
<path d="M27.3427 146.292C27.2976 146.293 27.2525 146.289 27.2082 146.28L0.630203 141.569C0.446809 141.519 0.288825 141.402 0.187268 141.241C0.0857104 141.08 0.0479141 140.886 0.0812989 140.699C0.114684 140.511 0.216838 140.343 0.367708 140.227C0.518578 140.111 0.707267 140.056 0.896731 140.072L27.4748 144.783C27.6646 144.814 27.8357 144.916 27.9539 145.068C28.072 145.22 28.1283 145.411 28.1116 145.603C28.0949 145.795 28.0064 145.973 27.8638 146.102C27.7212 146.232 27.5351 146.302 27.3427 146.3V146.292Z" fill="#262626"/>
<path d="M55.8786 140.426C55.7893 140.426 55.7007 140.41 55.6171 140.379L10.96 124.034C10.7701 123.964 10.6155 123.822 10.5302 123.638C10.445 123.455 10.4361 123.245 10.5054 123.054C10.5748 122.864 10.7168 122.709 10.9001 122.624C11.0835 122.538 11.2932 122.529 11.4831 122.599L56.1402 138.944C56.3084 139.005 56.4501 139.123 56.5405 139.277C56.6308 139.432 56.6641 139.613 56.6344 139.79C56.6047 139.966 56.514 140.127 56.3781 140.243C56.2422 140.36 56.0698 140.424 55.8911 140.426H55.8786Z" fill="#262626"/>
<path d="M48.934 111.651C48.7983 111.65 48.6652 111.614 48.5479 111.546L12.6788 90.4597C12.5924 90.4089 12.5169 90.3415 12.4565 90.2615C12.3961 90.1815 12.3521 90.0903 12.3268 89.9933C12.3016 89.8962 12.2958 89.7951 12.3095 89.6957C12.3233 89.5964 12.3565 89.5007 12.4072 89.4142C12.4579 89.3277 12.5252 89.2521 12.605 89.1916C12.6849 89.1311 12.7759 89.087 12.8729 89.0617C12.9698 89.0365 13.0707 89.0306 13.1699 89.0444C13.2691 89.0582 13.3646 89.0915 13.4509 89.1422L49.3201 110.226C49.4638 110.311 49.5757 110.442 49.6385 110.597C49.7013 110.752 49.7116 110.924 49.6678 111.085C49.624 111.247 49.5285 111.39 49.396 111.492C49.2634 111.594 49.1012 111.65 48.934 111.651Z" fill="#262626"/>
<path d="M65.2619 112.803C65.1018 112.803 64.9458 112.752 64.816 112.658L17.0926 78.0041C17.0109 77.9451 16.9415 77.8706 16.8885 77.7847C16.8354 77.6989 16.7998 77.6035 16.7836 77.5038C16.7674 77.4042 16.771 77.3024 16.7941 77.2041C16.8172 77.1059 16.8594 77.0131 16.9183 76.9312C16.9771 76.8493 17.0516 76.7798 17.1373 76.7267C17.2229 76.6736 17.3182 76.6379 17.4177 76.6217C17.5172 76.6055 17.6188 76.609 17.7169 76.6322C17.815 76.6553 17.9076 76.6976 17.9894 76.7566L65.7003 111.421C65.831 111.516 65.9284 111.649 65.9784 111.803C66.0284 111.956 66.0285 112.122 65.9787 112.276C65.9289 112.429 65.8316 112.563 65.701 112.658C65.5705 112.753 65.4132 112.804 65.2519 112.803H65.2619Z" fill="#262626"/>
<path d="M62.771 89.9107C62.5788 89.9126 62.3932 89.8402 62.2529 89.7086L28.3964 58.3553C28.323 58.2871 28.2636 58.2051 28.2218 58.114C28.18 58.0229 28.1565 57.9244 28.1527 57.8242C28.1489 57.724 28.1648 57.624 28.1996 57.53C28.2344 57.4359 28.2873 57.3497 28.3553 57.2761C28.4233 57.2026 28.5052 57.1432 28.5961 57.1013C28.6871 57.0594 28.7854 57.0359 28.8854 57.032C28.9855 57.0282 29.0853 57.0442 29.1792 57.079C29.2731 57.1138 29.3592 57.1668 29.4326 57.235L63.2866 88.5759C63.3995 88.6801 63.4783 88.816 63.5128 88.9659C63.5472 89.1157 63.5357 89.2725 63.4797 89.4157C63.4237 89.5589 63.3259 89.6818 63.199 89.7684C63.0721 89.8549 62.922 89.9011 62.7685 89.9007L62.771 89.9107Z" fill="#262626"/>
<path d="M94.0195 62.4547C93.8766 62.4547 93.7366 62.4144 93.6155 62.3385C93.4944 62.2626 93.397 62.1542 93.3345 62.0256L71.5614 17.1837C71.4729 17.0014 71.4603 16.7913 71.5264 16.5997C71.5925 16.4081 71.7319 16.2506 71.9139 16.162C72.0959 16.0733 72.3056 16.0607 72.4969 16.1269C72.6882 16.1931 72.8454 16.3327 72.9339 16.515L94.7045 61.3569C94.7611 61.4733 94.7872 61.6021 94.7804 61.7314C94.7736 61.8607 94.7341 61.9861 94.6656 62.0959C94.5971 62.2056 94.5018 62.2962 94.3888 62.3589C94.2758 62.4217 94.1487 62.4547 94.0195 62.4547Z" fill="#262626"/>
<path d="M244.508 118.742C244.325 118.742 244.147 118.677 244.008 118.558C243.869 118.439 243.777 118.274 243.749 118.093C243.721 117.912 243.759 117.726 243.855 117.571C243.952 117.415 244.101 117.299 244.276 117.245L293.845 101.461C294.038 101.399 294.248 101.417 294.427 101.511C294.607 101.604 294.742 101.765 294.803 101.958C294.864 102.152 294.846 102.361 294.753 102.541C294.66 102.721 294.499 102.856 294.306 102.918L244.737 118.702C244.663 118.727 244.586 118.74 244.508 118.742Z" fill="#262626"/>
<path d="M237.048 117.571C236.868 117.571 236.694 117.507 236.556 117.39C236.419 117.274 236.327 117.112 236.297 116.934C236.268 116.757 236.301 116.574 236.393 116.419C236.485 116.264 236.629 116.146 236.799 116.087L285.406 98.8706C285.502 98.8337 285.604 98.8165 285.706 98.8199C285.808 98.8233 285.909 98.8473 286.002 98.8905C286.094 98.9337 286.178 98.9951 286.246 99.0712C286.315 99.1473 286.367 99.2364 286.401 99.3333C286.434 99.4302 286.448 99.5328 286.441 99.6351C286.434 99.7374 286.406 99.8372 286.36 99.9286C286.314 100.02 286.25 100.101 286.171 100.167C286.093 100.233 286.002 100.283 285.904 100.313L237.302 117.519C237.221 117.551 237.135 117.569 237.048 117.571Z" fill="#262626"/>
<path d="M228.666 263.547C228.548 263.547 228.432 263.52 228.326 263.468C228.221 263.415 228.129 263.339 228.058 263.245L212.973 243.254C212.91 243.175 212.863 243.083 212.835 242.985C212.808 242.887 212.8 242.784 212.813 242.683C212.826 242.582 212.858 242.485 212.909 242.396C212.96 242.308 213.028 242.231 213.109 242.17C213.191 242.108 213.283 242.064 213.382 242.039C213.48 242.013 213.583 242.008 213.683 242.024C213.784 242.039 213.881 242.074 213.967 242.128C214.054 242.181 214.129 242.251 214.189 242.334L229.291 262.322C229.376 262.435 229.428 262.57 229.44 262.712C229.453 262.853 229.427 262.995 229.364 263.122C229.301 263.249 229.204 263.356 229.083 263.431C228.963 263.506 228.825 263.546 228.683 263.547H228.666Z" fill="#262626"/>
<path d="M50.1296 105.767C49.9768 105.767 49.8274 105.721 49.7012 105.635L15.2917 82.2208C15.1242 82.107 15.0088 81.9312 14.9707 81.7321C14.9326 81.533 14.9751 81.3269 15.0887 81.1592C15.2023 80.9914 15.3778 80.8758 15.5766 80.8376C15.7754 80.7995 15.9811 80.842 16.1486 80.9558L50.5655 104.372C50.7002 104.464 50.802 104.597 50.856 104.751C50.9099 104.905 50.9132 105.072 50.8653 105.228C50.8173 105.384 50.7208 105.521 50.5897 105.618C50.4587 105.715 50.3 105.767 50.1371 105.767H50.1296Z" fill="#262626"/>
<path d="M215.658 69.925C215.511 69.9255 215.367 69.8831 215.243 69.8031C215.119 69.7231 215.021 69.6089 214.961 69.4743C214.9 69.3396 214.88 69.1904 214.903 69.0445C214.925 68.8987 214.99 68.7625 215.088 68.6525L248.466 31.034C248.6 30.8824 248.789 30.7906 248.991 30.7787C249.193 30.7667 249.392 30.8357 249.543 30.9704C249.695 31.105 249.786 31.2944 249.798 31.4967C249.81 31.6991 249.741 31.8979 249.607 32.0495L216.229 69.668C216.158 69.7496 216.07 69.8148 215.972 69.8592C215.873 69.9035 215.766 69.926 215.658 69.925Z" fill="#262626"/>
<path d="M218.064 71.9535C217.915 71.953 217.769 71.9088 217.645 71.8263C217.52 71.7438 217.423 71.6267 217.364 71.4893C217.305 71.3519 217.288 71.2002 217.314 71.0531C217.34 70.9059 217.409 70.7696 217.511 70.6611L252.063 34.5096C252.132 34.4372 252.215 34.3792 252.307 34.3389C252.399 34.2985 252.497 34.2767 252.597 34.2746C252.698 34.2726 252.797 34.2903 252.891 34.3267C252.984 34.3632 253.069 34.4177 253.141 34.4872C253.214 34.5566 253.272 34.6397 253.312 34.7316C253.352 34.8235 253.374 34.9224 253.376 35.0227C253.378 35.123 253.36 35.2228 253.324 35.3163C253.288 35.4097 253.233 35.4951 253.164 35.5675L218.615 71.719C218.544 71.7939 218.459 71.8535 218.364 71.8938C218.269 71.9342 218.167 71.9545 218.064 71.9535Z" fill="#262626"/>
<path d="M170.102 49.308C170.017 49.3084 169.933 49.2957 169.853 49.2706C169.661 49.2057 169.503 49.0675 169.412 48.8862C169.322 48.7049 169.306 48.4951 169.37 48.3025L170.271 45.5903L185.152 1.67665C185.185 1.58162 185.236 1.49399 185.302 1.41874C185.369 1.34349 185.449 1.2821 185.54 1.23808C185.63 1.19406 185.728 1.16826 185.828 1.16217C185.928 1.15608 186.029 1.16981 186.123 1.20258C186.218 1.23534 186.306 1.2865 186.381 1.35314C186.456 1.41977 186.517 1.50058 186.561 1.59094C186.605 1.6813 186.631 1.77944 186.637 1.87977C186.643 1.9801 186.629 2.08064 186.597 2.17566L170.827 48.7865C170.776 48.9387 170.679 49.071 170.548 49.1647C170.418 49.2583 170.262 49.3084 170.102 49.308Z" fill="#262626"/>
<path d="M17.5285 237.585C17.3607 237.587 17.1971 237.532 17.0632 237.431C16.9293 237.33 16.8326 237.187 16.788 237.025C16.7434 236.863 16.7535 236.69 16.8167 236.535C16.8799 236.379 16.9926 236.248 17.1375 236.163L80.0554 198.906C80.1417 198.854 80.2375 198.819 80.3375 198.803C80.4374 198.788 80.5394 198.792 80.6375 198.817C80.7356 198.841 80.8279 198.885 80.9089 198.946C80.99 199.006 81.0582 199.083 81.1096 199.17C81.161 199.257 81.1945 199.354 81.2083 199.454C81.222 199.554 81.2157 199.656 81.1897 199.754C81.1637 199.852 81.1185 199.944 81.0568 200.024C80.995 200.104 80.918 200.171 80.8301 200.221L17.9146 237.481C17.7978 237.55 17.6644 237.586 17.5285 237.585Z" fill="#262626"/>
<path d="M24.792 244.582C24.6281 244.582 24.4684 244.53 24.3366 244.432C24.2048 244.334 24.108 244.197 24.0605 244.04C24.0129 243.882 24.0172 243.714 24.0727 243.56C24.1282 243.405 24.232 243.273 24.3686 243.182L65.105 215.916C65.2734 215.803 65.4796 215.762 65.6781 215.802C65.8767 215.842 66.0513 215.959 66.1636 216.128C66.2759 216.296 66.3167 216.503 66.277 216.702C66.2373 216.901 66.1203 217.076 65.9519 217.188L25.2155 244.452C25.0903 244.536 24.9429 244.581 24.792 244.582Z" fill="#262626"/>
<path d="M21.6211 242.057C21.4556 242.057 21.2944 242.004 21.1618 241.904C21.0293 241.805 20.9327 241.665 20.8865 241.506C20.8404 241.347 20.8472 241.177 20.9061 241.022C20.9649 240.867 21.0725 240.735 21.2126 240.647L63.2492 213.949C63.3338 213.896 63.4281 213.859 63.5267 213.842C63.6254 213.825 63.7265 213.827 63.8242 213.849C63.9219 213.871 64.0144 213.912 64.0963 213.97C64.1782 214.027 64.248 214.101 64.3016 214.185C64.3553 214.27 64.3918 214.364 64.409 214.463C64.4262 214.562 64.4238 214.663 64.4019 214.761C64.38 214.859 64.3392 214.952 64.2816 215.034C64.224 215.116 64.1508 215.186 64.0663 215.239L22.0296 241.937C21.9076 242.015 21.7659 242.057 21.6211 242.057Z" fill="#262626"/>
<path d="M200.767 282.165C200.566 282.165 200.37 282.106 200.203 281.994C200.036 281.882 199.905 281.723 199.828 281.537L181.934 238.262C181.831 238.012 181.831 237.731 181.934 237.482C182.038 237.232 182.236 237.034 182.485 236.931C182.735 236.827 183.015 236.828 183.264 236.931C183.513 237.035 183.711 237.233 183.814 237.483L201.694 280.758C201.758 280.913 201.783 281.081 201.766 281.247C201.75 281.414 201.693 281.574 201.6 281.713C201.507 281.852 201.381 281.966 201.234 282.045C201.087 282.124 200.922 282.165 200.755 282.165H200.767Z" fill="#262626"/>
<path d="M179.378 290.08C179.208 290.081 179.042 290.026 178.906 289.923C178.771 289.819 178.674 289.673 178.631 289.508L165.979 240.901C165.953 240.804 165.946 240.702 165.958 240.602C165.971 240.502 166.004 240.405 166.054 240.318C166.105 240.23 166.172 240.153 166.252 240.092C166.332 240.031 166.424 239.986 166.521 239.96C166.619 239.935 166.721 239.929 166.82 239.943C166.92 239.957 167.016 239.991 167.103 240.042C167.19 240.094 167.266 240.162 167.326 240.243C167.386 240.324 167.43 240.417 167.454 240.515L180.118 289.122C180.169 289.318 180.14 289.526 180.038 289.701C179.935 289.876 179.768 290.003 179.572 290.055C179.509 290.07 179.444 290.079 179.378 290.08Z" fill="#262626"/>
<path d="M164.188 293.381C164.006 293.379 163.83 293.311 163.693 293.19C163.555 293.07 163.466 292.903 163.441 292.722L155.249 233.027C155.235 232.927 155.241 232.826 155.266 232.729C155.291 232.632 155.336 232.541 155.396 232.461C155.456 232.381 155.532 232.313 155.619 232.263C155.705 232.212 155.801 232.179 155.9 232.165C155.999 232.151 156.1 232.157 156.197 232.182C156.294 232.208 156.385 232.252 156.465 232.313C156.545 232.373 156.612 232.449 156.663 232.535C156.714 232.622 156.747 232.718 156.761 232.817L164.946 292.512C164.973 292.713 164.921 292.917 164.799 293.079C164.677 293.24 164.496 293.347 164.296 293.376C164.26 293.38 164.224 293.381 164.188 293.381Z" fill="#262626"/>
<path d="M176.606 298.164C176.433 298.166 176.266 298.109 176.13 298.003C175.994 297.897 175.898 297.748 175.858 297.58L163.962 248.676C163.938 248.578 163.934 248.476 163.949 248.376C163.965 248.276 164 248.18 164.052 248.094C164.105 248.007 164.174 247.932 164.255 247.872C164.337 247.812 164.429 247.769 164.527 247.745C164.625 247.722 164.727 247.717 164.827 247.733C164.927 247.748 165.023 247.783 165.109 247.836C165.195 247.889 165.27 247.958 165.33 248.039C165.389 248.121 165.432 248.214 165.456 248.312L177.35 297.216C177.375 297.313 177.379 297.414 177.364 297.513C177.349 297.613 177.315 297.708 177.263 297.794C177.211 297.879 177.143 297.954 177.062 298.013C176.981 298.073 176.89 298.115 176.792 298.139C176.731 298.155 176.669 298.163 176.606 298.164Z" fill="#262626"/>
<path d="M171.701 299.127C171.524 299.13 171.353 299.07 171.216 298.958C171.079 298.846 170.986 298.69 170.954 298.516L160.933 249.487C160.913 249.389 160.912 249.287 160.931 249.189C160.95 249.09 160.988 248.997 161.043 248.913C161.099 248.829 161.17 248.757 161.253 248.701C161.336 248.645 161.429 248.605 161.527 248.585C161.625 248.565 161.726 248.564 161.825 248.583C161.923 248.602 162.017 248.641 162.1 248.696C162.184 248.751 162.256 248.822 162.312 248.905C162.368 248.988 162.407 249.082 162.427 249.18L172.448 298.211C172.47 298.31 172.473 298.411 172.454 298.51C172.436 298.609 172.399 298.704 172.343 298.788C172.288 298.872 172.216 298.944 172.132 299C172.049 299.056 171.954 299.094 171.855 299.112C171.805 299.122 171.753 299.127 171.701 299.127Z" fill="#262626"/>
<path d="M99.9279 247.835C98.8292 247.805 97.7397 247.624 96.6897 247.299C92.8388 246.196 89.8945 244.07 88.8159 241.613C88.0463 239.866 88.1509 237.982 89.1248 236.028C89.2454 235.787 89.4568 235.603 89.7126 235.518C89.9683 235.432 90.2475 235.452 90.4886 235.573C90.7297 235.694 90.9131 235.906 90.9983 236.162C91.0836 236.418 91.0638 236.698 90.9432 236.939C90.2432 238.344 90.1561 239.604 90.6767 240.792C91.673 243.037 94.7194 244.614 97.2502 245.338C100.003 246.126 100.957 245.702 101.236 245.48C101.338 245.403 101.652 245.158 101.624 244.272C101.616 244.002 101.716 243.74 101.901 243.544C102.086 243.347 102.341 243.232 102.611 243.224C102.88 243.216 103.142 243.316 103.338 243.501C103.534 243.687 103.649 243.942 103.657 244.212C103.704 245.799 103.044 246.655 102.484 247.089C101.848 247.588 101.001 247.835 99.9279 247.835Z" fill="#2E2020"/>
<path d="M120.358 255.578C120.163 255.577 119.972 255.521 119.808 255.415C119.644 255.31 119.513 255.159 119.432 254.981C118.42 252.763 115.302 245.023 117.626 238.566C118.911 234.988 120.281 233.456 121.611 231.977C122.124 231.42 122.607 230.837 123.059 230.23C123.522 229.594 123.569 229.362 123.574 229.319C123.574 229.319 123.529 229.284 123.39 229.177C122.999 229.299 121.955 229.711 119.424 231.073L119.302 231.138C117.531 232.069 112.965 233.334 110.43 232.036C109.955 231.808 109.544 231.463 109.236 231.035C108.928 230.606 108.732 230.108 108.666 229.584C108.168 226.091 112.402 224.095 114.928 222.899L115.675 222.543C116.557 222.059 117.392 221.493 118.166 220.851C119.412 219.898 120.677 218.915 122.222 218.458C124.942 217.657 133.456 219.439 135.478 221.614C136.973 223.209 136.751 226.43 136.405 229.599C136.377 229.871 136.35 230.12 136.33 230.335C135.767 236.293 135.401 241.707 136.631 247.618C136.674 247.823 136.724 248.1 136.778 248.424C137.339 251.64 137.795 252.526 138.079 252.703C138.307 252.844 138.472 253.067 138.54 253.326C138.608 253.585 138.574 253.861 138.445 254.096C138.318 254.325 138.107 254.494 137.856 254.569C137.605 254.643 137.335 254.615 137.105 254.492C135.745 253.744 135.227 251.363 134.776 248.773C134.723 248.477 134.679 248.222 134.639 248.025C133.353 241.845 133.747 236.036 134.302 230.133C134.325 229.908 134.352 229.651 134.385 229.367C134.572 227.64 134.963 224.047 133.989 222.999C132.624 221.532 124.984 219.756 122.797 220.412C121.616 220.759 120.555 221.587 119.407 222.463C118.528 223.191 117.58 223.831 116.575 224.371C116.346 224.486 116.076 224.621 115.795 224.748C113.904 225.641 110.387 227.306 110.676 229.297C110.697 229.497 110.77 229.689 110.888 229.852C111.006 230.016 111.165 230.145 111.349 230.227C112.995 231.066 116.874 230.118 118.353 229.339L118.458 229.284C123.096 226.789 123.689 226.906 124.262 227.288C124.835 227.67 125.44 228.189 125.577 228.98C125.729 229.858 125.246 230.674 124.7 231.425C124.209 232.086 123.682 232.719 123.123 233.324C121.878 234.724 120.692 236.044 119.541 239.245C117.902 243.801 119.367 249.919 121.285 254.125C121.355 254.281 121.386 254.451 121.373 254.621C121.361 254.791 121.306 254.955 121.215 255.098C121.123 255.242 120.996 255.36 120.847 255.442C120.698 255.524 120.531 255.567 120.361 255.568L120.358 255.578Z" fill="#2E2020"/>
<path d="M129.079 220.474C128.957 220.473 128.837 220.451 128.723 220.409C128.47 220.314 128.265 220.123 128.153 219.877C128.041 219.631 128.031 219.35 128.125 219.097L129.228 216.143C129.323 215.889 129.513 215.684 129.759 215.572C130.004 215.46 130.284 215.449 130.536 215.544C130.789 215.638 130.994 215.829 131.106 216.075C131.218 216.32 131.228 216.601 131.134 216.854L130.026 219.818C129.952 220.01 129.823 220.176 129.654 220.293C129.485 220.41 129.284 220.473 129.079 220.474Z" fill="#2E2020"/>
</g>
<defs>
<clipPath id="clip0_363_6079">
<rect width="296" height="379" fill="white"/>
</clipPath>
</defs>
</svg>
