<svg width="84" height="85" viewBox="0 0 84 85" fill="none" xmlns="http://www.w3.org/2000/svg">
<circle cx="42.3464" cy="42.5" r="41.5195" fill="#DFE9F6"/>
<mask id="mask0_401_4082" style="mask-type:alpha" maskUnits="userSpaceOnUse" x="0" y="0" width="84" height="85">
<circle cx="42.3464" cy="42.5" r="41.5195" fill="#DFE9F6"/>
</mask>
<g mask="url(#mask0_401_4082)">
<path d="M31.7722 33.1902C32.1742 32.4525 33.3149 30.6436 33.5822 29.102C33.7158 28.4316 34.3198 26.241 35.7278 25.1676C37.3132 23.965 38.9042 20.2283 42.4331 24.0066C42.4331 24.0066 45.249 21.7351 48.4007 24.4231C50.2061 25.9625 51.3491 30.9075 52.4225 32.7848C53.0849 33.9267 54.0292 34.6824 54.7478 35.1349L55.3069 35.136C55.3069 35.136 57.1842 28.2969 55.9772 23.7371C55.3305 21.2949 54.0033 20.1575 53.2286 18.9359C51.6264 16.4106 49.2585 15.2002 48.267 15.0206C45.9867 14.6321 42.6105 14.988 42.6105 14.988C42.6105 14.988 40.0617 14.211 38.0755 14.9532C35.4606 15.6909 33.5159 17.1663 31.6386 18.9763C25.4027 25.0777 29.2246 35.0698 29.1573 35.0698L30.0185 35.072C30.6382 34.7442 31.1592 34.3602 31.7722 33.1902Z" fill="#C37B7B"/>
<path d="M33.7158 56.3932C31.6522 57.4576 29.456 58.7208 26.7344 59.7235C26.7636 59.7482 26.7905 59.774 26.8197 59.7976C28.5196 61.2056 30.4833 62.2847 32.5437 63.0628C34.6579 63.8611 36.8843 64.3608 39.1299 64.5966C41.3833 64.8335 43.6648 64.8155 45.9138 64.5449C48.1088 64.2822 50.3577 63.8072 52.3978 62.9381C54.3515 62.1061 56.1389 60.9328 57.8602 59.6864C54.7265 58.5063 52.4978 57.6418 50.68 56.0575C49.3382 54.8504 49.674 49.0162 49.674 49.0162C49.674 49.0162 50.68 47.9428 51.6186 46.1328C52.5573 44.3228 52.893 41.774 52.893 41.774C52.893 41.774 54.4357 41.6404 55.7089 39.7619C56.9159 38.0181 55.7763 35.6714 55.7763 35.6714C55.7763 35.6714 55.3384 35.5052 54.7478 35.1336C54.0292 34.6811 53.085 33.9254 52.4225 32.7835C51.3492 30.9061 50.2062 25.9612 48.4007 24.4218C45.2491 21.7338 42.4331 24.0052 42.4331 24.0052C38.9042 20.2269 37.3132 23.9637 35.7279 25.1662C34.3199 26.2397 33.7158 28.4303 33.5822 29.1006C33.3139 30.6434 32.1743 32.4511 31.7723 33.1888C31.1593 34.3588 30.6383 34.7428 30.0185 35.0707C29.8928 35.1369 29.7625 35.2021 29.6267 35.2694C29.0226 35.5378 28.688 36.5438 28.688 36.6101C28.2187 37.7498 28.889 39.2925 28.889 39.2925L30.297 41.1699L31.9733 41.975C31.9733 41.975 32.4426 44.389 33.2476 46.199C34.0527 48.009 35.2597 49.1498 35.2597 49.1498C35.2597 49.1498 35.3259 55.5881 33.7158 56.3932Z" fill="#FFDDC0"/>
<path d="M26.493 59.8551C26.3549 59.8551 26.2247 59.7708 26.173 59.6339C26.1057 59.4565 26.1955 59.2588 26.3718 59.1926C26.9219 58.9849 27.4553 58.7884 27.9695 58.5986C31.5377 57.286 34.1145 56.3384 34.659 54.1634C35.0442 52.368 34.787 48.9423 34.7837 48.9086C34.7691 48.72 34.9105 48.5549 35.0992 48.5415C35.2878 48.528 35.4528 48.6683 35.4663 48.857C35.4775 49.0018 35.7335 52.4152 35.326 54.3195C34.6916 56.856 31.9711 57.8564 28.2064 59.242C27.6933 59.4306 27.1622 59.626 26.6143 59.8337C26.5739 59.8483 26.5323 59.8551 26.493 59.8551Z" fill="black"/>
<path d="M58.0443 60.0189C58.005 60.0189 57.9646 60.0121 57.9264 59.9975L57.8512 59.9706C53.9731 58.5435 50.3105 57.195 49.6773 54.6663C49.2012 52.7609 49.391 49.0241 49.3988 48.8658C49.4089 48.6772 49.5706 48.5312 49.7593 48.5424C49.9479 48.5526 50.0927 48.7131 50.0826 48.9029C50.0804 48.941 49.8895 52.6958 50.3409 54.5013C50.8854 56.6785 54.3829 57.9663 58.0858 59.3294L58.1599 59.3564C58.3373 59.4215 58.4283 59.6191 58.3631 59.7965C58.3149 59.9324 58.1835 60.0189 58.0443 60.0189Z" fill="black"/>
<path d="M42.4331 53.0472C42.3254 53.0438 40.0012 52.9495 36.6688 50.5691C34.3311 48.9399 33.5822 47.2276 33.1343 46.2036C32.4539 44.7866 31.8913 42.8632 31.3681 40.1639C31.3322 39.9786 31.4535 39.799 31.6398 39.763C31.8251 39.726 32.0047 39.8484 32.0407 40.0347C32.5515 42.6756 33.0972 44.5451 33.7563 45.9195C34.1807 46.8874 34.8813 48.4908 37.0629 50.0111C40.2112 52.2601 42.4219 52.3634 42.4433 52.3634C42.6319 52.3701 42.7801 52.5284 42.7745 52.7171C42.7689 52.9012 42.6173 53.0472 42.4331 53.0472Z" fill="black"/>
<path d="M42.5007 53.0473C42.312 53.0473 42.1582 52.8935 42.1582 52.7048C42.1582 52.5162 42.3109 52.3635 42.4995 52.3624C42.531 52.3624 44.4128 52.3107 47.5363 50.1437C49.7808 48.5796 50.7778 46.8324 51.173 45.9297C51.8377 44.5441 52.3823 42.6746 52.8943 40.0337C52.9302 39.8485 53.1098 39.7261 53.2951 39.762C53.4803 39.7979 53.6027 39.9776 53.5668 40.1628C53.0447 42.8632 52.4811 44.7855 51.7962 46.2138C51.3774 47.1715 50.3107 49.0444 47.9282 50.7051C44.5902 53.0203 42.5837 53.0473 42.5007 53.0473Z" fill="black"/>
<path d="M31.7723 41.9156C31.7566 41.9156 31.742 41.9144 31.7263 41.9122C30.6686 41.7707 28.88 40.7299 28.2883 38.4393C27.956 37.1492 28.2322 35.8871 29.0091 35.1483C29.6547 34.5352 30.553 34.3668 31.5376 34.6745C31.7184 34.7306 31.8183 34.9226 31.7622 35.1034C31.7061 35.2841 31.5129 35.383 31.3333 35.3279C30.5855 35.0933 29.9444 35.2033 29.4807 35.6446C28.8912 36.2049 28.6835 37.2345 28.9507 38.2686C29.4538 40.2167 30.9751 41.1217 31.8161 41.2329C32.0036 41.2576 32.135 41.4305 32.1103 41.618C32.0878 41.7909 31.9407 41.9156 31.7723 41.9156Z" fill="black"/>
<path d="M30.9673 38.7637C30.8562 38.7637 30.7484 38.7098 30.6821 38.611C30.6776 38.6054 30.2824 38.0126 30.0893 37.7543C29.9759 37.6027 30.0062 37.3883 30.1578 37.2749C30.3094 37.1615 30.5238 37.1918 30.6372 37.3434C30.8416 37.6162 31.2357 38.2057 31.2514 38.2304C31.3558 38.3876 31.3143 38.6009 31.156 38.7053C31.0987 38.7458 31.0324 38.7637 30.9673 38.7637Z" fill="black"/>
<path d="M53.094 41.9156C52.9256 41.9156 52.7785 41.7909 52.7549 41.618C52.7302 41.4305 52.8616 41.2587 53.0491 41.2329C53.8901 41.1206 55.4114 40.2167 55.9145 38.2686C56.1817 37.2345 55.9728 36.2049 55.3845 35.6446C54.9208 35.2033 54.2797 35.0944 53.5319 35.3279C53.3523 35.3841 53.1591 35.2841 53.103 35.1034C53.0469 34.9226 53.1468 34.7306 53.3276 34.6745C54.3134 34.3668 55.2116 34.5352 55.8561 35.1483C56.6342 35.8882 56.9104 37.1492 56.5769 38.4393C55.9863 40.7299 54.1966 41.7707 53.1389 41.9122C53.1243 41.9156 53.1097 41.9156 53.094 41.9156Z" fill="black"/>
<path d="M53.899 38.8312C53.8339 38.8312 53.7676 38.8121 53.7092 38.7739C53.552 38.6695 53.5094 38.4561 53.6138 38.2989C53.6306 38.2742 54.0236 37.6847 54.228 37.4119C54.3414 37.2614 54.5558 37.23 54.7074 37.3434C54.859 37.4568 54.8893 37.6713 54.7759 37.8229C54.5827 38.08 54.1875 38.6728 54.183 38.6796C54.1179 38.7784 54.009 38.8312 53.899 38.8312Z" fill="black"/>
<path d="M42.634 42.0504C42.5542 42.0504 42.4745 42.0223 42.4094 41.9673C42.2668 41.8438 42.2511 41.6271 42.3746 41.4845C42.8956 40.8838 42.9899 40.5705 42.9787 40.4122C42.9652 40.2404 42.8046 40.0944 42.543 39.8721C42.2017 39.5813 41.7784 39.2197 41.6291 38.5651C41.3416 37.1987 41.9603 35.4493 42.3274 34.715C42.4117 34.5454 42.6171 34.4769 42.7867 34.5623C42.9562 34.6465 43.0247 34.8531 42.9394 35.0215C42.5554 35.7895 42.0681 37.3278 42.2971 38.4192C42.3948 38.847 42.6822 39.0917 42.9865 39.3511C43.3009 39.6184 43.6254 39.8957 43.6602 40.3617C43.6927 40.7973 43.4558 41.2824 42.8911 41.9336C42.8248 42.01 42.7294 42.0504 42.634 42.0504Z" fill="black"/>
<path d="M42.5836 46.3608C41.1341 46.3608 39.7115 45.9285 38.8559 45.184C38.7133 45.0605 38.6976 44.8438 38.8223 44.7012C38.9458 44.5586 39.1625 44.5429 39.3051 44.6675C40.6996 45.8802 44.0836 46.098 45.7644 44.6653C45.9081 44.5429 46.1237 44.5597 46.2472 44.7035C46.3696 44.8472 46.3528 45.0639 46.2091 45.1863C45.2547 46.0003 43.9085 46.3608 42.5836 46.3608Z" fill="black"/>
<path d="M35.7289 31.7226C35.6211 31.7226 35.5155 31.6721 35.4493 31.5778C35.3404 31.4239 35.3752 31.2117 35.529 31.1017C35.593 31.0557 37.1178 29.9935 39.1489 30.8648C39.3229 30.9389 39.4037 31.141 39.3285 31.3139C39.2544 31.4879 39.0534 31.5688 38.8794 31.4936C37.2132 30.7794 35.9781 31.6238 35.9265 31.6597C35.8659 31.7024 35.7974 31.7226 35.7289 31.7226Z" fill="black"/>
<path d="M48.6691 31.589C48.6007 31.589 48.5322 31.5688 48.4715 31.5261C48.4188 31.489 47.1893 30.6525 45.5276 31.4228C45.3558 31.5014 45.1526 31.4273 45.0729 31.2566C44.9932 31.0848 45.0684 30.8816 45.239 30.8019C47.2735 29.8576 48.8039 30.922 48.8679 30.968C49.0217 31.0781 49.0576 31.2914 48.9476 31.4452C48.8814 31.5396 48.7758 31.589 48.6691 31.589Z" fill="black"/>
<path fill-rule="evenodd" clip-rule="evenodd" d="M35.1248 49.0835C35.1248 49.0835 39.0803 52.571 42.6351 52.6373C45.3174 52.7046 49.1393 49.4181 49.1393 49.4181C49.1393 49.4181 45.25 54.3137 41.6964 54.9166C38.6121 55.4533 35.3931 52.3015 35.3931 52.3015L35.1248 49.0835Z" fill="black"/>
<path d="M29.3571 35.2101C29.1999 35.2101 29.0584 35.1012 29.0236 34.9417C28.9799 34.7419 28.9114 34.4859 28.8316 34.1793C28.186 31.7271 26.6748 25.9827 29.6726 21.2724C29.7748 21.113 29.9859 21.0658 30.1453 21.1669C30.3047 21.268 30.3519 21.4802 30.2508 21.6396C27.4136 26.0984 28.8709 31.6384 29.4941 34.0042C29.5772 34.3197 29.6468 34.5858 29.6928 34.7924C29.7344 34.9766 29.6176 35.1596 29.4323 35.2011C29.4076 35.2079 29.3818 35.2101 29.3571 35.2101Z" fill="black"/>
<path d="M52.4406 27.2503C51.3347 27.2503 50.8149 26.7596 50.0682 26.0567C49.4484 25.4729 48.6771 24.7453 47.2264 23.9211C45.4232 22.8982 44.6104 23.4911 43.7492 24.121C43.6728 24.1771 43.5965 24.2321 43.5213 24.286C43.3663 24.3961 43.153 24.359 43.0441 24.2041C42.9352 24.0502 42.9711 23.8358 43.126 23.7269C43.199 23.6752 43.272 23.6213 43.3461 23.5674C44.2511 22.9061 45.3772 22.083 47.5655 23.3249C49.0891 24.1895 49.9267 24.9799 50.5398 25.5571C51.4627 26.4273 51.8444 26.7877 53.5174 26.4306C53.7004 26.3902 53.8845 26.5092 53.9238 26.6945C53.9631 26.8798 53.8452 27.0617 53.66 27.101C53.1806 27.2031 52.7831 27.2503 52.4406 27.2503Z" fill="black"/>
<path d="M30.6145 29.6441C30.4517 29.6441 30.2777 29.634 30.0935 29.6138C29.906 29.5925 29.7702 29.4229 29.7915 29.2354C29.8128 29.0479 29.9846 28.9132 30.1699 28.9334C31.6767 29.104 32.1651 28.4607 32.9724 27.3962C33.6135 26.5507 34.4118 25.4987 35.9837 24.5892C36.1476 24.4948 36.3564 24.5499 36.4519 24.7138C36.5462 24.8777 36.4912 25.0866 36.3272 25.182C34.8755 26.023 34.1546 26.9729 33.518 27.8106C32.777 28.7863 32.1269 29.6441 30.6145 29.6441Z" fill="black"/>
<path fill-rule="evenodd" clip-rule="evenodd" d="M36.2646 36.2093C36.2646 35.5389 36.734 35.0022 37.2707 35.0022C37.8074 35.0022 38.2767 35.5389 38.2767 36.2093C38.2767 36.8796 37.8074 37.4163 37.2707 37.4163C36.734 37.4163 36.2646 36.8796 36.2646 36.2093Z" fill="black"/>
<path fill-rule="evenodd" clip-rule="evenodd" d="M46.3896 36.2093C46.3896 35.5389 46.859 35.0022 47.3957 35.0022C47.9324 35.0022 48.4017 35.5389 48.4017 36.2093C48.4017 36.8796 47.9997 37.4163 47.3957 37.4163C46.859 37.4826 46.3896 36.8796 46.3896 36.2093Z" fill="black"/>
<path d="M30.3834 20.9131C30.325 20.9131 30.2667 20.8985 30.2128 20.8671C30.0488 20.7727 29.9927 20.5639 30.087 20.3988C30.7248 19.2895 33.8248 15.9087 37.0236 14.8622C39.0738 14.1919 41.0083 14.2547 42.4736 15.0385C42.6397 15.1283 42.7026 15.3349 42.6139 15.5022C42.5241 15.6684 42.3175 15.7313 42.1502 15.6426C40.8523 14.9475 39.1075 14.9015 37.2369 15.5134C34.1818 16.5127 31.2075 19.8251 30.681 20.7413C30.617 20.8513 30.5024 20.9131 30.3834 20.9131Z" fill="black"/>
<path d="M55.5089 35.2775C55.4819 35.2775 55.455 35.2742 55.4281 35.2674C55.2439 35.2225 55.1316 35.0384 55.1765 34.8542C55.2529 34.5398 55.3371 34.2176 55.4236 33.8852C55.9558 31.8473 56.5598 29.5376 56.1085 26.2646C56.0984 26.1961 55.016 19.1694 49.7322 16.0087C49.2168 15.701 48.6869 15.4742 48.1569 15.335C46.7624 14.9701 45.2343 15.2788 43.887 15.5517C43.7006 15.5887 43.5209 15.4697 43.4839 15.2845C43.4457 15.0992 43.5658 14.9184 43.7511 14.8814C45.1725 14.5939 46.7826 14.2683 48.3309 14.6725C48.9238 14.8275 49.5144 15.079 50.0847 15.4203C55.6526 18.7506 56.744 25.8671 56.7877 26.168C57.2582 29.578 56.6092 32.0617 56.0871 34.057C56.0007 34.386 55.9176 34.7038 55.8424 35.0148C55.8031 35.1731 55.6627 35.2775 55.5089 35.2775Z" fill="black"/>
<path d="M43.1393 20.1799C43.1326 20.1799 43.127 20.1799 43.1202 20.1799C42.9316 20.1698 42.7868 20.0081 42.7969 19.8195C42.8362 19.074 43.4997 17.3852 45.2973 16.9215C45.4803 16.8743 45.6667 16.9844 45.7139 17.1674C45.761 17.3504 45.651 17.5368 45.468 17.584C44.0522 17.9489 43.5099 19.2963 43.4807 19.8554C43.4717 20.0385 43.3201 20.1799 43.1393 20.1799Z" fill="black"/>
<path d="M42.6072 22.7332C42.4635 22.7332 42.331 22.6423 42.2827 22.4997C42.0638 21.8451 41.7662 21.3151 41.398 20.9255C40.9758 20.4786 40.4312 20.2012 39.9058 20.1653C39.7172 20.1518 39.5746 19.9879 39.588 19.7993C39.6015 19.6106 39.7621 19.468 39.9541 19.4815C40.6592 19.5309 41.3497 19.8767 41.8965 20.455C42.3332 20.9165 42.6824 21.5318 42.9328 22.2818C42.9923 22.4615 42.8958 22.6557 42.7172 22.7152C42.6802 22.7265 42.6431 22.7332 42.6072 22.7332Z" fill="black"/>
<path d="M32.6201 25.2227C32.4955 25.2227 32.3742 25.1542 32.3136 25.0352C32.2282 24.8668 32.2956 24.6602 32.4651 24.5748C36.0547 22.7603 38.7988 21.8396 39.9878 22.0529C41.0971 22.2506 42.1447 22.9276 42.7206 23.8203C42.8228 23.9797 42.7779 24.1908 42.6185 24.2941C42.4602 24.3963 42.2479 24.3514 42.1447 24.1919C41.6753 23.4655 40.7816 22.8906 39.8676 22.7278C39.1086 22.593 36.7923 23.1556 32.7739 25.1868C32.7256 25.2115 32.6729 25.2227 32.6201 25.2227Z" fill="black"/>
<path d="M30.3834 35.2012C30.2925 35.2012 30.2015 35.1653 30.1342 35.0934C30.005 34.9553 30.0118 34.7386 30.1487 34.6095C30.2678 34.4972 30.3946 34.3816 30.5249 34.2614C31.4141 33.4474 32.5212 32.4334 32.6009 31.3982L32.5998 30.7559C32.5998 30.5673 32.7536 30.4135 32.9422 30.4135C33.1309 30.4135 33.2847 30.5673 33.2847 30.7559V31.4251C33.1825 32.7557 31.9654 33.8707 30.9875 34.7656C30.8583 34.8835 30.7348 34.9969 30.6181 35.1069C30.5518 35.1709 30.4676 35.2012 30.3834 35.2012Z" fill="black"/>
<path d="M55.0049 32.7677C54.9869 32.7677 54.97 32.7666 54.9521 32.7632C54.1325 32.6374 53.0085 32.4645 52.2563 31.7246C51.8364 31.3114 51.5871 30.7769 51.3682 30.3042L49.657 26.627C49.5773 26.4552 49.6514 26.2519 49.8232 26.1722C49.995 26.0925 50.1982 26.1666 50.2779 26.3384L51.9891 30.0156C52.1934 30.4558 52.4056 30.9105 52.7368 31.2362C53.2859 31.7774 54.1122 31.9413 55.0565 32.0861C55.244 32.1153 55.372 32.2894 55.3428 32.4769C55.3159 32.6475 55.1699 32.7677 55.0049 32.7677Z" fill="black"/>
<path d="M54.7669 35.2504C54.7096 35.2504 54.6512 35.2358 54.5984 35.2055C53.4218 34.5363 52.7941 33.9142 51.9127 32.5399C51.8106 32.3804 51.8566 32.1693 52.016 32.0672C52.1744 31.965 52.3866 32.011 52.4887 32.1705C53.3106 33.4505 53.8597 33.9984 54.9364 34.6104C55.1003 34.7036 55.1587 34.9124 55.0644 35.0775C55.0015 35.1886 54.8859 35.2504 54.7669 35.2504Z" fill="black"/>
<path d="M76.8061 81.6243C76.8061 81.6243 76.5377 68.5961 72.5822 65.9148C69.8998 64.0374 62.7926 61.4886 59.3726 60.2153C59.0201 60.0817 58.6821 59.9548 58.3509 59.8291C56.267 61.3482 54.0686 62.8113 51.6176 63.6444C49.5325 64.3529 47.3543 64.7796 45.1627 64.9783C42.8744 65.1861 40.5638 65.1355 38.2867 64.8223C36.0243 64.5112 33.7956 63.933 31.6904 63.0426C29.8075 62.2454 28.047 61.0024 26.4919 59.6752C21.7785 61.4538 14.3804 63.5703 11.2962 66.8535C9.14603 69.1227 8.53972 79.1114 8.43194 81.2717C8.30394 81.4221 8.23657 81.5749 8.23657 81.7287C8.23657 84.0877 23.5772 85.9999 42.5006 85.9999C61.4239 85.9999 76.7645 84.0877 76.7645 81.7287C76.7645 81.6939 76.76 81.6591 76.7533 81.6243H76.8061Z" fill="#4F88A3"/>
<path d="M8.23661 81.766C8.22089 81.766 8.20517 81.7649 8.19057 81.7626C8.00307 81.7368 7.8717 81.565 7.89753 81.3775C7.98061 80.7633 8.07044 80.0312 8.16924 79.2262C8.73961 74.5754 9.52219 68.2056 11.0627 66.4282C13.1331 64.0983 17.2357 62.6218 20.8556 61.3193C22.9922 60.5502 25.011 59.8237 26.3145 59.0276C26.4762 58.9288 26.6862 58.9793 26.785 59.141C26.8838 59.3027 26.8333 59.5138 26.6716 59.6115C25.3097 60.4446 23.2583 61.1823 21.088 61.9638C17.5445 63.2393 13.5294 64.6844 11.578 66.8807C10.1768 68.4975 9.34592 75.2659 8.84965 79.3104C8.75084 80.1188 8.6599 80.8531 8.57681 81.4707C8.55211 81.6414 8.40615 81.766 8.23661 81.766Z" fill="black"/>
<path d="M76.7634 81.6986C76.5972 81.6986 76.4513 81.5762 76.4255 81.4066C76.3109 80.6431 76.1897 79.7123 76.0617 78.7276C75.5149 74.5226 74.7671 68.7647 73.4209 67.2119C71.1416 64.6473 66.7156 63.035 62.4356 61.4753C60.8165 60.8847 59.2862 60.3278 57.9085 59.7305C57.7345 59.6552 57.6548 59.4531 57.73 59.2802C57.8052 59.1062 58.0062 59.0265 58.1802 59.1017C59.5399 59.6912 61.0602 60.2447 62.6691 60.8308C67.03 62.4196 71.538 64.0623 73.9351 66.7594C75.4194 68.4717 76.1515 74.1094 76.741 78.6389C76.869 79.6202 76.9891 80.5477 77.1025 81.3045C77.1306 81.492 77.0014 81.666 76.8151 81.6941C76.7982 81.6975 76.7803 81.6986 76.7634 81.6986Z" fill="black"/>
<path d="M42.4209 65.3165C42.0638 65.3165 41.7034 65.3097 41.3352 65.2963C32.5404 64.9751 27.4845 60.8937 26.5604 60.0785C26.419 59.9539 26.4055 59.7372 26.5301 59.5957C26.6548 59.4531 26.8715 59.4396 27.0129 59.5654C27.9067 60.3536 32.7975 64.2992 41.3599 64.6125C51.4593 64.9819 57.1877 59.9976 57.8075 59.4284L58.2757 59.928C57.6537 60.5007 52.124 65.3165 42.4209 65.3165Z" fill="black"/>
</g>
</svg>
