<svg width="210" height="213" viewBox="0 0 210 213" fill="none" xmlns="http://www.w3.org/2000/svg">
<rect width="210" height="213" fill="#ECF4FF"/>
<path d="M79.5935 166.041L68.3668 154.824L68.1846 155.007L63.8539 150.679L62.1719 149.835L63.0175 151.515L67.3481 155.843L67.1122 156.078L78.3389 167.296C78.6857 167.643 79.2475 167.643 79.5935 167.296C79.9403 166.949 79.9403 166.387 79.5935 166.041Z" fill="#8DB6C4"/>
<path d="M120.932 129.76C120.651 128.781 120.683 127.507 120.393 126.396C119.872 124.4 118.439 123.062 118.356 122.519C118.338 122.407 118.331 122.291 118.367 122.183C118.412 122.051 118.517 121.95 118.626 121.864C119.276 121.361 120.17 121.335 120.951 121.626C120.946 121.564 120.937 121.499 120.931 121.438L120.272 120.549C120.272 120.549 114.297 112.475 111.84 109.391C109.383 106.305 106.927 103.219 104.532 101.77C102.279 100.409 99.1622 100.125 96.6085 99.755C95.9761 99.6635 95.3488 99.577 94.7224 99.4939C92.3467 101.343 90.9275 100.475 90.9275 100.475C90.9275 100.475 91.6673 105.476 91.507 107.872C91.5246 107.887 91.5422 107.901 91.5599 107.917C91.3382 108.515 91.0661 109.095 90.7478 109.647C90.275 110.466 89.6964 111.247 88.9558 111.843C88.6165 112.117 88.2336 112.349 87.8212 112.493C87.4056 112.638 86.9815 112.66 86.5448 112.635C85.5245 112.577 84.5176 112.313 83.5359 112.043C83.0884 111.92 82.6357 111.804 82.1949 111.659C81.6423 111.479 81.1158 111.231 80.6086 110.95C79.6017 110.39 78.6737 109.704 77.6971 109.095C77.2033 108.787 76.6894 108.515 76.2082 108.188C75.7405 107.87 75.2979 107.517 74.8764 107.14C74.0391 106.391 73.2934 105.547 72.5779 104.682C72.2278 104.259 71.8893 103.828 71.5316 103.411C71.1848 103.009 70.827 102.615 70.4819 102.21C69.8034 101.414 69.1383 100.554 68.7948 99.5535C68.8167 99.5367 68.8393 99.5191 68.8603 99.504C69.1862 99.3974 69.4885 99.2547 69.7706 99.0835L69.7647 98.9752C69.4079 98.929 69.2038 98.7897 68.8595 98.8954C66.1647 99.7256 62.8544 100.682 61.001 100.955C57.7881 101.427 53.5045 102.054 51.2363 103.566C48.9681 105.077 38.5744 113.39 37.062 114.239C35.5505 115.089 19.7697 122.268 18.3522 127.179C16.9347 132.091 16.6517 136.435 20.8093 138.514C24.967 140.591 46.039 139.931 46.039 139.931C46.039 139.931 66.0303 138.682 71.9154 139.232C71.9154 139.232 71.7012 136.382 71.928 135.469C72.394 133.592 73.4916 132.111 73.4916 132.111C73.4916 132.111 80.2701 131.555 82.4434 131.744C82.7692 131.773 91.3591 132.025 92.8825 131.857C94.6636 131.66 96.6622 131.637 97.161 131.931C97.7648 132.288 99.4595 133.887 100.889 135.516C103.914 135.495 107.244 135.469 107.244 135.469C107.244 135.469 107.694 134.102 107.115 133.461C107.985 133.903 108.741 134.566 109.292 135.371C112.235 134.971 118.647 135.155 123.455 134.895C121.525 133.473 121.223 130.77 120.932 129.76Z" fill="#74A8A3"/>
<path d="M136.357 117.746C135.817 117.819 135.318 118.07 134.841 118.334C134.404 118.575 133.976 118.83 133.556 119.098L133.85 120.019C133.842 120.019 133.835 120.02 133.827 120.02C133.29 119.424 132.752 118.828 132.215 118.232C131.951 117.94 131.659 117.63 131.272 117.556C131.006 117.505 130.732 117.574 130.475 117.66C130.021 117.812 128.92 118.193 128.514 118.446C127.636 118.057 126.601 117.765 125.741 118.19C125.257 118.429 124.903 118.865 124.587 119.302C124.269 119.743 123.978 120.201 123.707 120.672C123.365 121.267 123.056 121.88 122.792 122.513L123.107 122.414C122.955 122.636 122.851 122.889 122.769 123.146C122.761 123.172 122.754 123.197 122.747 123.223C122.491 122.802 122.186 122.417 121.801 122.105C121.55 121.902 121.259 121.74 120.953 121.626C120.171 121.335 119.277 121.361 118.627 121.864C118.517 121.95 118.413 122.051 118.369 122.183C118.333 122.291 118.339 122.407 118.357 122.519C118.44 123.062 119.874 124.4 120.394 126.396C120.684 127.507 120.651 128.781 120.933 129.76C121.224 130.77 121.526 133.473 123.459 134.894C123.485 134.914 123.508 134.935 123.535 134.954L123.61 134.886L123.625 134.873C123.667 134.878 123.711 134.877 123.754 134.878C123.846 134.878 123.939 134.874 124.025 134.862C127.012 134.42 130.058 134.368 133.06 134.707L134.253 130.332L137.614 118.002C137.255 117.764 136.79 117.687 136.357 117.746Z" fill="#FFDDC0"/>
<path d="M72.968 77.2134C72.968 77.2134 74.3872 77.4636 75.641 77.4367C76.8057 77.4057 78.9169 76.3489 80.0724 74.7078C82.1029 71.6792 81.7956 70.6803 83.9731 68.2855C86.2446 65.8059 94.8874 66.5068 97.5561 66.8199C99.5103 67.0969 100.644 67.6903 102.031 68.5642C102.915 69.1232 103.195 70.8465 103.234 72.5917C103.616 72.2542 104.596 71.3527 105.06 70.5939C106.984 67.9178 107.698 67.9539 105.057 63.5286C102.416 59.1032 97.9802 56.5564 97.9802 56.5564C97.9802 56.5564 90.0252 52.8488 85.0186 52.7766C80.1009 52.7094 76.2011 55.5542 76.2011 55.5542L70.8098 59.5766C70.8098 59.5766 68.6231 62.1502 67.2392 66.5521C66.1769 69.8972 66.9041 73.2422 67.8228 76.3295C68.0882 77.1606 68.7919 78.5985 69.6476 79.9776C69.8475 77.2873 72.968 77.2134 72.968 77.2134Z" fill="#F08C65"/>
<path d="M68.7959 99.5535C69.1394 100.554 69.8045 101.415 70.483 102.21C70.8281 102.615 71.1859 103.009 71.5327 103.411C71.8904 103.827 72.2297 104.259 72.579 104.682C73.2945 105.547 74.0402 106.39 74.8774 107.14C75.2981 107.517 75.7415 107.87 76.2093 108.188C76.6905 108.515 77.2044 108.788 77.6982 109.095C78.6748 109.704 79.6028 110.39 80.6096 110.95C81.1168 111.232 81.6442 111.48 82.1959 111.66C82.6368 111.804 83.0894 111.92 83.537 112.043C84.5187 112.313 85.5256 112.577 86.5459 112.635C86.9826 112.659 87.4066 112.637 87.8223 112.493C88.2346 112.349 88.6176 112.117 88.9568 111.843C89.6975 111.247 90.2769 110.466 90.7489 109.647C91.0671 109.095 91.3401 108.514 91.5609 107.917C91.5433 107.901 91.5256 107.887 91.508 107.872C91.6684 105.475 90.9286 100.475 90.9286 100.475C90.9286 100.475 92.3478 101.343 94.7235 99.4939C94.8561 99.3907 94.9905 99.2816 95.1291 99.1607C97.7483 96.8775 100.069 93.4166 100.9 91.1326C101.94 88.2333 101.954 86.1776 101.976 83.943C101.972 82.2441 102.95 77.0162 102.95 77.0162C102.95 77.0162 103.283 74.7859 103.234 72.5917C103.196 70.8457 102.915 69.1233 102.032 68.5642C100.645 67.6896 99.5109 67.0961 97.5568 66.8199C94.8889 66.5077 86.2452 65.8059 83.9737 68.2855C81.7954 70.6804 82.1036 71.6793 80.073 74.7079C78.9175 76.3489 76.8064 77.4057 75.6416 77.4368C74.3879 77.4636 72.9687 77.2135 72.9687 77.2135C72.9687 77.2135 69.8481 77.2874 69.6483 79.9777C69.6315 80.2052 69.6331 80.4486 69.6608 80.7147C69.9951 84.7556 73.5153 85.9157 73.5153 85.9157C73.5153 85.9157 74.293 96.3428 69.7717 99.0835C69.4887 99.2547 69.1864 99.3974 68.8614 99.504C68.8404 99.5191 68.8177 99.5367 68.7959 99.5535Z" fill="#FFDDC0"/>
<path d="M97.1624 131.93C96.6644 131.637 94.6658 131.659 92.8838 131.857C91.3605 132.025 82.7706 131.772 82.4448 131.743C80.2715 131.554 73.493 132.11 73.493 132.11C73.493 132.11 72.3954 133.591 71.9293 135.469C71.7026 136.382 71.9167 139.232 71.9167 139.232C72.2997 139.268 72.623 139.311 72.8774 139.363C77.0351 140.213 80.4747 141.266 83.3652 140.789C85.1228 140.498 88.9622 139.578 90.4032 139.494C90.5384 139.486 96.0951 140.363 97.2615 140.619C97.6721 140.709 98.0929 140.527 98.3078 140.165C98.4548 139.917 98.4783 139.635 98.4019 139.382L98.7109 139.606C98.7109 139.606 99.8396 140.123 100.474 140.113C100.72 140.109 100.977 140.102 101.19 139.977C101.376 139.868 101.495 139.603 101.533 139.325L101.691 139.366C102.12 139.426 102.974 139.32 102.974 139.32C103.564 138.915 102.37 137.199 100.892 135.515C99.4608 133.887 97.7662 132.287 97.1624 131.93Z" fill="#FFDDC0"/>
<path d="M196.068 110.787C195.892 110.736 195.704 110.712 195.509 110.724L140.194 113.127C139.382 113.178 138.701 113.795 138.528 114.639L137.611 118.001L134.251 130.331L133.058 134.706L131.254 141.328L128.482 152.16C128.611 152.476 128.921 152.705 129.296 152.687L185.354 148.925C186.417 148.859 187.308 148.05 187.536 146.944L197.328 112.982C197.534 111.981 196.941 111.036 196.068 110.787Z" fill="#B1B1B2"/>
<path d="M132.023 138.32L105.334 140.282C105.035 140.304 104.862 141.575 105.138 141.7L128.446 152.3L128.481 152.161L131.253 141.329L132.023 138.32Z" fill="#B1B1B2"/>
<path d="M123.643 159.538L96.6792 142.992L66.568 144.892L68.4734 146.403L63.6885 146.193L88.3102 166.458L116.356 162.777L113.852 161.033L123.643 159.538Z" fill="white"/>
<path d="M162.625 130.105C161.746 132.744 162.441 135.396 164.177 136.03C165.913 136.664 168.032 135.039 168.911 132.4C169.79 129.761 169.095 127.108 167.359 126.474C165.623 125.84 163.503 127.466 162.625 130.105Z" fill="white"/>
<path d="M91.4487 100.881C88.6439 100.881 85.0044 99.3118 82.3096 97.5062C79.5695 95.7267 78.1066 93.9186 76.7546 91.7521C76.6421 91.5725 76.6975 91.3349 76.8772 91.2233C77.0577 91.1116 77.2946 91.1662 77.4062 91.3458C78.7037 93.4259 80.1061 95.1601 82.7328 96.8658C86.1112 99.1288 90.7962 100.861 93.2248 99.7945C94.3593 99.2606 95.8457 97.9721 97.2943 96.2631C99.785 93.2974 100.951 90.1429 101.192 88.3432C101.428 86.9674 101.487 85.6353 101.545 84.346C101.58 83.5636 101.616 82.7545 101.691 81.9453C101.841 80.4931 102.049 79.1761 102.269 77.7818L102.387 77.0372C102.401 76.9676 103.398 72.3961 102.589 69.8905C102.523 69.689 102.634 69.4725 102.837 69.407C103.037 69.3415 103.255 69.4523 103.32 69.6546C104.195 72.3592 103.185 76.9844 103.141 77.1799L103.029 77.9027C102.811 79.286 102.604 80.593 102.457 82.02C102.385 82.8082 102.349 83.6073 102.314 84.3812C102.256 85.6932 102.194 87.0506 101.953 88.4599C101.688 90.4392 100.478 93.6701 97.8829 96.7592C97.1641 97.607 95.3049 99.666 93.5439 100.495C92.9334 100.761 92.2229 100.881 91.4487 100.881Z" fill="black"/>
<path d="M74.3943 86.6123C74.3599 86.6123 74.3246 86.6073 74.2902 86.5981C71.5836 85.8392 69.9864 84.3266 69.4078 81.9754C69.0114 80.3025 69.4464 78.664 70.5415 77.6953C71.5114 76.8366 72.8281 76.6536 74.2473 77.1799C74.4464 77.2538 74.548 77.4745 74.4741 77.6735C74.4002 77.8724 74.1793 77.974 73.9803 77.9001C72.8391 77.477 71.7978 77.6088 71.0504 78.2711C70.1812 79.04 69.8294 80.4234 70.1544 81.7958C70.6674 83.8801 72.048 85.1719 74.4976 85.8594C74.7017 85.9165 74.8209 86.1288 74.7638 86.3328C74.7168 86.5007 74.5622 86.6123 74.3943 86.6123Z" fill="black"/>
<path d="M73.6199 82.4597C73.4721 82.4597 73.3318 82.3741 73.268 82.2306C73.2621 82.2163 72.9724 81.5851 72.3871 81.1771C72.2133 81.0562 72.1705 80.817 72.2914 80.6424C72.4123 80.4687 72.6516 80.4258 72.8263 80.5467C73.598 81.0839 73.9566 81.8873 73.9709 81.9208C74.0565 82.1147 73.9675 82.3414 73.7736 82.427C73.724 82.4488 73.6711 82.4597 73.6199 82.4597Z" fill="black"/>
<path fill-rule="evenodd" clip-rule="evenodd" d="M89.8 100.348L89.3197 102.859C89.3197 102.859 86.6862 103.388 83.6605 101.269C80.4611 99.0524 77.3926 92.4597 77.3926 92.4597C77.3926 92.4597 80.8499 96.6576 83.8176 98.1476C86.9541 99.8247 88.8015 100.454 88.8015 100.454L89.8 100.348Z" fill="black"/>
<path d="M89.8131 107.69C89.6981 107.69 89.5822 107.639 89.5041 107.545C88.9263 106.852 89.2194 101.781 89.4184 100.297C89.447 100.087 89.641 99.9404 89.8501 99.9673C90.0609 99.9958 90.2078 100.189 90.1801 100.399C89.8652 102.749 89.8644 106.617 90.1087 107.074C90.2448 107.237 90.2154 107.469 90.0525 107.604C89.9828 107.663 89.8988 107.69 89.8131 107.69Z" fill="black"/>
<path d="M94.9476 88.8938C94.8502 88.8938 94.7519 88.8569 94.6772 88.7821C94.5269 88.6327 94.5252 88.3893 94.6747 88.239C95.9612 86.9413 95.6732 86.6509 95.0408 86.0155C94.6344 85.6067 94.1288 85.098 93.981 84.2535C93.6938 82.4463 94.8023 79.8089 94.8493 79.6972C94.9325 79.5025 95.1575 79.411 95.3532 79.4941C95.548 79.5772 95.6396 79.8021 95.5564 79.9977C95.5455 80.0229 94.4874 82.5445 94.7385 84.1276C94.8435 84.7278 95.2214 85.1072 95.5858 85.474C96.4121 86.305 96.9093 87.0765 95.2205 88.7796C95.1449 88.856 95.0467 88.8938 94.9476 88.8938Z" fill="black"/>
<path d="M91.5081 73.6074C91.4376 73.6074 91.367 73.5881 91.3032 73.5478C89.5128 72.4154 87.2245 73.4278 87.201 73.4387C87.0078 73.526 86.7803 73.4412 86.6929 73.2481C86.6048 73.0551 86.6904 72.8276 86.8827 72.7403C86.991 72.6908 89.5691 71.5416 91.7147 72.8998C91.8936 73.0131 91.9473 73.2506 91.8339 73.4294C91.76 73.5444 91.6349 73.6074 91.5081 73.6074Z" fill="black"/>
<path d="M102.651 74.4342C102.556 74.4342 102.461 74.3989 102.386 74.3284C102.345 74.2915 101.288 73.3639 98.9288 74.048C98.7239 74.1068 98.5123 73.9893 98.4526 73.7861C98.3939 73.5822 98.5114 73.3689 98.7146 73.3102C101.527 72.496 102.859 73.7181 102.914 73.771C103.068 73.9171 103.075 74.1597 102.929 74.3141C102.854 74.3939 102.752 74.4342 102.651 74.4342Z" fill="black"/>
<path d="M93.6419 93.2672C91.9969 93.2672 90.125 92.7551 88.7478 91.6396C88.5832 91.5061 88.5572 91.2643 88.6916 91.0998C88.8251 90.9353 89.0669 90.9093 89.2315 91.0436C91.4544 92.8449 94.8176 92.7677 96.0655 91.9258C96.2418 91.8074 96.4803 91.8536 96.5987 92.029C96.7171 92.2053 96.6709 92.4437 96.4954 92.5621C95.8127 93.0221 94.7815 93.2672 93.6419 93.2672Z" fill="black"/>
<path fill-rule="evenodd" clip-rule="evenodd" d="M87.9151 82.4337C87.1165 82.3044 86.5362 81.3811 86.6748 80.404C86.8176 79.338 87.5717 78.5707 88.3711 78.7C89.1697 78.8293 89.75 79.7526 89.6114 80.7297C89.4687 81.7957 88.7188 82.474 87.9151 82.4337Z" fill="black"/>
<path fill-rule="evenodd" clip-rule="evenodd" d="M98.6202 83.0599C97.8216 82.9306 97.2413 82.0073 97.3799 81.0302C97.5226 79.9642 98.2767 79.197 99.0754 79.3262C99.874 79.4555 100.454 80.3788 100.316 81.3559C100.177 82.333 99.423 83.0994 98.6202 83.0599Z" fill="black"/>
<path d="M94.2347 67.3948C94.0298 67.3948 93.8593 67.2328 93.8509 67.0263C93.8425 66.8139 94.0071 66.6351 94.2187 66.6267C94.4488 66.6175 94.6806 66.6125 94.914 66.6083C96.6297 66.5755 98.2504 66.5445 99.2875 64.5123C99.3841 64.3234 99.6158 64.2487 99.8039 64.3444C99.9929 64.4409 100.068 64.6717 99.9719 64.8606C98.7257 67.3033 96.7086 67.3419 94.9283 67.3755C94.7007 67.3797 94.474 67.3839 94.2498 67.3931C94.2456 67.3948 94.2405 67.3948 94.2347 67.3948Z" fill="black"/>
<path d="M81.5933 71.5011C81.537 71.5011 81.4791 71.4885 81.4245 71.4617C81.2339 71.3685 81.1549 71.1385 81.2481 70.948C82.0988 69.2087 84.6794 66.437 87.9796 66.4026C88.3483 66.3959 88.7371 66.4177 89.1494 66.4395C90.2201 66.4974 91.3278 66.557 92.1096 66.1289C92.296 66.0274 92.5294 66.0953 92.6311 66.2809C92.7327 66.4672 92.6647 66.7006 92.4791 66.8021C91.5049 67.336 90.231 67.2672 89.1074 67.2059C88.7094 67.1841 88.334 67.1639 87.9897 67.1698C85.19 67.1992 82.7656 69.594 81.9384 71.2846C81.8721 71.4222 81.736 71.5011 81.5933 71.5011Z" fill="black"/>
<path d="M76.2735 77.6737C76.0888 77.6737 75.9258 77.5394 75.8948 77.3513C75.8603 77.1423 76.0031 76.9451 76.2122 76.9106C78.4443 76.548 79.9449 75.0472 80.2262 72.8957C80.254 72.6859 80.4471 72.5365 80.657 72.565C80.867 72.5927 81.0156 72.7849 80.9879 72.9956C80.6604 75.5021 78.9213 77.2489 76.3356 77.6686C76.3155 77.672 76.2945 77.6737 76.2735 77.6737Z" fill="black"/>
<path d="M103.735 72.4314C103.618 72.4314 103.501 72.3777 103.426 72.2753C103.3 72.1049 103.336 71.864 103.507 71.7381C104.955 70.6703 105.781 69.4079 105.963 67.9851C106.253 65.7237 104.866 63.6218 104.013 62.57C103.279 61.6677 102.528 60.929 101.781 60.375C101.611 60.2482 101.575 60.0082 101.701 59.8378C101.828 59.6674 102.069 59.6321 102.239 59.758C103.037 60.3498 103.835 61.133 104.61 62.0857C105.54 63.2332 107.051 65.5374 106.726 68.0824C106.516 69.721 105.587 71.1589 103.964 72.3559C103.895 72.4071 103.814 72.4314 103.735 72.4314Z" fill="black"/>
<path d="M102.221 58.0473C102.201 58.0473 102.182 58.0456 102.163 58.0431C100.344 57.7686 99.0011 57.2448 98.1983 56.9325C97.6298 56.6908 97.073 56.4431 96.5162 56.1955C95.4321 55.7137 94.3119 55.2151 93.211 54.8063C87.0732 52.4434 79.077 52.2578 75.6608 56.47C75.5273 56.6345 75.2855 56.6606 75.1209 56.5262C74.9563 56.3928 74.9302 56.151 75.0646 55.9865C78.8813 51.2799 87.2873 51.703 93.4839 54.0878C94.6033 54.5033 95.7353 55.0069 96.8295 55.4938C97.3829 55.7397 97.9354 55.9857 98.4888 56.2215C99.2505 56.5179 100.544 57.0223 102.278 57.2842C102.488 57.3161 102.632 57.5117 102.6 57.7216C102.571 57.9104 102.407 58.0473 102.221 58.0473Z" fill="black"/>
<path d="M73.9474 58.0615C73.8122 58.0615 73.682 57.9902 73.6115 57.8642C72.9237 56.6312 71.9236 56.616 71.8774 56.616C71.6658 56.616 71.4928 56.4465 71.4903 56.2366C71.4877 56.0259 71.654 55.853 71.864 55.848C71.9261 55.8429 73.3604 55.8362 74.2825 57.4907C74.3858 57.6762 74.3194 57.9096 74.1338 58.0128C74.075 58.0456 74.0112 58.0615 73.9474 58.0615Z" fill="black"/>
<path d="M69.916 79.5907C69.8102 79.5907 69.7044 79.547 69.628 79.4614C69.4642 79.2767 65.6274 74.8597 66.4033 68.4517C66.8643 64.7826 69.0636 60.4572 71.4116 58.6029C71.5779 58.4711 71.8197 58.4997 71.9516 58.6659C72.0834 58.8321 72.0549 59.0738 71.8886 59.2056C69.7161 60.9214 67.5983 65.1117 67.1666 68.5457C66.4335 74.5995 70.1662 78.9099 70.204 78.9527C70.3443 79.1114 70.3292 79.3539 70.1704 79.495C70.0965 79.5588 70.0059 79.5907 69.916 79.5907Z" fill="black"/>
<path d="M100.575 68.2493C100.329 68.2493 100.165 68.23 100.139 68.2266C99.9286 68.1997 99.78 68.0075 99.8068 67.7968C99.8337 67.587 100.026 67.4392 100.236 67.4644C100.319 67.4745 102.266 67.6969 102.858 66.2422C102.937 66.0458 103.162 65.9518 103.358 66.0316C103.555 66.1113 103.649 66.3354 103.569 66.5318C102.949 68.0537 101.354 68.2493 100.575 68.2493Z" fill="black"/>
<path d="M68.8619 99.8882C68.6982 99.8882 68.5462 99.7825 68.4949 99.6179C68.432 99.4156 68.5453 99.1999 68.7477 99.137L68.8056 99.1193C70.3827 98.6232 71.5978 97.3062 71.9774 95.6828C72.6979 92.598 73.1069 88.16 73.1111 88.1155C73.1304 87.904 73.3168 87.747 73.5285 87.768C73.7401 87.7873 73.8954 87.9737 73.8761 88.1852C73.8719 88.2305 73.4588 92.7197 72.7256 95.8574C72.2848 97.7444 70.8706 99.2746 69.0357 99.8521L68.9753 99.8714C68.9375 99.8824 68.8989 99.8882 68.8619 99.8882Z" fill="black"/>
<path d="M54.0014 129.293C53.972 129.293 53.9418 129.29 53.9124 129.282C53.7058 129.233 53.5782 129.026 53.6277 128.82C53.6437 128.753 55.2115 122.15 55.6759 117.6C56.0311 114.118 54.5439 111.086 53.8292 109.63C53.5588 109.079 53.4388 108.827 53.4102 108.628C53.38 108.419 53.5261 108.224 53.736 108.194C53.9451 108.162 54.14 108.309 54.171 108.518C54.1887 108.617 54.3642 108.975 54.5195 109.292C55.2661 110.813 56.8188 113.977 56.4409 117.678C55.9715 122.278 54.3919 128.931 54.3759 128.997C54.3331 129.175 54.1752 129.293 54.0014 129.293Z" fill="black"/>
<path d="M120.932 121.821C120.814 121.821 120.699 121.768 120.623 121.666C120.557 121.576 113.965 112.674 111.54 109.63C109.145 106.621 106.669 103.512 104.334 102.099C102.04 100.712 94.7248 99.8934 94.6509 99.8858C94.4402 99.8623 94.2882 99.6726 94.3108 99.4619C94.3343 99.2512 94.5233 99.1001 94.7349 99.122C95.0423 99.1555 102.294 99.9664 104.732 101.442C107.184 102.925 109.704 106.09 112.141 109.15C114.574 112.206 121.175 121.12 121.241 121.209C121.367 121.379 121.332 121.62 121.16 121.746C121.092 121.797 121.012 121.821 120.932 121.821Z" fill="black"/>
<path d="M107.245 135.853C107.228 135.853 107.211 135.852 107.194 135.85C106.984 135.822 106.836 135.628 106.864 135.418C106.874 135.343 107.874 127.868 108.371 123.582C108.628 121.371 109.045 118.794 109.381 116.724C109.64 115.128 109.907 113.478 109.89 113.192C109.847 113.002 109.953 112.805 110.143 112.742C110.344 112.675 110.562 112.783 110.629 112.985C110.713 113.237 110.618 113.894 110.14 116.848C109.805 118.91 109.39 121.477 109.134 123.672C108.636 127.966 107.635 135.447 107.625 135.521C107.599 135.713 107.435 135.853 107.245 135.853Z" fill="black"/>
<path d="M109.551 135.853C109.454 135.853 109.357 135.817 109.283 135.745L107.544 134.058C107.392 133.911 107.388 133.667 107.536 133.515C107.684 133.363 107.927 133.359 108.079 133.508L109.818 135.194C109.97 135.342 109.974 135.585 109.826 135.737C109.751 135.814 109.651 135.853 109.551 135.853Z" fill="black"/>
<path d="M86.8247 112.963C86.3729 112.963 85.9329 112.882 85.5374 112.799C77.8729 111.188 71.6679 106.401 68.5129 99.6668C68.4231 99.4746 68.5054 99.2463 68.6977 99.1565C68.89 99.0667 69.1184 99.1489 69.2083 99.3411C72.2599 105.855 78.2692 110.486 85.6944 112.046C86.2108 112.155 86.7575 112.252 87.2706 112.156C87.7552 112.064 88.2263 111.844 88.5974 111.538C91.1906 109.392 91.6836 106.618 90.5499 100.545C90.5113 100.337 90.649 100.136 90.8572 100.097C91.0672 100.058 91.2662 100.196 91.3057 100.404C92.5015 106.809 91.9422 109.768 89.0879 112.129C88.6117 112.522 88.0331 112.793 87.4142 112.909C87.2177 112.948 87.0204 112.963 86.8247 112.963Z" fill="black"/>
<path d="M38.6652 140.418C32.1269 140.418 23.2523 140.163 20.639 138.858C16.5955 136.837 15.5861 132.3 18.0046 127.02C19.5473 123.649 25.3836 119.296 34.8821 114.429C35.0694 114.333 35.2155 114.259 35.3129 114.207C39.3597 112.082 44.4864 108.171 47.879 105.583C49.268 104.524 50.3647 103.687 51.0248 103.247C53.3601 101.691 57.7345 101.048 60.9281 100.578C62.417 100.359 65.042 99.6709 68.7479 98.5293C69.0838 98.4261 69.3324 98.4874 69.5532 98.5411C69.6406 98.5621 69.7229 98.5831 69.8152 98.5948C70.026 98.6217 70.1746 98.8139 70.1478 99.0246C70.1209 99.2353 69.9286 99.383 69.7178 99.357C69.5818 99.3394 69.4692 99.3117 69.3702 99.2873C69.1829 99.2412 69.1023 99.2244 68.9746 99.2638C65.231 100.416 62.5681 101.114 61.0591 101.335C57.9184 101.797 53.6432 102.426 51.4522 103.886C50.8123 104.313 49.724 105.143 48.3468 106.194C44.934 108.798 39.7762 112.732 35.6723 114.888C35.5724 114.94 35.4246 115.015 35.2348 115.114C23.4286 121.161 19.7287 125.099 18.7033 127.339C16.9574 131.151 16.6392 135.999 20.9824 138.17C25.0065 140.182 45.8183 139.554 46.0282 139.547C46.8335 139.497 66.1043 138.303 71.9524 138.85C72.164 138.871 72.3186 139.058 72.2992 139.268C72.2799 139.48 72.0935 139.636 71.881 139.615C66.0926 139.074 46.2642 140.302 46.0652 140.314C45.7343 140.324 42.628 140.418 38.6652 140.418Z" fill="black"/>
<path d="M133.145 134.215C123.757 134.562 112.91 134.962 101.53 135.379C101.318 135.386 101.152 135.564 101.16 135.777C101.168 135.989 101.344 136.158 101.559 136.147C112.773 135.736 123.468 135.342 132.761 134.999C132.9 134.742 133.027 134.481 133.145 134.215Z" fill="black"/>
<path d="M209.639 135.927L191.35 134.758C191.313 135.013 191.272 135.269 191.217 135.52L209.591 136.693C209.599 136.694 209.608 136.694 209.616 136.694C209.817 136.694 209.986 136.538 209.999 136.335C210.012 136.123 209.852 135.94 209.639 135.927Z" fill="black"/>
<path d="M0.696939 139.634C0.314009 139.634 0.0629215 139.619 0.00581795 139.305C-0.0277724 139.117 0.0872745 138.929 0.268662 138.869C0.34508 138.844 0.424018 138.844 0.495397 138.864C1.0446 138.884 5.12163 138.794 20.8033 138.264C21.0141 138.249 21.1929 138.422 21.2005 138.635C21.208 138.847 21.0418 139.024 20.8293 139.032C14.3481 139.251 9.3431 139.412 5.95215 139.511C4.14667 139.564 2.76359 139.6 1.84069 139.619C1.36539 139.628 1.00177 139.633 0.756562 139.634C0.736408 139.634 0.716254 139.634 0.696939 139.634Z" fill="black"/>
<path d="M100.454 140.499C99.7527 140.499 98.6711 140.012 98.5485 139.957C98.3553 139.869 98.2714 139.64 98.3595 139.448C98.4477 139.256 98.6753 139.17 98.8684 139.259C99.1581 139.392 100 139.732 100.451 139.732C100.456 139.732 100.461 139.732 100.465 139.732C100.651 139.729 100.862 139.725 100.992 139.649C101.04 139.62 101.137 139.465 101.155 139.216C101.172 138.984 101.109 138.85 101.077 138.824C101.069 138.818 101.06 138.81 101.053 138.803C101.011 138.763 96.8925 134.823 96.1518 134.175C95.7789 133.848 93.1253 133.958 90.8823 134.266C90.6715 134.293 90.4784 134.148 90.4498 133.938C90.4213 133.728 90.5682 133.535 90.7782 133.505C91.9496 133.345 95.8352 132.876 96.6582 133.597C97.4005 134.246 101.299 137.974 101.575 138.239C101.825 138.451 101.955 138.835 101.923 139.273C101.888 139.744 101.686 140.132 101.382 140.31C101.077 140.489 100.73 140.495 100.477 140.499C100.47 140.499 100.462 140.499 100.454 140.499Z" fill="black"/>
<path d="M97.2937 138.909C97.198 138.909 97.1023 138.873 97.0275 138.801L95.2867 137.131C95.0507 137.067 94.7728 137.085 94.5024 137.102C93.9649 137.137 91.737 137.403 91.7144 137.406C91.5028 137.433 91.3121 137.281 91.2869 137.07C91.2617 136.86 91.4121 136.668 91.6228 136.643C91.7152 136.632 93.8944 136.371 94.4528 136.336C94.7938 136.314 95.2178 136.287 95.6184 136.431C95.6688 136.45 95.715 136.478 95.7536 136.515L97.5591 138.248C97.7119 138.395 97.717 138.638 97.57 138.791C97.4953 138.869 97.3945 138.909 97.2937 138.909Z" fill="black"/>
<path d="M81.816 141.293C79.8543 141.293 77.6869 140.811 75.2608 140.272C74.469 140.095 73.6493 139.913 72.8004 139.739C72.5661 139.692 72.257 139.65 71.8817 139.614C71.67 139.594 71.5155 139.408 71.5348 139.196C71.5541 138.985 71.7406 138.827 71.953 138.85C72.3561 138.887 72.6929 138.934 72.9549 138.987C73.8097 139.162 74.6327 139.345 75.428 139.522C78.4595 140.196 81.0779 140.778 83.3032 140.411C83.9439 140.305 84.8736 140.112 85.8586 139.909C87.6213 139.544 89.4444 139.167 90.3824 139.112C90.7216 139.112 96.3673 140.031 97.3457 140.246C97.5942 140.299 97.8487 140.189 97.9788 139.97C98.0662 139.823 98.0855 139.652 98.0343 139.489C97.983 139.327 97.8688 139.2 97.7135 139.13C96.8846 138.759 95.7342 138.261 94.9599 137.995C94.4359 137.815 91.0416 137.35 88.8884 137.083C88.6777 137.057 88.5282 136.864 88.5551 136.654C88.5811 136.443 88.7734 136.294 88.9833 136.321C89.5401 136.39 94.4418 137.005 95.2093 137.268C96.0113 137.544 97.1844 138.051 98.0275 138.428C98.3802 138.586 98.6498 138.888 98.7665 139.257C98.8833 139.626 98.8371 140.029 98.6389 140.362C98.3391 140.866 97.7538 141.122 97.1802 140.995C96.0012 140.737 90.8149 139.922 90.4034 139.88C89.5124 139.937 87.6548 140.321 86.014 140.66C85.0222 140.866 84.085 141.06 83.4283 141.168C82.906 141.255 82.3694 141.293 81.816 141.293Z" fill="black"/>
<path d="M102.023 139.77C101.883 139.77 101.749 139.764 101.636 139.748C101.426 139.718 101.279 139.525 101.308 139.315C101.337 139.105 101.531 138.959 101.741 138.986C101.992 139.021 102.46 138.987 102.751 138.959C102.817 137.945 98.2605 133.024 96.9664 132.261C96.6423 132.07 94.941 132.015 92.9255 132.238C91.3938 132.407 82.7989 132.16 82.4109 132.126C80.2947 131.942 73.5909 132.487 73.5237 132.493C73.3146 132.51 73.1265 132.353 73.1097 132.142C73.0921 131.93 73.25 131.745 73.4616 131.727C73.7396 131.705 80.2981 131.172 82.4781 131.361C82.8669 131.394 91.3753 131.637 92.8416 131.475C94.1877 131.326 96.6541 131.184 97.3578 131.599C98.3521 132.186 103.449 137.148 103.511 138.947C103.524 139.347 103.316 139.551 103.191 139.636C103.14 139.671 103.082 139.693 103.02 139.701C102.95 139.711 102.459 139.77 102.023 139.77Z" fill="black"/>
<path d="M131.66 124.407C131.264 124.407 130.811 124.304 130.308 124.098C128.841 123.498 127.492 122.664 126.298 121.622C126.138 121.482 126.121 121.24 126.261 121.08C126.4 120.921 126.643 120.904 126.802 121.043C127.934 122.03 129.21 122.819 130.598 123.387C131.06 123.576 131.894 123.829 132.294 123.404C132.649 123.028 132.451 122.302 132.097 121.751C131.324 120.545 130.065 119.552 128.357 118.796C127.298 118.328 126.498 118.241 125.91 118.533C125.528 118.722 125.229 119.067 124.897 119.526C124.195 120.499 123.605 121.553 123.144 122.66C123.063 122.855 122.839 122.948 122.642 122.867C122.446 122.786 122.353 122.561 122.435 122.365C122.919 121.204 123.537 120.098 124.273 119.077C124.617 118.6 125.013 118.12 125.568 117.845C126.373 117.447 127.387 117.528 128.667 118.094C130.515 118.912 131.887 120.003 132.743 121.337C133.221 122.081 133.536 123.207 132.852 123.932C132.556 124.249 132.153 124.407 131.66 124.407Z" fill="black"/>
<path d="M137.288 118.256C137.363 118.009 137.44 117.762 137.514 117.514C137.157 117.363 136.739 117.307 136.306 117.366C135.687 117.45 135.129 117.736 134.655 117.997C134.216 118.239 133.777 118.501 133.349 118.773C133.17 118.887 133.118 119.125 133.232 119.304C133.347 119.483 133.584 119.535 133.763 119.421C134.177 119.156 134.602 118.903 135.027 118.669C135.459 118.431 135.922 118.192 136.41 118.126C136.733 118.083 137.043 118.133 137.288 118.256Z" fill="black"/>
<path d="M131.929 118.489L133.895 120.668C134.123 120.922 134.36 121.184 134.52 121.469C134.805 121.974 134.881 122.579 134.961 123.218L134.981 123.378C135.068 124.056 135.187 124.73 135.325 125.401C135.489 124.903 135.664 124.408 135.84 123.916C135.807 123.704 135.771 123.493 135.744 123.281L135.724 123.122C135.637 122.437 135.548 121.728 135.19 121.092C134.988 120.733 134.722 120.439 134.466 120.154L132.5 117.975C132.235 117.682 131.873 117.281 131.343 117.179C130.986 117.111 130.641 117.2 130.353 117.296C129.771 117.491 128.733 117.856 128.309 118.12C128.13 118.232 128.075 118.469 128.187 118.649C128.299 118.829 128.536 118.883 128.717 118.772C128.972 118.612 129.675 118.333 130.596 118.025C130.791 117.96 131.015 117.899 131.199 117.933C131.454 117.983 131.68 118.214 131.929 118.489Z" fill="black"/>
<path d="M134.158 130.418C134.192 130.283 134.22 130.148 134.245 130.018C134.275 129.869 134.296 129.718 134.319 129.567C133.92 129.191 133.349 128.489 132.999 127.607C132.783 127.063 132.404 125.57 132.122 124.353C132.073 124.147 131.866 124.017 131.66 124.066C131.454 124.114 131.325 124.32 131.373 124.527C131.514 125.13 131.994 127.157 132.285 127.891C132.722 128.987 133.543 129.997 134.158 130.418Z" fill="black"/>
<path d="M123.532 135.339C123.456 135.339 123.379 135.316 123.312 135.269C121.511 134.006 121.008 131.789 120.707 130.464C120.654 130.227 120.607 130.021 120.562 129.866C120.411 129.34 120.348 128.763 120.281 128.152C120.219 127.593 120.157 127.016 120.02 126.493C119.709 125.298 119.049 124.347 118.567 123.654C118.237 123.179 118.019 122.865 117.975 122.577C117.955 122.449 117.936 122.256 118.002 122.061C118.084 121.818 118.262 121.66 118.389 121.56C119.501 120.698 121.1 121.044 122.04 121.806C123.091 122.658 123.596 123.982 123.885 124.905L123.943 125.092C124.159 125.792 124.382 126.515 124.891 126.919C124.999 126.952 125.224 127.019 125.372 127.053C126.972 127.413 128.45 128.288 129.533 129.519C129.674 129.678 129.658 129.921 129.499 130.061C129.339 130.201 129.097 130.185 128.956 130.027C127.98 128.917 126.647 128.127 125.203 127.803C124.972 127.751 124.612 127.639 124.597 127.634C124.557 127.622 124.519 127.603 124.485 127.578C123.736 127.032 123.456 126.122 123.208 125.319L123.151 125.136C122.892 124.309 122.446 123.126 121.556 122.405C120.845 121.828 119.659 121.55 118.86 122.169C118.762 122.245 118.736 122.289 118.73 122.308C118.724 122.325 118.719 122.368 118.734 122.462C118.752 122.577 118.999 122.932 119.198 123.217C119.683 123.917 120.417 124.973 120.763 126.301C120.913 126.879 120.979 127.484 121.043 128.071C121.106 128.648 121.166 129.193 121.299 129.656C121.349 129.831 121.398 130.047 121.455 130.296C121.731 131.513 122.193 133.55 123.752 134.643C123.925 134.764 123.967 135.004 123.846 135.177C123.772 135.281 123.653 135.339 123.532 135.339Z" fill="black"/>
<path d="M125.975 125.76C125.947 125.76 125.918 125.757 125.891 125.751C125.683 125.704 125.554 125.499 125.6 125.291C125.866 124.102 126.211 122.918 126.621 121.772C126.693 121.572 126.912 121.469 127.113 121.54C127.312 121.612 127.416 121.831 127.344 122.031C126.944 123.148 126.609 124.301 126.349 125.459C126.309 125.638 126.151 125.76 125.975 125.76Z" fill="black"/>
<path d="M129.43 125.76C129.412 125.76 129.395 125.759 129.377 125.757C129.167 125.728 129.02 125.534 129.048 125.324C129.054 125.281 129.195 124.259 129.484 123.503C129.56 123.305 129.782 123.206 129.98 123.28C130.178 123.356 130.277 123.577 130.201 123.776C129.945 124.449 129.81 125.418 129.809 125.427C129.783 125.621 129.619 125.76 129.43 125.76Z" fill="black"/>
<path d="M116.577 162.461L114.546 161.047C114.348 161.118 114.147 161.181 113.945 161.234C113.828 161.264 113.709 161.292 113.589 161.316L115.324 162.525L88.4264 166.057L64.8208 146.628L69.5067 146.833C69.1036 146.557 68.6954 146.288 68.2924 146.011L63.7064 145.811C63.541 145.804 63.3907 145.903 63.3311 146.057C63.2723 146.211 63.3176 146.386 63.4453 146.491L88.067 166.756C88.1359 166.813 88.2224 166.843 88.3114 166.843C88.3282 166.843 88.345 166.842 88.3617 166.84L116.408 163.157C116.565 163.136 116.694 163.021 116.731 162.868C116.767 162.713 116.707 162.552 116.577 162.461Z" fill="black"/>
<path d="M91.2757 164.86C91.19 164.86 91.1052 164.831 91.0372 164.777L66.329 145.194C66.2047 145.095 66.1535 144.929 66.2013 144.778C66.2492 144.626 66.3852 144.52 66.5439 144.51L96.6552 142.609C96.7349 142.604 96.813 142.623 96.8802 142.665L123.845 159.212C123.982 159.296 124.052 159.457 124.02 159.616C123.988 159.773 123.861 159.894 123.702 159.919L91.3353 164.856C91.3143 164.859 91.295 164.86 91.2757 164.86ZM67.5903 145.213L91.384 164.071L122.548 159.317L96.5821 143.383L67.5903 145.213Z" fill="black"/>
<path d="M71.917 139.617C71.7415 139.617 71.5828 139.496 71.5425 139.317C71.5231 139.231 71.073 137.156 71.749 134.454C72.1328 132.921 72.5309 132.219 72.8172 131.849C70.544 131.447 61.5678 130.28 54.8237 129.404C49.3804 128.696 44.6786 128.085 43.8909 127.935C43.3895 127.839 42.9352 127.77 42.4541 127.697C41.0046 127.477 39.2008 127.204 34.5133 126.009C30.6479 125.025 24.0239 125.48 23.9575 125.484C23.7451 125.502 23.562 125.34 23.5469 125.129C23.5318 124.917 23.6913 124.733 23.9029 124.718C24.1792 124.699 30.7159 124.248 34.7031 125.265C39.3545 126.449 41.1373 126.72 42.5699 126.938C43.0587 127.011 43.5197 127.082 44.0353 127.18C44.8012 127.326 49.4921 127.936 54.9236 128.642C73.5646 131.064 73.6242 131.145 73.8022 131.386C73.8644 131.469 73.8913 131.58 73.8736 131.683C73.8409 131.873 73.725 131.992 73.6217 132.097C73.4076 132.316 72.9625 132.773 72.4956 134.639C71.8666 137.155 72.289 139.129 72.2932 139.148C72.3394 139.356 72.2084 139.561 72.0018 139.607C71.9724 139.613 71.9447 139.617 71.917 139.617Z" fill="black"/>
<path d="M128.433 151.758C128.38 151.758 128.326 151.747 128.275 151.724L105.087 141.215C104.797 141.084 104.641 140.781 104.697 140.461C104.752 140.148 104.998 139.922 105.307 139.899L131.996 137.937C132.21 137.92 132.391 138.081 132.407 138.292C132.422 138.504 132.264 138.688 132.052 138.704L105.682 140.642L128.592 151.024C128.785 151.112 128.871 151.34 128.784 151.532C128.718 151.674 128.579 151.758 128.433 151.758Z" fill="black"/>
<path d="M128.837 152.857C128.785 152.857 128.733 152.846 128.682 152.824C128.623 152.798 122.693 150.17 116.837 147.542C113.398 145.998 110.656 144.756 108.688 143.851C104.775 142.049 104.773 142.024 104.756 141.724L104.703 140.816C104.69 140.605 104.852 140.423 105.064 140.411C105.276 140.397 105.458 140.56 105.47 140.772L105.511 141.489C107.026 142.327 120.19 148.221 128.992 152.122C129.186 152.209 129.273 152.435 129.188 152.629C129.126 152.772 128.985 152.857 128.837 152.857Z" fill="black"/>
<path d="M164.958 136.552C164.644 136.552 164.338 136.498 164.044 136.391C162.118 135.688 161.317 132.813 162.26 129.984C162.826 128.282 163.921 126.901 165.189 126.29C165.974 125.912 166.769 125.851 167.49 126.114C169.416 126.818 170.216 129.692 169.274 132.521C168.707 134.223 167.612 135.604 166.344 136.216C165.881 136.439 165.412 136.552 164.958 136.552ZM166.578 126.722C166.237 126.722 165.881 126.808 165.524 126.981C164.44 127.505 163.491 128.718 162.989 130.226C162.177 132.666 162.768 135.108 164.309 135.67C164.83 135.86 165.419 135.81 166.011 135.524C167.096 135.001 168.044 133.787 168.546 132.279C169.358 129.839 168.766 127.398 167.227 126.835C167.02 126.76 166.803 126.722 166.578 126.722Z" fill="black"/>
<path d="M129.427 153.06C129.033 153.06 128.659 152.888 128.391 152.58C128.087 152.231 127.963 151.746 128.058 151.286L138.162 114.55C138.364 113.565 139.194 112.817 140.174 112.756L195.497 110.353C196.139 110.316 196.759 110.578 197.197 111.081C197.664 111.618 197.855 112.363 197.709 113.074C197.707 113.084 197.705 113.093 197.702 113.102L187.915 147.051C187.649 148.312 186.61 149.245 185.384 149.322L129.515 153.057C129.484 153.059 129.456 153.06 129.427 153.06ZM195.618 111.118C195.591 111.118 195.565 111.119 195.538 111.121L140.216 113.524C139.587 113.563 139.048 114.059 138.91 114.729L128.804 151.465C128.763 151.668 128.823 151.906 128.971 152.076C129.047 152.164 129.21 152.305 129.464 152.291L185.333 148.557C186.22 148.501 186.973 147.812 187.165 146.881C187.167 146.871 187.169 146.862 187.172 146.853L196.959 112.906C197.052 112.433 196.925 111.941 196.616 111.586C196.356 111.286 195.996 111.118 195.618 111.118Z" fill="black"/>
<path d="M67.348 156.226C67.2498 156.226 67.1515 156.188 67.0768 156.114L62.7461 151.787C62.7168 151.757 62.6932 151.724 62.6748 151.687L61.8291 150.007C61.7544 149.859 61.7838 149.68 61.9005 149.563C62.0172 149.446 62.1969 149.416 62.3447 149.492L64.0268 150.336C64.0637 150.355 64.0973 150.379 64.1259 150.407L68.4565 154.735C68.5287 154.807 68.569 154.904 68.569 155.006C68.569 155.107 68.5287 155.205 68.4565 155.277L67.6201 156.113C67.5445 156.188 67.4463 156.226 67.348 156.226ZM63.3331 151.287L67.348 155.299L67.6411 155.006L63.6262 150.994L63.0367 150.699L63.3331 151.287Z" fill="black"/>
<path d="M78.9652 167.939C78.6259 167.939 78.306 167.807 78.0658 167.567L66.8391 156.349C66.7669 156.276 66.7266 156.179 66.7266 156.077C66.7266 155.975 66.7669 155.877 66.8391 155.806L68.0937 154.551C68.244 154.4 68.4867 154.4 68.637 154.551L79.8637 165.769C80.3592 166.264 80.3592 167.07 79.8637 167.566C79.6244 167.807 79.3053 167.939 78.9652 167.939C78.9661 167.939 78.9661 167.939 78.9652 167.939ZM67.6545 156.078L78.61 167.023C78.7998 167.213 79.1315 167.213 79.3213 167.023C79.5178 166.827 79.5178 166.508 79.3213 166.312L68.3666 155.367L67.6545 156.078Z" fill="black"/>
<path d="M79.347 165.789C79.132 165.787 78.9615 165.613 78.9624 165.402C78.9632 165.303 79.0018 165.212 79.064 165.145C79.0296 165.03 78.9279 164.785 78.629 164.328C78.2461 163.744 77.0872 162.887 75.9661 162.058C74.709 161.127 73.5224 160.249 73.027 159.512C72.3543 158.511 72.1603 157.713 72.4811 157.265C72.644 157.038 72.9245 156.946 73.2142 157.024C73.4191 157.079 73.5401 157.29 73.4846 157.495C73.4376 157.671 73.2755 157.789 73.1 157.778C73.0983 157.946 73.1857 158.371 73.6652 159.085C74.0859 159.712 75.2742 160.591 76.4238 161.441C77.6532 162.351 78.8146 163.21 79.2731 163.908C79.8047 164.72 79.9566 165.204 79.7811 165.527C79.6736 165.72 79.4813 165.789 79.347 165.789Z" fill="black"/>
<path d="M62.1717 150.219C62.0735 150.219 61.9752 150.181 61.9005 150.106L61.7065 149.912C61.5562 149.763 61.5562 149.519 61.7065 149.369C61.8568 149.219 62.0995 149.219 62.2498 149.369L62.4438 149.563C62.5941 149.713 62.5941 149.956 62.4438 150.106C62.3682 150.181 62.27 150.219 62.1717 150.219Z" fill="black"/>
</svg>
