<svg width="257" height="65" viewBox="0 0 257 65" fill="none" xmlns="http://www.w3.org/2000/svg">
<g clip-path="url(#clip0_502_2257)">
<path d="M89 38.4971V18.5029H89.4453L103.054 33.8078V18.5029H105.071V38.4971H104.612L91.115 23.3825V38.4971H89Z" fill="#056BF1"/>
<path d="M122.506 33.5903L124.148 34.433C123.61 35.466 122.989 36.2997 122.284 36.934C121.579 37.5683 120.786 38.0531 119.904 38.3883C119.023 38.7146 118.026 38.8777 116.913 38.8777C114.445 38.8777 112.516 38.0893 111.124 36.5126C109.733 34.9269 109.037 33.1372 109.037 31.1437C109.037 29.268 109.626 27.5961 110.804 26.1282C112.298 24.2615 114.297 23.3282 116.801 23.3282C119.38 23.3282 121.44 24.2841 122.98 26.1961C124.074 27.5463 124.631 29.2317 124.649 31.2524H111.041C111.078 32.9741 111.639 34.3877 112.724 35.4932C113.81 36.5896 115.15 37.1379 116.746 37.1379C117.516 37.1379 118.263 37.0065 118.986 36.7437C119.719 36.4809 120.34 36.132 120.851 35.6971C121.361 35.2621 121.913 34.5599 122.506 33.5903ZM122.506 29.6078C122.247 28.5929 121.866 27.7819 121.365 27.1748C120.874 26.5676 120.22 26.0783 119.404 25.7068C118.587 25.3353 117.729 25.1495 116.829 25.1495C115.345 25.1495 114.07 25.6162 113.003 26.5495C112.224 27.2291 111.635 28.2485 111.236 29.6078H122.506Z" fill="#056BF1"/>
<path d="M128.045 23.7087H130.006V30.6136C130.006 32.299 130.099 33.4589 130.285 34.0932C130.563 34.9994 131.092 35.7152 131.871 36.2408C132.66 36.7663 133.596 37.0291 134.682 37.0291C135.767 37.0291 136.686 36.7754 137.437 36.268C138.198 35.7515 138.722 35.0764 139.009 34.2427C139.204 33.6718 139.301 32.4621 139.301 30.6136V23.7087H141.291V30.967C141.291 33.0058 141.045 34.5417 140.554 35.5748C140.071 36.6078 139.339 37.4188 138.355 38.0078C137.381 38.5877 136.157 38.8777 134.682 38.8777C133.207 38.8777 131.973 38.5877 130.981 38.0078C129.997 37.4188 129.26 36.6032 128.768 35.5612C128.286 34.51 128.045 32.9333 128.045 30.8311V23.7087Z" fill="#056BF1"/>
<path d="M144.895 23.7087H146.885V25.8699C147.479 25.0181 148.105 24.3838 148.763 23.967C149.422 23.5411 150.109 23.3282 150.823 23.3282C151.361 23.3282 151.936 23.4958 152.548 23.8311L151.532 25.435C151.124 25.2628 150.781 25.1767 150.503 25.1767C149.853 25.1767 149.227 25.4395 148.624 25.965C148.021 26.4816 147.562 27.288 147.247 28.3845C147.006 29.2272 146.885 30.9307 146.885 33.4951V38.4971H144.895V23.7087Z" fill="#056BF1"/>
<path d="M161.37 23.3282C163.699 23.3282 165.628 24.1528 167.159 25.8019C168.55 27.3061 169.246 29.0867 169.246 31.1437C169.246 33.2097 168.508 35.0175 167.033 36.567C165.568 38.1074 163.68 38.8777 161.37 38.8777C159.051 38.8777 157.154 38.1074 155.679 36.567C154.213 35.0175 153.481 33.2097 153.481 31.1437C153.481 29.0958 154.176 27.3197 155.568 25.8155C157.098 24.1573 159.032 23.3282 161.37 23.3282ZM161.37 25.1903C159.756 25.1903 158.369 25.7748 157.21 26.9437C156.05 28.1126 155.47 29.5262 155.47 31.1845C155.47 32.2537 155.735 33.2505 156.263 34.1748C156.792 35.099 157.506 35.8149 158.406 36.3223C159.306 36.8207 160.294 37.0699 161.37 37.0699C162.446 37.0699 163.434 36.8207 164.334 36.3223C165.234 35.8149 165.948 35.099 166.477 34.1748C167.006 33.2505 167.27 32.2537 167.27 31.1845C167.27 29.5262 166.686 28.1126 165.517 26.9437C164.357 25.7748 162.975 25.1903 161.37 25.1903Z" fill="#056BF1"/>
<path d="M192.261 22.2136L190.647 23.4233C189.756 22.2906 188.685 21.4343 187.432 20.8544C186.189 20.2654 184.821 19.9709 183.327 19.9709C181.695 19.9709 180.183 20.356 178.791 21.1262C177.4 21.8874 176.319 22.9159 175.549 24.2117C174.788 25.4984 174.408 26.9482 174.408 28.5612C174.408 30.9987 175.262 33.033 176.968 34.6641C178.685 36.2951 180.846 37.1107 183.453 37.1107C186.319 37.1107 188.717 36.0142 190.647 33.8214L192.261 35.0175C191.24 36.2861 189.965 37.2693 188.434 37.967C186.913 38.6557 185.211 39 183.327 39C179.747 39 176.922 37.8356 174.853 35.5068C173.119 33.5405 172.251 31.1663 172.251 28.3845C172.251 25.4576 173.3 22.9974 175.396 21.0039C177.502 19.0013 180.136 18 183.3 18C185.211 18 186.936 18.3715 188.476 19.1146C190.016 19.8485 191.277 20.8816 192.261 22.2136Z" fill="#056BF1"/>
<path d="M211.143 23.7087V38.4971H209.223V35.9553C208.406 36.9249 207.488 37.6544 206.468 38.1437C205.456 38.633 204.348 38.8777 203.142 38.8777C200.999 38.8777 199.167 38.121 197.646 36.6078C196.134 35.0854 195.378 33.2369 195.378 31.0621C195.378 28.9327 196.143 27.1113 197.673 25.5981C199.204 24.0848 201.045 23.3282 203.198 23.3282C204.441 23.3282 205.563 23.5864 206.565 24.1029C207.576 24.6194 208.462 25.3942 209.223 26.4272V23.7087H211.143ZM203.351 25.1631C202.265 25.1631 201.263 25.4259 200.345 25.9515C199.427 26.468 198.694 27.1974 198.147 28.1398C197.609 29.0822 197.34 30.079 197.34 31.1301C197.34 32.1722 197.613 33.1689 198.16 34.1204C198.708 35.0718 199.441 35.8149 200.359 36.3495C201.287 36.8751 202.279 37.1379 203.337 37.1379C204.404 37.1379 205.415 36.8751 206.37 36.3495C207.326 35.8239 208.058 35.1126 208.569 34.2155C209.088 33.3184 209.348 32.3081 209.348 31.1845C209.348 29.4718 208.768 28.0401 207.609 26.8893C206.458 25.7385 205.039 25.1631 203.351 25.1631Z" fill="#056BF1"/>
<path d="M214.802 23.7087H216.792V25.8699C217.386 25.0181 218.012 24.3838 218.671 23.967C219.329 23.5411 220.016 23.3282 220.73 23.3282C221.268 23.3282 221.843 23.4958 222.455 23.8311L221.44 25.435C221.032 25.2628 220.688 25.1767 220.41 25.1767C219.761 25.1767 219.135 25.4395 218.532 25.965C217.929 26.4816 217.469 27.288 217.154 28.3845C216.913 29.2272 216.792 30.9307 216.792 33.4951V38.4971H214.802V23.7087Z" fill="#056BF1"/>
<path d="M236.857 33.5903L238.499 34.433C237.961 35.466 237.34 36.2997 236.635 36.934C235.929 37.5683 235.136 38.0531 234.255 38.3883C233.374 38.7146 232.377 38.8777 231.263 38.8777C228.796 38.8777 226.866 38.0893 225.475 36.5126C224.083 34.9269 223.388 33.1372 223.388 31.1437C223.388 29.268 223.977 27.5961 225.155 26.1282C226.648 24.2615 228.647 23.3282 231.152 23.3282C233.731 23.3282 235.79 24.2841 237.33 26.1961C238.425 27.5463 238.981 29.2317 239 31.2524H225.391C225.429 32.9741 225.99 34.3877 227.075 35.4932C228.16 36.5896 229.501 37.1379 231.096 37.1379C231.866 37.1379 232.613 37.0065 233.337 36.7437C234.07 36.4809 234.691 36.132 235.201 35.6971C235.712 35.2621 236.263 34.5599 236.857 33.5903ZM236.857 29.6078C236.597 28.5929 236.217 27.7819 235.716 27.1748C235.224 26.5676 234.57 26.0783 233.754 25.7068C232.938 25.3353 232.08 25.1495 231.18 25.1495C229.696 25.1495 228.42 25.6162 227.353 26.5495C226.574 27.2291 225.985 28.2485 225.586 29.6078H236.857Z" fill="#056BF1"/>
<path d="M32.3801 19.7C31.0101 18.88 29.4801 18.68 27.8301 19.12C26.5801 19.45 25.6101 20.1 24.9401 21.06C24.7101 21.39 24.5201 21.74 24.3301 22.09C23.6501 21.58 22.9601 21.25 22.2501 21.08C19.7501 20.48 16.9701 21.82 15.7901 24.18C14.8301 26.11 14.8701 28.17 15.9101 30.3C16.7201 31.96 18.0401 33.38 19.9301 34.64C22.0801 36.07 24.5901 37.14 27.6101 37.91C27.7801 37.95 27.9401 37.96 28.0801 37.94C28.3401 37.9 28.5401 37.77 28.6801 37.65C31.3701 35.22 33.1801 32.92 34.3801 30.4C35.4201 28.23 35.7601 26.24 35.4301 24.29C35.1101 22.26 34.0701 20.71 32.3801 19.7ZM27.7301 36.02C24.9801 35.28 22.8401 34.36 21.0101 33.14C19.4201 32.08 18.3701 30.99 17.6801 29.7C16.9401 28.32 16.7701 27.03 17.1301 25.76C17.5301 24.38 18.4001 23.47 19.7901 22.99C20.0801 22.89 20.3601 22.82 20.6301 22.79C21.2601 22.7 21.8401 22.78 22.4001 23.02C22.9101 23.24 23.3901 23.58 23.9101 24.09C24.0501 24.22 24.4101 24.58 24.9101 24.46C25.4001 24.34 25.5701 23.86 25.6301 23.68C25.8701 22.98 26.1301 22.46 26.4601 22.04C27.0501 21.29 27.8901 20.87 29.0101 20.75C31.2001 20.52 33.0101 21.95 33.6301 24.4C33.9101 25.62 33.7501 27.08 33.1801 28.62C32.5501 30.3 31.6001 31.86 30.2601 33.39C29.6501 34.09 28.9801 34.76 28.3201 35.41C28.1201 35.62 27.9201 35.82 27.7301 36.02Z" fill="#F14942"/>
<path d="M75.3 34.79L74.69 34.84C74.69 35.27 74.67 35.69 74.62 36.11C74.57 36.53 74.49 36.94 74.39 37.35C74.18 38.16 73.86 38.93 73.45 39.64C73.04 40.35 72.54 41.01 71.96 41.57C71.68 41.85 71.35 42.12 71.04 42.34L70.81 42.51L70.53 42.68L70.27 42.84L70 42.98C69.65 43.17 69.28 43.33 68.9 43.46C68.53 43.6 68.15 43.71 67.76 43.78C66.99 43.94 66.19 43.99 65.41 43.93C64.63 43.87 63.85 43.71 63.12 43.44C62.75 43.31 62.4 43.15 62.05 42.97C61.71 42.79 61.38 42.58 61.06 42.36L59.6 41.35L59.35 43.14C59.29 43.59 59.17 44.11 59.03 44.59C58.9 45.08 58.72 45.56 58.54 46.03C58.35 46.5 58.13 46.96 57.89 47.4C57.64 47.84 57.38 48.27 57.08 48.67C56.94 48.88 56.78 49.07 56.62 49.26C56.46 49.45 56.31 49.65 56.13 49.82C55.95 50 55.79 50.18 55.61 50.35L55.05 50.84C54.86 51.01 54.67 51.12 54.48 51.26C54.3 51.4 54.11 51.54 53.85 51.67L53.13 52.08L52.5 52.37C52.04 52.56 51.57 52.73 51.09 52.86C50.61 52.99 50.12 53.1 49.63 53.16C49.14 53.23 48.64 53.27 48.14 53.27C47.89 53.28 47.64 53.26 47.39 53.25C47.14 53.24 46.89 53.22 46.64 53.18C46.39 53.15 46.14 53.12 45.9 53.06C45.65 53.01 45.41 52.97 45.17 52.89C44.68 52.77 44.21 52.6 43.74 52.42C43.27 52.23 42.82 52.01 42.38 51.77C41.94 51.52 41.52 51.24 41.11 50.95L40.27 50.35L39.59 51.14C38.96 51.87 38.38 52.65 37.7 53.33C37.37 53.68 37.05 54.04 36.7 54.38L35.66 55.38C35.32 55.72 34.93 56.01 34.57 56.33C34.21 56.64 33.84 56.96 33.45 57.23C33.06 57.51 32.69 57.81 32.29 58.09L31.09 58.88C30.27 59.37 29.45 59.86 28.58 60.25C28.15 60.46 27.73 60.67 27.28 60.83C26.84 60.99 26.41 61.2 25.95 61.33C25.5 61.46 25.05 61.62 24.6 61.73L23.23 62.03L21.84 62.21L20.45 62.27C19.99 62.26 19.53 62.21 19.07 62.19C18.63 62.14 18.21 62.04 17.77 61.98C17.31 61.87 16.82 61.71 16.35 61.57L16.31 61.56L16.23 61.53L16.06 61.47L15.73 61.34C15.51 61.25 15.3 61.16 15.08 61.07C13.36 60.33 11.76 59.29 10.46 57.98C9.83003 57.37 9.30003 56.66 8.84003 55.94C8.12003 54.55 7.64003 53.01 7.38003 51.44C6.95003 48.79 6.98003 45.94 7.43003 43.31L7.55003 42.63L6.98003 42.3C5.72003 41.57 4.49003 40.53 3.53003 39.38C3.24003 39.04 2.99003 38.68 2.75003 38.31C2.69003 38.14 2.62003 37.96 2.57003 37.79C2.49003 37.5 2.41003 37.21 2.35003 36.93C2.27003 36.65 2.24003 36.35 2.19003 36.07C2.15003 35.79 2.10003 35.5 2.10003 35.22C2.08003 34.94 2.10003 34.65 2.10003 34.37C2.10003 34.09 2.15003 33.81 2.17003 33.53C2.23003 33.26 2.27003 32.96 2.33003 32.73L2.45003 32.26L2.58003 31.89C2.67003 31.64 2.78003 31.37 2.90003 31.13C3.02003 30.88 3.16003 30.63 3.31003 30.4C3.91003 29.45 4.73003 28.61 5.65003 27.99L6.35003 27.51L6.09003 26.67C5.98003 26.31 5.88003 25.85 5.82003 25.42C5.75003 24.98 5.71003 24.54 5.69003 24.1C5.68003 23.66 5.69003 23.22 5.71003 22.78C5.75003 22.34 5.81003 21.91 5.90003 21.48C6.00003 21.06 6.10003 20.63 6.26003 20.24C6.39003 19.83 6.60003 19.45 6.77003 19.06C7.00003 18.7 7.19003 18.31 7.47003 17.98L7.66003 17.72L7.76003 17.59L7.77003 17.58L7.83003 17.51L8.33003 16.97C8.66003 16.69 8.90003 16.45 9.28003 16.19C9.62003 15.92 10.01 15.69 10.39 15.45C10.79 15.23 11.17 15 11.59 14.81C12 14.61 12.42 14.43 12.85 14.25C13.71 13.91 14.59 13.61 15.49 13.35C16.68 12.94 18.93 12.86 18.93 12.86C18.93 12.86 19.51 11.36 20.23 10.41C20.63 9.86998 21.04 9.33998 21.49 8.83998C21.71 8.58998 21.94 8.33998 22.17 8.09998C22.4 7.85998 22.64 7.61998 22.89 7.39998C23.37 6.93998 23.9 6.52998 24.43 6.11998C24.97 5.72998 25.52 5.34998 26.1 5.02998C26.38 4.84998 26.67 4.69998 26.97 4.55998C27.27 4.41998 27.56 4.25998 27.87 4.12998C28.49 3.89998 29.1 3.62998 29.74 3.47998C30.06 3.39998 30.37 3.27998 30.7 3.21998L31.68 3.03998L31.92 2.99998L32.04 2.97998H32.05L32.11 2.96998L32.65 2.91998C33 2.88998 33.38 2.83998 33.71 2.82998C34.34 2.83998 34.96 2.79998 35.63 2.87998C36.29 2.90998 36.94 3.03998 37.59 3.13998C38.23 3.29998 38.88 3.43998 39.51 3.65998C39.83 3.74998 40.14 3.86998 40.45 3.99998C40.76 4.11998 41.07 4.23998 41.37 4.38998C41.98 4.65998 42.57 4.96998 43.15 5.30998C44.3 5.97998 45.42 6.77998 46.35 7.64998L47.21 8.45998L48.15 7.77998C48.32 7.64998 48.6 7.48998 48.85 7.35998C49.11 7.22998 49.37 7.09998 49.65 6.98998C49.92 6.87998 50.2 6.77998 50.48 6.70998C50.76 6.61998 51.04 6.56998 51.32 6.51998C51.6 6.47998 51.89 6.43998 52.17 6.42998C52.45 6.39998 52.73 6.43998 53.02 6.43998C53.3 6.47998 53.58 6.48998 53.85 6.56998C54.13 6.61998 54.4 6.69998 54.66 6.79998L54.86 6.86998L54.92 6.88998L55.04 6.93998L55.51 7.14998C55.73 7.28998 55.94 7.36998 56.18 7.54998C56.42 7.69998 56.64 7.87998 56.86 8.05998C57.07 8.24998 57.28 8.43998 57.47 8.65998C57.67 8.86998 57.85 9.09998 58.02 9.32998C58.19 9.55998 58.35 9.80998 58.5 10.07C58.64 10.33 58.78 10.59 58.9 10.86C59.02 11.12 59.12 11.41 59.19 11.65L59.57 12.91L60.73 12.59C61.07 12.5 61.47 12.42 61.86 12.37C62.25 12.32 62.65 12.29 63.06 12.28C63.46 12.27 63.86 12.28 64.26 12.32C64.66 12.35 65.06 12.4 65.45 12.49C65.85 12.56 66.23 12.68 66.62 12.79C66.99 12.93 67.38 13.05 67.74 13.24C68.11 13.4 68.46 13.61 68.81 13.82C69.14 14.04 69.51 14.29 69.78 14.52C70.11 14.81 70.47 15.1 70.71 15.39C70.99 15.66 71.24 15.99 71.5 16.32C71.74 16.66 71.98 17 72.18 17.37C72.39 17.73 72.57 18.11 72.74 18.5C72.9 18.89 73.05 19.29 73.16 19.7C73.29 20.11 73.38 20.52 73.46 20.94C73.61 21.78 73.69 22.65 73.65 23.49L74.26 23.56C74.33 23.1 74.35 22.65 74.36 22.19C74.37 21.73 74.35 21.28 74.31 20.82C74.27 20.37 74.21 19.91 74.12 19.46C74.04 19.01 73.91 18.56 73.78 18.12C73.64 17.68 73.48 17.24 73.28 16.82C73.1 16.39 72.86 15.98 72.63 15.57C72.38 15.17 72.13 14.78 71.81 14.4C71.5 13.99 71.2 13.69 70.89 13.37C70.52 13 70.18 12.72 69.8 12.41C69.41 12.13 69.03 11.84 68.61 11.61C68.2 11.35 67.76 11.16 67.33 10.95C66.88 10.77 66.43 10.59 65.97 10.46C65.51 10.32 65.04 10.21 64.56 10.13C64.08 10.04 63.6 9.97998 63.12 9.94998C62.64 9.91998 62.15 9.89998 61.67 9.91998C61.56 9.91998 61.46 9.92998 61.35 9.93998C61.34 9.90998 61.33 9.88998 61.32 9.85998C61.17 9.49998 61 9.14998 60.82 8.80998C60.63 8.46998 60.43 8.13998 60.21 7.81998C59.99 7.49998 59.75 7.18998 59.49 6.89998C59.24 6.59998 58.95 6.32998 58.66 6.05998C58.36 5.79998 58.05 5.54998 57.72 5.32998C57.41 5.09998 57 4.88998 56.64 4.68998L56.17 4.47998L55.88 4.34998L55.6 4.24998C55.23 4.10998 54.85 3.99998 54.45 3.91998C54.06 3.80998 53.66 3.77998 53.27 3.72998C52.87 3.70998 52.47 3.66998 52.08 3.69998C51.68 3.70998 51.29 3.75998 50.9 3.80998C50.51 3.87998 50.13 3.94998 49.75 4.05998C49.37 4.15998 49 4.27998 48.64 4.42998C48.28 4.56998 47.92 4.72998 47.58 4.90998C47.56 4.91998 47.54 4.92998 47.52 4.93998C47.2 4.66998 46.87 4.40998 46.54 4.15998C45.92 3.69998 45.28 3.27998 44.62 2.88998C43.96 2.49998 43.28 2.14998 42.57 1.82998C42.22 1.65998 41.86 1.51998 41.5 1.38998C41.14 1.24998 40.78 1.10998 40.41 0.99998C39.68 0.74998 38.92 0.57998 38.17 0.39998C37.4 0.27998 36.64 0.12998 35.87 0.0999805C35.11 0.00998047 34.29 0.0499805 33.49 0.0599805C33.11 0.0799805 32.77 0.11998 32.4 0.14998L31.86 0.19998L31.79 0.20998H31.76L31.68 0.21998H31.66L31.52 0.24998L31.23 0.29998L30.09 0.51998C29.71 0.58998 29.34 0.71998 28.97 0.81998C28.22 1.00998 27.5 1.31998 26.78 1.59998C26.42 1.74998 26.08 1.92998 25.73 2.09998C25.38 2.25998 25.04 2.44998 24.71 2.64998C24.03 3.02998 23.4 3.46998 22.78 3.91998C22.17 4.38998 21.57 4.86998 21.02 5.39998C20.73 5.64998 20.46 5.92998 20.2 6.20998C19.93 6.47998 19.67 6.75998 19.42 7.05998C18.9 7.58998 18.44 8.19998 18 8.82998C17.69 9.27998 17.41 9.72998 17.13 10.21C17.09 10.22 17.04 10.22 17 10.23C16.74 10.28 16.49 10.34 16.23 10.4C15.73 10.52 15.23 10.66 14.74 10.8C13.76 11.1 12.8 11.44 11.85 11.84C11.38 12.05 10.91 12.25 10.44 12.49C9.97003 12.71 9.52003 12.99 9.07003 13.25C8.62003 13.54 8.18003 13.82 7.75003 14.16C7.33003 14.45 6.87003 14.9 6.47003 15.27L5.98003 15.81L5.92003 15.88L5.90003 15.92L5.84003 15.99L5.82003 16.01L5.70003 16.18L5.46003 16.51C5.12003 16.94 4.87003 17.43 4.59003 17.9C4.36003 18.4 4.12003 18.89 3.96003 19.41C3.77003 19.92 3.65003 20.46 3.54003 20.99C3.44003 21.52 3.37003 22.06 3.33003 22.6C3.30003 23.14 3.30003 23.67 3.33003 24.21C3.37003 24.74 3.42003 25.27 3.51003 25.8C3.56003 26.07 3.61003 26.34 3.67003 26.61C2.77003 27.36 2.01003 28.23 1.40003 29.22C1.21003 29.53 1.04003 29.85 0.89003 30.18C0.73003 30.51 0.61003 30.84 0.48003 31.2L0.31003 31.75L0.20003 32.2C0.11003 32.59 0.0900297 32.93 0.0300297 33.29C0.0200297 33.65 -0.0199703 34.01 2.96831e-05 34.37C0.0100297 34.73 0.0500297 35.09 0.12003 35.44C0.17003 35.8 0.27003 36.14 0.35003 36.48C0.42003 36.67 0.49003 36.87 0.56003 37.06C0.89003 38.27 1.48003 39.41 2.20003 40.4C3.12003 41.63 4.20003 42.64 5.46003 43.53C5.23003 44.81 5.13003 46.06 5.09003 47.34C5.06003 48.82 5.13003 50.31 5.41003 51.78C5.67003 53.25 6.10003 54.71 6.75003 56.09C7.40003 57.47 8.32003 58.74 9.43003 59.8C10.03 60.38 10.69 60.86 11.39 61.28C12.29 61.92 13.24 62.47 14.23 62.93C14.47 63.04 14.71 63.14 14.95 63.24L15.32 63.38L15.5 63.45L15.59 63.48L15.74 63.53C16.22 63.67 16.68 63.83 17.18 63.96C17.72 64.06 18.28 64.18 18.82 64.25C19.35 64.29 19.88 64.34 20.41 64.36C20.94 64.34 21.47 64.34 22 64.31L23.57 64.12L25.11 63.79C25.62 63.66 26.11 63.5 26.61 63.35C27.11 63.21 27.58 62.99 28.07 62.81C28.56 62.63 29.03 62.41 29.49 62.18C30.44 61.76 31.32 61.22 32.21 60.7L33.5 59.86C33.92 59.57 34.33 59.25 34.74 58.95C35.16 58.65 35.55 58.32 35.94 57.99C36.33 57.65 36.74 57.34 37.1 56.98L38.21 55.92C38.58 55.56 38.92 55.18 39.27 54.81C39.75 54.33 40.18 53.81 40.61 53.28C40.82 53.42 41.03 53.55 41.24 53.68C41.76 53.98 42.29 54.25 42.85 54.48C43.4 54.71 43.97 54.91 44.55 55.07C44.84 55.16 45.13 55.22 45.42 55.28C45.71 55.35 46.01 55.4 46.31 55.43C46.61 55.48 46.9 55.51 47.21 55.53C47.51 55.55 47.81 55.57 48.11 55.57C48.71 55.58 49.31 55.54 49.91 55.46C51.11 55.31 52.28 55 53.4 54.53L53.81 54.34L54.02 54.25L54.12 54.2L54.17 54.18L54.27 54.13L54.99 53.72C55.22 53.6 55.48 53.42 55.75 53.23C56 53.04 56.29 52.87 56.51 52.67L57.2 52.07C57.42 51.87 57.62 51.64 57.84 51.42C58.06 51.21 58.24 50.97 58.43 50.74C58.62 50.51 58.81 50.27 58.97 50.02C59.32 49.53 59.62 49.01 59.9 48.48C60.17 47.95 60.42 47.41 60.63 46.85C60.84 46.29 61.02 45.73 61.17 45.16C61.19 45.08 61.2 45.01 61.22 44.93C61.62 45.11 62.02 45.28 62.44 45.41C63.37 45.7 64.34 45.87 65.31 45.89C66.28 45.91 67.25 45.79 68.18 45.54C68.64 45.42 69.1 45.26 69.54 45.06C69.98 44.87 70.41 44.64 70.81 44.38L71.11 44.19L71.4 43.98C71.57 43.86 71.76 43.71 71.95 43.54C72.34 43.22 72.66 42.89 72.97 42.53C73.59 41.82 74.11 41.02 74.51 40.17C74.89 39.32 75.16 38.42 75.29 37.5C75.35 37.04 75.39 36.58 75.39 36.13C75.4 35.7 75.36 35.24 75.3 34.79Z" fill="#056BF1"/>
<path d="M213.24 49.97C213.49 49.97 213.7 50.06 213.88 50.23C214.06 50.41 214.14 50.62 214.14 50.87C214.14 51.12 214.05 51.33 213.88 51.51C213.7 51.69 213.49 51.78 213.24 51.78C212.99 51.78 212.78 51.69 212.6 51.51C212.42 51.33 212.34 51.12 212.34 50.87C212.34 50.62 212.43 50.4 212.6 50.23C212.77 50.06 212.99 49.97 213.24 49.97Z" fill="#F14942"/>
<path d="M216.28 43.6199H217.31V45.0799C217.72 44.5199 218.18 44.1099 218.71 43.8299C219.24 43.5499 219.82 43.4099 220.47 43.4099C221.6 43.4099 222.57 43.8199 223.37 44.6299C224.17 45.4499 224.58 46.4299 224.58 47.5699C224.58 48.7399 224.18 49.7399 223.38 50.5499C222.58 51.3699 221.62 51.7799 220.49 51.7799C219.86 51.7799 219.27 51.6499 218.74 51.3799C218.21 51.1199 217.73 50.7199 217.3 50.1999V54.4799H216.27V43.6199H216.28ZM220.38 44.3999C219.49 44.3999 218.75 44.7099 218.14 45.3299C217.53 45.9499 217.23 46.7199 217.23 47.6399C217.23 48.2499 217.36 48.7899 217.64 49.2699C217.91 49.7499 218.3 50.1399 218.8 50.4199C219.3 50.6999 219.84 50.8399 220.4 50.8399C220.95 50.8399 221.47 50.6999 221.95 50.4099C222.43 50.1199 222.82 49.7299 223.11 49.2099C223.4 48.6999 223.54 48.1599 223.54 47.5999C223.54 47.0299 223.4 46.4999 223.11 45.9899C222.82 45.4799 222.44 45.0899 221.96 44.8099C221.47 44.5399 220.95 44.3999 220.38 44.3999Z" fill="#F14942"/>
<path d="M226.1 43.6199H227.15V44.7799C227.46 44.3199 227.79 43.9799 228.14 43.7499C228.49 43.5199 228.85 43.4099 229.22 43.4099C229.5 43.4099 229.81 43.4999 230.13 43.6799L229.59 44.5399C229.38 44.4499 229.19 44.3999 229.05 44.3999C228.71 44.3999 228.38 44.5399 228.06 44.8199C227.74 45.0999 227.5 45.5399 227.34 46.1299C227.21 46.5799 227.15 47.4999 227.15 48.8799V51.5799H226.1V43.6199Z" fill="#F14942"/>
<path d="M234.78 43.4099C236.01 43.4099 237.03 43.8499 237.83 44.7399C238.56 45.5499 238.93 46.5099 238.93 47.6199C238.93 48.7299 238.54 49.7099 237.77 50.5399C236.99 51.3699 236 51.7899 234.78 51.7899C233.56 51.7899 232.56 51.3699 231.78 50.5399C231 49.7099 230.62 48.7299 230.62 47.6199C230.62 46.5199 230.99 45.5599 231.72 44.7499C232.52 43.8599 233.54 43.4099 234.78 43.4099ZM234.77 44.4099C233.92 44.4099 233.18 44.7199 232.57 45.3499C231.96 45.9799 231.65 46.7399 231.65 47.6399C231.65 48.2199 231.79 48.7499 232.07 49.2499C232.35 49.7499 232.73 50.1299 233.2 50.3999C233.67 50.6699 234.2 50.8099 234.77 50.8099C235.34 50.8099 235.86 50.6699 236.34 50.3999C236.82 50.1299 237.19 49.7399 237.47 49.2499C237.75 48.7499 237.89 48.2099 237.89 47.6399C237.89 46.7499 237.58 45.9799 236.97 45.3499C236.35 44.7299 235.62 44.4099 234.77 44.4099Z" fill="#F14942"/>
</g>
<defs>
<clipPath id="clip0_502_2257">
<rect width="256.93" height="64.38" fill="white"/>
</clipPath>
</defs>
</svg>
